%TF.GenerationSoftware,KiCad,Pcbnew,8.0.3*%
%TF.CreationDate,2024-07-05T15:20:34+05:30*%
%TF.ProjectId,multilayer1,6d756c74-696c-4617-9965-72312e6b6963,rev?*%
%TF.SameCoordinates,Original*%
%TF.FileFunction,Copper,L1,Top*%
%TF.FilePolarity,Positive*%
%FSLAX46Y46*%
G04 Gerber Fmt 4.6, Leading zero omitted, Abs format (unit mm)*
G04 Created by KiCad (PCBNEW 8.0.3) date 2024-07-05 15:20:34*
%MOMM*%
%LPD*%
G01*
G04 APERTURE LIST*
G04 Aperture macros list*
%AMRoundRect*
0 Rectangle with rounded corners*
0 $1 Rounding radius*
0 $2 $3 $4 $5 $6 $7 $8 $9 X,Y pos of 4 corners*
0 Add a 4 corners polygon primitive as box body*
4,1,4,$2,$3,$4,$5,$6,$7,$8,$9,$2,$3,0*
0 Add four circle primitives for the rounded corners*
1,1,$1+$1,$2,$3*
1,1,$1+$1,$4,$5*
1,1,$1+$1,$6,$7*
1,1,$1+$1,$8,$9*
0 Add four rect primitives between the rounded corners*
20,1,$1+$1,$2,$3,$4,$5,0*
20,1,$1+$1,$4,$5,$6,$7,0*
20,1,$1+$1,$6,$7,$8,$9,0*
20,1,$1+$1,$8,$9,$2,$3,0*%
%AMOutline5P*
0 Free polygon, 5 corners , with rotation*
0 The origin of the aperture is its center*
0 number of corners: always 5*
0 $1 to $10 corner X, Y*
0 $11 Rotation angle, in degrees counterclockwise*
0 create outline with 5 corners*
4,1,5,$1,$2,$3,$4,$5,$6,$7,$8,$9,$10,$1,$2,$11*%
%AMOutline6P*
0 Free polygon, 6 corners , with rotation*
0 The origin of the aperture is its center*
0 number of corners: always 6*
0 $1 to $12 corner X, Y*
0 $13 Rotation angle, in degrees counterclockwise*
0 create outline with 6 corners*
4,1,6,$1,$2,$3,$4,$5,$6,$7,$8,$9,$10,$11,$12,$1,$2,$13*%
%AMOutline7P*
0 Free polygon, 7 corners , with rotation*
0 The origin of the aperture is its center*
0 number of corners: always 7*
0 $1 to $14 corner X, Y*
0 $15 Rotation angle, in degrees counterclockwise*
0 create outline with 7 corners*
4,1,7,$1,$2,$3,$4,$5,$6,$7,$8,$9,$10,$11,$12,$13,$14,$1,$2,$15*%
%AMOutline8P*
0 Free polygon, 8 corners , with rotation*
0 The origin of the aperture is its center*
0 number of corners: always 8*
0 $1 to $16 corner X, Y*
0 $17 Rotation angle, in degrees counterclockwise*
0 create outline with 8 corners*
4,1,8,$1,$2,$3,$4,$5,$6,$7,$8,$9,$10,$11,$12,$13,$14,$15,$16,$1,$2,$17*%
G04 Aperture macros list end*
%TA.AperFunction,SMDPad,CuDef*%
%ADD10RoundRect,0.250000X0.412500X0.650000X-0.412500X0.650000X-0.412500X-0.650000X0.412500X-0.650000X0*%
%TD*%
%TA.AperFunction,SMDPad,CuDef*%
%ADD11RoundRect,0.250000X-0.412500X-0.650000X0.412500X-0.650000X0.412500X0.650000X-0.412500X0.650000X0*%
%TD*%
%TA.AperFunction,SMDPad,CuDef*%
%ADD12R,0.250000X0.625000*%
%TD*%
%TA.AperFunction,SMDPad,CuDef*%
%ADD13R,0.450000X0.700000*%
%TD*%
%TA.AperFunction,SMDPad,CuDef*%
%ADD14R,0.450000X0.575000*%
%TD*%
%TA.AperFunction,SMDPad,CuDef*%
%ADD15RoundRect,0.250000X0.262500X0.450000X-0.262500X0.450000X-0.262500X-0.450000X0.262500X-0.450000X0*%
%TD*%
%TA.AperFunction,SMDPad,CuDef*%
%ADD16R,0.800000X0.400000*%
%TD*%
%TA.AperFunction,SMDPad,CuDef*%
%ADD17R,0.400000X0.800000*%
%TD*%
%TA.AperFunction,SMDPad,CuDef*%
%ADD18Outline5P,-0.600000X0.204000X-0.204000X0.600000X0.600000X0.600000X0.600000X-0.600000X-0.600000X-0.600000X0.000000*%
%TD*%
%TA.AperFunction,SMDPad,CuDef*%
%ADD19R,1.200000X1.200000*%
%TD*%
%TA.AperFunction,SMDPad,CuDef*%
%ADD20R,0.800000X0.800000*%
%TD*%
%TA.AperFunction,SMDPad,CuDef*%
%ADD21RoundRect,0.093750X-0.093750X-0.106250X0.093750X-0.106250X0.093750X0.106250X-0.093750X0.106250X0*%
%TD*%
%TA.AperFunction,HeatsinkPad*%
%ADD22R,1.000000X1.600000*%
%TD*%
%TA.AperFunction,SMDPad,CuDef*%
%ADD23RoundRect,0.250000X0.450000X-0.262500X0.450000X0.262500X-0.450000X0.262500X-0.450000X-0.262500X0*%
%TD*%
%TA.AperFunction,SMDPad,CuDef*%
%ADD24RoundRect,0.250000X-0.450000X0.262500X-0.450000X-0.262500X0.450000X-0.262500X0.450000X0.262500X0*%
%TD*%
%TA.AperFunction,ComponentPad*%
%ADD25R,1.508000X1.508000*%
%TD*%
%TA.AperFunction,ComponentPad*%
%ADD26C,1.508000*%
%TD*%
%TA.AperFunction,SMDPad,CuDef*%
%ADD27RoundRect,0.250001X-0.462499X-1.074999X0.462499X-1.074999X0.462499X1.074999X-0.462499X1.074999X0*%
%TD*%
%TA.AperFunction,SMDPad,CuDef*%
%ADD28RoundRect,0.150000X-0.150000X-0.425000X0.150000X-0.425000X0.150000X0.425000X-0.150000X0.425000X0*%
%TD*%
%TA.AperFunction,SMDPad,CuDef*%
%ADD29RoundRect,0.075000X-0.075000X-0.500000X0.075000X-0.500000X0.075000X0.500000X-0.075000X0.500000X0*%
%TD*%
%TA.AperFunction,ComponentPad*%
%ADD30O,1.000000X2.100000*%
%TD*%
%TA.AperFunction,ComponentPad*%
%ADD31O,1.000000X1.800000*%
%TD*%
%TA.AperFunction,SMDPad,CuDef*%
%ADD32R,0.600000X0.400000*%
%TD*%
%TA.AperFunction,SMDPad,CuDef*%
%ADD33R,0.700000X1.600000*%
%TD*%
%TA.AperFunction,SMDPad,CuDef*%
%ADD34RoundRect,0.250000X-0.650000X0.412500X-0.650000X-0.412500X0.650000X-0.412500X0.650000X0.412500X0*%
%TD*%
%TA.AperFunction,SMDPad,CuDef*%
%ADD35RoundRect,0.250000X0.650000X-0.412500X0.650000X0.412500X-0.650000X0.412500X-0.650000X-0.412500X0*%
%TD*%
%TA.AperFunction,SMDPad,CuDef*%
%ADD36R,0.900000X1.500000*%
%TD*%
%TA.AperFunction,SMDPad,CuDef*%
%ADD37RoundRect,0.250000X-0.262500X-0.450000X0.262500X-0.450000X0.262500X0.450000X-0.262500X0.450000X0*%
%TD*%
%TA.AperFunction,ComponentPad*%
%ADD38R,1.700000X1.700000*%
%TD*%
%TA.AperFunction,ComponentPad*%
%ADD39O,1.700000X1.700000*%
%TD*%
%TA.AperFunction,ViaPad*%
%ADD40C,4.000000*%
%TD*%
%TA.AperFunction,ViaPad*%
%ADD41C,0.300000*%
%TD*%
%TA.AperFunction,ViaPad*%
%ADD42C,0.600000*%
%TD*%
%TA.AperFunction,Conductor*%
%ADD43C,0.200000*%
%TD*%
G04 APERTURE END LIST*
D10*
%TO.P,C1,1*%
%TO.N,/GPIO12*%
X161455500Y-102997000D03*
%TO.P,C1,2*%
X158330500Y-102997000D03*
%TD*%
%TO.P,C7,1*%
%TO.N,/GPIO12*%
X161561000Y-99314000D03*
%TO.P,C7,2*%
%TO.N,Net-(D2-K)*%
X158436000Y-99314000D03*
%TD*%
D11*
%TO.P,C6,1*%
%TO.N,/GPIO12*%
X169252500Y-90551000D03*
%TO.P,C6,2*%
X172377500Y-90551000D03*
%TD*%
D12*
%TO.P,U1,1*%
%TO.N,/GPIO12*%
X159861000Y-106299000D03*
%TO.P,U1,2*%
X159361000Y-106299000D03*
D13*
%TO.P,U1,3,VSS*%
X158861000Y-106336500D03*
D12*
%TO.P,U1,4*%
%TO.N,Net-(J2-VBUS-PadA4)*%
X158361000Y-106299000D03*
%TO.P,U1,5*%
%TO.N,unconnected-(U1-Pad5)*%
X157861000Y-106299000D03*
%TO.P,U1,6,NC*%
%TO.N,unconnected-(U1-NC-Pad6)*%
X157861000Y-107074000D03*
%TO.P,U1,7,NC*%
%TO.N,unconnected-(U1-NC-Pad7)*%
X158361000Y-107074000D03*
D14*
%TO.P,U1,8,VSS*%
%TO.N,/GPIO12*%
X158861000Y-107099000D03*
D12*
%TO.P,U1,9,NC*%
X159361000Y-107074000D03*
%TO.P,U1,10,NC*%
%TO.N,unconnected-(U1-NC-Pad10)*%
X159861000Y-107074000D03*
%TD*%
D15*
%TO.P,R3,1*%
%TO.N,/GPIO12*%
X171600500Y-103759000D03*
%TO.P,R3,2*%
%TO.N,/I2C_SDA*%
X169775500Y-103759000D03*
%TD*%
D16*
%TO.P,U3,1,GND*%
%TO.N,/GPIO12*%
X157797000Y-73523000D03*
%TO.P,U3,2,GND*%
X157797000Y-74373000D03*
%TO.P,U3,3,3V3*%
X157797000Y-75223000D03*
%TO.P,U3,4,IO0*%
%TO.N,/GPIO0*%
X157797000Y-76073000D03*
%TO.P,U3,5,IO1*%
%TO.N,/GPIO1*%
X157797000Y-76923000D03*
%TO.P,U3,6,IO2*%
%TO.N,/GPIO2*%
X157797000Y-77773000D03*
%TO.P,U3,7,IO3*%
%TO.N,/GPIO3*%
X157797000Y-78623000D03*
%TO.P,U3,8,IO4*%
%TO.N,/GPIO4*%
X157797000Y-79473000D03*
%TO.P,U3,9,IO5*%
%TO.N,/GPIO12*%
X157797000Y-80323000D03*
%TO.P,U3,10,IO6*%
%TO.N,/GPIO6*%
X157797000Y-81173000D03*
%TO.P,U3,11,IO7*%
%TO.N,/GPIO7*%
X157797000Y-82023000D03*
%TO.P,U3,12,IO8*%
%TO.N,/GPIO8*%
X157797000Y-82873000D03*
%TO.P,U3,13,IO9*%
%TO.N,/GPIO9*%
X157797000Y-83723000D03*
%TO.P,U3,14,IO10*%
%TO.N,/GPIO10*%
X157797000Y-84573000D03*
%TO.P,U3,15,IO11*%
%TO.N,/GPIO11*%
X157797000Y-85423000D03*
D17*
%TO.P,U3,16,IO12*%
%TO.N,/GPIO12*%
X158847000Y-86473000D03*
%TO.P,U3,17,IO13*%
%TO.N,/GPIO13*%
X159697000Y-86473000D03*
%TO.P,U3,18,IO14*%
%TO.N,/GPIO14*%
X160547000Y-86473000D03*
%TO.P,U3,19,IO15*%
%TO.N,/GPIO15*%
X161397000Y-86473000D03*
%TO.P,U3,20,IO16*%
%TO.N,/GPIO16*%
X162247000Y-86473000D03*
%TO.P,U3,21,IO17*%
%TO.N,/I2C_SCL*%
X163097000Y-86473000D03*
%TO.P,U3,22,IO18*%
%TO.N,/I2C_SDA*%
X163947000Y-86473000D03*
%TO.P,U3,23,IO19*%
%TO.N,/GPIO12*%
X164797000Y-86473000D03*
%TO.P,U3,24,IO20*%
X165647000Y-86473000D03*
%TO.P,U3,25,IO21*%
X166497000Y-86473000D03*
%TO.P,U3,26,IO26*%
%TO.N,/GPIO26*%
X167347000Y-86473000D03*
%TO.P,U3,27,IO47*%
%TO.N,/GPIO48*%
X168197000Y-86473000D03*
%TO.P,U3,28,IO33*%
%TO.N,/GPIO33*%
X169047000Y-86473000D03*
%TO.P,U3,29,IO34*%
%TO.N,/GPIO34*%
X169897000Y-86473000D03*
%TO.P,U3,30,IO48*%
%TO.N,/GPIO47*%
X170747000Y-86473000D03*
D16*
%TO.P,U3,31,IO35*%
%TO.N,/GPIO35*%
X171797000Y-85423000D03*
%TO.P,U3,32,IO36*%
%TO.N,/GPIO36*%
X171797000Y-84573000D03*
%TO.P,U3,33,IO37*%
%TO.N,/GPIO12*%
X171797000Y-83723000D03*
%TO.P,U3,34,IO38*%
%TO.N,/GPIO38*%
X171797000Y-82873000D03*
%TO.P,U3,35,IO39*%
%TO.N,/GPIO39*%
X171797000Y-82023000D03*
%TO.P,U3,36,IO40*%
%TO.N,/GPIO40*%
X171797000Y-81173000D03*
%TO.P,U3,37,IO41*%
%TO.N,/GPIO41*%
X171797000Y-80323000D03*
%TO.P,U3,38,IO42*%
%TO.N,/GPIO42*%
X171797000Y-79473000D03*
%TO.P,U3,39,TXD0*%
%TO.N,/TXD*%
X171797000Y-78623000D03*
%TO.P,U3,40,RXD0*%
%TO.N,/RXD*%
X171797000Y-77773000D03*
%TO.P,U3,41,IO45*%
%TO.N,/GPIO45*%
X171797000Y-76923000D03*
%TO.P,U3,42,GND*%
%TO.N,/GPIO12*%
X171797000Y-76073000D03*
%TO.P,U3,43,GND*%
X171797000Y-75223000D03*
%TO.P,U3,44,IO46*%
%TO.N,/GPIO46*%
X171797000Y-74373000D03*
%TO.P,U3,45,EN*%
%TO.N,/GPIO12*%
X171797000Y-73523000D03*
D17*
%TO.P,U3,46,GND*%
X170747000Y-72473000D03*
%TO.P,U3,47,GND*%
X169897000Y-72473000D03*
%TO.P,U3,48,GND*%
X169047000Y-72473000D03*
%TO.P,U3,49,GND*%
X168197000Y-72473000D03*
%TO.P,U3,50,GND*%
X167347000Y-72473000D03*
%TO.P,U3,51,GND*%
X166497000Y-72473000D03*
%TO.P,U3,52,GND*%
X165647000Y-72473000D03*
%TO.P,U3,53,GND*%
X164797000Y-72473000D03*
%TO.P,U3,54,GND*%
X163947000Y-72473000D03*
%TO.P,U3,55,GND*%
X163097000Y-72473000D03*
%TO.P,U3,56,GND*%
X162247000Y-72473000D03*
%TO.P,U3,57,GND*%
X161397000Y-72473000D03*
%TO.P,U3,58,GND*%
X160547000Y-72473000D03*
%TO.P,U3,59,GND*%
X159697000Y-72473000D03*
%TO.P,U3,60,GND*%
X158847000Y-72473000D03*
D18*
%TO.P,U3,61,GND*%
X163147000Y-77823000D03*
D19*
X163147000Y-79473000D03*
X163147000Y-81123000D03*
X164797000Y-77823000D03*
X164797000Y-79473000D03*
X164797000Y-81123000D03*
X166447000Y-77823000D03*
X166447000Y-79473000D03*
X166447000Y-81123000D03*
D20*
%TO.P,U3,62,GND*%
X157797000Y-72473000D03*
%TO.P,U3,63,GND*%
X157797000Y-86473000D03*
%TO.P,U3,64,GND*%
X171797000Y-86473000D03*
%TO.P,U3,65,GND*%
X171797000Y-72473000D03*
%TD*%
D21*
%TO.P,U4,1,OUT*%
%TO.N,/GPIO12*%
X163577500Y-90390000D03*
%TO.P,U4,2,FB*%
%TO.N,Net-(U4-FB)*%
X163577500Y-91040000D03*
%TO.P,U4,3,GND*%
%TO.N,/GPIO12*%
X163577500Y-91690000D03*
%TO.P,U4,4,EN*%
%TO.N,/5VUSB*%
X165352500Y-91690000D03*
%TO.P,U4,5,DNC*%
%TO.N,unconnected-(U4-DNC-Pad5)*%
X165352500Y-91040000D03*
%TO.P,U4,6,IN*%
%TO.N,/5VUSB*%
X165352500Y-90390000D03*
D22*
%TO.P,U4,7,GND*%
%TO.N,/GPIO12*%
X164465000Y-91040000D03*
%TD*%
D23*
%TO.P,R8,1*%
%TO.N,/GPIO12*%
X163830000Y-96416500D03*
%TO.P,R8,2*%
%TO.N,Net-(D2-A)*%
X163830000Y-94591500D03*
%TD*%
%TO.P,R1,1*%
%TO.N,Net-(J2-CC1)*%
X164084000Y-104417500D03*
%TO.P,R1,2*%
%TO.N,/GPIO12*%
X164084000Y-102592500D03*
%TD*%
D15*
%TO.P,R5,1*%
%TO.N,/GPIO12*%
X171624000Y-97536000D03*
%TO.P,R5,2*%
%TO.N,/I2C_SCL*%
X169799000Y-97536000D03*
%TD*%
D24*
%TO.P,R7,1*%
%TO.N,Net-(U4-FB)*%
X159131000Y-94615000D03*
%TO.P,R7,2*%
%TO.N,Net-(D2-K)*%
X159131000Y-96440000D03*
%TD*%
D15*
%TO.P,R4,1*%
%TO.N,/GPIO12*%
X171624000Y-100330000D03*
%TO.P,R4,2*%
X169799000Y-100330000D03*
%TD*%
D25*
%TO.P,reset1,1*%
%TO.N,/GPIO12*%
X156754000Y-127329000D03*
D26*
%TO.P,reset1,2*%
X156754000Y-120829000D03*
%TO.P,reset1,3*%
X161254000Y-127329000D03*
%TO.P,reset1,4*%
X161254000Y-120829000D03*
%TD*%
D23*
%TO.P,R2,1*%
%TO.N,Net-(J2-CC2)*%
X164338000Y-108354500D03*
%TO.P,R2,2*%
%TO.N,/GPIO12*%
X164338000Y-106529500D03*
%TD*%
D27*
%TO.P,D2,1,K*%
%TO.N,Net-(D2-K)*%
X166279500Y-113665000D03*
%TO.P,D2,2,A*%
%TO.N,Net-(D2-A)*%
X169254500Y-113665000D03*
%TD*%
D28*
%TO.P,J2,A1,GND*%
%TO.N,/GPIO12*%
X161138000Y-130432000D03*
%TO.P,J2,A4,VBUS*%
%TO.N,Net-(J2-VBUS-PadA4)*%
X161938000Y-130432000D03*
D29*
%TO.P,J2,A5,CC1*%
%TO.N,Net-(J2-CC1)*%
X163088000Y-130432000D03*
%TO.P,J2,A6,D+*%
%TO.N,/GPIO12*%
X164088000Y-130432000D03*
%TO.P,J2,A7,D-*%
X164588000Y-130432000D03*
%TO.P,J2,A8,SBU1*%
%TO.N,unconnected-(J2-SBU1-PadA8)*%
X165588000Y-130432000D03*
D28*
%TO.P,J2,A9,VBUS*%
%TO.N,Net-(J2-VBUS-PadA4)*%
X166738000Y-130432000D03*
%TO.P,J2,A12,GND*%
%TO.N,/GPIO12*%
X167538000Y-130432000D03*
%TO.P,J2,B1,GND*%
X167538000Y-130432000D03*
%TO.P,J2,B4,VBUS*%
%TO.N,Net-(J2-VBUS-PadA4)*%
X166738000Y-130432000D03*
D29*
%TO.P,J2,B5,CC2*%
%TO.N,Net-(J2-CC2)*%
X166088000Y-130432000D03*
%TO.P,J2,B6,D+*%
%TO.N,/GPIO12*%
X165088000Y-130432000D03*
%TO.P,J2,B7,D-*%
X163588000Y-130432000D03*
%TO.P,J2,B8,SBU2*%
%TO.N,unconnected-(J2-SBU2-PadB8)*%
X162588000Y-130432000D03*
D28*
%TO.P,J2,B9,VBUS*%
%TO.N,Net-(J2-VBUS-PadA4)*%
X161938000Y-130432000D03*
%TO.P,J2,B12,GND*%
%TO.N,/GPIO12*%
X161138000Y-130432000D03*
D30*
%TO.P,J2,S1,SHIELD*%
X160018000Y-131007000D03*
D31*
X160018000Y-135187000D03*
D30*
X168658000Y-131007000D03*
D31*
X168658000Y-135187000D03*
%TD*%
D11*
%TO.P,C5,1*%
%TO.N,/GPIO12*%
X169231000Y-93980000D03*
%TO.P,C5,2*%
X172356000Y-93980000D03*
%TD*%
D32*
%TO.P,U2,1,VDD*%
%TO.N,/GPIO12*%
X157800000Y-91727000D03*
%TO.P,U2,2,SCL*%
%TO.N,/I2C_SCL*%
X157800000Y-92677000D03*
%TO.P,U2,3,SDA*%
%TO.N,/I2C_SDA*%
X159700000Y-92677000D03*
%TO.P,U2,4,GND*%
%TO.N,/GPIO12*%
X159700000Y-91727000D03*
D33*
%TO.P,U2,5,GND*%
X158750000Y-92202000D03*
%TD*%
D34*
%TO.P,C4,1*%
%TO.N,/5VUSB*%
X166497000Y-93920000D03*
%TO.P,C4,2*%
%TO.N,Net-(D2-K)*%
X166497000Y-97045000D03*
%TD*%
D35*
%TO.P,C2,1*%
%TO.N,/GPIO0*%
X167767000Y-109131500D03*
%TO.P,C2,2*%
%TO.N,/GPIO12*%
X167767000Y-106006500D03*
%TD*%
D36*
%TO.P,D1,1,VDD*%
%TO.N,/GPIO12*%
X160654000Y-112739000D03*
%TO.P,D1,2,DOUT*%
%TO.N,unconnected-(D1-DOUT-Pad2)*%
X157354000Y-112739000D03*
%TO.P,D1,3,VSS*%
%TO.N,/GPIO12*%
X157354000Y-117639000D03*
%TO.P,D1,4,DIN*%
%TO.N,/GPIO48*%
X160654000Y-117639000D03*
%TD*%
D35*
%TO.P,C3,1*%
%TO.N,/GPIO12*%
X167767000Y-103328000D03*
%TO.P,C3,2*%
X167767000Y-100203000D03*
%TD*%
D37*
%TO.P,R6,1*%
%TO.N,/GPIO12*%
X163529000Y-99314000D03*
%TO.P,R6,2*%
%TO.N,Net-(U4-FB)*%
X165354000Y-99314000D03*
%TD*%
D25*
%TO.P,boot1,1*%
%TO.N,/GPIO12*%
X168057000Y-126186000D03*
D26*
%TO.P,boot1,2*%
%TO.N,/GPIO0*%
X168057000Y-119686000D03*
%TO.P,boot1,3*%
%TO.N,/GPIO12*%
X172557000Y-126186000D03*
%TO.P,boot1,4*%
%TO.N,/GPIO0*%
X172557000Y-119686000D03*
%TD*%
D38*
%TO.P,J1,1,Pin_1*%
%TO.N,/GPIO12*%
X153543000Y-77216000D03*
D39*
%TO.P,J1,2,Pin_2*%
%TO.N,/GPIO0*%
X153543000Y-79756000D03*
%TO.P,J1,3,Pin_3*%
%TO.N,/GPIO1*%
X153543000Y-82296000D03*
%TO.P,J1,4,Pin_4*%
%TO.N,/GPIO2*%
X153543000Y-84836000D03*
%TO.P,J1,5,Pin_5*%
%TO.N,/GPIO3*%
X153543000Y-87376000D03*
%TO.P,J1,6,Pin_6*%
%TO.N,/GPIO4*%
X153543000Y-89916000D03*
%TO.P,J1,7,Pin_7*%
%TO.N,/GPIO12*%
X153543000Y-92456000D03*
%TO.P,J1,8,Pin_8*%
%TO.N,/GPIO6*%
X153543000Y-94996000D03*
%TO.P,J1,9,Pin_9*%
%TO.N,/GPIO7*%
X153543000Y-97536000D03*
%TO.P,J1,10,Pin_10*%
%TO.N,/GPIO8*%
X153543000Y-100076000D03*
%TO.P,J1,11,Pin_11*%
%TO.N,/GPIO9*%
X153543000Y-102616000D03*
%TO.P,J1,12,Pin_12*%
%TO.N,/GPIO10*%
X153543000Y-105156000D03*
%TO.P,J1,13,Pin_13*%
%TO.N,/GPIO11*%
X153543000Y-107696000D03*
%TO.P,J1,14,Pin_14*%
%TO.N,/GPIO12*%
X153543000Y-110236000D03*
%TO.P,J1,15,Pin_15*%
%TO.N,/GPIO13*%
X153543000Y-112776000D03*
%TO.P,J1,16,Pin_16*%
%TO.N,/GPIO14*%
X153543000Y-115316000D03*
%TO.P,J1,17,Pin_17*%
%TO.N,/GPIO15*%
X153543000Y-117856000D03*
%TO.P,J1,18,Pin_18*%
%TO.N,/GPIO16*%
X153543000Y-120396000D03*
%TO.P,J1,19,Pin_19*%
%TO.N,/I2C_SCL*%
X153543000Y-122936000D03*
%TO.P,J1,20,Pin_20*%
%TO.N,/I2C_SDA*%
X153543000Y-125476000D03*
%TO.P,J1,21,Pin_21*%
%TO.N,/5VUSB*%
X153543000Y-128016000D03*
%TO.P,J1,22,Pin_22*%
%TO.N,/GPIO12*%
X153543000Y-130556000D03*
%TD*%
D38*
%TO.P,J3,1,Pin_1*%
%TO.N,/GPIO12*%
X175895000Y-77089000D03*
D39*
%TO.P,J3,2,Pin_2*%
X175895000Y-79629000D03*
%TO.P,J3,3,Pin_3*%
%TO.N,/GPIO46*%
X175895000Y-82169000D03*
%TO.P,J3,4,Pin_4*%
%TO.N,/GPIO45*%
X175895000Y-84709000D03*
%TO.P,J3,5,Pin_5*%
%TO.N,/RXD*%
X175895000Y-87249000D03*
%TO.P,J3,6,Pin_6*%
%TO.N,/TXD*%
X175895000Y-89789000D03*
%TO.P,J3,7,Pin_7*%
%TO.N,/GPIO42*%
X175895000Y-92329000D03*
%TO.P,J3,8,Pin_8*%
%TO.N,/GPIO41*%
X175895000Y-94869000D03*
%TO.P,J3,9,Pin_9*%
%TO.N,/GPIO40*%
X175895000Y-97409000D03*
%TO.P,J3,10,Pin_10*%
%TO.N,/GPIO39*%
X175895000Y-99949000D03*
%TO.P,J3,11,Pin_11*%
%TO.N,/GPIO38*%
X175895000Y-102489000D03*
%TO.P,J3,12,Pin_12*%
%TO.N,/GPIO12*%
X175895000Y-105029000D03*
%TO.P,J3,13,Pin_13*%
%TO.N,/GPIO36*%
X175895000Y-107569000D03*
%TO.P,J3,14,Pin_14*%
%TO.N,/GPIO35*%
X175895000Y-110109000D03*
%TO.P,J3,15,Pin_15*%
%TO.N,/GPIO34*%
X175895000Y-112649000D03*
%TO.P,J3,16,Pin_16*%
%TO.N,/GPIO33*%
X175895000Y-115189000D03*
%TO.P,J3,17,Pin_17*%
%TO.N,/GPIO26*%
X175895000Y-117729000D03*
%TO.P,J3,18,Pin_18*%
%TO.N,/GPIO12*%
X175895000Y-120269000D03*
%TO.P,J3,19,Pin_19*%
X175895000Y-122809000D03*
%TO.P,J3,20,Pin_20*%
X175895000Y-125349000D03*
%TO.P,J3,21,Pin_21*%
%TO.N,/GPIO48*%
X175895000Y-127889000D03*
%TO.P,J3,22,Pin_22*%
%TO.N,/GPIO47*%
X175895000Y-130429000D03*
%TD*%
D40*
%TO.N,*%
X175895000Y-134747000D03*
X176403000Y-72390000D03*
X153670000Y-134874000D03*
X153035000Y-72390000D03*
D41*
%TO.N,/GPIO0*%
X161671000Y-78359000D03*
X165862000Y-106553000D03*
%TO.N,/5VUSB*%
X151384000Y-122555000D03*
X165227000Y-92837000D03*
%TO.N,Net-(D2-K)*%
X162560000Y-95504000D03*
X162433000Y-101854000D03*
X159385000Y-95504000D03*
X158369000Y-100457000D03*
%TO.N,/GPIO48*%
X167005000Y-84582000D03*
X166497000Y-117602000D03*
%TO.N,Net-(D2-A)*%
X171069000Y-107823000D03*
X163830000Y-93726000D03*
%TO.N,/GPIO6*%
X160528000Y-83820000D03*
X154813000Y-94996000D03*
%TO.N,/I2C_SCL*%
X161036000Y-90424000D03*
X150749000Y-93726000D03*
X169164000Y-98933000D03*
X156845000Y-92710000D03*
%TO.N,/GPIO13*%
X158877000Y-88265000D03*
D42*
X158877000Y-112776000D03*
D41*
%TO.N,/I2C_SDA*%
X156972000Y-125476000D03*
X163947000Y-87757000D03*
X170180000Y-102108000D03*
X165354000Y-89408000D03*
X170180000Y-104267000D03*
X167640000Y-89535000D03*
%TO.N,/GPIO11*%
X152019000Y-107696000D03*
X156718000Y-87122000D03*
%TO.N,/GPIO8*%
X155321000Y-100076000D03*
X156210000Y-88392000D03*
%TO.N,/GPIO14*%
X155575000Y-115189000D03*
X156464000Y-89408000D03*
%TO.N,/GPIO7*%
X159004000Y-83312000D03*
X152273000Y-83566000D03*
%TO.N,/GPIO16*%
X160655000Y-93345000D03*
X157099000Y-104140000D03*
X160655000Y-89916000D03*
X159512000Y-104140000D03*
%TO.N,/GPIO4*%
X159639000Y-88519000D03*
X161671000Y-83566000D03*
D42*
%TO.N,/GPIO9*%
X159004000Y-84709000D03*
%TO.N,/GPIO10*%
X159766000Y-83185000D03*
X156845000Y-84582000D03*
D41*
%TO.N,Net-(J2-CC2)*%
X166116000Y-129413000D03*
D42*
X164719000Y-110109000D03*
D41*
%TO.N,Net-(J2-VBUS-PadA4)*%
X160909000Y-106807000D03*
X158369000Y-104648000D03*
%TO.N,Net-(J2-CC1)*%
X163068000Y-118237000D03*
X163068000Y-104521000D03*
%TO.N,/GPIO39*%
X178816000Y-83947000D03*
X170053000Y-82042000D03*
%TO.N,/GPIO35*%
X172720000Y-106045000D03*
X171323000Y-88138000D03*
%TO.N,/GPIO34*%
X169799000Y-86995000D03*
X177673000Y-99314000D03*
%TO.N,/GPIO26*%
X169037000Y-87884000D03*
X171450000Y-106553000D03*
%TO.N,/GPIO36*%
X172593000Y-87630000D03*
X171831000Y-84836000D03*
%TO.N,/GPIO46*%
X173863000Y-74422000D03*
X172720000Y-74422000D03*
%TO.N,/GPIO41*%
X173990000Y-93599000D03*
X170561000Y-80264000D03*
%TO.N,/GPIO40*%
X174879000Y-83439000D03*
X172339000Y-80899000D03*
%TO.N,/GPIO38*%
X170815000Y-85471000D03*
X174244000Y-94869000D03*
%TO.N,/GPIO47*%
X170180000Y-87757000D03*
X178435000Y-121539000D03*
D42*
%TO.N,/GPIO33*%
X169037000Y-85471000D03*
D41*
X178181000Y-98806000D03*
%TO.N,Net-(U4-FB)*%
X164592000Y-97663000D03*
X160147000Y-93980000D03*
X162433000Y-92202000D03*
%TO.N,/GPIO12*%
X162941000Y-100330000D03*
X158242000Y-87122000D03*
X165227000Y-110998000D03*
X165100000Y-96393000D03*
X157353000Y-114681000D03*
D42*
X169291000Y-102108000D03*
D41*
X155575000Y-92456000D03*
X160147000Y-109982000D03*
X154813000Y-78994000D03*
X170815000Y-87884000D03*
X163576000Y-129159000D03*
X162941000Y-91694000D03*
X164084000Y-101346000D03*
X159512000Y-100457000D03*
X164846000Y-87630000D03*
X169418000Y-105410000D03*
X160401000Y-107696000D03*
X164338000Y-89154000D03*
X170180000Y-94996000D03*
X160401000Y-104648000D03*
X152273000Y-98933000D03*
X165100000Y-128905000D03*
X165100000Y-100838000D03*
X156972000Y-103378000D03*
X160909000Y-91694000D03*
X167513000Y-129667000D03*
X167894000Y-100838000D03*
X171958000Y-95123000D03*
X167767000Y-122809000D03*
X157226000Y-91440000D03*
X162179000Y-85471000D03*
X158115000Y-88265000D03*
X164084000Y-129667000D03*
X171323000Y-85979000D03*
X157353000Y-90932000D03*
X161163000Y-83947000D03*
X165608000Y-125984000D03*
X173101000Y-86487000D03*
X161925000Y-106680000D03*
X157861000Y-122301000D03*
X161036000Y-100838000D03*
X158242000Y-108839000D03*
X157353000Y-88392000D03*
X164465000Y-105664000D03*
X159512000Y-100838000D03*
X161163000Y-96139000D03*
X159893000Y-120142000D03*
D42*
X169291000Y-89027000D03*
D41*
X172212000Y-104902000D03*
X162306000Y-96139000D03*
X171831000Y-89662000D03*
X161417000Y-104394000D03*
X167513000Y-127508000D03*
X168148000Y-95758000D03*
X172339000Y-83439000D03*
D42*
X158115000Y-110236000D03*
D41*
X170307000Y-85725000D03*
X161163000Y-128651000D03*
X178816000Y-98552000D03*
X157353000Y-116586000D03*
X164719000Y-119253000D03*
X161925000Y-107442000D03*
%TD*%
D43*
%TO.N,/GPIO0*%
X167767000Y-108606500D02*
X167767000Y-119396000D01*
X161671000Y-78359000D02*
X159385000Y-76073000D01*
X168057000Y-119686000D02*
X172557000Y-119686000D01*
X167767000Y-108458000D02*
X165862000Y-106553000D01*
X167767000Y-119396000D02*
X168057000Y-119686000D01*
X167767000Y-108606500D02*
X167767000Y-108458000D01*
X155321000Y-76073000D02*
X157797000Y-76073000D01*
X153543000Y-79756000D02*
X155321000Y-79756000D01*
X155321000Y-79756000D02*
X155321000Y-76073000D01*
X159385000Y-76073000D02*
X157797000Y-76073000D01*
%TO.N,/5VUSB*%
X165227000Y-92837000D02*
X165227000Y-92710000D01*
X166082000Y-90390000D02*
X166243000Y-90551000D01*
X165352500Y-90390000D02*
X166082000Y-90390000D01*
X166243000Y-91694000D02*
X166243000Y-94191000D01*
X151384000Y-125857000D02*
X151384000Y-122555000D01*
X165352500Y-91690000D02*
X165356500Y-91694000D01*
X166243000Y-94191000D02*
X166497000Y-94445000D01*
X166243000Y-90551000D02*
X166243000Y-91694000D01*
X153543000Y-128016000D02*
X151384000Y-125857000D01*
X165356500Y-91694000D02*
X166243000Y-91694000D01*
X165227000Y-92710000D02*
X165608000Y-92329000D01*
X165608000Y-91945500D02*
X165352500Y-91690000D01*
X165608000Y-92329000D02*
X165608000Y-91945500D01*
%TO.N,Net-(D2-K)*%
X166497000Y-95504000D02*
X162560000Y-95504000D01*
X159385000Y-95504000D02*
X159385000Y-96186000D01*
X158369000Y-99381000D02*
X158436000Y-99314000D01*
X158436000Y-97135000D02*
X159131000Y-96440000D01*
X165862000Y-107442000D02*
X165989000Y-107569000D01*
X158436000Y-99314000D02*
X158436000Y-97135000D01*
X162433000Y-107442000D02*
X162433000Y-101854000D01*
X162433000Y-107442000D02*
X165862000Y-107442000D01*
X165989000Y-107569000D02*
X165989000Y-113374500D01*
X165989000Y-113374500D02*
X166279500Y-113665000D01*
X159385000Y-96186000D02*
X159131000Y-96440000D01*
X158369000Y-100457000D02*
X158369000Y-99381000D01*
X166497000Y-96520000D02*
X166497000Y-95504000D01*
%TO.N,/GPIO48*%
X160691000Y-117602000D02*
X160654000Y-117639000D01*
X168197000Y-86473000D02*
X168197000Y-84631000D01*
X168197000Y-84631000D02*
X168148000Y-84582000D01*
X177673000Y-126111000D02*
X177673000Y-124206000D01*
X176022000Y-124079000D02*
X166497000Y-124079000D01*
X175895000Y-127889000D02*
X177673000Y-126111000D01*
X166497000Y-124079000D02*
X166497000Y-117602000D01*
X176149000Y-124206000D02*
X176022000Y-124079000D01*
X166497000Y-117602000D02*
X160691000Y-117602000D01*
X177673000Y-124206000D02*
X176149000Y-124206000D01*
X168148000Y-84582000D02*
X167005000Y-84582000D01*
%TO.N,Net-(D2-A)*%
X171069000Y-111850500D02*
X169254500Y-113665000D01*
X163830000Y-94591500D02*
X163830000Y-93726000D01*
X171069000Y-107823000D02*
X171069000Y-111850500D01*
%TO.N,/GPIO6*%
X154813000Y-94996000D02*
X153543000Y-94996000D01*
X160655000Y-83693000D02*
X160528000Y-83820000D01*
X157797000Y-81173000D02*
X157817000Y-81153000D01*
X157817000Y-81153000D02*
X160655000Y-81153000D01*
X160655000Y-81153000D02*
X160655000Y-83693000D01*
%TO.N,/GPIO15*%
X156083000Y-117856000D02*
X153543000Y-117856000D01*
X160147000Y-89916000D02*
X156083000Y-89916000D01*
X161397000Y-86473000D02*
X161397000Y-88412000D01*
X160147000Y-89662000D02*
X160147000Y-89916000D01*
X161397000Y-88412000D02*
X160147000Y-89662000D01*
X156083000Y-89916000D02*
X156083000Y-117856000D01*
%TO.N,/GPIO2*%
X154940000Y-84836000D02*
X155194000Y-84582000D01*
X155194000Y-81153000D02*
X156337000Y-80010000D01*
X156337000Y-80010000D02*
X156337000Y-77724000D01*
X157748000Y-77724000D02*
X157797000Y-77773000D01*
X155194000Y-84582000D02*
X155194000Y-81153000D01*
X156337000Y-77724000D02*
X157748000Y-77724000D01*
X153543000Y-84836000D02*
X154940000Y-84836000D01*
%TO.N,/I2C_SCL*%
X163097000Y-86473000D02*
X163097000Y-88363000D01*
X156718000Y-92583000D02*
X156845000Y-92710000D01*
X161036000Y-90424000D02*
X156718000Y-90424000D01*
X169164000Y-98171000D02*
X169164000Y-98933000D01*
X163097000Y-88363000D02*
X161036000Y-90424000D01*
X153543000Y-122936000D02*
X150749000Y-120142000D01*
X156718000Y-90424000D02*
X156718000Y-92583000D01*
X150749000Y-120142000D02*
X150749000Y-93726000D01*
X157767000Y-92710000D02*
X157800000Y-92677000D01*
X169799000Y-97536000D02*
X169164000Y-98171000D01*
X156845000Y-92710000D02*
X157767000Y-92710000D01*
%TO.N,/GPIO13*%
X159697000Y-86473000D02*
X160020000Y-86796000D01*
X159131000Y-88265000D02*
X158877000Y-88265000D01*
X160020000Y-87376000D02*
X159131000Y-88265000D01*
X160020000Y-86796000D02*
X160020000Y-87376000D01*
%TO.N,/I2C_SDA*%
X161417000Y-90678000D02*
X161417000Y-92710000D01*
X163947000Y-88148000D02*
X161417000Y-90678000D01*
X163947000Y-87757000D02*
X163947000Y-86473000D01*
X153543000Y-125476000D02*
X156972000Y-125476000D01*
X161417000Y-92710000D02*
X159733000Y-92710000D01*
X169775500Y-102512500D02*
X170180000Y-102108000D01*
X169775500Y-103759000D02*
X169775500Y-102512500D01*
X159733000Y-92710000D02*
X159700000Y-92677000D01*
X163947000Y-87757000D02*
X163947000Y-88148000D01*
X169775500Y-103759000D02*
X169775500Y-103862500D01*
X169775500Y-103862500D02*
X170180000Y-104267000D01*
X165354000Y-89408000D02*
X167513000Y-89408000D01*
X167513000Y-89408000D02*
X167640000Y-89535000D01*
%TO.N,/GPIO11*%
X156658000Y-85423000D02*
X156610000Y-85471000D01*
X157797000Y-85423000D02*
X156658000Y-85423000D01*
X156610000Y-87014000D02*
X156718000Y-87122000D01*
X156610000Y-85471000D02*
X156610000Y-87014000D01*
X152019000Y-107696000D02*
X153543000Y-107696000D01*
%TO.N,/GPIO3*%
X155702000Y-81407000D02*
X156845000Y-80264000D01*
X155702000Y-87376000D02*
X155702000Y-81407000D01*
X156845000Y-78613000D02*
X157787000Y-78613000D01*
X156845000Y-80264000D02*
X156845000Y-78613000D01*
X153543000Y-87376000D02*
X155702000Y-87376000D01*
X157787000Y-78613000D02*
X157797000Y-78623000D01*
%TO.N,/GPIO8*%
X157797000Y-82873000D02*
X156249000Y-82873000D01*
X156210000Y-82912000D02*
X156210000Y-88392000D01*
X156249000Y-82873000D02*
X156210000Y-82912000D01*
X155321000Y-100076000D02*
X153543000Y-100076000D01*
%TO.N,/GPIO14*%
X153670000Y-115189000D02*
X153543000Y-115316000D01*
X159766000Y-89408000D02*
X156464000Y-89408000D01*
X160547000Y-86473000D02*
X160547000Y-88627000D01*
X155575000Y-115189000D02*
X153670000Y-115189000D01*
X160547000Y-88627000D02*
X159766000Y-89408000D01*
%TO.N,/GPIO7*%
X152273000Y-83566000D02*
X152273000Y-86741000D01*
X151511000Y-97536000D02*
X153543000Y-97536000D01*
X157797000Y-82023000D02*
X159004000Y-82023000D01*
X151511000Y-87503000D02*
X151511000Y-97536000D01*
X152273000Y-86741000D02*
X151511000Y-87503000D01*
X159004000Y-82023000D02*
X159004000Y-83312000D01*
%TO.N,/GPIO1*%
X155829000Y-76962000D02*
X155868000Y-76923000D01*
X153543000Y-82169000D02*
X155829000Y-79883000D01*
X155868000Y-76923000D02*
X157797000Y-76923000D01*
X153543000Y-82296000D02*
X153543000Y-82169000D01*
X155829000Y-79883000D02*
X155829000Y-76962000D01*
%TO.N,/GPIO16*%
X157099000Y-111125000D02*
X158115000Y-111125000D01*
X162247000Y-88578000D02*
X160909000Y-89916000D01*
X158115000Y-111125000D02*
X158115000Y-119253000D01*
X160655000Y-93345000D02*
X160655000Y-98044000D01*
X160909000Y-89916000D02*
X160655000Y-89916000D01*
X154686000Y-119253000D02*
X153543000Y-120396000D01*
X157099000Y-104140000D02*
X157099000Y-111125000D01*
X158115000Y-119253000D02*
X154686000Y-119253000D01*
X160020000Y-104140000D02*
X159512000Y-104140000D01*
X160020000Y-98044000D02*
X160020000Y-104140000D01*
X160655000Y-98044000D02*
X160020000Y-98044000D01*
X162247000Y-86473000D02*
X162247000Y-88578000D01*
%TO.N,/GPIO4*%
X161642000Y-79473000D02*
X161671000Y-79502000D01*
X154559000Y-88900000D02*
X153543000Y-89916000D01*
X157797000Y-79473000D02*
X161642000Y-79473000D01*
X159258000Y-88900000D02*
X154559000Y-88900000D01*
X161671000Y-79502000D02*
X161671000Y-83566000D01*
X159639000Y-88519000D02*
X159258000Y-88900000D01*
%TO.N,/GPIO9*%
X159004000Y-83947000D02*
X158780000Y-83723000D01*
X159004000Y-84709000D02*
X159004000Y-83947000D01*
X158780000Y-83723000D02*
X157797000Y-83723000D01*
%TO.N,/GPIO10*%
X156845000Y-84582000D02*
X157788000Y-84582000D01*
X157788000Y-84582000D02*
X157797000Y-84573000D01*
%TO.N,Net-(J2-CC2)*%
X166088000Y-129441000D02*
X166116000Y-129413000D01*
X164719000Y-110109000D02*
X164719000Y-108735500D01*
X166088000Y-130432000D02*
X166088000Y-129441000D01*
X164719000Y-108735500D02*
X164338000Y-108354500D01*
%TO.N,Net-(J2-VBUS-PadA4)*%
X166738000Y-130950000D02*
X166370000Y-131318000D01*
X162560000Y-128905000D02*
X162560000Y-119380000D01*
X158877000Y-113792000D02*
X159512000Y-113157000D01*
X158369000Y-104648000D02*
X158336000Y-104681000D01*
X160909000Y-108204000D02*
X160909000Y-106807000D01*
X166370000Y-131318000D02*
X162306000Y-131318000D01*
X158336000Y-104681000D02*
X158336000Y-106299000D01*
X162306000Y-131318000D02*
X161938000Y-130950000D01*
X162560000Y-119380000D02*
X158877000Y-119380000D01*
X161938000Y-129527000D02*
X162560000Y-128905000D01*
X161938000Y-130432000D02*
X161938000Y-129527000D01*
X158877000Y-119380000D02*
X158877000Y-113792000D01*
X159512000Y-108204000D02*
X160909000Y-108204000D01*
X166738000Y-130432000D02*
X166738000Y-130950000D01*
X159512000Y-113157000D02*
X159512000Y-108204000D01*
X161938000Y-130950000D02*
X161938000Y-130432000D01*
%TO.N,Net-(J2-CC1)*%
X163088000Y-118257000D02*
X163068000Y-118237000D01*
X163980500Y-104521000D02*
X164084000Y-104417500D01*
X163068000Y-104521000D02*
X163980500Y-104521000D01*
X163088000Y-130432000D02*
X163088000Y-118257000D01*
%TO.N,/GPIO39*%
X177800000Y-98044000D02*
X177800000Y-97917000D01*
X171778000Y-82042000D02*
X171797000Y-82023000D01*
X178816000Y-97917000D02*
X178816000Y-83947000D01*
X170053000Y-82042000D02*
X171778000Y-82042000D01*
X177800000Y-97917000D02*
X178435000Y-97917000D01*
X178435000Y-97917000D02*
X178816000Y-97917000D01*
X175895000Y-99949000D02*
X177800000Y-98044000D01*
%TO.N,/GPIO35*%
X172227500Y-85423000D02*
X171797000Y-85423000D01*
X174625000Y-110109000D02*
X174371000Y-110109000D01*
X174371000Y-110109000D02*
X173990000Y-110109000D01*
X171323000Y-88138000D02*
X172281000Y-87180000D01*
X173990000Y-110109000D02*
X173990000Y-106045000D01*
X172593000Y-85788500D02*
X172227500Y-85423000D01*
X175895000Y-110109000D02*
X174625000Y-110109000D01*
X173990000Y-106045000D02*
X172720000Y-106045000D01*
X172593000Y-87180000D02*
X172593000Y-85788500D01*
X172281000Y-87180000D02*
X172593000Y-87180000D01*
%TO.N,/TXD*%
X173990000Y-87884000D02*
X173990000Y-85979000D01*
X175895000Y-89789000D02*
X173990000Y-87884000D01*
X171807000Y-78613000D02*
X171797000Y-78623000D01*
X173228000Y-78613000D02*
X171807000Y-78613000D01*
X173990000Y-85979000D02*
X173228000Y-85217000D01*
X173228000Y-85217000D02*
X173228000Y-78613000D01*
%TO.N,/RXD*%
X173785000Y-77773000D02*
X173863000Y-77851000D01*
X173863000Y-77851000D02*
X173863000Y-85217000D01*
X171797000Y-77773000D02*
X173785000Y-77773000D01*
X173863000Y-85217000D02*
X175895000Y-87249000D01*
%TO.N,/GPIO34*%
X175895000Y-112649000D02*
X177673000Y-112649000D01*
X169799000Y-86571000D02*
X169897000Y-86473000D01*
X177673000Y-112649000D02*
X177673000Y-99314000D01*
X169799000Y-86995000D02*
X169799000Y-86571000D01*
%TO.N,/GPIO45*%
X174371000Y-84709000D02*
X174371000Y-76962000D01*
X175895000Y-84709000D02*
X174371000Y-84709000D01*
X171836000Y-76962000D02*
X171797000Y-76923000D01*
X174371000Y-76962000D02*
X171836000Y-76962000D01*
%TO.N,/GPIO26*%
X173482000Y-106553000D02*
X172085000Y-106553000D01*
X167386000Y-87884000D02*
X167386000Y-86512000D01*
X175895000Y-117729000D02*
X173990000Y-117729000D01*
X173990000Y-117729000D02*
X173990000Y-110744000D01*
X167386000Y-86512000D02*
X167347000Y-86473000D01*
X173990000Y-110744000D02*
X173482000Y-110744000D01*
X173482000Y-110744000D02*
X173482000Y-106553000D01*
X172085000Y-106553000D02*
X171450000Y-106553000D01*
X169037000Y-87884000D02*
X167386000Y-87884000D01*
%TO.N,/GPIO42*%
X172828000Y-79502000D02*
X172828000Y-85452000D01*
X175895000Y-91821000D02*
X175895000Y-92329000D01*
X174371000Y-90297000D02*
X175895000Y-91821000D01*
X174371000Y-88900000D02*
X174371000Y-90297000D01*
X173590000Y-88119000D02*
X174371000Y-88900000D01*
X173590000Y-86214000D02*
X173590000Y-88119000D01*
X171797000Y-79473000D02*
X172799000Y-79473000D01*
X172799000Y-79473000D02*
X172828000Y-79502000D01*
X172828000Y-85452000D02*
X173590000Y-86214000D01*
%TO.N,/GPIO36*%
X171797000Y-84573000D02*
X171831000Y-84607000D01*
X174625000Y-105537000D02*
X174625000Y-107569000D01*
X171831000Y-84607000D02*
X171831000Y-84836000D01*
X172593000Y-89154000D02*
X170688000Y-89154000D01*
X172593000Y-87630000D02*
X172593000Y-89154000D01*
X170688000Y-89154000D02*
X170688000Y-105537000D01*
X170688000Y-105537000D02*
X174625000Y-105537000D01*
X174625000Y-107569000D02*
X175895000Y-107569000D01*
%TO.N,/GPIO46*%
X173863000Y-74930000D02*
X173863000Y-74422000D01*
X172720000Y-74422000D02*
X171846000Y-74422000D01*
X178943000Y-74930000D02*
X173863000Y-74930000D01*
X178943000Y-82169000D02*
X178943000Y-74930000D01*
X171846000Y-74422000D02*
X171797000Y-74373000D01*
X175895000Y-82169000D02*
X178943000Y-82169000D01*
%TO.N,/GPIO41*%
X170620000Y-80323000D02*
X170561000Y-80264000D01*
X175514000Y-93599000D02*
X175895000Y-93980000D01*
X175895000Y-93980000D02*
X175895000Y-94869000D01*
X171797000Y-80323000D02*
X170620000Y-80323000D01*
X173990000Y-93599000D02*
X175514000Y-93599000D01*
%TO.N,/GPIO40*%
X178054000Y-83312000D02*
X177165000Y-83312000D01*
X176022000Y-83439000D02*
X174879000Y-83439000D01*
X172339000Y-80899000D02*
X172071000Y-80899000D01*
X178054000Y-97409000D02*
X178054000Y-83312000D01*
X175895000Y-97409000D02*
X178054000Y-97409000D01*
X172071000Y-80899000D02*
X171797000Y-81173000D01*
X177165000Y-83312000D02*
X177038000Y-83439000D01*
X177038000Y-83439000D02*
X176022000Y-83439000D01*
%TO.N,/GPIO38*%
X171797000Y-82873000D02*
X170873000Y-82873000D01*
X170815000Y-82931000D02*
X170815000Y-85471000D01*
X170873000Y-82873000D02*
X170815000Y-82931000D01*
X174244000Y-100838000D02*
X175895000Y-102489000D01*
X174244000Y-94869000D02*
X174244000Y-100838000D01*
%TO.N,/GPIO47*%
X170747000Y-87190000D02*
X170747000Y-86473000D01*
X175895000Y-130429000D02*
X178308000Y-130429000D01*
X178308000Y-130429000D02*
X178435000Y-130302000D01*
X178435000Y-130302000D02*
X178435000Y-121539000D01*
X170180000Y-87757000D02*
X170747000Y-87190000D01*
%TO.N,/GPIO33*%
X178181000Y-115189000D02*
X178181000Y-98806000D01*
X169037000Y-85471000D02*
X169037000Y-86463000D01*
X169037000Y-86463000D02*
X169047000Y-86473000D01*
X175895000Y-115189000D02*
X178181000Y-115189000D01*
%TO.N,Net-(U4-FB)*%
X165354000Y-99314000D02*
X164592000Y-98552000D01*
X163577500Y-91040000D02*
X162598000Y-91040000D01*
X164592000Y-98552000D02*
X164592000Y-97663000D01*
X162598000Y-91040000D02*
X162433000Y-91205000D01*
X159766000Y-93980000D02*
X159131000Y-94615000D01*
X160147000Y-93980000D02*
X159766000Y-93980000D01*
X162433000Y-91205000D02*
X162433000Y-92202000D01*
%TO.N,/GPIO12*%
X164797000Y-72473000D02*
X165647000Y-72473000D01*
X178816000Y-119888000D02*
X178816000Y-98552000D01*
X164084000Y-102592500D02*
X164361500Y-102870000D01*
X157797000Y-72473000D02*
X157797000Y-73523000D01*
X161397000Y-72473000D02*
X162247000Y-72473000D01*
X157151000Y-91727000D02*
X157118000Y-91694000D01*
X168021000Y-127508000D02*
X167513000Y-127508000D01*
X157118000Y-91694000D02*
X157118000Y-91548000D01*
X162941000Y-91694000D02*
X163573500Y-91694000D01*
X159639000Y-105029000D02*
X159394000Y-105274000D01*
X166497000Y-88900000D02*
X166497000Y-86473000D01*
X174752000Y-118237000D02*
X173355000Y-118237000D01*
X170815000Y-87884000D02*
X171797000Y-86902000D01*
X171797000Y-72473000D02*
X171069000Y-73201000D01*
X165228397Y-87884000D02*
X164974397Y-88138000D01*
X158115000Y-108204000D02*
X158869000Y-107450000D01*
X170747000Y-72473000D02*
X170747000Y-72879000D01*
X172974000Y-111125000D02*
X172974000Y-107188000D01*
X160567000Y-120142000D02*
X161254000Y-120829000D01*
X171797000Y-86902000D02*
X171797000Y-86473000D01*
X172339000Y-128905000D02*
X165100000Y-128905000D01*
X157861000Y-126222000D02*
X156754000Y-127329000D01*
X167767000Y-106531500D02*
X166602500Y-106531500D01*
X163097000Y-72473000D02*
X163947000Y-72473000D01*
X164592000Y-129159000D02*
X163576000Y-129159000D01*
X160654000Y-112739000D02*
X160655000Y-112738000D01*
X158115000Y-88138000D02*
X158115000Y-88265000D01*
X171600500Y-103759000D02*
X171600500Y-104290500D01*
X166497000Y-72473000D02*
X165647000Y-72473000D01*
X164797000Y-81123000D02*
X160576000Y-85344000D01*
X170747000Y-72473000D02*
X169897000Y-72473000D01*
X158869000Y-107086000D02*
X158869000Y-106323500D01*
X156754000Y-120829000D02*
X161254000Y-120829000D01*
X159733000Y-91694000D02*
X159700000Y-91727000D01*
X166732000Y-100438000D02*
X166370000Y-100076000D01*
X158242000Y-87122000D02*
X158847000Y-86517000D01*
X171069000Y-73201000D02*
X171069000Y-75184000D01*
X164974397Y-88138000D02*
X164592000Y-88138000D01*
X164084000Y-102592500D02*
X167384000Y-102592500D01*
X165100000Y-128905000D02*
X165100000Y-130420000D01*
X164588000Y-129163000D02*
X164592000Y-129159000D01*
X155575000Y-92456000D02*
X153543000Y-92456000D01*
X175895000Y-122809000D02*
X167767000Y-122809000D01*
X168656000Y-88900000D02*
X166497000Y-88900000D01*
X153543000Y-77216000D02*
X153543000Y-75311000D01*
X165608000Y-125984000D02*
X165608000Y-120142000D01*
X159512000Y-100838000D02*
X159131000Y-101219000D01*
X164615500Y-106529500D02*
X164338000Y-106529500D01*
X172974000Y-107188000D02*
X170180000Y-107188000D01*
X157800000Y-91727000D02*
X157151000Y-91727000D01*
X158847000Y-87406000D02*
X158115000Y-88138000D01*
X159385000Y-85744000D02*
X158847000Y-86282000D01*
X171624000Y-100330000D02*
X171624000Y-97536000D01*
X153543000Y-130556000D02*
X159567000Y-130556000D01*
X164588000Y-130432000D02*
X164588000Y-129163000D01*
X165608000Y-105537000D02*
X164615500Y-106529500D01*
X157353000Y-117638000D02*
X157354000Y-117639000D01*
X165100000Y-130420000D02*
X165088000Y-130432000D01*
X158926000Y-85344000D02*
X157797000Y-86473000D01*
X169777500Y-90551000D02*
X169926000Y-90402500D01*
X170180000Y-94996000D02*
X169756000Y-94572000D01*
X171069000Y-75184000D02*
X171758000Y-75184000D01*
X165100000Y-96393000D02*
X163853500Y-96393000D01*
X158847000Y-86282000D02*
X158847000Y-86473000D01*
X164592000Y-88138000D02*
X161925000Y-90805000D01*
X159458000Y-107696000D02*
X158861000Y-107099000D01*
X163529000Y-98759000D02*
X163529000Y-99314000D01*
X161254000Y-127329000D02*
X161254000Y-128560000D01*
X157353000Y-116586000D02*
X157353000Y-114681000D01*
X171600500Y-104290500D02*
X172212000Y-104902000D01*
X161906000Y-85744000D02*
X159385000Y-85744000D01*
X164846000Y-87630000D02*
X164846000Y-86522000D01*
X171831000Y-90572500D02*
X171852500Y-90551000D01*
X158750000Y-92964000D02*
X158750000Y-92202000D01*
X163577500Y-89914500D02*
X163577500Y-90390000D01*
X166602500Y-106531500D02*
X165608000Y-105537000D01*
X164338000Y-89154000D02*
X163577500Y-89914500D01*
X175895000Y-122809000D02*
X178816000Y-119888000D01*
X163815000Y-91690000D02*
X164465000Y-91040000D01*
X160147000Y-110363000D02*
X160147000Y-109982000D01*
X157861000Y-122301000D02*
X157861000Y-126222000D01*
X165608000Y-87884000D02*
X165228397Y-87884000D01*
X172339000Y-83439000D02*
X172081000Y-83439000D01*
X171624000Y-100330000D02*
X171600500Y-100353500D01*
X171758000Y-75184000D02*
X171797000Y-75223000D01*
X171797000Y-73523000D02*
X171807000Y-73533000D01*
X158847000Y-86473000D02*
X158847000Y-87406000D01*
X163947000Y-72473000D02*
X164797000Y-72473000D01*
X163577500Y-91695500D02*
X163577500Y-91690000D01*
X166447000Y-81123000D02*
X166447000Y-81865000D01*
X166447000Y-79473000D02*
X164797000Y-79473000D01*
X161925000Y-106299000D02*
X161925000Y-106680000D01*
X158750000Y-90932000D02*
X158750000Y-92202000D01*
X170180000Y-107188000D02*
X170180000Y-104902000D01*
X163147000Y-79473000D02*
X164797000Y-79473000D01*
X168057000Y-127472000D02*
X168021000Y-127508000D01*
X171797000Y-76073000D02*
X171797000Y-75223000D01*
X160782000Y-110998000D02*
X165227000Y-110998000D01*
X160576000Y-85344000D02*
X158926000Y-85344000D01*
X169756000Y-94572000D02*
X169756000Y-93980000D01*
X171958000Y-96266000D02*
X171958000Y-95123000D01*
X157226000Y-101219000D02*
X157226000Y-94488000D01*
X168656000Y-104902000D02*
X168656000Y-88900000D01*
X175895000Y-105029000D02*
X174117000Y-105029000D01*
X163830000Y-99013000D02*
X163529000Y-99314000D01*
X169291000Y-102108000D02*
X169799000Y-101600000D01*
X161163000Y-80391000D02*
X161163000Y-83947000D01*
X166116000Y-100330000D02*
X162941000Y-100330000D01*
X165647000Y-87845000D02*
X165608000Y-87884000D01*
X157797000Y-72473000D02*
X158847000Y-72473000D01*
X175895000Y-120269000D02*
X174752000Y-120269000D01*
X168148000Y-95758000D02*
X167894000Y-96012000D01*
X157353000Y-116586000D02*
X157353000Y-117638000D01*
X157353000Y-90932000D02*
X158750000Y-90932000D01*
X159700000Y-91727000D02*
X159700000Y-91760000D01*
X165647000Y-86473000D02*
X165647000Y-87845000D01*
X157797000Y-86473000D02*
X157797000Y-86932000D01*
X173101000Y-100330000D02*
X173101000Y-86487000D01*
X166447000Y-79473000D02*
X166447000Y-81123000D01*
X164797000Y-72473000D02*
X164797000Y-77823000D01*
X173355000Y-118237000D02*
X173355000Y-111125000D01*
X174117000Y-101346000D02*
X173101000Y-100330000D01*
X160930500Y-102997000D02*
X160930500Y-103907500D01*
X174879000Y-76073000D02*
X171797000Y-76073000D01*
X163577500Y-91690000D02*
X163815000Y-91690000D01*
X163830000Y-96416500D02*
X163830000Y-99013000D01*
X151257000Y-108966000D02*
X152273000Y-108966000D01*
X159258000Y-92202000D02*
X158750000Y-92202000D01*
X166370000Y-100076000D02*
X166116000Y-100330000D01*
X159394000Y-105274000D02*
X159394000Y-106286000D01*
X171852500Y-89683500D02*
X171831000Y-89662000D01*
X178308000Y-79629000D02*
X175895000Y-79629000D01*
X164084000Y-101346000D02*
X164084000Y-102592500D01*
X157226000Y-94488000D02*
X158750000Y-92964000D01*
X160782000Y-110998000D02*
X160147000Y-110363000D01*
X161095000Y-80323000D02*
X161163000Y-80391000D01*
X153543000Y-77216000D02*
X154813000Y-78486000D01*
X160930500Y-102997000D02*
X161036000Y-102891500D01*
X156754000Y-127743000D02*
X160018000Y-131007000D01*
X178308000Y-75438000D02*
X178308000Y-79629000D01*
X160547000Y-72473000D02*
X161397000Y-72473000D01*
X164797000Y-79473000D02*
X164797000Y-77823000D01*
X161138000Y-130432000D02*
X161163000Y-130407000D01*
X159700000Y-91760000D02*
X159258000Y-92202000D01*
X158855500Y-101494500D02*
X158855500Y-102997000D01*
X157353000Y-102997000D02*
X156972000Y-103378000D01*
X166447000Y-81865000D02*
X170307000Y-85725000D01*
X164088000Y-129671000D02*
X164084000Y-129667000D01*
X170747000Y-72879000D02*
X171069000Y-73201000D01*
X158869000Y-107450000D02*
X158869000Y-107086000D01*
X175895000Y-77089000D02*
X174879000Y-76073000D01*
X169047000Y-72473000D02*
X168197000Y-72473000D01*
X171624000Y-96600000D02*
X171624000Y-97536000D01*
X164361500Y-102870000D02*
X165608000Y-102870000D01*
X169756000Y-90572500D02*
X169756000Y-93980000D01*
X157709000Y-75311000D02*
X157797000Y-75223000D01*
X171958000Y-96266000D02*
X171624000Y-96600000D01*
X160655000Y-110998000D02*
X160782000Y-110998000D01*
X171323000Y-85999000D02*
X171797000Y-86473000D01*
X162306000Y-97536000D02*
X163529000Y-98759000D01*
X160930500Y-103907500D02*
X161417000Y-104394000D01*
X168057000Y-126186000D02*
X168057000Y-127472000D01*
X165608000Y-120142000D02*
X164719000Y-119253000D01*
X157353000Y-87376000D02*
X157353000Y-88392000D01*
X171807000Y-73533000D02*
X173355000Y-73533000D01*
X171600500Y-100353500D02*
X171600500Y-103759000D01*
X169777500Y-90551000D02*
X169756000Y-90572500D01*
X160401000Y-107696000D02*
X159458000Y-107696000D01*
X170180000Y-104902000D02*
X168656000Y-104902000D01*
X161254000Y-128560000D02*
X161163000Y-128651000D01*
X163576000Y-130420000D02*
X163588000Y-130432000D01*
X161163000Y-130407000D02*
X161163000Y-128651000D01*
X164846000Y-86522000D02*
X164797000Y-86473000D01*
X165100000Y-100838000D02*
X167894000Y-100838000D01*
X171852500Y-90551000D02*
X171852500Y-89683500D01*
X161163000Y-96139000D02*
X161163000Y-98916000D01*
X159893000Y-120142000D02*
X160567000Y-120142000D01*
X159697000Y-72473000D02*
X160547000Y-72473000D01*
X163147000Y-79473000D02*
X163147000Y-81123000D01*
X167538000Y-129692000D02*
X167513000Y-129667000D01*
X156754000Y-127329000D02*
X156754000Y-127743000D01*
X158242000Y-108839000D02*
X158115000Y-108712000D01*
X153543000Y-75311000D02*
X157709000Y-75311000D01*
X159567000Y-130556000D02*
X160018000Y-131007000D01*
X175895000Y-125349000D02*
X172339000Y-128905000D01*
X160909000Y-91694000D02*
X159733000Y-91694000D01*
X163853500Y-96393000D02*
X163830000Y-96416500D01*
X157797000Y-73523000D02*
X157797000Y-74373000D01*
X173355000Y-75438000D02*
X178308000Y-75438000D01*
X167894000Y-96012000D02*
X167894000Y-100438000D01*
X158847000Y-72473000D02*
X159697000Y-72473000D01*
X167538000Y-130432000D02*
X167538000Y-129692000D01*
X169897000Y-72473000D02*
X169047000Y-72473000D01*
X159861000Y-106299000D02*
X161925000Y-106299000D01*
X173355000Y-111125000D02*
X172974000Y-111125000D01*
X165608000Y-102870000D02*
X165608000Y-105537000D01*
X159512000Y-100838000D02*
X158855500Y-101494500D01*
X162247000Y-72473000D02*
X163097000Y-72473000D01*
X164797000Y-79473000D02*
X164797000Y-81123000D01*
X160655000Y-112738000D02*
X160655000Y-110998000D01*
X168197000Y-72473000D02*
X167347000Y-72473000D01*
X161036000Y-102891500D02*
X161036000Y-100838000D01*
X164088000Y-130432000D02*
X164088000Y-129671000D01*
X169799000Y-101600000D02*
X169799000Y-100330000D01*
X162179000Y-85471000D02*
X161906000Y-85744000D01*
X152273000Y-108966000D02*
X153543000Y-110236000D01*
X174117000Y-105029000D02*
X174117000Y-101346000D01*
X167347000Y-72473000D02*
X166497000Y-72473000D01*
X163576000Y-129159000D02*
X163576000Y-130420000D01*
X164797000Y-77823000D02*
X166447000Y-77823000D01*
X162306000Y-96139000D02*
X162306000Y-97536000D01*
X161925000Y-90805000D02*
X161925000Y-106299000D01*
X154813000Y-78486000D02*
X154813000Y-78994000D01*
X159131000Y-101219000D02*
X157226000Y-101219000D01*
X163147000Y-77823000D02*
X164797000Y-77823000D01*
X173355000Y-73533000D02*
X173355000Y-75438000D01*
X167384000Y-102592500D02*
X167386000Y-102594500D01*
X163573500Y-91694000D02*
X163577500Y-91690000D01*
X158855500Y-102997000D02*
X157353000Y-102997000D01*
X160401000Y-104648000D02*
X160020000Y-105029000D01*
X160020000Y-105029000D02*
X159639000Y-105029000D01*
X171831000Y-93980000D02*
X171831000Y-90572500D01*
X152273000Y-98933000D02*
X151257000Y-99949000D01*
X172081000Y-83439000D02*
X171797000Y-83723000D01*
X157797000Y-80323000D02*
X161095000Y-80323000D01*
X167894000Y-100438000D02*
X166732000Y-100438000D01*
X161163000Y-98916000D02*
X161561000Y-99314000D01*
X158847000Y-86517000D02*
X158847000Y-86473000D01*
X174752000Y-120269000D02*
X174752000Y-118237000D01*
X151257000Y-99949000D02*
X151257000Y-108966000D01*
X158115000Y-108712000D02*
X158115000Y-108204000D01*
X171323000Y-85979000D02*
X171323000Y-85999000D01*
X157118000Y-91548000D02*
X157226000Y-91440000D01*
X157797000Y-86932000D02*
X157353000Y-87376000D01*
%TD*%
%TA.AperFunction,NonConductor*%
G36*
X179274539Y-70370185D02*
G01*
X179320294Y-70422989D01*
X179331500Y-70474500D01*
X179331500Y-74250815D01*
X179311815Y-74317854D01*
X179259011Y-74363609D01*
X179189853Y-74373553D01*
X179175407Y-74370590D01*
X179174784Y-74370423D01*
X179022057Y-74329500D01*
X179022056Y-74329500D01*
X178303610Y-74329500D01*
X178236571Y-74309815D01*
X178190816Y-74257011D01*
X178180872Y-74187853D01*
X178209897Y-74124297D01*
X178218726Y-74115108D01*
X178229390Y-74105094D01*
X178429947Y-73862663D01*
X178598537Y-73597007D01*
X178732503Y-73312315D01*
X178829731Y-73013079D01*
X178888688Y-72704015D01*
X178908444Y-72390000D01*
X178888688Y-72075985D01*
X178829731Y-71766921D01*
X178732503Y-71467685D01*
X178598537Y-71182993D01*
X178429947Y-70917337D01*
X178429945Y-70917334D01*
X178229393Y-70674909D01*
X178229391Y-70674907D01*
X178112237Y-70564892D01*
X178076842Y-70504651D01*
X178079635Y-70434837D01*
X178119729Y-70377616D01*
X178184394Y-70351155D01*
X178197121Y-70350500D01*
X179207500Y-70350500D01*
X179274539Y-70370185D01*
G37*
%TD.AperFunction*%
%TA.AperFunction,NonConductor*%
G36*
X174675918Y-70370185D02*
G01*
X174721673Y-70422989D01*
X174731617Y-70492147D01*
X174702592Y-70555703D01*
X174693763Y-70564892D01*
X174576608Y-70674907D01*
X174576606Y-70674909D01*
X174376054Y-70917334D01*
X174376051Y-70917338D01*
X174207464Y-71182990D01*
X174207461Y-71182996D01*
X174073499Y-71467678D01*
X174073497Y-71467683D01*
X173976270Y-71766916D01*
X173917311Y-72075988D01*
X173917310Y-72075995D01*
X173897556Y-72389994D01*
X173897556Y-72390005D01*
X173917310Y-72704004D01*
X173917311Y-72704011D01*
X173917312Y-72704015D01*
X173969563Y-72977929D01*
X173962790Y-73047467D01*
X173919495Y-73102306D01*
X173853424Y-73125033D01*
X173785556Y-73108431D01*
X173760079Y-73088843D01*
X173723717Y-73052481D01*
X173723709Y-73052475D01*
X173586790Y-72973426D01*
X173586786Y-72973424D01*
X173586784Y-72973423D01*
X173434057Y-72932500D01*
X173434056Y-72932500D01*
X172821500Y-72932500D01*
X172754461Y-72912815D01*
X172708706Y-72860011D01*
X172697500Y-72808500D01*
X172697499Y-72025129D01*
X172697498Y-72025123D01*
X172697497Y-72025116D01*
X172691091Y-71965517D01*
X172640796Y-71830669D01*
X172640795Y-71830668D01*
X172640793Y-71830664D01*
X172554547Y-71715455D01*
X172554544Y-71715452D01*
X172439335Y-71629206D01*
X172439328Y-71629202D01*
X172304482Y-71578908D01*
X172304483Y-71578908D01*
X172244883Y-71572501D01*
X172244881Y-71572500D01*
X172244873Y-71572500D01*
X172244864Y-71572500D01*
X171349129Y-71572500D01*
X171349123Y-71572501D01*
X171289516Y-71578908D01*
X171215332Y-71606577D01*
X171145640Y-71611561D01*
X171128668Y-71606577D01*
X171054488Y-71578910D01*
X171054484Y-71578909D01*
X171054483Y-71578909D01*
X170994873Y-71572500D01*
X170994863Y-71572500D01*
X170499129Y-71572500D01*
X170499123Y-71572501D01*
X170439516Y-71578908D01*
X170365332Y-71606577D01*
X170295640Y-71611561D01*
X170278668Y-71606577D01*
X170204488Y-71578910D01*
X170204484Y-71578909D01*
X170204483Y-71578909D01*
X170144873Y-71572500D01*
X170144863Y-71572500D01*
X169649129Y-71572500D01*
X169649123Y-71572501D01*
X169589516Y-71578908D01*
X169515332Y-71606577D01*
X169445640Y-71611561D01*
X169428668Y-71606577D01*
X169354488Y-71578910D01*
X169354484Y-71578909D01*
X169354483Y-71578909D01*
X169294873Y-71572500D01*
X169294863Y-71572500D01*
X168799129Y-71572500D01*
X168799123Y-71572501D01*
X168739516Y-71578908D01*
X168665332Y-71606577D01*
X168595640Y-71611561D01*
X168578668Y-71606577D01*
X168504488Y-71578910D01*
X168504484Y-71578909D01*
X168504483Y-71578909D01*
X168444873Y-71572500D01*
X168444863Y-71572500D01*
X167949129Y-71572500D01*
X167949123Y-71572501D01*
X167889516Y-71578908D01*
X167815332Y-71606577D01*
X167745640Y-71611561D01*
X167728668Y-71606577D01*
X167654488Y-71578910D01*
X167654484Y-71578909D01*
X167654483Y-71578909D01*
X167594873Y-71572500D01*
X167594863Y-71572500D01*
X167099129Y-71572500D01*
X167099123Y-71572501D01*
X167039516Y-71578908D01*
X166965332Y-71606577D01*
X166895640Y-71611561D01*
X166878668Y-71606577D01*
X166804488Y-71578910D01*
X166804484Y-71578909D01*
X166804483Y-71578909D01*
X166744873Y-71572500D01*
X166744863Y-71572500D01*
X166249129Y-71572500D01*
X166249123Y-71572501D01*
X166189516Y-71578908D01*
X166115332Y-71606577D01*
X166045640Y-71611561D01*
X166028668Y-71606577D01*
X165954488Y-71578910D01*
X165954484Y-71578909D01*
X165954483Y-71578909D01*
X165894873Y-71572500D01*
X165894863Y-71572500D01*
X165399129Y-71572500D01*
X165399123Y-71572501D01*
X165339516Y-71578908D01*
X165265332Y-71606577D01*
X165195640Y-71611561D01*
X165178668Y-71606577D01*
X165104488Y-71578910D01*
X165104484Y-71578909D01*
X165104483Y-71578909D01*
X165044873Y-71572500D01*
X165044863Y-71572500D01*
X164549129Y-71572500D01*
X164549123Y-71572501D01*
X164489516Y-71578908D01*
X164415332Y-71606577D01*
X164345640Y-71611561D01*
X164328668Y-71606577D01*
X164254488Y-71578910D01*
X164254484Y-71578909D01*
X164254483Y-71578909D01*
X164194873Y-71572500D01*
X164194863Y-71572500D01*
X163699129Y-71572500D01*
X163699123Y-71572501D01*
X163639516Y-71578908D01*
X163565332Y-71606577D01*
X163495640Y-71611561D01*
X163478668Y-71606577D01*
X163404488Y-71578910D01*
X163404484Y-71578909D01*
X163404483Y-71578909D01*
X163344873Y-71572500D01*
X163344863Y-71572500D01*
X162849129Y-71572500D01*
X162849123Y-71572501D01*
X162789516Y-71578908D01*
X162715332Y-71606577D01*
X162645640Y-71611561D01*
X162628668Y-71606577D01*
X162554488Y-71578910D01*
X162554484Y-71578909D01*
X162554483Y-71578909D01*
X162494873Y-71572500D01*
X162494863Y-71572500D01*
X161999129Y-71572500D01*
X161999123Y-71572501D01*
X161939516Y-71578908D01*
X161865332Y-71606577D01*
X161795640Y-71611561D01*
X161778668Y-71606577D01*
X161704488Y-71578910D01*
X161704484Y-71578909D01*
X161704483Y-71578909D01*
X161644873Y-71572500D01*
X161644863Y-71572500D01*
X161149129Y-71572500D01*
X161149123Y-71572501D01*
X161089516Y-71578908D01*
X161015332Y-71606577D01*
X160945640Y-71611561D01*
X160928668Y-71606577D01*
X160854488Y-71578910D01*
X160854484Y-71578909D01*
X160854483Y-71578909D01*
X160794873Y-71572500D01*
X160794863Y-71572500D01*
X160299129Y-71572500D01*
X160299123Y-71572501D01*
X160239516Y-71578908D01*
X160165332Y-71606577D01*
X160095640Y-71611561D01*
X160078668Y-71606577D01*
X160004488Y-71578910D01*
X160004484Y-71578909D01*
X160004483Y-71578909D01*
X159944873Y-71572500D01*
X159944863Y-71572500D01*
X159449129Y-71572500D01*
X159449123Y-71572501D01*
X159389516Y-71578908D01*
X159315332Y-71606577D01*
X159245640Y-71611561D01*
X159228668Y-71606577D01*
X159154488Y-71578910D01*
X159154484Y-71578909D01*
X159154483Y-71578909D01*
X159094873Y-71572500D01*
X159094863Y-71572500D01*
X158599129Y-71572500D01*
X158599123Y-71572501D01*
X158539516Y-71578908D01*
X158465332Y-71606577D01*
X158395640Y-71611561D01*
X158378668Y-71606577D01*
X158304485Y-71578909D01*
X158304483Y-71578908D01*
X158244883Y-71572501D01*
X158244881Y-71572500D01*
X158244873Y-71572500D01*
X158244864Y-71572500D01*
X157349129Y-71572500D01*
X157349123Y-71572501D01*
X157289516Y-71578908D01*
X157154671Y-71629202D01*
X157154664Y-71629206D01*
X157039455Y-71715452D01*
X157039452Y-71715455D01*
X156953206Y-71830664D01*
X156953202Y-71830671D01*
X156902908Y-71965517D01*
X156896501Y-72025116D01*
X156896501Y-72025123D01*
X156896500Y-72025135D01*
X156896500Y-72920870D01*
X156896501Y-72920876D01*
X156902908Y-72980483D01*
X156930577Y-73054667D01*
X156935561Y-73124358D01*
X156930577Y-73141331D01*
X156902910Y-73215511D01*
X156902909Y-73215515D01*
X156902909Y-73215517D01*
X156896500Y-73275127D01*
X156896500Y-73275134D01*
X156896500Y-73275135D01*
X156896500Y-73770870D01*
X156896501Y-73770876D01*
X156902908Y-73830483D01*
X156930577Y-73904667D01*
X156935561Y-73974358D01*
X156930577Y-73991331D01*
X156902910Y-74065511D01*
X156902909Y-74065515D01*
X156902909Y-74065517D01*
X156896500Y-74125127D01*
X156896500Y-74370590D01*
X156896501Y-74586500D01*
X156876817Y-74653539D01*
X156824013Y-74699294D01*
X156772501Y-74710500D01*
X154476844Y-74710500D01*
X154409805Y-74690815D01*
X154364050Y-74638011D01*
X154354106Y-74568853D01*
X154383131Y-74505297D01*
X154403959Y-74486182D01*
X154619612Y-74329500D01*
X154632030Y-74320478D01*
X154861390Y-74105094D01*
X155061947Y-73862663D01*
X155230537Y-73597007D01*
X155364503Y-73312315D01*
X155461731Y-73013079D01*
X155520688Y-72704015D01*
X155540444Y-72390000D01*
X155520688Y-72075985D01*
X155461731Y-71766921D01*
X155364503Y-71467685D01*
X155230537Y-71182993D01*
X155061947Y-70917337D01*
X155061945Y-70917334D01*
X154861393Y-70674909D01*
X154861391Y-70674907D01*
X154744237Y-70564892D01*
X154708842Y-70504651D01*
X154711635Y-70434837D01*
X154751729Y-70377616D01*
X154816394Y-70351155D01*
X154829121Y-70350500D01*
X174608879Y-70350500D01*
X174675918Y-70370185D01*
G37*
%TD.AperFunction*%
%TA.AperFunction,NonConductor*%
G36*
X163565327Y-73339420D02*
G01*
X163639517Y-73367091D01*
X163699127Y-73373500D01*
X164072500Y-73373499D01*
X164139539Y-73393183D01*
X164185294Y-73445987D01*
X164196500Y-73497499D01*
X164196500Y-76606023D01*
X164176815Y-76673062D01*
X164124011Y-76718817D01*
X164096866Y-76726265D01*
X164097069Y-76727124D01*
X164089516Y-76728908D01*
X164015332Y-76756577D01*
X163945640Y-76761561D01*
X163928668Y-76756577D01*
X163854485Y-76728909D01*
X163854483Y-76728908D01*
X163794883Y-76722501D01*
X163794881Y-76722500D01*
X163794873Y-76722500D01*
X163794864Y-76722500D01*
X162902029Y-76722500D01*
X162817950Y-76733060D01*
X162684984Y-76788136D01*
X162618065Y-76840121D01*
X162618058Y-76840127D01*
X162164117Y-77294067D01*
X162164108Y-77294077D01*
X162112136Y-77360982D01*
X162057060Y-77493950D01*
X162046500Y-77578019D01*
X162046500Y-77585903D01*
X162026815Y-77652942D01*
X161974011Y-77698697D01*
X161904853Y-77708641D01*
X161841297Y-77679616D01*
X161834819Y-77673584D01*
X159872590Y-75711355D01*
X159872588Y-75711352D01*
X159753717Y-75592481D01*
X159753716Y-75592480D01*
X159646334Y-75530483D01*
X159646332Y-75530482D01*
X159616785Y-75513423D01*
X159616784Y-75513422D01*
X159616783Y-75513422D01*
X159560881Y-75498443D01*
X159464057Y-75472499D01*
X159305943Y-75472499D01*
X159298347Y-75472499D01*
X159298331Y-75472500D01*
X158821500Y-75472500D01*
X158754461Y-75452815D01*
X158708706Y-75400011D01*
X158697500Y-75348500D01*
X158697499Y-74975130D01*
X158697498Y-74975123D01*
X158691091Y-74915518D01*
X158689102Y-74910185D01*
X158663421Y-74841332D01*
X158658438Y-74771642D01*
X158663420Y-74754672D01*
X158691091Y-74680483D01*
X158697500Y-74620873D01*
X158697499Y-74125128D01*
X158691091Y-74065517D01*
X158663421Y-73991332D01*
X158658438Y-73921642D01*
X158663422Y-73904667D01*
X158691091Y-73830483D01*
X158697500Y-73770873D01*
X158697499Y-73497497D01*
X158717183Y-73430460D01*
X158769987Y-73384705D01*
X158821499Y-73373499D01*
X159094871Y-73373499D01*
X159094872Y-73373499D01*
X159154483Y-73367091D01*
X159228667Y-73339421D01*
X159298358Y-73334438D01*
X159315327Y-73339420D01*
X159389517Y-73367091D01*
X159449127Y-73373500D01*
X159944872Y-73373499D01*
X160004483Y-73367091D01*
X160078667Y-73339421D01*
X160148358Y-73334438D01*
X160165327Y-73339420D01*
X160239517Y-73367091D01*
X160299127Y-73373500D01*
X160794872Y-73373499D01*
X160854483Y-73367091D01*
X160928667Y-73339421D01*
X160998358Y-73334438D01*
X161015327Y-73339420D01*
X161089517Y-73367091D01*
X161149127Y-73373500D01*
X161644872Y-73373499D01*
X161704483Y-73367091D01*
X161778667Y-73339421D01*
X161848358Y-73334438D01*
X161865327Y-73339420D01*
X161939517Y-73367091D01*
X161999127Y-73373500D01*
X162494872Y-73373499D01*
X162554483Y-73367091D01*
X162628667Y-73339421D01*
X162698358Y-73334438D01*
X162715327Y-73339420D01*
X162789517Y-73367091D01*
X162849127Y-73373500D01*
X163344872Y-73373499D01*
X163404483Y-73367091D01*
X163478667Y-73339421D01*
X163548358Y-73334438D01*
X163565327Y-73339420D01*
G37*
%TD.AperFunction*%
%TA.AperFunction,NonConductor*%
G36*
X159151942Y-76693185D02*
G01*
X159172584Y-76709819D01*
X161050263Y-78587498D01*
X161078523Y-78631206D01*
X161090779Y-78663521D01*
X161090781Y-78663524D01*
X161100814Y-78678060D01*
X161122697Y-78744415D01*
X161105231Y-78812066D01*
X161053964Y-78859536D01*
X160998764Y-78872500D01*
X158821500Y-78872500D01*
X158754461Y-78852815D01*
X158708706Y-78800011D01*
X158697500Y-78748500D01*
X158697499Y-78375130D01*
X158697498Y-78375123D01*
X158691091Y-78315518D01*
X158691091Y-78315517D01*
X158663421Y-78241332D01*
X158658438Y-78171642D01*
X158663422Y-78154667D01*
X158691091Y-78080483D01*
X158697500Y-78020873D01*
X158697499Y-77525128D01*
X158691091Y-77465517D01*
X158663421Y-77391332D01*
X158658438Y-77321642D01*
X158663422Y-77304667D01*
X158691091Y-77230483D01*
X158697500Y-77170873D01*
X158697499Y-76797499D01*
X158717183Y-76730461D01*
X158769987Y-76684706D01*
X158821499Y-76673500D01*
X159084903Y-76673500D01*
X159151942Y-76693185D01*
G37*
%TD.AperFunction*%
%TA.AperFunction,NonConductor*%
G36*
X177650539Y-76058185D02*
G01*
X177696294Y-76110989D01*
X177707500Y-76162500D01*
X177707500Y-78904500D01*
X177687815Y-78971539D01*
X177635011Y-79017294D01*
X177583500Y-79028500D01*
X177184091Y-79028500D01*
X177117052Y-79008815D01*
X177071711Y-78956909D01*
X177069037Y-78951175D01*
X177069034Y-78951170D01*
X177032002Y-78898283D01*
X176933495Y-78757599D01*
X176811567Y-78635671D01*
X176778084Y-78574351D01*
X176783068Y-78504659D01*
X176824939Y-78448725D01*
X176855915Y-78431810D01*
X176987331Y-78382796D01*
X177102546Y-78296546D01*
X177188796Y-78181331D01*
X177239091Y-78046483D01*
X177245500Y-77986873D01*
X177245499Y-76191128D01*
X177245498Y-76191126D01*
X177245498Y-76191112D01*
X177243847Y-76175756D01*
X177256252Y-76106996D01*
X177303862Y-76055859D01*
X177367136Y-76038500D01*
X177583500Y-76038500D01*
X177650539Y-76058185D01*
G37*
%TD.AperFunction*%
%TA.AperFunction,NonConductor*%
G36*
X178285539Y-80249185D02*
G01*
X178331294Y-80301989D01*
X178342500Y-80353500D01*
X178342500Y-81444500D01*
X178322815Y-81511539D01*
X178270011Y-81557294D01*
X178218500Y-81568500D01*
X177184091Y-81568500D01*
X177117052Y-81548815D01*
X177071711Y-81496909D01*
X177069037Y-81491175D01*
X177069034Y-81491170D01*
X176933494Y-81297597D01*
X176766402Y-81130506D01*
X176766396Y-81130501D01*
X176580842Y-81000575D01*
X176537217Y-80945998D01*
X176530023Y-80876500D01*
X176561546Y-80814145D01*
X176580842Y-80797425D01*
X176722081Y-80698528D01*
X176766401Y-80667495D01*
X176933495Y-80500401D01*
X177069035Y-80306830D01*
X177071707Y-80301097D01*
X177117878Y-80248658D01*
X177184091Y-80229500D01*
X178218500Y-80229500D01*
X178285539Y-80249185D01*
G37*
%TD.AperFunction*%
%TA.AperFunction,NonConductor*%
G36*
X156815833Y-81244913D02*
G01*
X156871767Y-81286784D01*
X156896184Y-81352249D01*
X156896500Y-81361093D01*
X156896500Y-81420869D01*
X156896501Y-81420876D01*
X156902908Y-81480483D01*
X156930577Y-81554667D01*
X156935561Y-81624358D01*
X156930577Y-81641331D01*
X156902910Y-81715511D01*
X156902909Y-81715515D01*
X156902909Y-81715517D01*
X156896500Y-81775127D01*
X156896500Y-82019219D01*
X156896501Y-82148500D01*
X156876817Y-82215539D01*
X156824013Y-82261294D01*
X156772501Y-82272500D01*
X156426500Y-82272500D01*
X156359461Y-82252815D01*
X156313706Y-82200011D01*
X156302500Y-82148500D01*
X156302500Y-81707096D01*
X156322185Y-81640057D01*
X156338815Y-81619419D01*
X156684821Y-81273412D01*
X156746142Y-81239929D01*
X156815833Y-81244913D01*
G37*
%TD.AperFunction*%
%TA.AperFunction,NonConductor*%
G36*
X159997539Y-81773185D02*
G01*
X160043294Y-81825989D01*
X160054500Y-81877500D01*
X160054500Y-82273184D01*
X160034815Y-82340223D01*
X159982011Y-82385978D01*
X159916617Y-82396404D01*
X159766004Y-82379435D01*
X159766003Y-82379435D01*
X159766001Y-82379435D01*
X159766000Y-82379435D01*
X159748674Y-82381387D01*
X159742381Y-82382096D01*
X159673559Y-82370039D01*
X159622181Y-82322689D01*
X159604500Y-82258875D01*
X159604500Y-81943945D01*
X159604499Y-81943941D01*
X159595296Y-81909592D01*
X159596959Y-81839742D01*
X159636122Y-81781880D01*
X159700351Y-81754377D01*
X159715071Y-81753500D01*
X159930500Y-81753500D01*
X159997539Y-81773185D01*
G37*
%TD.AperFunction*%
%TA.AperFunction,NonConductor*%
G36*
X179245256Y-82730072D02*
G01*
X179303119Y-82769234D01*
X179330623Y-82833462D01*
X179331500Y-82848184D01*
X179331500Y-83277784D01*
X179311815Y-83344823D01*
X179259011Y-83390578D01*
X179189853Y-83400522D01*
X179149874Y-83387580D01*
X179048365Y-83334303D01*
X178894986Y-83296500D01*
X178894985Y-83296500D01*
X178766678Y-83296500D01*
X178699639Y-83276815D01*
X178653884Y-83224011D01*
X178646905Y-83204600D01*
X178613577Y-83080216D01*
X178541573Y-82955500D01*
X178525100Y-82887599D01*
X178547953Y-82821572D01*
X178602874Y-82778382D01*
X178648960Y-82769500D01*
X179022054Y-82769500D01*
X179022057Y-82769500D01*
X179174784Y-82728577D01*
X179174788Y-82728574D01*
X179175406Y-82728409D01*
X179245256Y-82730072D01*
G37*
%TD.AperFunction*%
%TA.AperFunction,NonConductor*%
G36*
X177401413Y-84006266D02*
G01*
X177444611Y-84061181D01*
X177453500Y-84107283D01*
X177453500Y-84365595D01*
X177433815Y-84432634D01*
X177381011Y-84478389D01*
X177311853Y-84488333D01*
X177248297Y-84459308D01*
X177210523Y-84400530D01*
X177209725Y-84397688D01*
X177168905Y-84245344D01*
X177168902Y-84245335D01*
X177150902Y-84206734D01*
X177140274Y-84183944D01*
X177129783Y-84114868D01*
X177158303Y-84051084D01*
X177216779Y-84012844D01*
X177220525Y-84011776D01*
X177269785Y-83998577D01*
X177269787Y-83998575D01*
X177277296Y-83995466D01*
X177278070Y-83997334D01*
X177335383Y-83983423D01*
X177401413Y-84006266D01*
G37*
%TD.AperFunction*%
%TA.AperFunction,NonConductor*%
G36*
X169515327Y-73339420D02*
G01*
X169589517Y-73367091D01*
X169649127Y-73373500D01*
X170144872Y-73373499D01*
X170204483Y-73367091D01*
X170261918Y-73345668D01*
X170331609Y-73340684D01*
X170392932Y-73374168D01*
X170432181Y-73413417D01*
X170465666Y-73474740D01*
X170468500Y-73501098D01*
X170468500Y-75104943D01*
X170468500Y-75263057D01*
X170491395Y-75348500D01*
X170509423Y-75415783D01*
X170509426Y-75415790D01*
X170588475Y-75552709D01*
X170588479Y-75552714D01*
X170588480Y-75552716D01*
X170700284Y-75664520D01*
X170700286Y-75664521D01*
X170700290Y-75664524D01*
X170834499Y-75742009D01*
X170882715Y-75792575D01*
X170896500Y-75849396D01*
X170896500Y-76320870D01*
X170896501Y-76320876D01*
X170902908Y-76380483D01*
X170930577Y-76454667D01*
X170935561Y-76524358D01*
X170930577Y-76541331D01*
X170902910Y-76615511D01*
X170902909Y-76615515D01*
X170902909Y-76615517D01*
X170896500Y-76675127D01*
X170896500Y-76675134D01*
X170896500Y-76675135D01*
X170896500Y-77170870D01*
X170896501Y-77170876D01*
X170902908Y-77230483D01*
X170930577Y-77304667D01*
X170935561Y-77374358D01*
X170930577Y-77391331D01*
X170902910Y-77465511D01*
X170902909Y-77465515D01*
X170902909Y-77465517D01*
X170896500Y-77525127D01*
X170896500Y-77525134D01*
X170896500Y-77525135D01*
X170896500Y-78020870D01*
X170896501Y-78020876D01*
X170902908Y-78080483D01*
X170930577Y-78154667D01*
X170935561Y-78224358D01*
X170930577Y-78241331D01*
X170902910Y-78315511D01*
X170902909Y-78315515D01*
X170902909Y-78315517D01*
X170896500Y-78375127D01*
X170896500Y-78375134D01*
X170896500Y-78375135D01*
X170896500Y-78870870D01*
X170896501Y-78870876D01*
X170902908Y-78930483D01*
X170930577Y-79004667D01*
X170935561Y-79074358D01*
X170930577Y-79091331D01*
X170902909Y-79165514D01*
X170902908Y-79165516D01*
X170896501Y-79225116D01*
X170896500Y-79225135D01*
X170896500Y-79518450D01*
X170876815Y-79585489D01*
X170824011Y-79631244D01*
X170754853Y-79641188D01*
X170742826Y-79638847D01*
X170639986Y-79613500D01*
X170639985Y-79613500D01*
X170482015Y-79613500D01*
X170482014Y-79613500D01*
X170328634Y-79651303D01*
X170188762Y-79724715D01*
X170070516Y-79829471D01*
X169980781Y-79959475D01*
X169980780Y-79959476D01*
X169924762Y-80107181D01*
X169905722Y-80263999D01*
X169905722Y-80264000D01*
X169924762Y-80420818D01*
X169954945Y-80500402D01*
X169980780Y-80568523D01*
X170070517Y-80698530D01*
X170188760Y-80803283D01*
X170188762Y-80803284D01*
X170328634Y-80876696D01*
X170482014Y-80914500D01*
X170482015Y-80914500D01*
X170491025Y-80914500D01*
X170523117Y-80918725D01*
X170536716Y-80922368D01*
X170540943Y-80923501D01*
X170540944Y-80923501D01*
X170706654Y-80923501D01*
X170706670Y-80923500D01*
X170772500Y-80923500D01*
X170839539Y-80943185D01*
X170885294Y-80995989D01*
X170896500Y-81047500D01*
X170896501Y-81317500D01*
X170876817Y-81384539D01*
X170824013Y-81430294D01*
X170772501Y-81441500D01*
X170339166Y-81441500D01*
X170293069Y-81430137D01*
X170292377Y-81431963D01*
X170285365Y-81429303D01*
X170131986Y-81391500D01*
X170131985Y-81391500D01*
X169974015Y-81391500D01*
X169974014Y-81391500D01*
X169820634Y-81429303D01*
X169680762Y-81502715D01*
X169562516Y-81607471D01*
X169472781Y-81737475D01*
X169472780Y-81737476D01*
X169416762Y-81885181D01*
X169397722Y-82041999D01*
X169397722Y-82042000D01*
X169416762Y-82198818D01*
X169453619Y-82296000D01*
X169472780Y-82346523D01*
X169562517Y-82476530D01*
X169680760Y-82581283D01*
X169680762Y-82581284D01*
X169820634Y-82654696D01*
X169974014Y-82692500D01*
X170095622Y-82692500D01*
X170162661Y-82712185D01*
X170208416Y-82764989D01*
X170218360Y-82834147D01*
X170215397Y-82848593D01*
X170214499Y-82851943D01*
X170214499Y-83020046D01*
X170214500Y-83020059D01*
X170214500Y-84483903D01*
X170194815Y-84550942D01*
X170142011Y-84596697D01*
X170072853Y-84606641D01*
X170009297Y-84577616D01*
X170002819Y-84571584D01*
X167521546Y-82090311D01*
X167488061Y-82028988D01*
X167493044Y-81959302D01*
X167541091Y-81830483D01*
X167547500Y-81770873D01*
X167547499Y-80475128D01*
X167541091Y-80415517D01*
X167513421Y-80341332D01*
X167508438Y-80271642D01*
X167513420Y-80254672D01*
X167541091Y-80180483D01*
X167547500Y-80120873D01*
X167547499Y-78825128D01*
X167541091Y-78765517D01*
X167513421Y-78691332D01*
X167508438Y-78621642D01*
X167513420Y-78604672D01*
X167541091Y-78530483D01*
X167547500Y-78470873D01*
X167547499Y-77175128D01*
X167541091Y-77115517D01*
X167490796Y-76980669D01*
X167490795Y-76980668D01*
X167490793Y-76980664D01*
X167404547Y-76865455D01*
X167404544Y-76865452D01*
X167289335Y-76779206D01*
X167289328Y-76779202D01*
X167154482Y-76728908D01*
X167154483Y-76728908D01*
X167094883Y-76722501D01*
X167094881Y-76722500D01*
X167094873Y-76722500D01*
X167094864Y-76722500D01*
X165799129Y-76722500D01*
X165799123Y-76722501D01*
X165739516Y-76728908D01*
X165665332Y-76756577D01*
X165595640Y-76761561D01*
X165578668Y-76756577D01*
X165504485Y-76728909D01*
X165496938Y-76727126D01*
X165497474Y-76724853D01*
X165443688Y-76702571D01*
X165403843Y-76645177D01*
X165397500Y-76606024D01*
X165397500Y-73497499D01*
X165417185Y-73430460D01*
X165469989Y-73384705D01*
X165521496Y-73373499D01*
X165894872Y-73373499D01*
X165954483Y-73367091D01*
X166028667Y-73339421D01*
X166098358Y-73334438D01*
X166115327Y-73339420D01*
X166189517Y-73367091D01*
X166249127Y-73373500D01*
X166744872Y-73373499D01*
X166804483Y-73367091D01*
X166878667Y-73339421D01*
X166948358Y-73334438D01*
X166965327Y-73339420D01*
X167039517Y-73367091D01*
X167099127Y-73373500D01*
X167594872Y-73373499D01*
X167654483Y-73367091D01*
X167728667Y-73339421D01*
X167798358Y-73334438D01*
X167815327Y-73339420D01*
X167889517Y-73367091D01*
X167949127Y-73373500D01*
X168444872Y-73373499D01*
X168504483Y-73367091D01*
X168578667Y-73339421D01*
X168648358Y-73334438D01*
X168665327Y-73339420D01*
X168739517Y-73367091D01*
X168799127Y-73373500D01*
X169294872Y-73373499D01*
X169354483Y-73367091D01*
X169428667Y-73339421D01*
X169498358Y-73334438D01*
X169515327Y-73339420D01*
G37*
%TD.AperFunction*%
%TA.AperFunction,NonConductor*%
G36*
X159864748Y-83999247D02*
G01*
X159916128Y-84046596D01*
X159925752Y-84066440D01*
X159947780Y-84124523D01*
X160037517Y-84254530D01*
X160155760Y-84359283D01*
X160155762Y-84359284D01*
X160281316Y-84425181D01*
X160295635Y-84432696D01*
X160351662Y-84446505D01*
X160356887Y-84447793D01*
X160417267Y-84482949D01*
X160449056Y-84545168D01*
X160442160Y-84614697D01*
X160414894Y-84655870D01*
X160363585Y-84707180D01*
X160302262Y-84740666D01*
X160275903Y-84743500D01*
X159924266Y-84743500D01*
X159857227Y-84723815D01*
X159811472Y-84671011D01*
X159801046Y-84633384D01*
X159789369Y-84529749D01*
X159789368Y-84529745D01*
X159752779Y-84425181D01*
X159729789Y-84359478D01*
X159729666Y-84359283D01*
X159678263Y-84277475D01*
X159633816Y-84206738D01*
X159633814Y-84206736D01*
X159633813Y-84206734D01*
X159631550Y-84203896D01*
X159630659Y-84201715D01*
X159630111Y-84200842D01*
X159630264Y-84200745D01*
X159605144Y-84139209D01*
X159604500Y-84126587D01*
X159604500Y-84111124D01*
X159624185Y-84044085D01*
X159676989Y-83998330D01*
X159742384Y-83987904D01*
X159756424Y-83989486D01*
X159765999Y-83990565D01*
X159766000Y-83990565D01*
X159766001Y-83990565D01*
X159795926Y-83987193D01*
X159864748Y-83999247D01*
G37*
%TD.AperFunction*%
%TA.AperFunction,NonConductor*%
G36*
X165665327Y-82189420D02*
G01*
X165739517Y-82217091D01*
X165799127Y-82223500D01*
X165904900Y-82223499D01*
X165971939Y-82243183D01*
X165992581Y-82259817D01*
X166078284Y-82345520D01*
X166078285Y-82345520D01*
X166085352Y-82352587D01*
X166085351Y-82352587D01*
X166085355Y-82352590D01*
X167502584Y-83769819D01*
X167536069Y-83831142D01*
X167531085Y-83900834D01*
X167489213Y-83956767D01*
X167423749Y-83981184D01*
X167414903Y-83981500D01*
X167291166Y-83981500D01*
X167245069Y-83970137D01*
X167244377Y-83971963D01*
X167237365Y-83969303D01*
X167083986Y-83931500D01*
X167083985Y-83931500D01*
X166926015Y-83931500D01*
X166926014Y-83931500D01*
X166772634Y-83969303D01*
X166632762Y-84042715D01*
X166514516Y-84147471D01*
X166424781Y-84277475D01*
X166424780Y-84277476D01*
X166368762Y-84425181D01*
X166349722Y-84581999D01*
X166349722Y-84582000D01*
X166368762Y-84738818D01*
X166414078Y-84858304D01*
X166424780Y-84886523D01*
X166514517Y-85016530D01*
X166632760Y-85121283D01*
X166632762Y-85121284D01*
X166772634Y-85194696D01*
X166926014Y-85232500D01*
X166926015Y-85232500D01*
X167083985Y-85232500D01*
X167237365Y-85194696D01*
X167244377Y-85192037D01*
X167245069Y-85193862D01*
X167291166Y-85182500D01*
X167472500Y-85182500D01*
X167539539Y-85202185D01*
X167585294Y-85254989D01*
X167596500Y-85306500D01*
X167596500Y-85448500D01*
X167576815Y-85515539D01*
X167524011Y-85561294D01*
X167472500Y-85572500D01*
X167099130Y-85572500D01*
X167099123Y-85572501D01*
X167039516Y-85578908D01*
X166965332Y-85606577D01*
X166895640Y-85611561D01*
X166878668Y-85606577D01*
X166804488Y-85578910D01*
X166804484Y-85578909D01*
X166804483Y-85578909D01*
X166744873Y-85572500D01*
X166744863Y-85572500D01*
X166249129Y-85572500D01*
X166249123Y-85572501D01*
X166189516Y-85578908D01*
X166115332Y-85606577D01*
X166045640Y-85611561D01*
X166028668Y-85606577D01*
X165954488Y-85578910D01*
X165954484Y-85578909D01*
X165954483Y-85578909D01*
X165894873Y-85572500D01*
X165894863Y-85572500D01*
X165399129Y-85572500D01*
X165399123Y-85572501D01*
X165339516Y-85578908D01*
X165265332Y-85606577D01*
X165195640Y-85611561D01*
X165178668Y-85606577D01*
X165104488Y-85578910D01*
X165104484Y-85578909D01*
X165104483Y-85578909D01*
X165044873Y-85572500D01*
X165044863Y-85572500D01*
X164549129Y-85572500D01*
X164549123Y-85572501D01*
X164489516Y-85578908D01*
X164415332Y-85606577D01*
X164345640Y-85611561D01*
X164328668Y-85606577D01*
X164254488Y-85578910D01*
X164254484Y-85578909D01*
X164254483Y-85578909D01*
X164194873Y-85572500D01*
X164194863Y-85572500D01*
X163699129Y-85572500D01*
X163699123Y-85572501D01*
X163639516Y-85578908D01*
X163565332Y-85606577D01*
X163495640Y-85611561D01*
X163478668Y-85606577D01*
X163404488Y-85578910D01*
X163404484Y-85578909D01*
X163404483Y-85578909D01*
X163344873Y-85572500D01*
X163344864Y-85572500D01*
X162956456Y-85572500D01*
X162889417Y-85552815D01*
X162843662Y-85500011D01*
X162833361Y-85463450D01*
X162815237Y-85314182D01*
X162759220Y-85166477D01*
X162669483Y-85036470D01*
X162551240Y-84931717D01*
X162551238Y-84931716D01*
X162551237Y-84931715D01*
X162411365Y-84858303D01*
X162257986Y-84820500D01*
X162257985Y-84820500D01*
X162248096Y-84820500D01*
X162181057Y-84800815D01*
X162135302Y-84748011D01*
X162125358Y-84678853D01*
X162154383Y-84615297D01*
X162160415Y-84608819D01*
X164509416Y-82259818D01*
X164570739Y-82226333D01*
X164597097Y-82223499D01*
X165444871Y-82223499D01*
X165444872Y-82223499D01*
X165504483Y-82217091D01*
X165578667Y-82189421D01*
X165648358Y-82184438D01*
X165665327Y-82189420D01*
G37*
%TD.AperFunction*%
%TA.AperFunction,NonConductor*%
G36*
X154853347Y-85436501D02*
G01*
X154977500Y-85436501D01*
X155044539Y-85456186D01*
X155090294Y-85508990D01*
X155101500Y-85560501D01*
X155101500Y-86651500D01*
X155081815Y-86718539D01*
X155029011Y-86764294D01*
X154977500Y-86775500D01*
X154832091Y-86775500D01*
X154765052Y-86755815D01*
X154719711Y-86703909D01*
X154717037Y-86698175D01*
X154717034Y-86698170D01*
X154581494Y-86504597D01*
X154414402Y-86337506D01*
X154414396Y-86337501D01*
X154228842Y-86207575D01*
X154185217Y-86152998D01*
X154178023Y-86083500D01*
X154209546Y-86021145D01*
X154228842Y-86004425D01*
X154251026Y-85988891D01*
X154414401Y-85874495D01*
X154581495Y-85707401D01*
X154717035Y-85513830D01*
X154719707Y-85508097D01*
X154765878Y-85455658D01*
X154832091Y-85436500D01*
X154853331Y-85436500D01*
X154853347Y-85436501D01*
G37*
%TD.AperFunction*%
%TA.AperFunction,NonConductor*%
G36*
X177378312Y-84938415D02*
G01*
X177432190Y-84982900D01*
X177453465Y-85049452D01*
X177453500Y-85052404D01*
X177453500Y-86905595D01*
X177433815Y-86972634D01*
X177381011Y-87018389D01*
X177311853Y-87028333D01*
X177248297Y-86999308D01*
X177210523Y-86940530D01*
X177209725Y-86937688D01*
X177168905Y-86785344D01*
X177168904Y-86785343D01*
X177168903Y-86785337D01*
X177069035Y-86571171D01*
X176933495Y-86377599D01*
X176933494Y-86377597D01*
X176766402Y-86210506D01*
X176766396Y-86210501D01*
X176580842Y-86080575D01*
X176537217Y-86025998D01*
X176530023Y-85956500D01*
X176561546Y-85894145D01*
X176580842Y-85877425D01*
X176603026Y-85861891D01*
X176766401Y-85747495D01*
X176933495Y-85580401D01*
X177069035Y-85386830D01*
X177168903Y-85172663D01*
X177168905Y-85172653D01*
X177168907Y-85172650D01*
X177209725Y-85020311D01*
X177246090Y-84960651D01*
X177308936Y-84930121D01*
X177378312Y-84938415D01*
G37*
%TD.AperFunction*%
%TA.AperFunction,NonConductor*%
G36*
X155552539Y-87996185D02*
G01*
X155598294Y-88048989D01*
X155609500Y-88100500D01*
X155609500Y-88118227D01*
X155601442Y-88162198D01*
X155579721Y-88219471D01*
X155537543Y-88275174D01*
X155471945Y-88299231D01*
X155463779Y-88299500D01*
X154783217Y-88299500D01*
X154716178Y-88279815D01*
X154670423Y-88227011D01*
X154660479Y-88157853D01*
X154681642Y-88104377D01*
X154690339Y-88091955D01*
X154717035Y-88053830D01*
X154719707Y-88048097D01*
X154765878Y-87995658D01*
X154832091Y-87976500D01*
X155485500Y-87976500D01*
X155552539Y-87996185D01*
G37*
%TD.AperFunction*%
%TA.AperFunction,NonConductor*%
G36*
X170389478Y-88395609D02*
G01*
X170446540Y-88435928D01*
X170472746Y-88500697D01*
X170459776Y-88569352D01*
X170411746Y-88620096D01*
X170411352Y-88620324D01*
X170319287Y-88673477D01*
X170233707Y-88759057D01*
X170172383Y-88792541D01*
X170102692Y-88787557D01*
X170046758Y-88745685D01*
X170028984Y-88712329D01*
X170016789Y-88677478D01*
X169963870Y-88593258D01*
X169944870Y-88526022D01*
X169965238Y-88459186D01*
X170018505Y-88413972D01*
X170087762Y-88404734D01*
X170098536Y-88406889D01*
X170101015Y-88407500D01*
X170101016Y-88407500D01*
X170258987Y-88407500D01*
X170258987Y-88407499D01*
X170319675Y-88392541D01*
X170389478Y-88395609D01*
G37*
%TD.AperFunction*%
%TA.AperFunction,NonConductor*%
G36*
X165810255Y-88471868D02*
G01*
X165868118Y-88511030D01*
X165895623Y-88575258D01*
X165896500Y-88589980D01*
X165896500Y-88683500D01*
X165876815Y-88750539D01*
X165824011Y-88796294D01*
X165772500Y-88807500D01*
X165640166Y-88807500D01*
X165594069Y-88796137D01*
X165593377Y-88797963D01*
X165586365Y-88795303D01*
X165462855Y-88764862D01*
X165402474Y-88729706D01*
X165370685Y-88667487D01*
X165377581Y-88597958D01*
X165404847Y-88556785D01*
X165440814Y-88520819D01*
X165502138Y-88487334D01*
X165528494Y-88484501D01*
X165687054Y-88484501D01*
X165687057Y-88484501D01*
X165740409Y-88470205D01*
X165810255Y-88471868D01*
G37*
%TD.AperFunction*%
%TA.AperFunction,NonConductor*%
G36*
X152316703Y-87967308D02*
G01*
X152347882Y-88008617D01*
X152368963Y-88053826D01*
X152368967Y-88053834D01*
X152504501Y-88247395D01*
X152504506Y-88247402D01*
X152671597Y-88414493D01*
X152671603Y-88414498D01*
X152857158Y-88544425D01*
X152900783Y-88599002D01*
X152907977Y-88668500D01*
X152876454Y-88730855D01*
X152857158Y-88747575D01*
X152671597Y-88877505D01*
X152504505Y-89044597D01*
X152368965Y-89238169D01*
X152368964Y-89238171D01*
X152347882Y-89283383D01*
X152301710Y-89335822D01*
X152234516Y-89354974D01*
X152167635Y-89334758D01*
X152122300Y-89281593D01*
X152111500Y-89230978D01*
X152111500Y-88061021D01*
X152131185Y-87993982D01*
X152183989Y-87948227D01*
X152253147Y-87938283D01*
X152316703Y-87967308D01*
G37*
%TD.AperFunction*%
%TA.AperFunction,NonConductor*%
G36*
X177378312Y-87478415D02*
G01*
X177432190Y-87522900D01*
X177453465Y-87589452D01*
X177453500Y-87592404D01*
X177453500Y-89445595D01*
X177433815Y-89512634D01*
X177381011Y-89558389D01*
X177311853Y-89568333D01*
X177248297Y-89539308D01*
X177210523Y-89480530D01*
X177209725Y-89477688D01*
X177168905Y-89325344D01*
X177168904Y-89325343D01*
X177168903Y-89325337D01*
X177069035Y-89111171D01*
X177066433Y-89107454D01*
X176933494Y-88917597D01*
X176766402Y-88750506D01*
X176766396Y-88750501D01*
X176580842Y-88620575D01*
X176537217Y-88565998D01*
X176530023Y-88496500D01*
X176561546Y-88434145D01*
X176580842Y-88417425D01*
X176649006Y-88369696D01*
X176766401Y-88287495D01*
X176933495Y-88120401D01*
X177069035Y-87926830D01*
X177168903Y-87712663D01*
X177209725Y-87560310D01*
X177246090Y-87500651D01*
X177308936Y-87470121D01*
X177378312Y-87478415D01*
G37*
%TD.AperFunction*%
%TA.AperFunction,NonConductor*%
G36*
X155481756Y-89520185D02*
G01*
X155527511Y-89572989D01*
X155537455Y-89642147D01*
X155525625Y-89676329D01*
X155526534Y-89676706D01*
X155523423Y-89684216D01*
X155482500Y-89836943D01*
X155482500Y-91711682D01*
X155462815Y-91778721D01*
X155410011Y-91824476D01*
X155388176Y-91832079D01*
X155342630Y-91843305D01*
X155335623Y-91845963D01*
X155334930Y-91844137D01*
X155288834Y-91855500D01*
X154832091Y-91855500D01*
X154765052Y-91835815D01*
X154719711Y-91783909D01*
X154717037Y-91778175D01*
X154717034Y-91778170D01*
X154717033Y-91778169D01*
X154623965Y-91645252D01*
X154581494Y-91584597D01*
X154414402Y-91417506D01*
X154414396Y-91417501D01*
X154228842Y-91287575D01*
X154185217Y-91232998D01*
X154178023Y-91163500D01*
X154209546Y-91101145D01*
X154228842Y-91084425D01*
X154251026Y-91068891D01*
X154414401Y-90954495D01*
X154581495Y-90787401D01*
X154717035Y-90593830D01*
X154816903Y-90379663D01*
X154878063Y-90151408D01*
X154898659Y-89916000D01*
X154878063Y-89680592D01*
X154871633Y-89656594D01*
X154873294Y-89586745D01*
X154912456Y-89528882D01*
X154976684Y-89501377D01*
X154991407Y-89500500D01*
X155414717Y-89500500D01*
X155481756Y-89520185D01*
G37*
%TD.AperFunction*%
%TA.AperFunction,NonConductor*%
G36*
X152316703Y-90507308D02*
G01*
X152347882Y-90548617D01*
X152368963Y-90593826D01*
X152368967Y-90593834D01*
X152504501Y-90787395D01*
X152504506Y-90787402D01*
X152671597Y-90954493D01*
X152671603Y-90954498D01*
X152857158Y-91084425D01*
X152900783Y-91139002D01*
X152907977Y-91208500D01*
X152876454Y-91270855D01*
X152857158Y-91287575D01*
X152671597Y-91417505D01*
X152504505Y-91584597D01*
X152368965Y-91778169D01*
X152368964Y-91778171D01*
X152347882Y-91823383D01*
X152301710Y-91875822D01*
X152234516Y-91894974D01*
X152167635Y-91874758D01*
X152122300Y-91821593D01*
X152111500Y-91770978D01*
X152111500Y-90601021D01*
X152131185Y-90533982D01*
X152183989Y-90488227D01*
X152253147Y-90478283D01*
X152316703Y-90507308D01*
G37*
%TD.AperFunction*%
%TA.AperFunction,NonConductor*%
G36*
X177378312Y-90018415D02*
G01*
X177432190Y-90062900D01*
X177453465Y-90129452D01*
X177453500Y-90132404D01*
X177453500Y-91985595D01*
X177433815Y-92052634D01*
X177381011Y-92098389D01*
X177311853Y-92108333D01*
X177248297Y-92079308D01*
X177210523Y-92020530D01*
X177209725Y-92017688D01*
X177168905Y-91865344D01*
X177168904Y-91865343D01*
X177168903Y-91865337D01*
X177069035Y-91651171D01*
X177064891Y-91645252D01*
X176933494Y-91457597D01*
X176766402Y-91290506D01*
X176766396Y-91290501D01*
X176580842Y-91160575D01*
X176537217Y-91105998D01*
X176530023Y-91036500D01*
X176561546Y-90974145D01*
X176580842Y-90957425D01*
X176603026Y-90941891D01*
X176766401Y-90827495D01*
X176933495Y-90660401D01*
X177069035Y-90466830D01*
X177168903Y-90252663D01*
X177209725Y-90100310D01*
X177246090Y-90040651D01*
X177308936Y-90010121D01*
X177378312Y-90018415D01*
G37*
%TD.AperFunction*%
%TA.AperFunction,NonConductor*%
G36*
X173906703Y-90682385D02*
G01*
X173913181Y-90688417D01*
X174009349Y-90784585D01*
X174009355Y-90784590D01*
X174711214Y-91486449D01*
X174744699Y-91547772D01*
X174739715Y-91617464D01*
X174725109Y-91645252D01*
X174720966Y-91651168D01*
X174621097Y-91865335D01*
X174621094Y-91865344D01*
X174559938Y-92093586D01*
X174559936Y-92093596D01*
X174539341Y-92328999D01*
X174539341Y-92329000D01*
X174559936Y-92564403D01*
X174559938Y-92564413D01*
X174621094Y-92792655D01*
X174621095Y-92792658D01*
X174621097Y-92792663D01*
X174634822Y-92822097D01*
X174645314Y-92891171D01*
X174616795Y-92954956D01*
X174558319Y-92993196D01*
X174522440Y-92998500D01*
X174276166Y-92998500D01*
X174230069Y-92987137D01*
X174229377Y-92988963D01*
X174222365Y-92986303D01*
X174068986Y-92948500D01*
X174068985Y-92948500D01*
X173911015Y-92948500D01*
X173911014Y-92948500D01*
X173855174Y-92962263D01*
X173785372Y-92959194D01*
X173728310Y-92918873D01*
X173702105Y-92854104D01*
X173701500Y-92841866D01*
X173701500Y-90776098D01*
X173721185Y-90709059D01*
X173773989Y-90663304D01*
X173843147Y-90653360D01*
X173906703Y-90682385D01*
G37*
%TD.AperFunction*%
%TA.AperFunction,NonConductor*%
G36*
X167213518Y-90028185D02*
G01*
X167228703Y-90039682D01*
X167251934Y-90060262D01*
X167267762Y-90074285D01*
X167407634Y-90147696D01*
X167561014Y-90185500D01*
X167561015Y-90185500D01*
X167718985Y-90185500D01*
X167872365Y-90147696D01*
X167873869Y-90146907D01*
X167875093Y-90146661D01*
X167879377Y-90145037D01*
X167879647Y-90145749D01*
X167942376Y-90133178D01*
X168007431Y-90158667D01*
X168048378Y-90215280D01*
X168055500Y-90256700D01*
X168055500Y-93113580D01*
X168035815Y-93180619D01*
X167983011Y-93226374D01*
X167913853Y-93236318D01*
X167850297Y-93207293D01*
X167825961Y-93178677D01*
X167825107Y-93177292D01*
X167739712Y-93038844D01*
X167615656Y-92914788D01*
X167517271Y-92854104D01*
X167466336Y-92822687D01*
X167466331Y-92822685D01*
X167442216Y-92814694D01*
X167299797Y-92767501D01*
X167299795Y-92767500D01*
X167197016Y-92757000D01*
X167197009Y-92757000D01*
X166967500Y-92757000D01*
X166900461Y-92737315D01*
X166854706Y-92684511D01*
X166843500Y-92633000D01*
X166843500Y-90471942D01*
X166843317Y-90471261D01*
X166843300Y-90471197D01*
X166830654Y-90424000D01*
X166802577Y-90319216D01*
X166730573Y-90194500D01*
X166714100Y-90126599D01*
X166736953Y-90060572D01*
X166791874Y-90017382D01*
X166837960Y-90008500D01*
X167146479Y-90008500D01*
X167213518Y-90028185D01*
G37*
%TD.AperFunction*%
%TA.AperFunction,NonConductor*%
G36*
X151307918Y-70370185D02*
G01*
X151353673Y-70422989D01*
X151363617Y-70492147D01*
X151334592Y-70555703D01*
X151325763Y-70564892D01*
X151208608Y-70674907D01*
X151208606Y-70674909D01*
X151008054Y-70917334D01*
X151008051Y-70917338D01*
X150839464Y-71182990D01*
X150839461Y-71182996D01*
X150705499Y-71467678D01*
X150705497Y-71467683D01*
X150608270Y-71766916D01*
X150549311Y-72075988D01*
X150549310Y-72075995D01*
X150529556Y-72389994D01*
X150529556Y-72390005D01*
X150549310Y-72704004D01*
X150549311Y-72704011D01*
X150578790Y-72858547D01*
X150601563Y-72977927D01*
X150608270Y-73013083D01*
X150705497Y-73312316D01*
X150705499Y-73312321D01*
X150839461Y-73597003D01*
X150839464Y-73597009D01*
X151008051Y-73862661D01*
X151008054Y-73862665D01*
X151208606Y-74105090D01*
X151208608Y-74105092D01*
X151208610Y-74105094D01*
X151229952Y-74125135D01*
X151437968Y-74320476D01*
X151437978Y-74320484D01*
X151692504Y-74505408D01*
X151692509Y-74505410D01*
X151692516Y-74505416D01*
X151968234Y-74656994D01*
X151968239Y-74656996D01*
X151968241Y-74656997D01*
X151968242Y-74656998D01*
X152260771Y-74772818D01*
X152260774Y-74772819D01*
X152527623Y-74841334D01*
X152565527Y-74851066D01*
X152631010Y-74859338D01*
X152877670Y-74890499D01*
X152877678Y-74890499D01*
X152877682Y-74890500D01*
X152877686Y-74890500D01*
X152881565Y-74890744D01*
X152881508Y-74891646D01*
X152944643Y-74910185D01*
X152990398Y-74962989D01*
X153000342Y-75032147D01*
X152984991Y-75076500D01*
X152983424Y-75079213D01*
X152983423Y-75079216D01*
X152942500Y-75231943D01*
X152942500Y-75741500D01*
X152922815Y-75808539D01*
X152870011Y-75854294D01*
X152818501Y-75865500D01*
X152645130Y-75865500D01*
X152645123Y-75865501D01*
X152585516Y-75871908D01*
X152450671Y-75922202D01*
X152450664Y-75922206D01*
X152335455Y-76008452D01*
X152335452Y-76008455D01*
X152249206Y-76123664D01*
X152249202Y-76123671D01*
X152198908Y-76258517D01*
X152192501Y-76318116D01*
X152192500Y-76318135D01*
X152192500Y-78113870D01*
X152192501Y-78113876D01*
X152198908Y-78173483D01*
X152249202Y-78308328D01*
X152249206Y-78308335D01*
X152335452Y-78423544D01*
X152335455Y-78423547D01*
X152450664Y-78509793D01*
X152450671Y-78509797D01*
X152582081Y-78558810D01*
X152638015Y-78600681D01*
X152662432Y-78666145D01*
X152647580Y-78734418D01*
X152626430Y-78762673D01*
X152504503Y-78884600D01*
X152368965Y-79078169D01*
X152368964Y-79078171D01*
X152269098Y-79292335D01*
X152269094Y-79292344D01*
X152207938Y-79520586D01*
X152207936Y-79520596D01*
X152187341Y-79755999D01*
X152187341Y-79756000D01*
X152207936Y-79991403D01*
X152207938Y-79991413D01*
X152269094Y-80219655D01*
X152269096Y-80219659D01*
X152269097Y-80219663D01*
X152360426Y-80415518D01*
X152368965Y-80433830D01*
X152368967Y-80433834D01*
X152504501Y-80627395D01*
X152504506Y-80627402D01*
X152671597Y-80794493D01*
X152671603Y-80794498D01*
X152857158Y-80924425D01*
X152900783Y-80979002D01*
X152907977Y-81048500D01*
X152876454Y-81110855D01*
X152857158Y-81127575D01*
X152671597Y-81257505D01*
X152504505Y-81424597D01*
X152368965Y-81618169D01*
X152368964Y-81618171D01*
X152269098Y-81832335D01*
X152269094Y-81832344D01*
X152207938Y-82060586D01*
X152207936Y-82060596D01*
X152187341Y-82295999D01*
X152187341Y-82296000D01*
X152207936Y-82531403D01*
X152207938Y-82531413D01*
X152270498Y-82764893D01*
X152268338Y-82765471D01*
X152272173Y-82825634D01*
X152238214Y-82886695D01*
X152180890Y-82918734D01*
X152040633Y-82953304D01*
X151900762Y-83026715D01*
X151782516Y-83131471D01*
X151692781Y-83261475D01*
X151692780Y-83261476D01*
X151636762Y-83409181D01*
X151617722Y-83565999D01*
X151617722Y-83566000D01*
X151636762Y-83722817D01*
X151654184Y-83768755D01*
X151657097Y-83776435D01*
X151664442Y-83795800D01*
X151672500Y-83839772D01*
X151672500Y-86440902D01*
X151652815Y-86507941D01*
X151636181Y-86528583D01*
X151030481Y-87134282D01*
X151030479Y-87134285D01*
X150995156Y-87195468D01*
X150995155Y-87195470D01*
X150951423Y-87271214D01*
X150951423Y-87271215D01*
X150910499Y-87423943D01*
X150910499Y-87423945D01*
X150910499Y-87592046D01*
X150910500Y-87592059D01*
X150910500Y-92951500D01*
X150890815Y-93018539D01*
X150838011Y-93064294D01*
X150786500Y-93075500D01*
X150670014Y-93075500D01*
X150516634Y-93113303D01*
X150376762Y-93186715D01*
X150361314Y-93200401D01*
X150320772Y-93236318D01*
X150312727Y-93243445D01*
X150249493Y-93273166D01*
X150180230Y-93263982D01*
X150126927Y-93218810D01*
X150106507Y-93151990D01*
X150106500Y-93150629D01*
X150106500Y-70474500D01*
X150126185Y-70407461D01*
X150178989Y-70361706D01*
X150230500Y-70350500D01*
X151240879Y-70350500D01*
X151307918Y-70370185D01*
G37*
%TD.AperFunction*%
%TA.AperFunction,NonConductor*%
G36*
X163217151Y-92329033D02*
G01*
X163328620Y-92375205D01*
X163444798Y-92390500D01*
X163444805Y-92390500D01*
X163710195Y-92390500D01*
X163710202Y-92390500D01*
X163826380Y-92375205D01*
X163887377Y-92349938D01*
X163934825Y-92340499D01*
X164542723Y-92340499D01*
X164609762Y-92360184D01*
X164655517Y-92412988D01*
X164665461Y-92482146D01*
X164662501Y-92496582D01*
X164662306Y-92497310D01*
X164649345Y-92525358D01*
X164650263Y-92525840D01*
X164646780Y-92532476D01*
X164590763Y-92680181D01*
X164571722Y-92836999D01*
X164571722Y-92837000D01*
X164590762Y-92993818D01*
X164636749Y-93115073D01*
X164646780Y-93141523D01*
X164736517Y-93271530D01*
X164854760Y-93376283D01*
X164860889Y-93379500D01*
X164994635Y-93449696D01*
X165002173Y-93451554D01*
X165062554Y-93486709D01*
X165094344Y-93548928D01*
X165096500Y-93571951D01*
X165096500Y-93786622D01*
X165076815Y-93853661D01*
X165024011Y-93899416D01*
X164954853Y-93909360D01*
X164891297Y-93880335D01*
X164875236Y-93863536D01*
X164872711Y-93860343D01*
X164748657Y-93736289D01*
X164748656Y-93736288D01*
X164599334Y-93644186D01*
X164535651Y-93623083D01*
X164478207Y-93583311D01*
X164458715Y-93549349D01*
X164410220Y-93421477D01*
X164320483Y-93291470D01*
X164202240Y-93186717D01*
X164202238Y-93186716D01*
X164202237Y-93186715D01*
X164062365Y-93113303D01*
X163908986Y-93075500D01*
X163908985Y-93075500D01*
X163751015Y-93075500D01*
X163751014Y-93075500D01*
X163597634Y-93113303D01*
X163457762Y-93186715D01*
X163339516Y-93291471D01*
X163249781Y-93421474D01*
X163201284Y-93549350D01*
X163159106Y-93605052D01*
X163124347Y-93623084D01*
X163060666Y-93644186D01*
X162911342Y-93736289D01*
X162787289Y-93860342D01*
X162787288Y-93860344D01*
X162763189Y-93899416D01*
X162755039Y-93912629D01*
X162703091Y-93959353D01*
X162634128Y-93970576D01*
X162570046Y-93942732D01*
X162531190Y-93884664D01*
X162525500Y-93847532D01*
X162525500Y-92946316D01*
X162545185Y-92879277D01*
X162597989Y-92833522D01*
X162619814Y-92825922D01*
X162665365Y-92814696D01*
X162805240Y-92741283D01*
X162923483Y-92636530D01*
X163013220Y-92506523D01*
X163053761Y-92399622D01*
X163095937Y-92343922D01*
X163161534Y-92319864D01*
X163217151Y-92329033D01*
G37*
%TD.AperFunction*%
%TA.AperFunction,NonConductor*%
G36*
X157251025Y-93318318D02*
G01*
X157285410Y-93331143D01*
X157341343Y-93373015D01*
X157365760Y-93438479D01*
X157350908Y-93506752D01*
X157329757Y-93535006D01*
X156895181Y-93969583D01*
X156833858Y-94003068D01*
X156764167Y-93998084D01*
X156708233Y-93956213D01*
X156683816Y-93890748D01*
X156683500Y-93881902D01*
X156683500Y-93484500D01*
X156703185Y-93417461D01*
X156755989Y-93371706D01*
X156807500Y-93360500D01*
X156923985Y-93360500D01*
X157077365Y-93322696D01*
X157084377Y-93320037D01*
X157085069Y-93321862D01*
X157131166Y-93310500D01*
X157207691Y-93310500D01*
X157251025Y-93318318D01*
G37*
%TD.AperFunction*%
%TA.AperFunction,NonConductor*%
G36*
X152316703Y-93047308D02*
G01*
X152347882Y-93088617D01*
X152368963Y-93133826D01*
X152368967Y-93133834D01*
X152504501Y-93327395D01*
X152504506Y-93327402D01*
X152671597Y-93494493D01*
X152671603Y-93494498D01*
X152857158Y-93624425D01*
X152900783Y-93679002D01*
X152907977Y-93748500D01*
X152876454Y-93810855D01*
X152857158Y-93827575D01*
X152671597Y-93957505D01*
X152504505Y-94124597D01*
X152368965Y-94318169D01*
X152368964Y-94318171D01*
X152347882Y-94363383D01*
X152301710Y-94415822D01*
X152234516Y-94434974D01*
X152167635Y-94414758D01*
X152122300Y-94361593D01*
X152111500Y-94310978D01*
X152111500Y-93141021D01*
X152131185Y-93073982D01*
X152183989Y-93028227D01*
X152253147Y-93018283D01*
X152316703Y-93047308D01*
G37*
%TD.AperFunction*%
%TA.AperFunction,NonConductor*%
G36*
X155334927Y-93067861D02*
G01*
X155335620Y-93066036D01*
X155342627Y-93068693D01*
X155342631Y-93068694D01*
X155342635Y-93068696D01*
X155388175Y-93079920D01*
X155448554Y-93115073D01*
X155480344Y-93177292D01*
X155482500Y-93200316D01*
X155482500Y-94444548D01*
X155462815Y-94511587D01*
X155410011Y-94557342D01*
X155340853Y-94567286D01*
X155277297Y-94538261D01*
X155276274Y-94537364D01*
X155185240Y-94456717D01*
X155185238Y-94456715D01*
X155045365Y-94383303D01*
X154891986Y-94345500D01*
X154891985Y-94345500D01*
X154800721Y-94345500D01*
X154733682Y-94325815D01*
X154699146Y-94292623D01*
X154581494Y-94124597D01*
X154414402Y-93957506D01*
X154414396Y-93957501D01*
X154228842Y-93827575D01*
X154185217Y-93772998D01*
X154178023Y-93703500D01*
X154209546Y-93641145D01*
X154228842Y-93624425D01*
X154261758Y-93601377D01*
X154414401Y-93494495D01*
X154581495Y-93327401D01*
X154717035Y-93133830D01*
X154719707Y-93128097D01*
X154765878Y-93075658D01*
X154832091Y-93056500D01*
X155288834Y-93056500D01*
X155334927Y-93067861D01*
G37*
%TD.AperFunction*%
%TA.AperFunction,NonConductor*%
G36*
X177378312Y-92558415D02*
G01*
X177432190Y-92602900D01*
X177453465Y-92669452D01*
X177453500Y-92672404D01*
X177453500Y-94525595D01*
X177433815Y-94592634D01*
X177381011Y-94638389D01*
X177311853Y-94648333D01*
X177248297Y-94619308D01*
X177210523Y-94560530D01*
X177209725Y-94557688D01*
X177168905Y-94405344D01*
X177168904Y-94405343D01*
X177168903Y-94405337D01*
X177069035Y-94191171D01*
X177058555Y-94176203D01*
X176933494Y-93997597D01*
X176766402Y-93830506D01*
X176766396Y-93830501D01*
X176580842Y-93700575D01*
X176537217Y-93645998D01*
X176530023Y-93576500D01*
X176561546Y-93514145D01*
X176580842Y-93497425D01*
X176649006Y-93449696D01*
X176766401Y-93367495D01*
X176933495Y-93200401D01*
X177069035Y-93006830D01*
X177168903Y-92792663D01*
X177209725Y-92640310D01*
X177246090Y-92580651D01*
X177308936Y-92550121D01*
X177378312Y-92558415D01*
G37*
%TD.AperFunction*%
%TA.AperFunction,NonConductor*%
G36*
X158031703Y-95265254D02*
G01*
X158056039Y-95293871D01*
X158088287Y-95346155D01*
X158181951Y-95439819D01*
X158215436Y-95501142D01*
X158210452Y-95570834D01*
X158181951Y-95615181D01*
X158088289Y-95708842D01*
X158056039Y-95761129D01*
X158004091Y-95807853D01*
X157935128Y-95819076D01*
X157871046Y-95791232D01*
X157832190Y-95733164D01*
X157826500Y-95696032D01*
X157826500Y-95358967D01*
X157846185Y-95291928D01*
X157898989Y-95246173D01*
X157968147Y-95236229D01*
X158031703Y-95265254D01*
G37*
%TD.AperFunction*%
%TA.AperFunction,NonConductor*%
G36*
X168010954Y-94631218D02*
G01*
X168049810Y-94689287D01*
X168055500Y-94726419D01*
X168055500Y-95013682D01*
X168035815Y-95080721D01*
X167983011Y-95126476D01*
X167961176Y-95134079D01*
X167915632Y-95145304D01*
X167775762Y-95218715D01*
X167657516Y-95323471D01*
X167567779Y-95453477D01*
X167555523Y-95485793D01*
X167527285Y-95529478D01*
X167525308Y-95531456D01*
X167525286Y-95531478D01*
X167413481Y-95643282D01*
X167413479Y-95643285D01*
X167395847Y-95673826D01*
X167364105Y-95728806D01*
X167363361Y-95730094D01*
X167363359Y-95730096D01*
X167330358Y-95787254D01*
X167328204Y-95786010D01*
X167292213Y-95830667D01*
X167225917Y-95852727D01*
X167158219Y-95835443D01*
X167110612Y-95784303D01*
X167097500Y-95728806D01*
X167097500Y-95424945D01*
X167097500Y-95424943D01*
X167056577Y-95272216D01*
X167054717Y-95268995D01*
X167053975Y-95265936D01*
X167053466Y-95264706D01*
X167053657Y-95264626D01*
X167038248Y-95201096D01*
X167061101Y-95135070D01*
X167116023Y-95091880D01*
X167162107Y-95082999D01*
X167197002Y-95082999D01*
X167197008Y-95082999D01*
X167299797Y-95072499D01*
X167466334Y-95017314D01*
X167615656Y-94925212D01*
X167739712Y-94801156D01*
X167825961Y-94661322D01*
X167877909Y-94614598D01*
X167946871Y-94603375D01*
X168010954Y-94631218D01*
G37*
%TD.AperFunction*%
%TA.AperFunction,NonConductor*%
G36*
X169656942Y-95400184D02*
G01*
X169683477Y-95425859D01*
X169684543Y-95424916D01*
X169689512Y-95430525D01*
X169689515Y-95430528D01*
X169689517Y-95430530D01*
X169807760Y-95535283D01*
X169947635Y-95608696D01*
X169993175Y-95619920D01*
X170053554Y-95655073D01*
X170085344Y-95717292D01*
X170087500Y-95740316D01*
X170087500Y-96211500D01*
X170067815Y-96278539D01*
X170015011Y-96324294D01*
X169963500Y-96335500D01*
X169486498Y-96335500D01*
X169486477Y-96335502D01*
X169393100Y-96345040D01*
X169324408Y-96332270D01*
X169273524Y-96284388D01*
X169256500Y-96221682D01*
X169256500Y-95504499D01*
X169276185Y-95437460D01*
X169328989Y-95391705D01*
X169380500Y-95380499D01*
X169589903Y-95380499D01*
X169656942Y-95400184D01*
G37*
%TD.AperFunction*%
%TA.AperFunction,NonConductor*%
G36*
X177378312Y-95098415D02*
G01*
X177432190Y-95142900D01*
X177453465Y-95209452D01*
X177453500Y-95212404D01*
X177453500Y-96684500D01*
X177433815Y-96751539D01*
X177381011Y-96797294D01*
X177329500Y-96808500D01*
X177184091Y-96808500D01*
X177117052Y-96788815D01*
X177071711Y-96736909D01*
X177069037Y-96731175D01*
X177069034Y-96731170D01*
X176933494Y-96537597D01*
X176766402Y-96370506D01*
X176766396Y-96370501D01*
X176580842Y-96240575D01*
X176537217Y-96185998D01*
X176530023Y-96116500D01*
X176561546Y-96054145D01*
X176580842Y-96037425D01*
X176609633Y-96017265D01*
X176766401Y-95907495D01*
X176933495Y-95740401D01*
X177069035Y-95546830D01*
X177168903Y-95332663D01*
X177209725Y-95180310D01*
X177246090Y-95120651D01*
X177308936Y-95090121D01*
X177378312Y-95098415D01*
G37*
%TD.AperFunction*%
%TA.AperFunction,NonConductor*%
G36*
X152316703Y-95587308D02*
G01*
X152347882Y-95628617D01*
X152368963Y-95673826D01*
X152368967Y-95673834D01*
X152446319Y-95784303D01*
X152504501Y-95867396D01*
X152504506Y-95867402D01*
X152671597Y-96034493D01*
X152671603Y-96034498D01*
X152857158Y-96164425D01*
X152900783Y-96219002D01*
X152907977Y-96288500D01*
X152876454Y-96350855D01*
X152857158Y-96367575D01*
X152671597Y-96497505D01*
X152504506Y-96664596D01*
X152368965Y-96858170D01*
X152368962Y-96858175D01*
X152366289Y-96863909D01*
X152320115Y-96916346D01*
X152253909Y-96935500D01*
X152235500Y-96935500D01*
X152168461Y-96915815D01*
X152122706Y-96863011D01*
X152111500Y-96811500D01*
X152111500Y-95681021D01*
X152131185Y-95613982D01*
X152183989Y-95568227D01*
X152253147Y-95558283D01*
X152316703Y-95587308D01*
G37*
%TD.AperFunction*%
%TA.AperFunction,NonConductor*%
G36*
X159529442Y-97472684D02*
G01*
X159575197Y-97525488D01*
X159585141Y-97594646D01*
X159556116Y-97658202D01*
X159550084Y-97664680D01*
X159539481Y-97675282D01*
X159539475Y-97675290D01*
X159460426Y-97812209D01*
X159460423Y-97812214D01*
X159423640Y-97949493D01*
X159387275Y-98009153D01*
X159324428Y-98039682D01*
X159255052Y-98031387D01*
X159238769Y-98022938D01*
X159167840Y-97979190D01*
X159167834Y-97979186D01*
X159121494Y-97963830D01*
X159064050Y-97924058D01*
X159037228Y-97859541D01*
X159036500Y-97846125D01*
X159036500Y-97576999D01*
X159056185Y-97509960D01*
X159108989Y-97464205D01*
X159160500Y-97452999D01*
X159462403Y-97452999D01*
X159529442Y-97472684D01*
G37*
%TD.AperFunction*%
%TA.AperFunction,NonConductor*%
G36*
X151954796Y-98156185D02*
G01*
X152000551Y-98208989D01*
X152010495Y-98278147D01*
X151981470Y-98341703D01*
X151945384Y-98370296D01*
X151900761Y-98393716D01*
X151782516Y-98498471D01*
X151692779Y-98628477D01*
X151680523Y-98660793D01*
X151652263Y-98704500D01*
X151561180Y-98795583D01*
X151499859Y-98829068D01*
X151430167Y-98824084D01*
X151374233Y-98782213D01*
X151349816Y-98716749D01*
X151349500Y-98707902D01*
X151349500Y-98260500D01*
X151369185Y-98193461D01*
X151421989Y-98147706D01*
X151473500Y-98136500D01*
X151590057Y-98136500D01*
X151887757Y-98136500D01*
X151954796Y-98156185D01*
G37*
%TD.AperFunction*%
%TA.AperFunction,NonConductor*%
G36*
X172445461Y-98608182D02*
G01*
X172490229Y-98661824D01*
X172500500Y-98711237D01*
X172500500Y-99154762D01*
X172480815Y-99221801D01*
X172428011Y-99267556D01*
X172358853Y-99277500D01*
X172311402Y-99260300D01*
X172283402Y-99243029D01*
X172236678Y-99191080D01*
X172224500Y-99137491D01*
X172224500Y-98728507D01*
X172244185Y-98661468D01*
X172283403Y-98622968D01*
X172311406Y-98605696D01*
X172378797Y-98587258D01*
X172445461Y-98608182D01*
G37*
%TD.AperFunction*%
%TA.AperFunction,NonConductor*%
G36*
X167236539Y-98227684D02*
G01*
X167282294Y-98280488D01*
X167293500Y-98331999D01*
X167293500Y-98916000D01*
X167273815Y-98983039D01*
X167221011Y-99028794D01*
X167169501Y-99040000D01*
X167066999Y-99040000D01*
X167066980Y-99040001D01*
X166964203Y-99050500D01*
X166964200Y-99050501D01*
X166797668Y-99105685D01*
X166797663Y-99105687D01*
X166648345Y-99197787D01*
X166578680Y-99267452D01*
X166517356Y-99300936D01*
X166447665Y-99295951D01*
X166391731Y-99254080D01*
X166367315Y-99188615D01*
X166366999Y-99179785D01*
X166366999Y-98813992D01*
X166356499Y-98711203D01*
X166301314Y-98544666D01*
X166210291Y-98397094D01*
X166191852Y-98329703D01*
X166212775Y-98263040D01*
X166266417Y-98218270D01*
X166315831Y-98207999D01*
X167169500Y-98207999D01*
X167236539Y-98227684D01*
G37*
%TD.AperFunction*%
%TA.AperFunction,NonConductor*%
G36*
X155408770Y-95434098D02*
G01*
X155462073Y-95479270D01*
X155482493Y-95546089D01*
X155482500Y-95547451D01*
X155482500Y-99301500D01*
X155462815Y-99368539D01*
X155410011Y-99414294D01*
X155358500Y-99425500D01*
X155242014Y-99425500D01*
X155088634Y-99463303D01*
X155081623Y-99465963D01*
X155080930Y-99464137D01*
X155034834Y-99475500D01*
X154832091Y-99475500D01*
X154765052Y-99455815D01*
X154719711Y-99403909D01*
X154717037Y-99398175D01*
X154717034Y-99398170D01*
X154696286Y-99368539D01*
X154593540Y-99221801D01*
X154581494Y-99204597D01*
X154414402Y-99037506D01*
X154414396Y-99037501D01*
X154228842Y-98907575D01*
X154185217Y-98852998D01*
X154178023Y-98783500D01*
X154209546Y-98721145D01*
X154228842Y-98704425D01*
X154255615Y-98685678D01*
X154414401Y-98574495D01*
X154581495Y-98407401D01*
X154717035Y-98213830D01*
X154816903Y-97999663D01*
X154878063Y-97771408D01*
X154898659Y-97536000D01*
X154878063Y-97300592D01*
X154816903Y-97072337D01*
X154717035Y-96858171D01*
X154717034Y-96858169D01*
X154581494Y-96664597D01*
X154414402Y-96497506D01*
X154414396Y-96497501D01*
X154228842Y-96367575D01*
X154185217Y-96312998D01*
X154178023Y-96243500D01*
X154209546Y-96181145D01*
X154228842Y-96164425D01*
X154251026Y-96148891D01*
X154414401Y-96034495D01*
X154581495Y-95867401D01*
X154677638Y-95730095D01*
X154699147Y-95699377D01*
X154753724Y-95655752D01*
X154800722Y-95646500D01*
X154891985Y-95646500D01*
X155045365Y-95608696D01*
X155185237Y-95535285D01*
X155185238Y-95535283D01*
X155185240Y-95535283D01*
X155276274Y-95454634D01*
X155339506Y-95424914D01*
X155408770Y-95434098D01*
G37*
%TD.AperFunction*%
%TA.AperFunction,NonConductor*%
G36*
X176991834Y-100864576D02*
G01*
X177047767Y-100906448D01*
X177072184Y-100971912D01*
X177072500Y-100980758D01*
X177072500Y-101457241D01*
X177052815Y-101524280D01*
X177000011Y-101570035D01*
X176930853Y-101579979D01*
X176867297Y-101550954D01*
X176860819Y-101544923D01*
X176818714Y-101502818D01*
X176766401Y-101450505D01*
X176766397Y-101450502D01*
X176766396Y-101450501D01*
X176580842Y-101320575D01*
X176537217Y-101265998D01*
X176530023Y-101196500D01*
X176561546Y-101134145D01*
X176580842Y-101117425D01*
X176606676Y-101099336D01*
X176766401Y-100987495D01*
X176860819Y-100893077D01*
X176922142Y-100859592D01*
X176991834Y-100864576D01*
G37*
%TD.AperFunction*%
%TA.AperFunction,NonConductor*%
G36*
X162701593Y-100940114D02*
G01*
X162701623Y-100940037D01*
X162703185Y-100940629D01*
X162707131Y-100941907D01*
X162708634Y-100942696D01*
X162862014Y-100980500D01*
X162862015Y-100980500D01*
X163019985Y-100980500D01*
X163173365Y-100942696D01*
X163180377Y-100940037D01*
X163181069Y-100941862D01*
X163227166Y-100930500D01*
X163366223Y-100930500D01*
X163433262Y-100950185D01*
X163479017Y-101002989D01*
X163488961Y-101072147D01*
X163482165Y-101098471D01*
X163447763Y-101189181D01*
X163428722Y-101345999D01*
X163428722Y-101346000D01*
X163447001Y-101496547D01*
X163435540Y-101565470D01*
X163388636Y-101617256D01*
X163362911Y-101629198D01*
X163314668Y-101645184D01*
X163314664Y-101645186D01*
X163227577Y-101698902D01*
X163160185Y-101717342D01*
X163093521Y-101696419D01*
X163048752Y-101642777D01*
X163046549Y-101637359D01*
X163013220Y-101549477D01*
X162923483Y-101419470D01*
X162805240Y-101314717D01*
X162805238Y-101314716D01*
X162805237Y-101314715D01*
X162665367Y-101241304D01*
X162619824Y-101230079D01*
X162559444Y-101194922D01*
X162527656Y-101132703D01*
X162525500Y-101109682D01*
X162525500Y-101051700D01*
X162545185Y-100984661D01*
X162597989Y-100938906D01*
X162667147Y-100928962D01*
X162701593Y-100940114D01*
G37*
%TD.AperFunction*%
%TA.AperFunction,NonConductor*%
G36*
X167653930Y-101449862D02*
G01*
X167654623Y-101448037D01*
X167661634Y-101450696D01*
X167815014Y-101488500D01*
X167931500Y-101488500D01*
X167998539Y-101508185D01*
X168044294Y-101560989D01*
X168055500Y-101612500D01*
X168055500Y-102041000D01*
X168035815Y-102108039D01*
X167983011Y-102153794D01*
X167931500Y-102165000D01*
X167857098Y-102165000D01*
X167790059Y-102145315D01*
X167769417Y-102128681D01*
X167752717Y-102111981D01*
X167752716Y-102111980D01*
X167652424Y-102054077D01*
X167652423Y-102054076D01*
X167615783Y-102032922D01*
X167559881Y-102017943D01*
X167463057Y-101991999D01*
X167304943Y-101991999D01*
X167297347Y-101991999D01*
X167297331Y-101992000D01*
X165276508Y-101992000D01*
X165209469Y-101972315D01*
X165170969Y-101933097D01*
X165126712Y-101861344D01*
X165002656Y-101737288D01*
X165002655Y-101737287D01*
X164971448Y-101718039D01*
X164924723Y-101666092D01*
X164913500Y-101597129D01*
X164941343Y-101533047D01*
X164999412Y-101494190D01*
X165036544Y-101488500D01*
X165178985Y-101488500D01*
X165332365Y-101450696D01*
X165339377Y-101448037D01*
X165340069Y-101449862D01*
X165386166Y-101438500D01*
X167607834Y-101438500D01*
X167653930Y-101449862D01*
G37*
%TD.AperFunction*%
%TA.AperFunction,NonConductor*%
G36*
X156869500Y-101706573D02*
G01*
X156994216Y-101778577D01*
X157146943Y-101819500D01*
X157146951Y-101819500D01*
X157155003Y-101820561D01*
X157154557Y-101823947D01*
X157206448Y-101839185D01*
X157252203Y-101891989D01*
X157262147Y-101961147D01*
X157244948Y-102008596D01*
X157233190Y-102027659D01*
X157233185Y-102027668D01*
X157224434Y-102054077D01*
X157178001Y-102194203D01*
X157178001Y-102194204D01*
X157178000Y-102194204D01*
X157167500Y-102296983D01*
X157167500Y-102339109D01*
X157147815Y-102406148D01*
X157105500Y-102446496D01*
X156984287Y-102516477D01*
X156984282Y-102516481D01*
X156895181Y-102605583D01*
X156833858Y-102639068D01*
X156764166Y-102634084D01*
X156708233Y-102592212D01*
X156683816Y-102526748D01*
X156683500Y-102517902D01*
X156683500Y-101813960D01*
X156703185Y-101746921D01*
X156755989Y-101701166D01*
X156825147Y-101691222D01*
X156869500Y-101706573D01*
G37*
%TD.AperFunction*%
%TA.AperFunction,NonConductor*%
G36*
X174922703Y-103427045D02*
G01*
X174929181Y-103433077D01*
X175023597Y-103527493D01*
X175023603Y-103527498D01*
X175209158Y-103657425D01*
X175252783Y-103712002D01*
X175259977Y-103781500D01*
X175228454Y-103843855D01*
X175209158Y-103860575D01*
X175023597Y-103990505D01*
X174929181Y-104084922D01*
X174867858Y-104118407D01*
X174798166Y-104113423D01*
X174742233Y-104071551D01*
X174717816Y-104006087D01*
X174717500Y-103997241D01*
X174717500Y-103520758D01*
X174737185Y-103453719D01*
X174789989Y-103407964D01*
X174859147Y-103398020D01*
X174922703Y-103427045D01*
G37*
%TD.AperFunction*%
%TA.AperFunction,NonConductor*%
G36*
X176991834Y-103404576D02*
G01*
X177047767Y-103446448D01*
X177072184Y-103511912D01*
X177072500Y-103520758D01*
X177072500Y-103997241D01*
X177052815Y-104064280D01*
X177000011Y-104110035D01*
X176930853Y-104119979D01*
X176867297Y-104090954D01*
X176860819Y-104084923D01*
X176816602Y-104040706D01*
X176766401Y-103990505D01*
X176766397Y-103990502D01*
X176766396Y-103990501D01*
X176580842Y-103860575D01*
X176537217Y-103805998D01*
X176530023Y-103736500D01*
X176561546Y-103674145D01*
X176580842Y-103657425D01*
X176603026Y-103641891D01*
X176766401Y-103527495D01*
X176860819Y-103433077D01*
X176922142Y-103399592D01*
X176991834Y-103404576D01*
G37*
%TD.AperFunction*%
%TA.AperFunction,NonConductor*%
G36*
X172793091Y-100880373D02*
G01*
X172825414Y-100903649D01*
X173480181Y-101558416D01*
X173513666Y-101619739D01*
X173516500Y-101646097D01*
X173516500Y-104812500D01*
X173496815Y-104879539D01*
X173444011Y-104925294D01*
X173392500Y-104936500D01*
X172981322Y-104936500D01*
X172914283Y-104916815D01*
X172868528Y-104864011D01*
X172858226Y-104827447D01*
X172854101Y-104793478D01*
X172848237Y-104745182D01*
X172792220Y-104597477D01*
X172702483Y-104467470D01*
X172648948Y-104420042D01*
X172611822Y-104360852D01*
X172607818Y-104314624D01*
X172613500Y-104259009D01*
X172613499Y-103258992D01*
X172602999Y-103156203D01*
X172547814Y-102989666D01*
X172455712Y-102840344D01*
X172331656Y-102716288D01*
X172331655Y-102716287D01*
X172259902Y-102672029D01*
X172213178Y-102620081D01*
X172201000Y-102566491D01*
X172201000Y-101537003D01*
X172220685Y-101469964D01*
X172259903Y-101431464D01*
X172355156Y-101372712D01*
X172479212Y-101248656D01*
X172571314Y-101099334D01*
X172620028Y-100952324D01*
X172659799Y-100894881D01*
X172724315Y-100868058D01*
X172793091Y-100880373D01*
G37*
%TD.AperFunction*%
%TA.AperFunction,NonConductor*%
G36*
X166413703Y-104040706D02*
G01*
X166438039Y-104069323D01*
X166492487Y-104157599D01*
X166524288Y-104209156D01*
X166648344Y-104333212D01*
X166797666Y-104425314D01*
X166964203Y-104480499D01*
X167066991Y-104491000D01*
X167931500Y-104490999D01*
X167998539Y-104510683D01*
X168044294Y-104563487D01*
X168055500Y-104614999D01*
X168055500Y-104719500D01*
X168035815Y-104786539D01*
X167983011Y-104832294D01*
X167931500Y-104843500D01*
X167066998Y-104843500D01*
X167066980Y-104843501D01*
X166964203Y-104854000D01*
X166964200Y-104854001D01*
X166797668Y-104909185D01*
X166797663Y-104909187D01*
X166648342Y-105001289D01*
X166524289Y-105125342D01*
X166438039Y-105265177D01*
X166386091Y-105311901D01*
X166317128Y-105323124D01*
X166253046Y-105295280D01*
X166214190Y-105237212D01*
X166208500Y-105200080D01*
X166208500Y-104134419D01*
X166228185Y-104067380D01*
X166280989Y-104021625D01*
X166350147Y-104011681D01*
X166413703Y-104040706D01*
G37*
%TD.AperFunction*%
%TA.AperFunction,NonConductor*%
G36*
X161105137Y-104964972D02*
G01*
X161138107Y-104982276D01*
X161184635Y-105006696D01*
X161230175Y-105017920D01*
X161290554Y-105053073D01*
X161322344Y-105115292D01*
X161324500Y-105138316D01*
X161324500Y-105574500D01*
X161304815Y-105641539D01*
X161252011Y-105687294D01*
X161200500Y-105698500D01*
X160499099Y-105698500D01*
X160432060Y-105678815D01*
X160386305Y-105626011D01*
X160376361Y-105556853D01*
X160405386Y-105493297D01*
X160411417Y-105486819D01*
X160457033Y-105441203D01*
X160500520Y-105397716D01*
X160500520Y-105397714D01*
X160510728Y-105387507D01*
X160510730Y-105387504D01*
X160628805Y-105269428D01*
X160658855Y-105247316D01*
X160773240Y-105187283D01*
X160891483Y-105082530D01*
X160945461Y-105004328D01*
X160999743Y-104960338D01*
X161069192Y-104952678D01*
X161105137Y-104964972D01*
G37*
%TD.AperFunction*%
%TA.AperFunction,NonConductor*%
G36*
X163222594Y-105308023D02*
G01*
X163314666Y-105364814D01*
X163456731Y-105411889D01*
X163514175Y-105451662D01*
X163540998Y-105516177D01*
X163528683Y-105584953D01*
X163482823Y-105635133D01*
X163419347Y-105674285D01*
X163419343Y-105674288D01*
X163295289Y-105798342D01*
X163263039Y-105850629D01*
X163211091Y-105897353D01*
X163142128Y-105908576D01*
X163078046Y-105880732D01*
X163039190Y-105822664D01*
X163033500Y-105785532D01*
X163033500Y-105413564D01*
X163053185Y-105346525D01*
X163105989Y-105300770D01*
X163175147Y-105290826D01*
X163222594Y-105308023D01*
G37*
%TD.AperFunction*%
%TA.AperFunction,NonConductor*%
G36*
X176991834Y-105944576D02*
G01*
X177047767Y-105986448D01*
X177072184Y-106051912D01*
X177072500Y-106060758D01*
X177072500Y-106537241D01*
X177052815Y-106604280D01*
X177000011Y-106650035D01*
X176930853Y-106659979D01*
X176867297Y-106630954D01*
X176860819Y-106624923D01*
X176823396Y-106587500D01*
X176766401Y-106530505D01*
X176766397Y-106530502D01*
X176766396Y-106530501D01*
X176580842Y-106400575D01*
X176537217Y-106345998D01*
X176530023Y-106276500D01*
X176561546Y-106214145D01*
X176580842Y-106197425D01*
X176610727Y-106176499D01*
X176766401Y-106067495D01*
X176860819Y-105973077D01*
X176922142Y-105939592D01*
X176991834Y-105944576D01*
G37*
%TD.AperFunction*%
%TA.AperFunction,NonConductor*%
G36*
X152113581Y-100044167D02*
G01*
X152169514Y-100086039D01*
X152193775Y-100149541D01*
X152207936Y-100311403D01*
X152207938Y-100311413D01*
X152269094Y-100539655D01*
X152269096Y-100539659D01*
X152269097Y-100539663D01*
X152341839Y-100695658D01*
X152368965Y-100753830D01*
X152368967Y-100753834D01*
X152504501Y-100947395D01*
X152504506Y-100947402D01*
X152671597Y-101114493D01*
X152671603Y-101114498D01*
X152857158Y-101244425D01*
X152900783Y-101299002D01*
X152907977Y-101368500D01*
X152876454Y-101430855D01*
X152857158Y-101447575D01*
X152671597Y-101577505D01*
X152504505Y-101744597D01*
X152368965Y-101938169D01*
X152368964Y-101938171D01*
X152269098Y-102152335D01*
X152269094Y-102152344D01*
X152207938Y-102380586D01*
X152207936Y-102380596D01*
X152187341Y-102615999D01*
X152187341Y-102616000D01*
X152207936Y-102851403D01*
X152207938Y-102851413D01*
X152269094Y-103079655D01*
X152269096Y-103079659D01*
X152269097Y-103079663D01*
X152306279Y-103159399D01*
X152368965Y-103293830D01*
X152368967Y-103293834D01*
X152504501Y-103487395D01*
X152504506Y-103487402D01*
X152671597Y-103654493D01*
X152671603Y-103654498D01*
X152857158Y-103784425D01*
X152900783Y-103839002D01*
X152907977Y-103908500D01*
X152876454Y-103970855D01*
X152857158Y-103987575D01*
X152671597Y-104117505D01*
X152504505Y-104284597D01*
X152368965Y-104478169D01*
X152368964Y-104478171D01*
X152269098Y-104692335D01*
X152269094Y-104692344D01*
X152207938Y-104920586D01*
X152207936Y-104920596D01*
X152187341Y-105155999D01*
X152187341Y-105156000D01*
X152207936Y-105391403D01*
X152207938Y-105391413D01*
X152269094Y-105619655D01*
X152269096Y-105619659D01*
X152269097Y-105619663D01*
X152306279Y-105699399D01*
X152368965Y-105833830D01*
X152368967Y-105833834D01*
X152504501Y-106027395D01*
X152504506Y-106027402D01*
X152671597Y-106194493D01*
X152671603Y-106194498D01*
X152857158Y-106324425D01*
X152900783Y-106379002D01*
X152907977Y-106448500D01*
X152876454Y-106510855D01*
X152857158Y-106527575D01*
X152671597Y-106657505D01*
X152504506Y-106824596D01*
X152368966Y-107018169D01*
X152367981Y-107019876D01*
X152367350Y-107020476D01*
X152365860Y-107022606D01*
X152365431Y-107022306D01*
X152317410Y-107068088D01*
X152248802Y-107081306D01*
X152230924Y-107078265D01*
X152097986Y-107045500D01*
X152097985Y-107045500D01*
X151981500Y-107045500D01*
X151914461Y-107025815D01*
X151868706Y-106973011D01*
X151857500Y-106921500D01*
X151857500Y-100249096D01*
X151877185Y-100182057D01*
X151893815Y-100161419D01*
X151982567Y-100072667D01*
X152043889Y-100039183D01*
X152113581Y-100044167D01*
G37*
%TD.AperFunction*%
%TA.AperFunction,NonConductor*%
G36*
X176991834Y-108484576D02*
G01*
X177047767Y-108526448D01*
X177072184Y-108591912D01*
X177072500Y-108600758D01*
X177072500Y-109077241D01*
X177052815Y-109144280D01*
X177000011Y-109190035D01*
X176930853Y-109199979D01*
X176867297Y-109170954D01*
X176860819Y-109164923D01*
X176839419Y-109143523D01*
X176766401Y-109070505D01*
X176766397Y-109070502D01*
X176766396Y-109070501D01*
X176580842Y-108940575D01*
X176537217Y-108885998D01*
X176530023Y-108816500D01*
X176561546Y-108754145D01*
X176580842Y-108737425D01*
X176659737Y-108682182D01*
X176766401Y-108607495D01*
X176860819Y-108513077D01*
X176922142Y-108479592D01*
X176991834Y-108484576D01*
G37*
%TD.AperFunction*%
%TA.AperFunction,NonConductor*%
G36*
X174795703Y-108360071D02*
G01*
X174816075Y-108382661D01*
X174856501Y-108440396D01*
X174856506Y-108440402D01*
X175023597Y-108607493D01*
X175023603Y-108607498D01*
X175209158Y-108737425D01*
X175252783Y-108792002D01*
X175259977Y-108861500D01*
X175228454Y-108923855D01*
X175209158Y-108940575D01*
X175023597Y-109070505D01*
X174856506Y-109237596D01*
X174816075Y-109295339D01*
X174761498Y-109338964D01*
X174692000Y-109346158D01*
X174629645Y-109314635D01*
X174594231Y-109254406D01*
X174590500Y-109224216D01*
X174590500Y-108453784D01*
X174610185Y-108386745D01*
X174662989Y-108340990D01*
X174732147Y-108331046D01*
X174795703Y-108360071D01*
G37*
%TD.AperFunction*%
%TA.AperFunction,NonConductor*%
G36*
X162285988Y-108024291D02*
G01*
X162353943Y-108042500D01*
X163013500Y-108042500D01*
X163080539Y-108062185D01*
X163126294Y-108114989D01*
X163137500Y-108166500D01*
X163137500Y-108667001D01*
X163137501Y-108667019D01*
X163148000Y-108769796D01*
X163148001Y-108769799D01*
X163184898Y-108881145D01*
X163203186Y-108936334D01*
X163295288Y-109085656D01*
X163419344Y-109209712D01*
X163568666Y-109301814D01*
X163735203Y-109356999D01*
X163837991Y-109367500D01*
X163994500Y-109367499D01*
X164061539Y-109387183D01*
X164107294Y-109439987D01*
X164118500Y-109491499D01*
X164118500Y-109526587D01*
X164098815Y-109593626D01*
X164091450Y-109603896D01*
X164089186Y-109606734D01*
X163993211Y-109759476D01*
X163933631Y-109929745D01*
X163933630Y-109929750D01*
X163913435Y-110108996D01*
X163913435Y-110109002D01*
X163930405Y-110259616D01*
X163918351Y-110328438D01*
X163871002Y-110379818D01*
X163807185Y-110397500D01*
X161082098Y-110397500D01*
X161015059Y-110377815D01*
X160994417Y-110361181D01*
X160824718Y-110191482D01*
X160791233Y-110130159D01*
X160789303Y-110088858D01*
X160802278Y-109982000D01*
X160783237Y-109825182D01*
X160727220Y-109677477D01*
X160637483Y-109547470D01*
X160519240Y-109442717D01*
X160519238Y-109442716D01*
X160519237Y-109442715D01*
X160379365Y-109369303D01*
X160225985Y-109331499D01*
X160221555Y-109330962D01*
X160157377Y-109303341D01*
X160118319Y-109245407D01*
X160112500Y-109207866D01*
X160112500Y-108928500D01*
X160132185Y-108861461D01*
X160184989Y-108815706D01*
X160236500Y-108804500D01*
X160988055Y-108804500D01*
X160988057Y-108804500D01*
X161140784Y-108763577D01*
X161277716Y-108684520D01*
X161389520Y-108572716D01*
X161468577Y-108435784D01*
X161509500Y-108283057D01*
X161509500Y-108163700D01*
X161529185Y-108096661D01*
X161581989Y-108050906D01*
X161651147Y-108040962D01*
X161685593Y-108052114D01*
X161685623Y-108052037D01*
X161687185Y-108052629D01*
X161691131Y-108053907D01*
X161692634Y-108054696D01*
X161846014Y-108092500D01*
X161846015Y-108092500D01*
X162003985Y-108092500D01*
X162157365Y-108054696D01*
X162196277Y-108034272D01*
X162264782Y-108020546D01*
X162285988Y-108024291D01*
G37*
%TD.AperFunction*%
%TA.AperFunction,NonConductor*%
G36*
X176991834Y-111024576D02*
G01*
X177047767Y-111066448D01*
X177072184Y-111131912D01*
X177072500Y-111140758D01*
X177072500Y-111617241D01*
X177052815Y-111684280D01*
X177000011Y-111730035D01*
X176930853Y-111739979D01*
X176867297Y-111710954D01*
X176860819Y-111704923D01*
X176824081Y-111668185D01*
X176766401Y-111610505D01*
X176766397Y-111610502D01*
X176766396Y-111610501D01*
X176580842Y-111480575D01*
X176537217Y-111425998D01*
X176530023Y-111356500D01*
X176561546Y-111294145D01*
X176580842Y-111277425D01*
X176685622Y-111204057D01*
X176766401Y-111147495D01*
X176860819Y-111053077D01*
X176922142Y-111019592D01*
X176991834Y-111024576D01*
G37*
%TD.AperFunction*%
%TA.AperFunction,NonConductor*%
G36*
X174795703Y-110900071D02*
G01*
X174816075Y-110922661D01*
X174856501Y-110980396D01*
X174856506Y-110980402D01*
X175023597Y-111147493D01*
X175023603Y-111147498D01*
X175209158Y-111277425D01*
X175252783Y-111332002D01*
X175259977Y-111401500D01*
X175228454Y-111463855D01*
X175209158Y-111480575D01*
X175023597Y-111610505D01*
X174856508Y-111777594D01*
X174816075Y-111835339D01*
X174761498Y-111878964D01*
X174691999Y-111886156D01*
X174629645Y-111854634D01*
X174594231Y-111794404D01*
X174590500Y-111764215D01*
X174590500Y-110993784D01*
X174610185Y-110926745D01*
X174662989Y-110880990D01*
X174732147Y-110871046D01*
X174795703Y-110900071D01*
G37*
%TD.AperFunction*%
%TA.AperFunction,NonConductor*%
G36*
X166778597Y-110217052D02*
G01*
X166789773Y-110223945D01*
X166797659Y-110228810D01*
X166797660Y-110228810D01*
X166797666Y-110228814D01*
X166964203Y-110283999D01*
X167055103Y-110293285D01*
X167119794Y-110319681D01*
X167159945Y-110376861D01*
X167166500Y-110416643D01*
X167166500Y-111768314D01*
X167146815Y-111835353D01*
X167094011Y-111881108D01*
X167024853Y-111891052D01*
X167003497Y-111886020D01*
X166894799Y-111850001D01*
X166894795Y-111850000D01*
X166792015Y-111839500D01*
X166792008Y-111839500D01*
X166713500Y-111839500D01*
X166646461Y-111819815D01*
X166600706Y-111767011D01*
X166589500Y-111715500D01*
X166589500Y-110322590D01*
X166609185Y-110255551D01*
X166661989Y-110209796D01*
X166731147Y-110199852D01*
X166778597Y-110217052D01*
G37*
%TD.AperFunction*%
%TA.AperFunction,NonConductor*%
G36*
X169321172Y-106056102D02*
G01*
X169339013Y-106060499D01*
X169339014Y-106060500D01*
X169455500Y-106060500D01*
X169522539Y-106080185D01*
X169568294Y-106132989D01*
X169579500Y-106184500D01*
X169579500Y-107267056D01*
X169620423Y-107419783D01*
X169620426Y-107419790D01*
X169699475Y-107556709D01*
X169699479Y-107556714D01*
X169699480Y-107556716D01*
X169811284Y-107668520D01*
X169811286Y-107668521D01*
X169811290Y-107668524D01*
X169858879Y-107695999D01*
X169948216Y-107747577D01*
X170100943Y-107788500D01*
X170259057Y-107788500D01*
X170299678Y-107788500D01*
X170366717Y-107808185D01*
X170412472Y-107860989D01*
X170422774Y-107897553D01*
X170432762Y-107979817D01*
X170448209Y-108020546D01*
X170460181Y-108052114D01*
X170460442Y-108052800D01*
X170468500Y-108096772D01*
X170468500Y-111550401D01*
X170448815Y-111617440D01*
X170432181Y-111638082D01*
X170185291Y-111884971D01*
X170123968Y-111918456D01*
X170054276Y-111913472D01*
X170043010Y-111907964D01*
X170042882Y-111908240D01*
X170036336Y-111905187D01*
X170036334Y-111905186D01*
X169869797Y-111850001D01*
X169869795Y-111850000D01*
X169767015Y-111839500D01*
X169767008Y-111839500D01*
X168741992Y-111839500D01*
X168741984Y-111839500D01*
X168639204Y-111850000D01*
X168639200Y-111850001D01*
X168530503Y-111886020D01*
X168460675Y-111888422D01*
X168400633Y-111852690D01*
X168369441Y-111790169D01*
X168367500Y-111768314D01*
X168367500Y-110416642D01*
X168387185Y-110349603D01*
X168439989Y-110303848D01*
X168478897Y-110293284D01*
X168569797Y-110283999D01*
X168736334Y-110228814D01*
X168885656Y-110136712D01*
X169009712Y-110012656D01*
X169101814Y-109863334D01*
X169156999Y-109696797D01*
X169167500Y-109594009D01*
X169167499Y-108668992D01*
X169167297Y-108667019D01*
X169156999Y-108566203D01*
X169156998Y-108566200D01*
X169119747Y-108453784D01*
X169101814Y-108399666D01*
X169009712Y-108250344D01*
X168885656Y-108126288D01*
X168763442Y-108050906D01*
X168736336Y-108034187D01*
X168736331Y-108034185D01*
X168695171Y-108020546D01*
X168569797Y-107979001D01*
X168569795Y-107979000D01*
X168467016Y-107968500D01*
X168467009Y-107968500D01*
X168178097Y-107968500D01*
X168111058Y-107948815D01*
X168090416Y-107932181D01*
X167539415Y-107381180D01*
X167505930Y-107319857D01*
X167510914Y-107250165D01*
X167552786Y-107194232D01*
X167618250Y-107169815D01*
X167627096Y-107169499D01*
X168467002Y-107169499D01*
X168467008Y-107169499D01*
X168569797Y-107158999D01*
X168736334Y-107103814D01*
X168885656Y-107011712D01*
X169009712Y-106887656D01*
X169101814Y-106738334D01*
X169156999Y-106571797D01*
X169167500Y-106469009D01*
X169167499Y-106176497D01*
X169187183Y-106109460D01*
X169239987Y-106063705D01*
X169309146Y-106053761D01*
X169321172Y-106056102D01*
G37*
%TD.AperFunction*%
%TA.AperFunction,NonConductor*%
G36*
X174795703Y-113440071D02*
G01*
X174816075Y-113462661D01*
X174856501Y-113520396D01*
X174856506Y-113520402D01*
X175023597Y-113687493D01*
X175023603Y-113687498D01*
X175209158Y-113817425D01*
X175252783Y-113872002D01*
X175259977Y-113941500D01*
X175228454Y-114003855D01*
X175209158Y-114020575D01*
X175023597Y-114150505D01*
X174856508Y-114317594D01*
X174816075Y-114375339D01*
X174761498Y-114418964D01*
X174691999Y-114426156D01*
X174629645Y-114394634D01*
X174594231Y-114334404D01*
X174590500Y-114304215D01*
X174590500Y-113533784D01*
X174610185Y-113466745D01*
X174662989Y-113420990D01*
X174732147Y-113411046D01*
X174795703Y-113440071D01*
G37*
%TD.AperFunction*%
%TA.AperFunction,NonConductor*%
G36*
X177523539Y-113269185D02*
G01*
X177569294Y-113321989D01*
X177580500Y-113373500D01*
X177580500Y-114464500D01*
X177560815Y-114531539D01*
X177508011Y-114577294D01*
X177456500Y-114588500D01*
X177184091Y-114588500D01*
X177117052Y-114568815D01*
X177071711Y-114516909D01*
X177069037Y-114511175D01*
X177069034Y-114511170D01*
X176933494Y-114317597D01*
X176766402Y-114150506D01*
X176766396Y-114150501D01*
X176580842Y-114020575D01*
X176537217Y-113965998D01*
X176530023Y-113896500D01*
X176561546Y-113834145D01*
X176580842Y-113817425D01*
X176703791Y-113731335D01*
X176766401Y-113687495D01*
X176933495Y-113520401D01*
X177069035Y-113326830D01*
X177071707Y-113321097D01*
X177117878Y-113268658D01*
X177184091Y-113249500D01*
X177456500Y-113249500D01*
X177523539Y-113269185D01*
G37*
%TD.AperFunction*%
%TA.AperFunction,NonConductor*%
G36*
X155080930Y-100687862D02*
G01*
X155081623Y-100686037D01*
X155088634Y-100688696D01*
X155242014Y-100726500D01*
X155358500Y-100726500D01*
X155425539Y-100746185D01*
X155471294Y-100798989D01*
X155482500Y-100850500D01*
X155482500Y-114444682D01*
X155462815Y-114511721D01*
X155410011Y-114557476D01*
X155388176Y-114565079D01*
X155342630Y-114576305D01*
X155335623Y-114578963D01*
X155334930Y-114577137D01*
X155288834Y-114588500D01*
X154746805Y-114588500D01*
X154679766Y-114568815D01*
X154645230Y-114535623D01*
X154642370Y-114531539D01*
X154581495Y-114444599D01*
X154581493Y-114444596D01*
X154414402Y-114277506D01*
X154414396Y-114277501D01*
X154228842Y-114147575D01*
X154185217Y-114092998D01*
X154178023Y-114023500D01*
X154209546Y-113961145D01*
X154228842Y-113944425D01*
X154251026Y-113928891D01*
X154414401Y-113814495D01*
X154581495Y-113647401D01*
X154717035Y-113453830D01*
X154816903Y-113239663D01*
X154878063Y-113011408D01*
X154898659Y-112776000D01*
X154878063Y-112540592D01*
X154816903Y-112312337D01*
X154717035Y-112098171D01*
X154643711Y-111993452D01*
X154581494Y-111904597D01*
X154414402Y-111737506D01*
X154414396Y-111737501D01*
X154228842Y-111607575D01*
X154185217Y-111552998D01*
X154178023Y-111483500D01*
X154209546Y-111421145D01*
X154228842Y-111404425D01*
X154251026Y-111388891D01*
X154414401Y-111274495D01*
X154581495Y-111107401D01*
X154717035Y-110913830D01*
X154816903Y-110699663D01*
X154878063Y-110471408D01*
X154898659Y-110236000D01*
X154878063Y-110000592D01*
X154816903Y-109772337D01*
X154717035Y-109558171D01*
X154709543Y-109547470D01*
X154581494Y-109364597D01*
X154414402Y-109197506D01*
X154414396Y-109197501D01*
X154228842Y-109067575D01*
X154185217Y-109012998D01*
X154178023Y-108943500D01*
X154209546Y-108881145D01*
X154228842Y-108864425D01*
X154251026Y-108848891D01*
X154414401Y-108734495D01*
X154581495Y-108567401D01*
X154717035Y-108373830D01*
X154816903Y-108159663D01*
X154878063Y-107931408D01*
X154898659Y-107696000D01*
X154878063Y-107460592D01*
X154816903Y-107232337D01*
X154717035Y-107018171D01*
X154712513Y-107011712D01*
X154581494Y-106824597D01*
X154414402Y-106657506D01*
X154414396Y-106657501D01*
X154228842Y-106527575D01*
X154185217Y-106472998D01*
X154178023Y-106403500D01*
X154209546Y-106341145D01*
X154228842Y-106324425D01*
X154251026Y-106308891D01*
X154414401Y-106194495D01*
X154581495Y-106027401D01*
X154717035Y-105833830D01*
X154816903Y-105619663D01*
X154878063Y-105391408D01*
X154898659Y-105156000D01*
X154878063Y-104920592D01*
X154816903Y-104692337D01*
X154717035Y-104478171D01*
X154709543Y-104467470D01*
X154581494Y-104284597D01*
X154414402Y-104117506D01*
X154414396Y-104117501D01*
X154228842Y-103987575D01*
X154185217Y-103932998D01*
X154178023Y-103863500D01*
X154209546Y-103801145D01*
X154228842Y-103784425D01*
X154251026Y-103768891D01*
X154414401Y-103654495D01*
X154581495Y-103487401D01*
X154717035Y-103293830D01*
X154816903Y-103079663D01*
X154878063Y-102851408D01*
X154898659Y-102616000D01*
X154878063Y-102380592D01*
X154820296Y-102165000D01*
X154816905Y-102152344D01*
X154816904Y-102152343D01*
X154816903Y-102152337D01*
X154717035Y-101938171D01*
X154713483Y-101933097D01*
X154581494Y-101744597D01*
X154414402Y-101577506D01*
X154414396Y-101577501D01*
X154228842Y-101447575D01*
X154185217Y-101392998D01*
X154178023Y-101323500D01*
X154209546Y-101261145D01*
X154228842Y-101244425D01*
X154251026Y-101228891D01*
X154414401Y-101114495D01*
X154581495Y-100947401D01*
X154717035Y-100753830D01*
X154719707Y-100748097D01*
X154765878Y-100695658D01*
X154832091Y-100676500D01*
X155034834Y-100676500D01*
X155080930Y-100687862D01*
G37*
%TD.AperFunction*%
%TA.AperFunction,NonConductor*%
G36*
X174795703Y-115980071D02*
G01*
X174816075Y-116002661D01*
X174856501Y-116060396D01*
X174856506Y-116060402D01*
X175023597Y-116227493D01*
X175023603Y-116227498D01*
X175209158Y-116357425D01*
X175252783Y-116412002D01*
X175259977Y-116481500D01*
X175228454Y-116543855D01*
X175209158Y-116560575D01*
X175023597Y-116690505D01*
X174856506Y-116857596D01*
X174816075Y-116915339D01*
X174761498Y-116958964D01*
X174692000Y-116966158D01*
X174629645Y-116934635D01*
X174594231Y-116874406D01*
X174590500Y-116844216D01*
X174590500Y-116073784D01*
X174610185Y-116006745D01*
X174662989Y-115960990D01*
X174732147Y-115951046D01*
X174795703Y-115980071D01*
G37*
%TD.AperFunction*%
%TA.AperFunction,NonConductor*%
G36*
X164986930Y-111609862D02*
G01*
X164987623Y-111608037D01*
X164994634Y-111610696D01*
X165148014Y-111648500D01*
X165264500Y-111648500D01*
X165331539Y-111668185D01*
X165377294Y-111720989D01*
X165388500Y-111772500D01*
X165388500Y-111905771D01*
X165368815Y-111972810D01*
X165352182Y-111993452D01*
X165224286Y-112121348D01*
X165132187Y-112270662D01*
X165132186Y-112270664D01*
X165077001Y-112437203D01*
X165077000Y-112437204D01*
X165066500Y-112539984D01*
X165066500Y-114790015D01*
X165077000Y-114892795D01*
X165077001Y-114892796D01*
X165132186Y-115059335D01*
X165132187Y-115059337D01*
X165224286Y-115208651D01*
X165224289Y-115208655D01*
X165348344Y-115332710D01*
X165348348Y-115332713D01*
X165497662Y-115424812D01*
X165497664Y-115424813D01*
X165497666Y-115424814D01*
X165664203Y-115479999D01*
X165766992Y-115490500D01*
X165766997Y-115490500D01*
X166792003Y-115490500D01*
X166792008Y-115490500D01*
X166894797Y-115479999D01*
X167003498Y-115443978D01*
X167073324Y-115441577D01*
X167133366Y-115477309D01*
X167164559Y-115539829D01*
X167166500Y-115561685D01*
X167166500Y-117050548D01*
X167146815Y-117117587D01*
X167094011Y-117163342D01*
X167024853Y-117173286D01*
X166961297Y-117144261D01*
X166960274Y-117143364D01*
X166869240Y-117062717D01*
X166869238Y-117062715D01*
X166729365Y-116989303D01*
X166575986Y-116951500D01*
X166575985Y-116951500D01*
X166418015Y-116951500D01*
X166418014Y-116951500D01*
X166264634Y-116989303D01*
X166257623Y-116991963D01*
X166256930Y-116990137D01*
X166210834Y-117001500D01*
X161728499Y-117001500D01*
X161661460Y-116981815D01*
X161615705Y-116929011D01*
X161604499Y-116877500D01*
X161604499Y-116841129D01*
X161604498Y-116841123D01*
X161601959Y-116817506D01*
X161598091Y-116781517D01*
X161590317Y-116760675D01*
X161547797Y-116646671D01*
X161547793Y-116646664D01*
X161461547Y-116531455D01*
X161461544Y-116531452D01*
X161346335Y-116445206D01*
X161346328Y-116445202D01*
X161211482Y-116394908D01*
X161211483Y-116394908D01*
X161151883Y-116388501D01*
X161151881Y-116388500D01*
X161151873Y-116388500D01*
X161151864Y-116388500D01*
X160156129Y-116388500D01*
X160156123Y-116388501D01*
X160096516Y-116394908D01*
X159961671Y-116445202D01*
X159961664Y-116445206D01*
X159846455Y-116531452D01*
X159846452Y-116531455D01*
X159760206Y-116646664D01*
X159760202Y-116646671D01*
X159717682Y-116760675D01*
X159675811Y-116816609D01*
X159610347Y-116841026D01*
X159542074Y-116826174D01*
X159492668Y-116776769D01*
X159477500Y-116717342D01*
X159477500Y-114092096D01*
X159497185Y-114025057D01*
X159513810Y-114004424D01*
X159671393Y-113846841D01*
X159732712Y-113813359D01*
X159802403Y-113818343D01*
X159838922Y-113841809D01*
X159839355Y-113841232D01*
X159961664Y-113932793D01*
X159961671Y-113932797D01*
X160096517Y-113983091D01*
X160096516Y-113983091D01*
X160103444Y-113983835D01*
X160156127Y-113989500D01*
X161151872Y-113989499D01*
X161211483Y-113983091D01*
X161346331Y-113932796D01*
X161461546Y-113846546D01*
X161547796Y-113731331D01*
X161598091Y-113596483D01*
X161604500Y-113536873D01*
X161604499Y-111941128D01*
X161598091Y-111881517D01*
X161597938Y-111881108D01*
X161554944Y-111765833D01*
X161549960Y-111696141D01*
X161583445Y-111634818D01*
X161644769Y-111601334D01*
X161671126Y-111598500D01*
X164940834Y-111598500D01*
X164986930Y-111609862D01*
G37*
%TD.AperFunction*%
%TA.AperFunction,NonConductor*%
G36*
X155334927Y-115800861D02*
G01*
X155335620Y-115799036D01*
X155342627Y-115801693D01*
X155342631Y-115801694D01*
X155342635Y-115801696D01*
X155388175Y-115812920D01*
X155448554Y-115848073D01*
X155480344Y-115910292D01*
X155482500Y-115933316D01*
X155482500Y-117131500D01*
X155462815Y-117198539D01*
X155410011Y-117244294D01*
X155358500Y-117255500D01*
X154832091Y-117255500D01*
X154765052Y-117235815D01*
X154719711Y-117183909D01*
X154717037Y-117178175D01*
X154717034Y-117178170D01*
X154717033Y-117178169D01*
X154593329Y-117001500D01*
X154581494Y-116984597D01*
X154414402Y-116817506D01*
X154414396Y-116817501D01*
X154228842Y-116687575D01*
X154185217Y-116632998D01*
X154178023Y-116563500D01*
X154209546Y-116501145D01*
X154228842Y-116484425D01*
X154251026Y-116468891D01*
X154414401Y-116354495D01*
X154581495Y-116187401D01*
X154717035Y-115993830D01*
X154776256Y-115866831D01*
X154778931Y-115861095D01*
X154825104Y-115808656D01*
X154891313Y-115789500D01*
X155288834Y-115789500D01*
X155334927Y-115800861D01*
G37*
%TD.AperFunction*%
%TA.AperFunction,NonConductor*%
G36*
X162365717Y-118222185D02*
G01*
X162411472Y-118274989D01*
X162421774Y-118311553D01*
X162431762Y-118393817D01*
X162448095Y-118436883D01*
X162479442Y-118519538D01*
X162487500Y-118563507D01*
X162487500Y-118655500D01*
X162467815Y-118722539D01*
X162415011Y-118768294D01*
X162363500Y-118779500D01*
X161671126Y-118779500D01*
X161604087Y-118759815D01*
X161558332Y-118707011D01*
X161548388Y-118637853D01*
X161554944Y-118612167D01*
X161595789Y-118502654D01*
X161598091Y-118496483D01*
X161604500Y-118436873D01*
X161604500Y-118326500D01*
X161624185Y-118259461D01*
X161676989Y-118213706D01*
X161728500Y-118202500D01*
X162298678Y-118202500D01*
X162365717Y-118222185D01*
G37*
%TD.AperFunction*%
%TA.AperFunction,NonConductor*%
G36*
X172316539Y-107808185D02*
G01*
X172362294Y-107860989D01*
X172373500Y-107912500D01*
X172373500Y-111045943D01*
X172373500Y-111204057D01*
X172392374Y-111274493D01*
X172414423Y-111356783D01*
X172414426Y-111356790D01*
X172493475Y-111493709D01*
X172493479Y-111493714D01*
X172493480Y-111493716D01*
X172605284Y-111605520D01*
X172605285Y-111605521D01*
X172605287Y-111605522D01*
X172692500Y-111655874D01*
X172740715Y-111706440D01*
X172754500Y-111763261D01*
X172754500Y-118308664D01*
X172734815Y-118375703D01*
X172682011Y-118421458D01*
X172619694Y-118432192D01*
X172557004Y-118426708D01*
X172556998Y-118426708D01*
X172338331Y-118445838D01*
X172338324Y-118445839D01*
X172215902Y-118478642D01*
X172126297Y-118502653D01*
X172126295Y-118502653D01*
X172126291Y-118502655D01*
X171927357Y-118595419D01*
X171927349Y-118595423D01*
X171747547Y-118721322D01*
X171747541Y-118721327D01*
X171592327Y-118876541D01*
X171592326Y-118876543D01*
X171532839Y-118961500D01*
X171483037Y-119032624D01*
X171428460Y-119076248D01*
X171381462Y-119085500D01*
X169232538Y-119085500D01*
X169165499Y-119065815D01*
X169130963Y-119032624D01*
X169129150Y-119030035D01*
X169021674Y-118876543D01*
X168866457Y-118721326D01*
X168866455Y-118721325D01*
X168866452Y-118721322D01*
X168686650Y-118595423D01*
X168686642Y-118595419D01*
X168487706Y-118502654D01*
X168487703Y-118502653D01*
X168464673Y-118496482D01*
X168459404Y-118495070D01*
X168399744Y-118458704D01*
X168369216Y-118395856D01*
X168367500Y-118375296D01*
X168367500Y-115561685D01*
X168387185Y-115494646D01*
X168439989Y-115448891D01*
X168509147Y-115438947D01*
X168530497Y-115443977D01*
X168639203Y-115479999D01*
X168741992Y-115490500D01*
X168741997Y-115490500D01*
X169767003Y-115490500D01*
X169767008Y-115490500D01*
X169869797Y-115479999D01*
X170036334Y-115424814D01*
X170185655Y-115332711D01*
X170309711Y-115208655D01*
X170401814Y-115059334D01*
X170456999Y-114892797D01*
X170467500Y-114790008D01*
X170467500Y-113352597D01*
X170487185Y-113285558D01*
X170503819Y-113264916D01*
X170992736Y-112775999D01*
X171549520Y-112219216D01*
X171628577Y-112082284D01*
X171669501Y-111929557D01*
X171669501Y-111771442D01*
X171669501Y-111763847D01*
X171669500Y-111763829D01*
X171669500Y-108096772D01*
X171677558Y-108052800D01*
X171677623Y-108052629D01*
X171705237Y-107979818D01*
X171711021Y-107932181D01*
X171715226Y-107897553D01*
X171742848Y-107833375D01*
X171800782Y-107794319D01*
X171838322Y-107788500D01*
X172249500Y-107788500D01*
X172316539Y-107808185D01*
G37*
%TD.AperFunction*%
%TA.AperFunction,NonConductor*%
G36*
X158482476Y-119834824D02*
G01*
X158485667Y-119837903D01*
X158508284Y-119860520D01*
X158508286Y-119860521D01*
X158508290Y-119860524D01*
X158627906Y-119929583D01*
X158645216Y-119939577D01*
X158797943Y-119980500D01*
X158797951Y-119980500D01*
X158806003Y-119981561D01*
X158869899Y-120009829D01*
X158908370Y-120068154D01*
X158909200Y-120138019D01*
X158872127Y-120197241D01*
X158808920Y-120227020D01*
X158789816Y-120228500D01*
X157929538Y-120228500D01*
X157862499Y-120208815D01*
X157827963Y-120175624D01*
X157817440Y-120160596D01*
X157739035Y-120048621D01*
X157716709Y-119982418D01*
X157733719Y-119914650D01*
X157784667Y-119866837D01*
X157840611Y-119853500D01*
X158194055Y-119853500D01*
X158194057Y-119853500D01*
X158346784Y-119812577D01*
X158346791Y-119812572D01*
X158350526Y-119811026D01*
X158353942Y-119810658D01*
X158354635Y-119810473D01*
X158354663Y-119810580D01*
X158419995Y-119803553D01*
X158482476Y-119834824D01*
G37*
%TD.AperFunction*%
%TA.AperFunction,NonConductor*%
G36*
X178158539Y-115809185D02*
G01*
X178204294Y-115861989D01*
X178215500Y-115913500D01*
X178215500Y-119587902D01*
X178195815Y-119654941D01*
X178179181Y-119675583D01*
X177459432Y-120395332D01*
X177398109Y-120428817D01*
X177328417Y-120423833D01*
X177272484Y-120381961D01*
X177248067Y-120316497D01*
X177248223Y-120296843D01*
X177250659Y-120269000D01*
X177250659Y-120268999D01*
X177232631Y-120062943D01*
X177230063Y-120033592D01*
X177168903Y-119805337D01*
X177069035Y-119591171D01*
X177045476Y-119557524D01*
X176933494Y-119397597D01*
X176766402Y-119230506D01*
X176766396Y-119230501D01*
X176580842Y-119100575D01*
X176537217Y-119045998D01*
X176530023Y-118976500D01*
X176561546Y-118914145D01*
X176580842Y-118897425D01*
X176618054Y-118871369D01*
X176766401Y-118767495D01*
X176933495Y-118600401D01*
X177069035Y-118406830D01*
X177168903Y-118192663D01*
X177230063Y-117964408D01*
X177250659Y-117729000D01*
X177230063Y-117493592D01*
X177168903Y-117265337D01*
X177069035Y-117051171D01*
X177034256Y-117001500D01*
X176933494Y-116857597D01*
X176766402Y-116690506D01*
X176766396Y-116690501D01*
X176580842Y-116560575D01*
X176537217Y-116505998D01*
X176530023Y-116436500D01*
X176561546Y-116374145D01*
X176580842Y-116357425D01*
X176612938Y-116334951D01*
X176766401Y-116227495D01*
X176933495Y-116060401D01*
X177069035Y-115866830D01*
X177071707Y-115861097D01*
X177117878Y-115808658D01*
X177184091Y-115789500D01*
X178091500Y-115789500D01*
X178158539Y-115809185D01*
G37*
%TD.AperFunction*%
%TA.AperFunction,NonConductor*%
G36*
X152039942Y-109586185D02*
G01*
X152060584Y-109602819D01*
X152210233Y-109752468D01*
X152243718Y-109813791D01*
X152242327Y-109872241D01*
X152207939Y-110000583D01*
X152207936Y-110000596D01*
X152187341Y-110235999D01*
X152187341Y-110236000D01*
X152207936Y-110471403D01*
X152207938Y-110471413D01*
X152269094Y-110699655D01*
X152269096Y-110699659D01*
X152269097Y-110699663D01*
X152353651Y-110880990D01*
X152368965Y-110913830D01*
X152368967Y-110913834D01*
X152504501Y-111107395D01*
X152504506Y-111107402D01*
X152671597Y-111274493D01*
X152671603Y-111274498D01*
X152857158Y-111404425D01*
X152900783Y-111459002D01*
X152907977Y-111528500D01*
X152876454Y-111590855D01*
X152857158Y-111607575D01*
X152671597Y-111737505D01*
X152504505Y-111904597D01*
X152368965Y-112098169D01*
X152368964Y-112098171D01*
X152269098Y-112312335D01*
X152269094Y-112312344D01*
X152207938Y-112540586D01*
X152207936Y-112540596D01*
X152187341Y-112775999D01*
X152187341Y-112776000D01*
X152207936Y-113011403D01*
X152207938Y-113011413D01*
X152269094Y-113239655D01*
X152269096Y-113239659D01*
X152269097Y-113239663D01*
X152353651Y-113420990D01*
X152368965Y-113453830D01*
X152368967Y-113453834D01*
X152504501Y-113647395D01*
X152504506Y-113647402D01*
X152671597Y-113814493D01*
X152671603Y-113814498D01*
X152857158Y-113944425D01*
X152900783Y-113999002D01*
X152907977Y-114068500D01*
X152876454Y-114130855D01*
X152857158Y-114147575D01*
X152671597Y-114277505D01*
X152504505Y-114444597D01*
X152368965Y-114638169D01*
X152368964Y-114638171D01*
X152269098Y-114852335D01*
X152269094Y-114852344D01*
X152207938Y-115080586D01*
X152207936Y-115080596D01*
X152187341Y-115315999D01*
X152187341Y-115316000D01*
X152207936Y-115551403D01*
X152207938Y-115551413D01*
X152269094Y-115779655D01*
X152269096Y-115779659D01*
X152269097Y-115779663D01*
X152353651Y-115960990D01*
X152368965Y-115993830D01*
X152368967Y-115993834D01*
X152504501Y-116187395D01*
X152504506Y-116187402D01*
X152671597Y-116354493D01*
X152671603Y-116354498D01*
X152857158Y-116484425D01*
X152900783Y-116539002D01*
X152907977Y-116608500D01*
X152876454Y-116670855D01*
X152857158Y-116687575D01*
X152671597Y-116817505D01*
X152504505Y-116984597D01*
X152368965Y-117178169D01*
X152368964Y-117178171D01*
X152269098Y-117392335D01*
X152269094Y-117392344D01*
X152207938Y-117620586D01*
X152207936Y-117620596D01*
X152187341Y-117855999D01*
X152187341Y-117856000D01*
X152207936Y-118091403D01*
X152207938Y-118091413D01*
X152269094Y-118319655D01*
X152269096Y-118319659D01*
X152269097Y-118319663D01*
X152333622Y-118458037D01*
X152368965Y-118533830D01*
X152368967Y-118533834D01*
X152443518Y-118640303D01*
X152500248Y-118721322D01*
X152504501Y-118727395D01*
X152504506Y-118727402D01*
X152671597Y-118894493D01*
X152671603Y-118894498D01*
X152857158Y-119024425D01*
X152900783Y-119079002D01*
X152907977Y-119148500D01*
X152876454Y-119210855D01*
X152857158Y-119227575D01*
X152671597Y-119357505D01*
X152504505Y-119524597D01*
X152368965Y-119718169D01*
X152368964Y-119718171D01*
X152269098Y-119932335D01*
X152269094Y-119932344D01*
X152207938Y-120160586D01*
X152207936Y-120160596D01*
X152187341Y-120395999D01*
X152187341Y-120396000D01*
X152189777Y-120423843D01*
X152176011Y-120492343D01*
X152127396Y-120542526D01*
X152059367Y-120558460D01*
X151993523Y-120535085D01*
X151978568Y-120522332D01*
X151385819Y-119929583D01*
X151352334Y-119868260D01*
X151349500Y-119841902D01*
X151349500Y-109690500D01*
X151369185Y-109623461D01*
X151421989Y-109577706D01*
X151473500Y-109566500D01*
X151972903Y-109566500D01*
X152039942Y-109586185D01*
G37*
%TD.AperFunction*%
%TA.AperFunction,NonConductor*%
G36*
X174094539Y-118857185D02*
G01*
X174140294Y-118909989D01*
X174151500Y-118961500D01*
X174151500Y-120348057D01*
X174190996Y-120495456D01*
X174192423Y-120500783D01*
X174192426Y-120500790D01*
X174271475Y-120637709D01*
X174271479Y-120637714D01*
X174271480Y-120637716D01*
X174383284Y-120749520D01*
X174383286Y-120749521D01*
X174383290Y-120749524D01*
X174520209Y-120828573D01*
X174520216Y-120828577D01*
X174630763Y-120858197D01*
X174690420Y-120894561D01*
X174711048Y-120925564D01*
X174718766Y-120942114D01*
X174720966Y-120946832D01*
X174856501Y-121140395D01*
X174856506Y-121140402D01*
X175023597Y-121307493D01*
X175023603Y-121307498D01*
X175209158Y-121437425D01*
X175252783Y-121492002D01*
X175259977Y-121561500D01*
X175228454Y-121623855D01*
X175209158Y-121640575D01*
X175023597Y-121770505D01*
X174856506Y-121937596D01*
X174720965Y-122131170D01*
X174720962Y-122131175D01*
X174718289Y-122136909D01*
X174672115Y-122189346D01*
X174605909Y-122208500D01*
X168053166Y-122208500D01*
X168007069Y-122197137D01*
X168006377Y-122198963D01*
X167999365Y-122196303D01*
X167845986Y-122158500D01*
X167845985Y-122158500D01*
X167688015Y-122158500D01*
X167688014Y-122158500D01*
X167534634Y-122196303D01*
X167394761Y-122269715D01*
X167394759Y-122269717D01*
X167303726Y-122350364D01*
X167240493Y-122380085D01*
X167171229Y-122370901D01*
X167117927Y-122325728D01*
X167097507Y-122258909D01*
X167097500Y-122257548D01*
X167097500Y-120783814D01*
X167117185Y-120716775D01*
X167169989Y-120671020D01*
X167239147Y-120661076D01*
X167292620Y-120682237D01*
X167427354Y-120776579D01*
X167626297Y-120869347D01*
X167838326Y-120926161D01*
X167994521Y-120939826D01*
X168056998Y-120945292D01*
X168057000Y-120945292D01*
X168057002Y-120945292D01*
X168111668Y-120940509D01*
X168275674Y-120926161D01*
X168487703Y-120869347D01*
X168686646Y-120776579D01*
X168866457Y-120650674D01*
X169021674Y-120495457D01*
X169130963Y-120339375D01*
X169185540Y-120295752D01*
X169232538Y-120286500D01*
X171381462Y-120286500D01*
X171448501Y-120306185D01*
X171483036Y-120339375D01*
X171592326Y-120495457D01*
X171592327Y-120495458D01*
X171747541Y-120650672D01*
X171747547Y-120650677D01*
X171927349Y-120776576D01*
X171927351Y-120776577D01*
X171927354Y-120776579D01*
X172126297Y-120869347D01*
X172338326Y-120926161D01*
X172494521Y-120939826D01*
X172556998Y-120945292D01*
X172557000Y-120945292D01*
X172557002Y-120945292D01*
X172611668Y-120940509D01*
X172775674Y-120926161D01*
X172987703Y-120869347D01*
X173186646Y-120776579D01*
X173366457Y-120650674D01*
X173521674Y-120495457D01*
X173647579Y-120315646D01*
X173740347Y-120116703D01*
X173797161Y-119904674D01*
X173811509Y-119740668D01*
X173816292Y-119686002D01*
X173816292Y-119685997D01*
X173805052Y-119557523D01*
X173797161Y-119467326D01*
X173740347Y-119255297D01*
X173647579Y-119056354D01*
X173640185Y-119045795D01*
X173630963Y-119032623D01*
X173608635Y-118966416D01*
X173625647Y-118898649D01*
X173676595Y-118850837D01*
X173732538Y-118837500D01*
X174027500Y-118837500D01*
X174094539Y-118857185D01*
G37*
%TD.AperFunction*%
%TA.AperFunction,NonConductor*%
G36*
X177753834Y-121901914D02*
G01*
X177809767Y-121943786D01*
X177834184Y-122009250D01*
X177834500Y-122018096D01*
X177834500Y-123481500D01*
X177814815Y-123548539D01*
X177762011Y-123594294D01*
X177710500Y-123605500D01*
X177208339Y-123605500D01*
X177141300Y-123585815D01*
X177095545Y-123533011D01*
X177085601Y-123463853D01*
X177095957Y-123429095D01*
X177168903Y-123272663D01*
X177230063Y-123044408D01*
X177250659Y-122809000D01*
X177230063Y-122573592D01*
X177195671Y-122445239D01*
X177197334Y-122375393D01*
X177227763Y-122325470D01*
X177622819Y-121930415D01*
X177684142Y-121896930D01*
X177753834Y-121901914D01*
G37*
%TD.AperFunction*%
%TA.AperFunction,NonConductor*%
G36*
X155734428Y-119873185D02*
G01*
X155780183Y-119925989D01*
X155790127Y-119995147D01*
X155768964Y-120048621D01*
X155706368Y-120138019D01*
X155663420Y-120199355D01*
X155663419Y-120199357D01*
X155570655Y-120398291D01*
X155570653Y-120398295D01*
X155570653Y-120398297D01*
X155563811Y-120423833D01*
X155513839Y-120610324D01*
X155513838Y-120610331D01*
X155494708Y-120828997D01*
X155494708Y-120829002D01*
X155513838Y-121047668D01*
X155513839Y-121047675D01*
X155520849Y-121073834D01*
X155570653Y-121259703D01*
X155570654Y-121259706D01*
X155570655Y-121259708D01*
X155663419Y-121458642D01*
X155663423Y-121458650D01*
X155789322Y-121638452D01*
X155789327Y-121638458D01*
X155944541Y-121793672D01*
X155944547Y-121793677D01*
X156124349Y-121919576D01*
X156124351Y-121919577D01*
X156124354Y-121919579D01*
X156323297Y-122012347D01*
X156535326Y-122069161D01*
X156691521Y-122082826D01*
X156753998Y-122088292D01*
X156754000Y-122088292D01*
X156754002Y-122088292D01*
X156808668Y-122083509D01*
X156972674Y-122069161D01*
X157065339Y-122044331D01*
X157135188Y-122045993D01*
X157193051Y-122085154D01*
X157220556Y-122149383D01*
X157220529Y-122179051D01*
X157205722Y-122300999D01*
X157205722Y-122301000D01*
X157224762Y-122457817D01*
X157252442Y-122530800D01*
X157260500Y-122574772D01*
X157260500Y-124718866D01*
X157240815Y-124785905D01*
X157188011Y-124831660D01*
X157118853Y-124841604D01*
X157106826Y-124839263D01*
X157050986Y-124825500D01*
X157050985Y-124825500D01*
X156893015Y-124825500D01*
X156893014Y-124825500D01*
X156739634Y-124863303D01*
X156732623Y-124865963D01*
X156731930Y-124864137D01*
X156685834Y-124875500D01*
X154832091Y-124875500D01*
X154765052Y-124855815D01*
X154719711Y-124803909D01*
X154717037Y-124798175D01*
X154717034Y-124798170D01*
X154717033Y-124798169D01*
X154647725Y-124699185D01*
X154581494Y-124604597D01*
X154414402Y-124437506D01*
X154414396Y-124437501D01*
X154228842Y-124307575D01*
X154185217Y-124252998D01*
X154178023Y-124183500D01*
X154209546Y-124121145D01*
X154228842Y-124104425D01*
X154251026Y-124088891D01*
X154414401Y-123974495D01*
X154581495Y-123807401D01*
X154717035Y-123613830D01*
X154816903Y-123399663D01*
X154878063Y-123171408D01*
X154898659Y-122936000D01*
X154878063Y-122700592D01*
X154816903Y-122472337D01*
X154717035Y-122258171D01*
X154711647Y-122250475D01*
X154581494Y-122064597D01*
X154414402Y-121897506D01*
X154414396Y-121897501D01*
X154228842Y-121767575D01*
X154185217Y-121712998D01*
X154178023Y-121643500D01*
X154209546Y-121581145D01*
X154228842Y-121564425D01*
X154251026Y-121548891D01*
X154414401Y-121434495D01*
X154581495Y-121267401D01*
X154717035Y-121073830D01*
X154816903Y-120859663D01*
X154878063Y-120631408D01*
X154898659Y-120396000D01*
X154878063Y-120160592D01*
X154843672Y-120032242D01*
X154845335Y-119962394D01*
X154875768Y-119912467D01*
X154898419Y-119889817D01*
X154959743Y-119856333D01*
X154986098Y-119853500D01*
X155667389Y-119853500D01*
X155734428Y-119873185D01*
G37*
%TD.AperFunction*%
%TA.AperFunction,NonConductor*%
G36*
X152189703Y-123185691D02*
G01*
X152227477Y-123244469D01*
X152228275Y-123247311D01*
X152269094Y-123399655D01*
X152269096Y-123399659D01*
X152269097Y-123399663D01*
X152338519Y-123548539D01*
X152368965Y-123613830D01*
X152368967Y-123613834D01*
X152504501Y-123807395D01*
X152504506Y-123807402D01*
X152671597Y-123974493D01*
X152671603Y-123974498D01*
X152857158Y-124104425D01*
X152900783Y-124159002D01*
X152907977Y-124228500D01*
X152876454Y-124290855D01*
X152857158Y-124307575D01*
X152671597Y-124437505D01*
X152504505Y-124604597D01*
X152368965Y-124798169D01*
X152368964Y-124798171D01*
X152269098Y-125012335D01*
X152269094Y-125012344D01*
X152228275Y-125164688D01*
X152191910Y-125224349D01*
X152129063Y-125254878D01*
X152059688Y-125246583D01*
X152005810Y-125202098D01*
X151984535Y-125135546D01*
X151984500Y-125132595D01*
X151984500Y-123279404D01*
X152004185Y-123212365D01*
X152056989Y-123166610D01*
X152126147Y-123156666D01*
X152189703Y-123185691D01*
G37*
%TD.AperFunction*%
%TA.AperFunction,NonConductor*%
G36*
X165839539Y-118222185D02*
G01*
X165885294Y-118274989D01*
X165896500Y-118326500D01*
X165896500Y-119281903D01*
X165876815Y-119348942D01*
X165824011Y-119394697D01*
X165754853Y-119404641D01*
X165691297Y-119375616D01*
X165684819Y-119369584D01*
X165339735Y-119024500D01*
X165311473Y-118980786D01*
X165299222Y-118948482D01*
X165299220Y-118948477D01*
X165261959Y-118894495D01*
X165209483Y-118818470D01*
X165091240Y-118713717D01*
X165091238Y-118713716D01*
X165091237Y-118713715D01*
X164951365Y-118640303D01*
X164797986Y-118602500D01*
X164797985Y-118602500D01*
X164640015Y-118602500D01*
X164640014Y-118602500D01*
X164486634Y-118640303D01*
X164346762Y-118713715D01*
X164286053Y-118767498D01*
X164246692Y-118802369D01*
X164228516Y-118818471D01*
X164138781Y-118948475D01*
X164138780Y-118948476D01*
X164082762Y-119096181D01*
X164063722Y-119252999D01*
X164063722Y-119253000D01*
X164082762Y-119409818D01*
X164138780Y-119557523D01*
X164228517Y-119687530D01*
X164346760Y-119792283D01*
X164461145Y-119852317D01*
X164491194Y-119874429D01*
X164971181Y-120354416D01*
X165004666Y-120415739D01*
X165007500Y-120442097D01*
X165007500Y-125710227D01*
X164999442Y-125754198D01*
X164971763Y-125827181D01*
X164952722Y-125983999D01*
X164952722Y-125984000D01*
X164971762Y-126140818D01*
X165022580Y-126274811D01*
X165027780Y-126288523D01*
X165117517Y-126418530D01*
X165235760Y-126523283D01*
X165235762Y-126523284D01*
X165375634Y-126596696D01*
X165529014Y-126634500D01*
X165529015Y-126634500D01*
X165686985Y-126634500D01*
X165840365Y-126596696D01*
X165851772Y-126590709D01*
X165980240Y-126523283D01*
X166098483Y-126418530D01*
X166188220Y-126288523D01*
X166244237Y-126140818D01*
X166263278Y-125984000D01*
X166244237Y-125827182D01*
X166216975Y-125755297D01*
X166216558Y-125754198D01*
X166208500Y-125710227D01*
X166208500Y-124784979D01*
X166228185Y-124717940D01*
X166280989Y-124672185D01*
X166350147Y-124662241D01*
X166364574Y-124665200D01*
X166417943Y-124679500D01*
X166576057Y-124679500D01*
X172542533Y-124679500D01*
X172549856Y-124681650D01*
X172571467Y-124679500D01*
X174522440Y-124679500D01*
X174589479Y-124699185D01*
X174635234Y-124751989D01*
X174645178Y-124821147D01*
X174634823Y-124855900D01*
X174621097Y-124885337D01*
X174621096Y-124885340D01*
X174621094Y-124885344D01*
X174559938Y-125113586D01*
X174559936Y-125113596D01*
X174539341Y-125348999D01*
X174539341Y-125349000D01*
X174559936Y-125584403D01*
X174559938Y-125584413D01*
X174594327Y-125712756D01*
X174592664Y-125782606D01*
X174562233Y-125832530D01*
X174019565Y-126375198D01*
X173958242Y-126408683D01*
X173888550Y-126403699D01*
X173832617Y-126361827D01*
X173808200Y-126296363D01*
X173808356Y-126276710D01*
X173816292Y-126186001D01*
X173816292Y-126185997D01*
X173806118Y-126069708D01*
X173797161Y-125967326D01*
X173740347Y-125755297D01*
X173647579Y-125556354D01*
X173647577Y-125556351D01*
X173647576Y-125556349D01*
X173521677Y-125376547D01*
X173521672Y-125376541D01*
X173366458Y-125221327D01*
X173366452Y-125221322D01*
X173186650Y-125095423D01*
X173186642Y-125095419D01*
X172987708Y-125002655D01*
X172987706Y-125002654D01*
X172987703Y-125002653D01*
X172836885Y-124962240D01*
X172775675Y-124945839D01*
X172775668Y-124945838D01*
X172560660Y-124927028D01*
X172558278Y-124926096D01*
X172553340Y-124927028D01*
X172338331Y-124945838D01*
X172338324Y-124945839D01*
X172215902Y-124978642D01*
X172126297Y-125002653D01*
X172126295Y-125002653D01*
X172126291Y-125002655D01*
X171927357Y-125095419D01*
X171927349Y-125095423D01*
X171747547Y-125221322D01*
X171747541Y-125221327D01*
X171592327Y-125376541D01*
X171592322Y-125376547D01*
X171466423Y-125556349D01*
X171466419Y-125556357D01*
X171373655Y-125755291D01*
X171373653Y-125755295D01*
X171373653Y-125755297D01*
X171354391Y-125827181D01*
X171316839Y-125967324D01*
X171316838Y-125967331D01*
X171297708Y-126185997D01*
X171297708Y-126186002D01*
X171316753Y-126403699D01*
X171316839Y-126404674D01*
X171373653Y-126616703D01*
X171373654Y-126616706D01*
X171373655Y-126616708D01*
X171466419Y-126815642D01*
X171466423Y-126815650D01*
X171592322Y-126995452D01*
X171592327Y-126995458D01*
X171747541Y-127150672D01*
X171747547Y-127150677D01*
X171927349Y-127276576D01*
X171927351Y-127276577D01*
X171927354Y-127276579D01*
X172126297Y-127369347D01*
X172338326Y-127426161D01*
X172494521Y-127439826D01*
X172556998Y-127445292D01*
X172557000Y-127445292D01*
X172557002Y-127445292D01*
X172647711Y-127437356D01*
X172716211Y-127451123D01*
X172766394Y-127499738D01*
X172782327Y-127567767D01*
X172758952Y-127633610D01*
X172746199Y-127648565D01*
X172126584Y-128268181D01*
X172065261Y-128301666D01*
X172038903Y-128304500D01*
X168304193Y-128304500D01*
X168237154Y-128284815D01*
X168191399Y-128232011D01*
X168181455Y-128162853D01*
X168210480Y-128099297D01*
X168246653Y-128073213D01*
X168245746Y-128071641D01*
X168252785Y-128067577D01*
X168315138Y-128031577D01*
X168389716Y-127988520D01*
X168501520Y-127876716D01*
X168537520Y-127840716D01*
X168616577Y-127703784D01*
X168627018Y-127664818D01*
X168657501Y-127551057D01*
X168657501Y-127551053D01*
X168657862Y-127548315D01*
X168658808Y-127546174D01*
X168659604Y-127543207D01*
X168660066Y-127543330D01*
X168686128Y-127484418D01*
X168744452Y-127445946D01*
X168780801Y-127440499D01*
X168858871Y-127440499D01*
X168858872Y-127440499D01*
X168918483Y-127434091D01*
X169053331Y-127383796D01*
X169168546Y-127297546D01*
X169254796Y-127182331D01*
X169305091Y-127047483D01*
X169311500Y-126987873D01*
X169311499Y-125384128D01*
X169305091Y-125324517D01*
X169279117Y-125254878D01*
X169254797Y-125189671D01*
X169254793Y-125189664D01*
X169168547Y-125074455D01*
X169168544Y-125074452D01*
X169053335Y-124988206D01*
X169053328Y-124988202D01*
X168918482Y-124937908D01*
X168918483Y-124937908D01*
X168858883Y-124931501D01*
X168858881Y-124931500D01*
X168858873Y-124931500D01*
X168858864Y-124931500D01*
X167255129Y-124931500D01*
X167255123Y-124931501D01*
X167195516Y-124937908D01*
X167060671Y-124988202D01*
X167060664Y-124988206D01*
X166945455Y-125074452D01*
X166945452Y-125074455D01*
X166859206Y-125189664D01*
X166859202Y-125189671D01*
X166808908Y-125324517D01*
X166803315Y-125376543D01*
X166802501Y-125384123D01*
X166802500Y-125384135D01*
X166802500Y-126987870D01*
X166802501Y-126987876D01*
X166808908Y-127047483D01*
X166859202Y-127182328D01*
X166859204Y-127182331D01*
X166872520Y-127200119D01*
X166896937Y-127265584D01*
X166889195Y-127318400D01*
X166876764Y-127351176D01*
X166876762Y-127351185D01*
X166864025Y-127456091D01*
X166857722Y-127508000D01*
X166875400Y-127653596D01*
X166876763Y-127664817D01*
X166876762Y-127664818D01*
X166932780Y-127812523D01*
X167022517Y-127942530D01*
X167140760Y-128047283D01*
X167172237Y-128063803D01*
X167185384Y-128070704D01*
X167235596Y-128119289D01*
X167251570Y-128187308D01*
X167228234Y-128253166D01*
X167172998Y-128295952D01*
X167127757Y-128304500D01*
X165386166Y-128304500D01*
X165340069Y-128293137D01*
X165339377Y-128294963D01*
X165332365Y-128292303D01*
X165178986Y-128254500D01*
X165178985Y-128254500D01*
X165021015Y-128254500D01*
X165021014Y-128254500D01*
X164867634Y-128292303D01*
X164727762Y-128365715D01*
X164609516Y-128470471D01*
X164585724Y-128504940D01*
X164531441Y-128548930D01*
X164483674Y-128558500D01*
X163862166Y-128558500D01*
X163816069Y-128547137D01*
X163815377Y-128548963D01*
X163808364Y-128546303D01*
X163782822Y-128540007D01*
X163722442Y-128504849D01*
X163690655Y-128442629D01*
X163688500Y-128419611D01*
X163688500Y-118458037D01*
X163696558Y-118414065D01*
X163704237Y-118393818D01*
X163714226Y-118311553D01*
X163741848Y-118247375D01*
X163799782Y-118208319D01*
X163837322Y-118202500D01*
X165772500Y-118202500D01*
X165839539Y-118222185D01*
G37*
%TD.AperFunction*%
%TA.AperFunction,NonConductor*%
G36*
X160145501Y-121449185D02*
G01*
X160180036Y-121482375D01*
X160289326Y-121638457D01*
X160289327Y-121638458D01*
X160444541Y-121793672D01*
X160444547Y-121793677D01*
X160624349Y-121919576D01*
X160624351Y-121919577D01*
X160624354Y-121919579D01*
X160823297Y-122012347D01*
X161035326Y-122069161D01*
X161191521Y-122082826D01*
X161253998Y-122088292D01*
X161254000Y-122088292D01*
X161254002Y-122088292D01*
X161308668Y-122083509D01*
X161472674Y-122069161D01*
X161684703Y-122012347D01*
X161783096Y-121966465D01*
X161852173Y-121955974D01*
X161915957Y-121984494D01*
X161954196Y-122042970D01*
X161959500Y-122078848D01*
X161959500Y-126079151D01*
X161939815Y-126146190D01*
X161887011Y-126191945D01*
X161817853Y-126201889D01*
X161783096Y-126191534D01*
X161768805Y-126184870D01*
X161684703Y-126145653D01*
X161529489Y-126104062D01*
X161472675Y-126088839D01*
X161472668Y-126088838D01*
X161254002Y-126069708D01*
X161253998Y-126069708D01*
X161035331Y-126088838D01*
X161035324Y-126088839D01*
X160912902Y-126121642D01*
X160823297Y-126145653D01*
X160823295Y-126145653D01*
X160823291Y-126145655D01*
X160624357Y-126238419D01*
X160624349Y-126238423D01*
X160444547Y-126364322D01*
X160444541Y-126364327D01*
X160289327Y-126519541D01*
X160289322Y-126519547D01*
X160163423Y-126699349D01*
X160163419Y-126699357D01*
X160070655Y-126898291D01*
X160070653Y-126898295D01*
X160070653Y-126898297D01*
X160046653Y-126987864D01*
X160013839Y-127110324D01*
X160013838Y-127110331D01*
X159994708Y-127328997D01*
X159994708Y-127329002D01*
X160013838Y-127547668D01*
X160013839Y-127547675D01*
X160014744Y-127551053D01*
X160070653Y-127759703D01*
X160070654Y-127759706D01*
X160070655Y-127759708D01*
X160163419Y-127958642D01*
X160163423Y-127958650D01*
X160289322Y-128138452D01*
X160289326Y-128138457D01*
X160444543Y-128293674D01*
X160490566Y-128325899D01*
X160534191Y-128380474D01*
X160541385Y-128449973D01*
X160535386Y-128471443D01*
X160526762Y-128494181D01*
X160507722Y-128650999D01*
X160507722Y-128651000D01*
X160526762Y-128807817D01*
X160554442Y-128880800D01*
X160562500Y-128924772D01*
X160562500Y-129414026D01*
X160542815Y-129481065D01*
X160490011Y-129526820D01*
X160420853Y-129536764D01*
X160391049Y-129528588D01*
X160335310Y-129505501D01*
X160309835Y-129494949D01*
X160309833Y-129494948D01*
X160309829Y-129494947D01*
X160116543Y-129456500D01*
X160116541Y-129456500D01*
X159919459Y-129456500D01*
X159919457Y-129456500D01*
X159726170Y-129494947D01*
X159726160Y-129494950D01*
X159540387Y-129571899D01*
X159470918Y-129579368D01*
X159408439Y-129548092D01*
X159405254Y-129545019D01*
X158044818Y-128184583D01*
X158011333Y-128123260D01*
X158008499Y-128096911D01*
X158008499Y-126975095D01*
X158028184Y-126908057D01*
X158044813Y-126887420D01*
X158219506Y-126712728D01*
X158219511Y-126712724D01*
X158229714Y-126702520D01*
X158229716Y-126702520D01*
X158341520Y-126590716D01*
X158420577Y-126453784D01*
X158461500Y-126301057D01*
X158461500Y-122574772D01*
X158469558Y-122530800D01*
X158479541Y-122504477D01*
X158497237Y-122457818D01*
X158516278Y-122301000D01*
X158511078Y-122258169D01*
X158497237Y-122144181D01*
X158459999Y-122045993D01*
X158441220Y-121996477D01*
X158351483Y-121866470D01*
X158233240Y-121761717D01*
X158233238Y-121761716D01*
X158233237Y-121761715D01*
X158093365Y-121688303D01*
X158093366Y-121688303D01*
X158034913Y-121673897D01*
X157974532Y-121638741D01*
X157942743Y-121576522D01*
X157949639Y-121506993D01*
X157993030Y-121452230D01*
X158059140Y-121429620D01*
X158064587Y-121429500D01*
X160078462Y-121429500D01*
X160145501Y-121449185D01*
G37*
%TD.AperFunction*%
%TA.AperFunction,NonConductor*%
G36*
X177753834Y-126981914D02*
G01*
X177809767Y-127023786D01*
X177834184Y-127089250D01*
X177834500Y-127098096D01*
X177834500Y-129704500D01*
X177814815Y-129771539D01*
X177762011Y-129817294D01*
X177710500Y-129828500D01*
X177184091Y-129828500D01*
X177117052Y-129808815D01*
X177071711Y-129756909D01*
X177069037Y-129751175D01*
X177069034Y-129751170D01*
X177069033Y-129751169D01*
X176948738Y-129579368D01*
X176933494Y-129557597D01*
X176766402Y-129390506D01*
X176766396Y-129390501D01*
X176580842Y-129260575D01*
X176537217Y-129205998D01*
X176530023Y-129136500D01*
X176561546Y-129074145D01*
X176580842Y-129057425D01*
X176603026Y-129041891D01*
X176766401Y-128927495D01*
X176933495Y-128760401D01*
X177069035Y-128566830D01*
X177168903Y-128352663D01*
X177230063Y-128124408D01*
X177250659Y-127889000D01*
X177230063Y-127653592D01*
X177195671Y-127525239D01*
X177197334Y-127455393D01*
X177227763Y-127405470D01*
X177622820Y-127010414D01*
X177684142Y-126976930D01*
X177753834Y-126981914D01*
G37*
%TD.AperFunction*%
%TA.AperFunction,NonConductor*%
G36*
X155567289Y-126096185D02*
G01*
X155613044Y-126148989D01*
X155622988Y-126218147D01*
X155599516Y-126274811D01*
X155556206Y-126332664D01*
X155556202Y-126332671D01*
X155505908Y-126467517D01*
X155499501Y-126527116D01*
X155499500Y-126527135D01*
X155499500Y-128130870D01*
X155499501Y-128130876D01*
X155505908Y-128190483D01*
X155556202Y-128325328D01*
X155556206Y-128325335D01*
X155642452Y-128440544D01*
X155642455Y-128440547D01*
X155757664Y-128526793D01*
X155757671Y-128526797D01*
X155892517Y-128577091D01*
X155892516Y-128577091D01*
X155899444Y-128577835D01*
X155952127Y-128583500D01*
X156693902Y-128583499D01*
X156760941Y-128603183D01*
X156781583Y-128619818D01*
X157905584Y-129743819D01*
X157939069Y-129805142D01*
X157934085Y-129874834D01*
X157892213Y-129930767D01*
X157826749Y-129955184D01*
X157817903Y-129955500D01*
X154832091Y-129955500D01*
X154765052Y-129935815D01*
X154719711Y-129883909D01*
X154717037Y-129878175D01*
X154717034Y-129878170D01*
X154717033Y-129878169D01*
X154581495Y-129684599D01*
X154581494Y-129684597D01*
X154414402Y-129517506D01*
X154414396Y-129517501D01*
X154228842Y-129387575D01*
X154185217Y-129332998D01*
X154178023Y-129263500D01*
X154209546Y-129201145D01*
X154228842Y-129184425D01*
X154251026Y-129168891D01*
X154414401Y-129054495D01*
X154581495Y-128887401D01*
X154717035Y-128693830D01*
X154816903Y-128479663D01*
X154878063Y-128251408D01*
X154898659Y-128016000D01*
X154878063Y-127780592D01*
X154816903Y-127552337D01*
X154717035Y-127338171D01*
X154710614Y-127329000D01*
X154581494Y-127144597D01*
X154414402Y-126977506D01*
X154414396Y-126977501D01*
X154228842Y-126847575D01*
X154185217Y-126792998D01*
X154178023Y-126723500D01*
X154209546Y-126661145D01*
X154228842Y-126644425D01*
X154396349Y-126527135D01*
X154414401Y-126514495D01*
X154581495Y-126347401D01*
X154717035Y-126153830D01*
X154719707Y-126148097D01*
X154765878Y-126095658D01*
X154832091Y-126076500D01*
X155500250Y-126076500D01*
X155567289Y-126096185D01*
G37*
%TD.AperFunction*%
%TA.AperFunction,NonConductor*%
G36*
X179250834Y-120404914D02*
G01*
X179306767Y-120446786D01*
X179331184Y-120512250D01*
X179331500Y-120521096D01*
X179331500Y-121475676D01*
X179311815Y-121542715D01*
X179311123Y-121543314D01*
X179329821Y-121581984D01*
X179331500Y-121602323D01*
X179331500Y-137805500D01*
X179311815Y-137872539D01*
X179259011Y-137918294D01*
X179207500Y-137929500D01*
X150230500Y-137929500D01*
X150163461Y-137909815D01*
X150117706Y-137857011D01*
X150106500Y-137805500D01*
X150106500Y-134873994D01*
X151164556Y-134873994D01*
X151164556Y-134874005D01*
X151184310Y-135188004D01*
X151184311Y-135188011D01*
X151184312Y-135188015D01*
X151219042Y-135370079D01*
X151243270Y-135497083D01*
X151340497Y-135796316D01*
X151340499Y-135796321D01*
X151474461Y-136081003D01*
X151474464Y-136081009D01*
X151643051Y-136346661D01*
X151643054Y-136346665D01*
X151843606Y-136589090D01*
X151843608Y-136589092D01*
X152072968Y-136804476D01*
X152072978Y-136804484D01*
X152327504Y-136989408D01*
X152327509Y-136989410D01*
X152327516Y-136989416D01*
X152603234Y-137140994D01*
X152603239Y-137140996D01*
X152603241Y-137140997D01*
X152603242Y-137140998D01*
X152895771Y-137256818D01*
X152895774Y-137256819D01*
X153200523Y-137335065D01*
X153200527Y-137335066D01*
X153266010Y-137343338D01*
X153512670Y-137374499D01*
X153512679Y-137374499D01*
X153512682Y-137374500D01*
X153512684Y-137374500D01*
X153827316Y-137374500D01*
X153827318Y-137374500D01*
X153827321Y-137374499D01*
X153827329Y-137374499D01*
X154013593Y-137350968D01*
X154139473Y-137335066D01*
X154444225Y-137256819D01*
X154444228Y-137256818D01*
X154736757Y-137140998D01*
X154736758Y-137140997D01*
X154736756Y-137140997D01*
X154736766Y-137140994D01*
X155012484Y-136989416D01*
X155267030Y-136804478D01*
X155496390Y-136589094D01*
X155696947Y-136346663D01*
X155865537Y-136081007D01*
X155999503Y-135796315D01*
X156035495Y-135685543D01*
X159017499Y-135685543D01*
X159055947Y-135878829D01*
X159055950Y-135878839D01*
X159131364Y-136060907D01*
X159131371Y-136060920D01*
X159240860Y-136224781D01*
X159240863Y-136224785D01*
X159380214Y-136364136D01*
X159380218Y-136364139D01*
X159544079Y-136473628D01*
X159544092Y-136473635D01*
X159726160Y-136549049D01*
X159726165Y-136549051D01*
X159726169Y-136549051D01*
X159726170Y-136549052D01*
X159919456Y-136587500D01*
X159919459Y-136587500D01*
X160116543Y-136587500D01*
X160246582Y-136561632D01*
X160309835Y-136549051D01*
X160491914Y-136473632D01*
X160655782Y-136364139D01*
X160795139Y-136224782D01*
X160904632Y-136060914D01*
X160980051Y-135878835D01*
X161018500Y-135685543D01*
X167657499Y-135685543D01*
X167695947Y-135878829D01*
X167695950Y-135878839D01*
X167771364Y-136060907D01*
X167771371Y-136060920D01*
X167880860Y-136224781D01*
X167880863Y-136224785D01*
X168020214Y-136364136D01*
X168020218Y-136364139D01*
X168184079Y-136473628D01*
X168184092Y-136473635D01*
X168366160Y-136549049D01*
X168366165Y-136549051D01*
X168366169Y-136549051D01*
X168366170Y-136549052D01*
X168559456Y-136587500D01*
X168559459Y-136587500D01*
X168756543Y-136587500D01*
X168886582Y-136561632D01*
X168949835Y-136549051D01*
X169131914Y-136473632D01*
X169295782Y-136364139D01*
X169435139Y-136224782D01*
X169544632Y-136060914D01*
X169620051Y-135878835D01*
X169658500Y-135685541D01*
X169658500Y-134746994D01*
X173389556Y-134746994D01*
X173389556Y-134747005D01*
X173409310Y-135061004D01*
X173409311Y-135061011D01*
X173468270Y-135370083D01*
X173565497Y-135669316D01*
X173565499Y-135669321D01*
X173699461Y-135954003D01*
X173699464Y-135954009D01*
X173868051Y-136219661D01*
X173868054Y-136219665D01*
X174068606Y-136462090D01*
X174068608Y-136462092D01*
X174068610Y-136462094D01*
X174202154Y-136587500D01*
X174297968Y-136677476D01*
X174297978Y-136677484D01*
X174552504Y-136862408D01*
X174552509Y-136862410D01*
X174552516Y-136862416D01*
X174828234Y-137013994D01*
X174828239Y-137013996D01*
X174828241Y-137013997D01*
X174828242Y-137013998D01*
X175120771Y-137129818D01*
X175120774Y-137129819D01*
X175425523Y-137208065D01*
X175425527Y-137208066D01*
X175491010Y-137216338D01*
X175737670Y-137247499D01*
X175737679Y-137247499D01*
X175737682Y-137247500D01*
X175737684Y-137247500D01*
X176052316Y-137247500D01*
X176052318Y-137247500D01*
X176052321Y-137247499D01*
X176052329Y-137247499D01*
X176238593Y-137223968D01*
X176364473Y-137208066D01*
X176669225Y-137129819D01*
X176669228Y-137129818D01*
X176961757Y-137013998D01*
X176961758Y-137013997D01*
X176961756Y-137013997D01*
X176961766Y-137013994D01*
X177237484Y-136862416D01*
X177492030Y-136677478D01*
X177721390Y-136462094D01*
X177921947Y-136219663D01*
X178090537Y-135954007D01*
X178224503Y-135669315D01*
X178321731Y-135370079D01*
X178380688Y-135061015D01*
X178392454Y-134874000D01*
X178400444Y-134747005D01*
X178400444Y-134746994D01*
X178380689Y-134432995D01*
X178380688Y-134432988D01*
X178380688Y-134432985D01*
X178321731Y-134123921D01*
X178224503Y-133824685D01*
X178206534Y-133786500D01*
X178090538Y-133539996D01*
X178090537Y-133539993D01*
X178002544Y-133401338D01*
X177921948Y-133274338D01*
X177921945Y-133274334D01*
X177721393Y-133031909D01*
X177721391Y-133031907D01*
X177492031Y-132816523D01*
X177492021Y-132816515D01*
X177237495Y-132631591D01*
X177237488Y-132631586D01*
X177237484Y-132631584D01*
X176961766Y-132480006D01*
X176961763Y-132480004D01*
X176961758Y-132480002D01*
X176961757Y-132480001D01*
X176669228Y-132364181D01*
X176669225Y-132364180D01*
X176364476Y-132285934D01*
X176364463Y-132285932D01*
X176052329Y-132246500D01*
X176052318Y-132246500D01*
X175737682Y-132246500D01*
X175737670Y-132246500D01*
X175425536Y-132285932D01*
X175425523Y-132285934D01*
X175120774Y-132364180D01*
X175120771Y-132364181D01*
X174828242Y-132480001D01*
X174828241Y-132480002D01*
X174552516Y-132631584D01*
X174552504Y-132631591D01*
X174297978Y-132816515D01*
X174297968Y-132816523D01*
X174068608Y-133031907D01*
X174068606Y-133031909D01*
X173868054Y-133274334D01*
X173868051Y-133274338D01*
X173699464Y-133539990D01*
X173699461Y-133539996D01*
X173565499Y-133824678D01*
X173565497Y-133824683D01*
X173468270Y-134123916D01*
X173409311Y-134432988D01*
X173409310Y-134432995D01*
X173389556Y-134746994D01*
X169658500Y-134746994D01*
X169658500Y-134688459D01*
X169658500Y-134688456D01*
X169620052Y-134495170D01*
X169620051Y-134495169D01*
X169620051Y-134495165D01*
X169594297Y-134432988D01*
X169544635Y-134313092D01*
X169544628Y-134313079D01*
X169435139Y-134149218D01*
X169435136Y-134149214D01*
X169295785Y-134009863D01*
X169295781Y-134009860D01*
X169131920Y-133900371D01*
X169131907Y-133900364D01*
X168949839Y-133824950D01*
X168949829Y-133824947D01*
X168756543Y-133786500D01*
X168756541Y-133786500D01*
X168559459Y-133786500D01*
X168559457Y-133786500D01*
X168366170Y-133824947D01*
X168366160Y-133824950D01*
X168184092Y-133900364D01*
X168184079Y-133900371D01*
X168020218Y-134009860D01*
X168020214Y-134009863D01*
X167880863Y-134149214D01*
X167880860Y-134149218D01*
X167771371Y-134313079D01*
X167771364Y-134313092D01*
X167695950Y-134495160D01*
X167695947Y-134495170D01*
X167657500Y-134688456D01*
X167657500Y-134688459D01*
X167657500Y-135685541D01*
X167657500Y-135685543D01*
X167657499Y-135685543D01*
X161018500Y-135685543D01*
X161018500Y-135685541D01*
X161018500Y-134688459D01*
X161018500Y-134688456D01*
X160980052Y-134495170D01*
X160980051Y-134495169D01*
X160980051Y-134495165D01*
X160954297Y-134432988D01*
X160904635Y-134313092D01*
X160904628Y-134313079D01*
X160795139Y-134149218D01*
X160795136Y-134149214D01*
X160655785Y-134009863D01*
X160655781Y-134009860D01*
X160491920Y-133900371D01*
X160491907Y-133900364D01*
X160309839Y-133824950D01*
X160309829Y-133824947D01*
X160116543Y-133786500D01*
X160116541Y-133786500D01*
X159919459Y-133786500D01*
X159919457Y-133786500D01*
X159726170Y-133824947D01*
X159726160Y-133824950D01*
X159544092Y-133900364D01*
X159544079Y-133900371D01*
X159380218Y-134009860D01*
X159380214Y-134009863D01*
X159240863Y-134149214D01*
X159240860Y-134149218D01*
X159131371Y-134313079D01*
X159131364Y-134313092D01*
X159055950Y-134495160D01*
X159055947Y-134495170D01*
X159017500Y-134688456D01*
X159017500Y-134688459D01*
X159017500Y-135685541D01*
X159017500Y-135685543D01*
X159017499Y-135685543D01*
X156035495Y-135685543D01*
X156096731Y-135497079D01*
X156155688Y-135188015D01*
X156163678Y-135061015D01*
X156175444Y-134874005D01*
X156175444Y-134873994D01*
X156155689Y-134559995D01*
X156155688Y-134559988D01*
X156155688Y-134559985D01*
X156096731Y-134250921D01*
X155999503Y-133951685D01*
X155975356Y-133900371D01*
X155939866Y-133824950D01*
X155865537Y-133666993D01*
X155830414Y-133611648D01*
X155696948Y-133401338D01*
X155696945Y-133401334D01*
X155496393Y-133158909D01*
X155496391Y-133158907D01*
X155267031Y-132943523D01*
X155267021Y-132943515D01*
X155012495Y-132758591D01*
X155012488Y-132758586D01*
X155012484Y-132758584D01*
X154736766Y-132607006D01*
X154736763Y-132607004D01*
X154736758Y-132607002D01*
X154736757Y-132607001D01*
X154444228Y-132491181D01*
X154444225Y-132491180D01*
X154139476Y-132412934D01*
X154139463Y-132412932D01*
X153827329Y-132373500D01*
X153827318Y-132373500D01*
X153512682Y-132373500D01*
X153512670Y-132373500D01*
X153200536Y-132412932D01*
X153200523Y-132412934D01*
X152895774Y-132491180D01*
X152895771Y-132491181D01*
X152603242Y-132607001D01*
X152603241Y-132607002D01*
X152327516Y-132758584D01*
X152327504Y-132758591D01*
X152072978Y-132943515D01*
X152072968Y-132943523D01*
X151843608Y-133158907D01*
X151843606Y-133158909D01*
X151643054Y-133401334D01*
X151643051Y-133401338D01*
X151474464Y-133666990D01*
X151474461Y-133666996D01*
X151340499Y-133951678D01*
X151340497Y-133951683D01*
X151243270Y-134250916D01*
X151184311Y-134559988D01*
X151184310Y-134559995D01*
X151164556Y-134873994D01*
X150106500Y-134873994D01*
X150106500Y-120648098D01*
X150126185Y-120581059D01*
X150178989Y-120535304D01*
X150248147Y-120525360D01*
X150311703Y-120554385D01*
X150318181Y-120560417D01*
X150387349Y-120629585D01*
X150387355Y-120629590D01*
X151450583Y-121692819D01*
X151484068Y-121754142D01*
X151479084Y-121823834D01*
X151437212Y-121879767D01*
X151371748Y-121904184D01*
X151362902Y-121904500D01*
X151305014Y-121904500D01*
X151151634Y-121942303D01*
X151011762Y-122015715D01*
X150893516Y-122120471D01*
X150803781Y-122250475D01*
X150803780Y-122250476D01*
X150747762Y-122398181D01*
X150728722Y-122554999D01*
X150728722Y-122555000D01*
X150747762Y-122711817D01*
X150775442Y-122784800D01*
X150783500Y-122828772D01*
X150783500Y-125770330D01*
X150783499Y-125770348D01*
X150783499Y-125936054D01*
X150783498Y-125936054D01*
X150824423Y-126088785D01*
X150834907Y-126106943D01*
X150834908Y-126106946D01*
X150903475Y-126225709D01*
X150903481Y-126225717D01*
X151022349Y-126344585D01*
X151022355Y-126344590D01*
X152210233Y-127532468D01*
X152243718Y-127593791D01*
X152242327Y-127652241D01*
X152207939Y-127780583D01*
X152207936Y-127780596D01*
X152187341Y-128015999D01*
X152187341Y-128016000D01*
X152207936Y-128251403D01*
X152207938Y-128251413D01*
X152269094Y-128479655D01*
X152269096Y-128479659D01*
X152269097Y-128479663D01*
X152334453Y-128619818D01*
X152368965Y-128693830D01*
X152368967Y-128693834D01*
X152504501Y-128887395D01*
X152504506Y-128887402D01*
X152671597Y-129054493D01*
X152671603Y-129054498D01*
X152857158Y-129184425D01*
X152900783Y-129239002D01*
X152907977Y-129308500D01*
X152876454Y-129370855D01*
X152857158Y-129387575D01*
X152671597Y-129517505D01*
X152504505Y-129684597D01*
X152368965Y-129878169D01*
X152368964Y-129878171D01*
X152269098Y-130092335D01*
X152269094Y-130092344D01*
X152207938Y-130320586D01*
X152207936Y-130320596D01*
X152187341Y-130555999D01*
X152187341Y-130556000D01*
X152207936Y-130791403D01*
X152207938Y-130791413D01*
X152269094Y-131019655D01*
X152269096Y-131019659D01*
X152269097Y-131019663D01*
X152341839Y-131175658D01*
X152368965Y-131233830D01*
X152368967Y-131233834D01*
X152415579Y-131300402D01*
X152504505Y-131427401D01*
X152671599Y-131594495D01*
X152768384Y-131662265D01*
X152865165Y-131730032D01*
X152865167Y-131730033D01*
X152865170Y-131730035D01*
X153079337Y-131829903D01*
X153307592Y-131891063D01*
X153495918Y-131907539D01*
X153542999Y-131911659D01*
X153543000Y-131911659D01*
X153543001Y-131911659D01*
X153582234Y-131908226D01*
X153778408Y-131891063D01*
X154006663Y-131829903D01*
X154220830Y-131730035D01*
X154414401Y-131594495D01*
X154581495Y-131427401D01*
X154717035Y-131233830D01*
X154719707Y-131228097D01*
X154765878Y-131175658D01*
X154832091Y-131156500D01*
X158893500Y-131156500D01*
X158960539Y-131176185D01*
X159006294Y-131228989D01*
X159017500Y-131280500D01*
X159017500Y-131655541D01*
X159017500Y-131655543D01*
X159017499Y-131655543D01*
X159055947Y-131848829D01*
X159055950Y-131848839D01*
X159131364Y-132030907D01*
X159131371Y-132030920D01*
X159240860Y-132194781D01*
X159240863Y-132194785D01*
X159380214Y-132334136D01*
X159380218Y-132334139D01*
X159544079Y-132443628D01*
X159544092Y-132443635D01*
X159658880Y-132491181D01*
X159726165Y-132519051D01*
X159726169Y-132519051D01*
X159726170Y-132519052D01*
X159919456Y-132557500D01*
X159919459Y-132557500D01*
X160116543Y-132557500D01*
X160246582Y-132531632D01*
X160309835Y-132519051D01*
X160491914Y-132443632D01*
X160655782Y-132334139D01*
X160795139Y-132194782D01*
X160815241Y-132164696D01*
X160868852Y-132119891D01*
X160938177Y-132111182D01*
X161001205Y-132141336D01*
X161006025Y-132145905D01*
X161094635Y-132234515D01*
X161225865Y-132310281D01*
X161372234Y-132349500D01*
X161372236Y-132349500D01*
X161523764Y-132349500D01*
X161523766Y-132349500D01*
X161670135Y-132310281D01*
X161801365Y-132234515D01*
X161908515Y-132127365D01*
X161984281Y-131996135D01*
X161987850Y-131982811D01*
X162024211Y-131923153D01*
X162087056Y-131892621D01*
X162139719Y-131895128D01*
X162226943Y-131918501D01*
X162226944Y-131918501D01*
X162392654Y-131918501D01*
X162392670Y-131918500D01*
X166283331Y-131918500D01*
X166283347Y-131918501D01*
X166290943Y-131918501D01*
X166449055Y-131918501D01*
X166449057Y-131918501D01*
X166536280Y-131895129D01*
X166606129Y-131896791D01*
X166663992Y-131935952D01*
X166688149Y-131982810D01*
X166691719Y-131996136D01*
X166711802Y-132030920D01*
X166767485Y-132127365D01*
X166874635Y-132234515D01*
X167005865Y-132310281D01*
X167152234Y-132349500D01*
X167152236Y-132349500D01*
X167303764Y-132349500D01*
X167303766Y-132349500D01*
X167450135Y-132310281D01*
X167581365Y-132234515D01*
X167669977Y-132145902D01*
X167731296Y-132112420D01*
X167800988Y-132117404D01*
X167856922Y-132159275D01*
X167860757Y-132164695D01*
X167880860Y-132194781D01*
X167880863Y-132194785D01*
X168020214Y-132334136D01*
X168020218Y-132334139D01*
X168184079Y-132443628D01*
X168184092Y-132443635D01*
X168298880Y-132491181D01*
X168366165Y-132519051D01*
X168366169Y-132519051D01*
X168366170Y-132519052D01*
X168559456Y-132557500D01*
X168559459Y-132557500D01*
X168756543Y-132557500D01*
X168886582Y-132531632D01*
X168949835Y-132519051D01*
X169131914Y-132443632D01*
X169295782Y-132334139D01*
X169435139Y-132194782D01*
X169544632Y-132030914D01*
X169620051Y-131848835D01*
X169649079Y-131702903D01*
X169658500Y-131655543D01*
X169658500Y-130358456D01*
X169620052Y-130165170D01*
X169620051Y-130165169D01*
X169620051Y-130165165D01*
X169589884Y-130092335D01*
X169544635Y-129983092D01*
X169544628Y-129983079D01*
X169435139Y-129819218D01*
X169435136Y-129819214D01*
X169333103Y-129717181D01*
X169299618Y-129655858D01*
X169304602Y-129586166D01*
X169346474Y-129530233D01*
X169411938Y-129505816D01*
X169420784Y-129505500D01*
X172252331Y-129505500D01*
X172252347Y-129505501D01*
X172259943Y-129505501D01*
X172418054Y-129505501D01*
X172418057Y-129505501D01*
X172570785Y-129464577D01*
X172570787Y-129464575D01*
X172570789Y-129464575D01*
X172570790Y-129464574D01*
X172621640Y-129435216D01*
X172621641Y-129435215D01*
X172707716Y-129385520D01*
X172819520Y-129273716D01*
X172819520Y-129273714D01*
X172829724Y-129263511D01*
X172829728Y-129263506D01*
X174330570Y-127762663D01*
X174391891Y-127729180D01*
X174461583Y-127734164D01*
X174517516Y-127776036D01*
X174541933Y-127841500D01*
X174541777Y-127861153D01*
X174539341Y-127888997D01*
X174539341Y-127889000D01*
X174559936Y-128124403D01*
X174559938Y-128124413D01*
X174621094Y-128352655D01*
X174621096Y-128352659D01*
X174621097Y-128352663D01*
X174717080Y-128558499D01*
X174720965Y-128566830D01*
X174720967Y-128566834D01*
X174856501Y-128760395D01*
X174856506Y-128760402D01*
X175023597Y-128927493D01*
X175023603Y-128927498D01*
X175209158Y-129057425D01*
X175252783Y-129112002D01*
X175259977Y-129181500D01*
X175228454Y-129243855D01*
X175209158Y-129260575D01*
X175023597Y-129390505D01*
X174856505Y-129557597D01*
X174720965Y-129751169D01*
X174720964Y-129751171D01*
X174621098Y-129965335D01*
X174621094Y-129965344D01*
X174559938Y-130193586D01*
X174559936Y-130193596D01*
X174539341Y-130428999D01*
X174539341Y-130429000D01*
X174559936Y-130664403D01*
X174559938Y-130664413D01*
X174621094Y-130892655D01*
X174621096Y-130892659D01*
X174621097Y-130892663D01*
X174684906Y-131029501D01*
X174720965Y-131106830D01*
X174720967Y-131106834D01*
X174806502Y-131228989D01*
X174856505Y-131300401D01*
X175023599Y-131467495D01*
X175120384Y-131535265D01*
X175217165Y-131603032D01*
X175217167Y-131603033D01*
X175217170Y-131603035D01*
X175431337Y-131702903D01*
X175659592Y-131764063D01*
X175847918Y-131780539D01*
X175894999Y-131784659D01*
X175895000Y-131784659D01*
X175895001Y-131784659D01*
X175934234Y-131781226D01*
X176130408Y-131764063D01*
X176358663Y-131702903D01*
X176572830Y-131603035D01*
X176766401Y-131467495D01*
X176933495Y-131300401D01*
X177069035Y-131106830D01*
X177071707Y-131101097D01*
X177117878Y-131048658D01*
X177184091Y-131029500D01*
X178221331Y-131029500D01*
X178221347Y-131029501D01*
X178228943Y-131029501D01*
X178387054Y-131029501D01*
X178387057Y-131029501D01*
X178539785Y-130988577D01*
X178607842Y-130949284D01*
X178676716Y-130909520D01*
X178788520Y-130797716D01*
X178788520Y-130797714D01*
X178803714Y-130782520D01*
X178803716Y-130782520D01*
X178915520Y-130670716D01*
X178981751Y-130556000D01*
X178994577Y-130533785D01*
X179035500Y-130381057D01*
X179035500Y-130222943D01*
X179035500Y-121812772D01*
X179043558Y-121768800D01*
X179044023Y-121767575D01*
X179071237Y-121695818D01*
X179084404Y-121587376D01*
X179105843Y-121537562D01*
X179088523Y-121510611D01*
X179084404Y-121490622D01*
X179071237Y-121382181D01*
X179042911Y-121307493D01*
X179015220Y-121234477D01*
X178925483Y-121104470D01*
X178807240Y-120999717D01*
X178807238Y-120999715D01*
X178790061Y-120990700D01*
X178739850Y-120942114D01*
X178723877Y-120874094D01*
X178747214Y-120808237D01*
X178760003Y-120793230D01*
X179119819Y-120433415D01*
X179181142Y-120399930D01*
X179250834Y-120404914D01*
G37*
%TD.AperFunction*%
M02*
