M48
; DRILL file {KiCad 8.0.3} date 2024-07-05T15:20:51+0530
; FORMAT={-:-/ absolute / inch / decimal}
; #@! TF.CreationDate,2024-07-05T15:20:51+05:30
; #@! TF.GenerationSoftware,Kicad,Pcbnew,8.0.3
; #@! TF.FileFunction,Plated,1,2,Blind
FMAT,2
INCH
; #@! TA.AperFunction,Plated,Buried,ViaDrill
T1C0.0039
%
G90
G05
T1
X5.96Y-4.825
X5.995Y-3.29
X6.095Y-3.74
X6.115Y-3.94
X6.125Y-3.64
X6.125Y-4.535
X6.15Y-3.48
X6.16Y-3.52
X6.19Y-3.6
X6.195Y-3.48
X6.195Y-3.58
X6.195Y-4.59
X6.215Y-4.815
X6.225Y-3.475
X6.255Y-3.475
X6.26Y-3.28
X6.275Y-3.76
X6.28Y-3.97
X6.285Y-3.485
X6.295Y-4.73
X6.305Y-3.7
X6.32Y-3.3
X6.325Y-3.54
X6.325Y-3.675
X6.335Y-3.61
X6.335Y-4.205
X6.34Y-3.97
X6.345Y-3.305
X6.345Y-3.785
X6.365Y-3.29
X6.39Y-3.785
X6.395Y-3.63
X6.395Y-4.01
X6.4Y-3.76
X6.415Y-3.61
X6.415Y-3.95
X6.42Y-4.115
X6.42Y-4.655
X6.46Y-3.99
X6.46Y-5.105
X6.47Y-3.51
X6.48Y-3.845
X6.49Y-3.45
X6.5Y-3.795
X6.5Y-3.97
X6.5Y-5.075
X6.53Y-4.195
X6.54Y-5.095
X6.555Y-4.63
X6.575Y-3.33
X6.6Y-3.525
X6.61Y-3.97
X6.655Y-3.46
X6.685Y-3.425
X6.695Y-3.23
X6.7Y-3.455
X6.7Y-4.02
X6.705Y-3.375
X6.715Y-3.16
X6.725Y-3.365
X6.745Y-3.385
X6.745Y-3.47
X6.75Y-4.195
X6.765Y-3.34
X6.78Y-4.13
X6.785Y-3.185
X6.785Y-3.285
X6.795Y-3.45
X6.8Y-2.93
X6.8Y-4.175
X6.815Y-3.405
X6.845Y-2.93
X6.85Y-3.685
X6.86Y-3.735
X6.885Y-3.285
X6.995Y-3.91
X7.015Y-3.89
X7.025Y-4.785
X7.04Y-3.305
X7.04Y-3.88
M30
