M48
; DRILL file {KiCad 8.0.3} date 2024-07-05T15:20:51+0530
; FORMAT={-:-/ absolute / inch / decimal}
; #@! TF.CreationDate,2024-07-05T15:20:51+05:30
; #@! TF.GenerationSoftware,Kicad,Pcbnew,8.0.3
; #@! TF.FileFunction,Plated,1,4,PTH
FMAT,2
INCH
; #@! TA.AperFunction,Plated,PTH,ViaDrill
T1C0.0039
; #@! TA.AperFunction,Plated,PTH,ViaDrill
T2C0.0118
; #@! TA.AperFunction,Plated,PTH,ComponentDrill
T3C0.0236
; #@! TA.AperFunction,Plated,PTH,ComponentDrill
T4C0.0394
; #@! TA.AperFunction,Plated,PTH,ViaDrill
T5C0.0787
%
G90
G05
T1
X5.935Y-3.69
X5.985Y-4.24
X5.995Y-3.895
X6.095Y-3.11
X6.17Y-3.43
X6.175Y-3.65
X6.18Y-4.07
X6.18Y-4.94
X6.195Y-4.515
X6.23Y-3.43
X6.23Y-4.285
X6.235Y-4.12
X6.28Y-3.955
X6.315Y-4.12
X6.315Y-4.24
X6.345Y-5.065
X6.355Y-4.11
X6.385Y-3.365
X6.485Y-4.695
X6.505Y-3.655
X6.595Y-5.02
X6.595Y-5.105
X6.7Y-4.105
X6.725Y-3.46
X6.765Y-3.53
T2
X6.175Y-3.33
X6.225Y-4.34
X6.255Y-4.44
X6.26Y-3.335
X6.29Y-3.275
X6.485Y-4.335
X6.655Y-3.365
X6.665Y-3.505
X6.665Y-4.02
T4
X6.045Y-3.04
X6.045Y-3.14
X6.045Y-3.24
X6.045Y-3.34
X6.045Y-3.44
X6.045Y-3.54
X6.045Y-3.64
X6.045Y-3.74
X6.045Y-3.84
X6.045Y-3.94
X6.045Y-4.04
X6.045Y-4.14
X6.045Y-4.24
X6.045Y-4.34
X6.045Y-4.44
X6.045Y-4.54
X6.045Y-4.64
X6.045Y-4.74
X6.045Y-4.84
X6.045Y-4.94
X6.045Y-5.04
X6.045Y-5.14
X6.1714Y-4.757
X6.1714Y-5.013
X6.3486Y-4.757
X6.3486Y-5.013
X6.6164Y-4.712
X6.6164Y-4.968
X6.7936Y-4.712
X6.7936Y-4.968
X6.925Y-3.035
X6.925Y-3.135
X6.925Y-3.235
X6.925Y-3.335
X6.925Y-3.435
X6.925Y-3.535
X6.925Y-3.635
X6.925Y-3.735
X6.925Y-3.835
X6.925Y-3.935
X6.925Y-4.035
X6.925Y-4.135
X6.925Y-4.235
X6.925Y-4.335
X6.925Y-4.435
X6.925Y-4.535
X6.925Y-4.635
X6.925Y-4.735
X6.925Y-4.835
X6.925Y-4.935
X6.925Y-5.035
X6.925Y-5.135
T5
X6.025Y-2.85
X6.05Y-5.31
X6.925Y-5.305
X6.945Y-2.85
T3
G00X6.2999Y-5.1361
M15
G01X6.2999Y-5.1794
M16
G05
G00X6.2999Y-5.3066
M15
G01X6.2999Y-5.3381
M16
G05
G00X6.6401Y-5.1361
M15
G01X6.6401Y-5.1794
M16
G05
G00X6.6401Y-5.3066
M15
G01X6.6401Y-5.3381
M16
G05
M30
