%TF.GenerationSoftware,KiCad,Pcbnew,8.0.3*%
%TF.CreationDate,2024-07-05T15:20:34+05:30*%
%TF.ProjectId,multilayer1,6d756c74-696c-4617-9965-72312e6b6963,rev?*%
%TF.SameCoordinates,Original*%
%TF.FileFunction,Copper,L2,Inr*%
%TF.FilePolarity,Positive*%
%FSLAX46Y46*%
G04 Gerber Fmt 4.6, Leading zero omitted, Abs format (unit mm)*
G04 Created by KiCad (PCBNEW 8.0.3) date 2024-07-05 15:20:34*
%MOMM*%
%LPD*%
G01*
G04 APERTURE LIST*
%TA.AperFunction,ComponentPad*%
%ADD10R,1.508000X1.508000*%
%TD*%
%TA.AperFunction,ComponentPad*%
%ADD11C,1.508000*%
%TD*%
%TA.AperFunction,ComponentPad*%
%ADD12O,1.000000X2.100000*%
%TD*%
%TA.AperFunction,ComponentPad*%
%ADD13O,1.000000X1.800000*%
%TD*%
%TA.AperFunction,ComponentPad*%
%ADD14R,1.700000X1.700000*%
%TD*%
%TA.AperFunction,ComponentPad*%
%ADD15O,1.700000X1.700000*%
%TD*%
%TA.AperFunction,ViaPad*%
%ADD16C,4.000000*%
%TD*%
%TA.AperFunction,ViaPad*%
%ADD17C,0.300000*%
%TD*%
%TA.AperFunction,ViaPad*%
%ADD18C,0.600000*%
%TD*%
%TA.AperFunction,Conductor*%
%ADD19C,0.200000*%
%TD*%
G04 APERTURE END LIST*
D10*
%TO.N,/GPIO12*%
%TO.C,reset1*%
X156754000Y-127329000D03*
D11*
X156754000Y-120829000D03*
X161254000Y-127329000D03*
X161254000Y-120829000D03*
%TD*%
D12*
%TO.N,/GPIO12*%
%TO.C,J2*%
X160018000Y-131007000D03*
D13*
X160018000Y-135187000D03*
D12*
X168658000Y-131007000D03*
D13*
X168658000Y-135187000D03*
%TD*%
D10*
%TO.N,/GPIO12*%
%TO.C,boot1*%
X168057000Y-126186000D03*
D11*
%TO.N,/GPIO0*%
X168057000Y-119686000D03*
%TO.N,/GPIO12*%
X172557000Y-126186000D03*
%TO.N,/GPIO0*%
X172557000Y-119686000D03*
%TD*%
D14*
%TO.N,/GPIO12*%
%TO.C,J1*%
X153543000Y-77216000D03*
D15*
%TO.N,/GPIO0*%
X153543000Y-79756000D03*
%TO.N,/GPIO1*%
X153543000Y-82296000D03*
%TO.N,/GPIO2*%
X153543000Y-84836000D03*
%TO.N,/GPIO3*%
X153543000Y-87376000D03*
%TO.N,/GPIO4*%
X153543000Y-89916000D03*
%TO.N,/GPIO12*%
X153543000Y-92456000D03*
%TO.N,/GPIO6*%
X153543000Y-94996000D03*
%TO.N,/GPIO7*%
X153543000Y-97536000D03*
%TO.N,/GPIO8*%
X153543000Y-100076000D03*
%TO.N,/GPIO9*%
X153543000Y-102616000D03*
%TO.N,/GPIO10*%
X153543000Y-105156000D03*
%TO.N,/GPIO11*%
X153543000Y-107696000D03*
%TO.N,/GPIO12*%
X153543000Y-110236000D03*
%TO.N,/GPIO13*%
X153543000Y-112776000D03*
%TO.N,/GPIO14*%
X153543000Y-115316000D03*
%TO.N,/GPIO15*%
X153543000Y-117856000D03*
%TO.N,/GPIO16*%
X153543000Y-120396000D03*
%TO.N,/I2C_SCL*%
X153543000Y-122936000D03*
%TO.N,/I2C_SDA*%
X153543000Y-125476000D03*
%TO.N,/5VUSB*%
X153543000Y-128016000D03*
%TO.N,/GPIO12*%
X153543000Y-130556000D03*
%TD*%
D14*
%TO.N,/GPIO12*%
%TO.C,J3*%
X175895000Y-77089000D03*
D15*
X175895000Y-79629000D03*
%TO.N,/GPIO46*%
X175895000Y-82169000D03*
%TO.N,/GPIO45*%
X175895000Y-84709000D03*
%TO.N,/RXD*%
X175895000Y-87249000D03*
%TO.N,/TXD*%
X175895000Y-89789000D03*
%TO.N,/GPIO42*%
X175895000Y-92329000D03*
%TO.N,/GPIO41*%
X175895000Y-94869000D03*
%TO.N,/GPIO40*%
X175895000Y-97409000D03*
%TO.N,/GPIO39*%
X175895000Y-99949000D03*
%TO.N,/GPIO38*%
X175895000Y-102489000D03*
%TO.N,/GPIO12*%
X175895000Y-105029000D03*
%TO.N,/GPIO36*%
X175895000Y-107569000D03*
%TO.N,/GPIO35*%
X175895000Y-110109000D03*
%TO.N,/GPIO34*%
X175895000Y-112649000D03*
%TO.N,/GPIO33*%
X175895000Y-115189000D03*
%TO.N,/GPIO26*%
X175895000Y-117729000D03*
%TO.N,/GPIO12*%
X175895000Y-120269000D03*
X175895000Y-122809000D03*
X175895000Y-125349000D03*
%TO.N,/GPIO48*%
X175895000Y-127889000D03*
%TO.N,/GPIO47*%
X175895000Y-130429000D03*
%TD*%
D16*
%TO.N,*%
X175895000Y-134747000D03*
X176403000Y-72390000D03*
X153670000Y-134874000D03*
X153035000Y-72390000D03*
D17*
%TO.N,/GPIO0*%
X161671000Y-78359000D03*
X165862000Y-106553000D03*
X162941000Y-101854000D03*
%TO.N,/5VUSB*%
X151384000Y-122555000D03*
X165227000Y-92837000D03*
X150876000Y-91440000D03*
%TO.N,Net-(D2-K)*%
X162560000Y-95504000D03*
X162433000Y-101854000D03*
X159385000Y-95504000D03*
X158369000Y-100457000D03*
X159512000Y-101600000D03*
%TO.N,/GPIO48*%
X167005000Y-84582000D03*
X166497000Y-117602000D03*
%TO.N,Net-(D2-A)*%
X171069000Y-107823000D03*
X163830000Y-93726000D03*
%TO.N,/GPIO6*%
X160528000Y-83820000D03*
X154813000Y-94996000D03*
%TO.N,/I2C_SCL*%
X161036000Y-90424000D03*
X150749000Y-93726000D03*
X169164000Y-98933000D03*
X156845000Y-92710000D03*
%TO.N,/GPIO13*%
X158877000Y-88265000D03*
D18*
X158877000Y-112776000D03*
D17*
%TO.N,/I2C_SDA*%
X156972000Y-125476000D03*
X163947000Y-87757000D03*
X170180000Y-102108000D03*
X165354000Y-89408000D03*
X170180000Y-104267000D03*
X167640000Y-89535000D03*
%TO.N,/GPIO11*%
X152019000Y-107696000D03*
X156718000Y-87122000D03*
%TO.N,/GPIO8*%
X155321000Y-100076000D03*
X156210000Y-88392000D03*
X155321000Y-93091000D03*
X155321000Y-91694000D03*
%TO.N,/GPIO14*%
X155575000Y-115189000D03*
X156464000Y-89408000D03*
%TO.N,/GPIO7*%
X159004000Y-83312000D03*
X152273000Y-83566000D03*
%TO.N,/GPIO16*%
X160655000Y-93345000D03*
X157099000Y-104140000D03*
X160655000Y-89916000D03*
X159512000Y-104140000D03*
%TO.N,/GPIO4*%
X159639000Y-88519000D03*
X161671000Y-83566000D03*
D18*
%TO.N,/GPIO9*%
X159004000Y-84709000D03*
%TO.N,/GPIO10*%
X159766000Y-83185000D03*
X156845000Y-84582000D03*
D17*
X165862000Y-105029000D03*
%TO.N,Net-(J2-CC2)*%
X166116000Y-129413000D03*
D18*
X164719000Y-110109000D03*
D17*
%TO.N,Net-(J2-VBUS-PadA4)*%
X160909000Y-106807000D03*
X158369000Y-104648000D03*
X159385000Y-104648000D03*
%TO.N,Net-(J2-CC1)*%
X163068000Y-118237000D03*
X163068000Y-104521000D03*
%TO.N,/GPIO39*%
X178816000Y-83947000D03*
X170053000Y-82042000D03*
%TO.N,/GPIO35*%
X172720000Y-106045000D03*
X171323000Y-88138000D03*
%TO.N,/GPIO34*%
X169799000Y-86995000D03*
X177673000Y-99314000D03*
X170307000Y-86995000D03*
X174498000Y-86995000D03*
%TO.N,/GPIO26*%
X169037000Y-87884000D03*
X171450000Y-106553000D03*
%TO.N,/GPIO36*%
X172593000Y-87630000D03*
X171831000Y-84836000D03*
%TO.N,/GPIO46*%
X173863000Y-74422000D03*
X172720000Y-74422000D03*
%TO.N,/GPIO41*%
X173990000Y-93599000D03*
X170561000Y-80264000D03*
%TO.N,/GPIO40*%
X174879000Y-83439000D03*
X172339000Y-80899000D03*
%TO.N,/GPIO38*%
X170815000Y-85471000D03*
X174244000Y-94869000D03*
%TO.N,/GPIO47*%
X170180000Y-87757000D03*
X178435000Y-121539000D03*
X176530000Y-103886000D03*
X170688000Y-88646000D03*
D18*
%TO.N,/GPIO33*%
X169037000Y-85471000D03*
D17*
X178181000Y-98806000D03*
X177419000Y-83947000D03*
%TO.N,Net-(U4-FB)*%
X164592000Y-97663000D03*
X160147000Y-93980000D03*
X162433000Y-92202000D03*
%TO.N,/GPIO12*%
X162941000Y-100330000D03*
X158242000Y-87122000D03*
X165227000Y-110998000D03*
X165100000Y-96393000D03*
X157353000Y-114681000D03*
D18*
X169291000Y-102108000D03*
D17*
X155575000Y-92456000D03*
X160147000Y-109982000D03*
X154813000Y-78994000D03*
X170815000Y-87884000D03*
X163576000Y-129159000D03*
X162941000Y-91694000D03*
X164084000Y-101346000D03*
X159512000Y-100457000D03*
X164846000Y-87630000D03*
X169418000Y-105410000D03*
X160401000Y-107696000D03*
X164338000Y-89154000D03*
X170180000Y-94996000D03*
X160401000Y-104648000D03*
X152273000Y-98933000D03*
X165100000Y-128905000D03*
X165100000Y-100838000D03*
X156972000Y-103378000D03*
X160909000Y-91694000D03*
X167513000Y-129667000D03*
X167894000Y-100838000D03*
X171958000Y-95123000D03*
X167767000Y-122809000D03*
X157226000Y-91440000D03*
X162179000Y-85471000D03*
X158115000Y-88265000D03*
X164084000Y-129667000D03*
X171323000Y-85979000D03*
X157353000Y-90932000D03*
X161163000Y-83947000D03*
X165608000Y-125984000D03*
X173101000Y-86487000D03*
X161925000Y-106680000D03*
X157861000Y-122301000D03*
X161036000Y-100838000D03*
X158242000Y-108839000D03*
X157353000Y-88392000D03*
X164465000Y-105664000D03*
X159512000Y-100838000D03*
X161163000Y-96139000D03*
X159893000Y-120142000D03*
D18*
X169291000Y-89027000D03*
D17*
X172212000Y-104902000D03*
X162306000Y-96139000D03*
X171831000Y-89662000D03*
X161417000Y-104394000D03*
X167513000Y-127508000D03*
X168148000Y-95758000D03*
X172339000Y-83439000D03*
D18*
X158115000Y-110236000D03*
D17*
X170307000Y-85725000D03*
X161163000Y-128651000D03*
X178816000Y-98552000D03*
X157353000Y-116586000D03*
X164719000Y-119253000D03*
X161925000Y-107442000D03*
X173482000Y-95758000D03*
X164846000Y-88392000D03*
X157480000Y-109601000D03*
%TD*%
D19*
%TO.N,/GPIO0*%
X165862000Y-105918000D02*
X163449000Y-103505000D01*
X163449000Y-102362000D02*
X162941000Y-101854000D01*
X163449000Y-103505000D02*
X163449000Y-102362000D01*
X165862000Y-106553000D02*
X165862000Y-105918000D01*
%TO.N,/5VUSB*%
X151384000Y-122555000D02*
X151384000Y-91948000D01*
X151384000Y-91948000D02*
X150876000Y-91440000D01*
%TO.N,Net-(D2-K)*%
X162560000Y-95504000D02*
X159385000Y-95504000D01*
X159766000Y-101854000D02*
X162433000Y-101854000D01*
X159512000Y-101600000D02*
X159766000Y-101854000D01*
%TO.N,/GPIO48*%
X167005000Y-117094000D02*
X166497000Y-117602000D01*
X167005000Y-84582000D02*
X167005000Y-117094000D01*
%TO.N,/GPIO6*%
X160528000Y-83820000D02*
X154813000Y-83820000D01*
X154813000Y-83820000D02*
X154813000Y-94996000D01*
%TO.N,/GPIO13*%
X158877000Y-88265000D02*
X158877000Y-112776000D01*
%TO.N,/I2C_SDA*%
X170180000Y-102108000D02*
X170180000Y-96012000D01*
X168021000Y-89916000D02*
X167640000Y-89535000D01*
X170180000Y-96012000D02*
X170307000Y-95885000D01*
X168021000Y-93599000D02*
X168021000Y-92837000D01*
X168021000Y-92837000D02*
X168021000Y-89916000D01*
X170307000Y-95885000D02*
X168021000Y-93599000D01*
%TO.N,/GPIO8*%
X156210000Y-88392000D02*
X155321000Y-88392000D01*
X155321000Y-93091000D02*
X155321000Y-100076000D01*
X155321000Y-88392000D02*
X155321000Y-91694000D01*
%TO.N,/GPIO14*%
X156337000Y-89535000D02*
X156464000Y-89408000D01*
X156337000Y-114427000D02*
X156337000Y-89535000D01*
X155575000Y-115189000D02*
X156337000Y-114427000D01*
%TO.N,/GPIO7*%
X154305000Y-83566000D02*
X152273000Y-83566000D01*
X159004000Y-83312000D02*
X154559000Y-83312000D01*
X154559000Y-83312000D02*
X154305000Y-83566000D01*
%TO.N,/GPIO16*%
X160401000Y-93091000D02*
X160655000Y-93345000D01*
X160655000Y-89916000D02*
X160401000Y-90170000D01*
X160401000Y-90170000D02*
X160401000Y-93091000D01*
%TO.N,/GPIO4*%
X161671000Y-88138000D02*
X161671000Y-88519000D01*
X161671000Y-88519000D02*
X159639000Y-88519000D01*
X161671000Y-83566000D02*
X161671000Y-88138000D01*
%TO.N,/GPIO10*%
X165862000Y-105029000D02*
X165862000Y-84582000D01*
X165862000Y-84582000D02*
X164592000Y-84582000D01*
X159766000Y-82423000D02*
X159766000Y-83185000D01*
X164592000Y-84582000D02*
X162433000Y-82423000D01*
X162433000Y-82423000D02*
X159766000Y-82423000D01*
%TO.N,Net-(J2-CC2)*%
X164719000Y-118364000D02*
X164719000Y-110109000D01*
X166116000Y-119761000D02*
X164719000Y-118364000D01*
X166116000Y-129413000D02*
X166116000Y-119761000D01*
%TO.N,Net-(J2-VBUS-PadA4)*%
X160909000Y-106172000D02*
X160909000Y-106807000D01*
X159385000Y-104648000D02*
X160909000Y-106172000D01*
%TO.N,Net-(J2-CC1)*%
X163068000Y-118237000D02*
X163068000Y-104521000D01*
%TO.N,/GPIO39*%
X171323000Y-80010000D02*
X170815000Y-79502000D01*
X170815000Y-79502000D02*
X170053000Y-79502000D01*
X170053000Y-79502000D02*
X170053000Y-82042000D01*
X172593000Y-80010000D02*
X171323000Y-80010000D01*
X178816000Y-80899000D02*
X173482000Y-80899000D01*
X178816000Y-83947000D02*
X178816000Y-80899000D01*
X173482000Y-80899000D02*
X172593000Y-80010000D01*
%TO.N,/GPIO35*%
X171323000Y-88138000D02*
X172720000Y-89535000D01*
X172720000Y-89535000D02*
X172720000Y-106045000D01*
%TO.N,/GPIO34*%
X176657000Y-86106000D02*
X176530000Y-85979000D01*
X175514000Y-85979000D02*
X174498000Y-86995000D01*
X176530000Y-85979000D02*
X175514000Y-85979000D01*
X170307000Y-86995000D02*
X169799000Y-86995000D01*
X177673000Y-86106000D02*
X176657000Y-86106000D01*
X177673000Y-99314000D02*
X177673000Y-86106000D01*
%TO.N,/GPIO26*%
X171450000Y-90297000D02*
X169037000Y-87884000D01*
X171450000Y-106553000D02*
X171450000Y-90297000D01*
%TO.N,/GPIO36*%
X171831000Y-86868000D02*
X172593000Y-87630000D01*
X171831000Y-84836000D02*
X171831000Y-86868000D01*
%TO.N,/GPIO46*%
X173863000Y-74422000D02*
X172720000Y-74422000D01*
%TO.N,/GPIO41*%
X170561000Y-80264000D02*
X173990000Y-83693000D01*
X173990000Y-83693000D02*
X173990000Y-93599000D01*
%TO.N,/GPIO40*%
X174879000Y-83439000D02*
X172339000Y-80899000D01*
%TO.N,/GPIO38*%
X173482000Y-93980000D02*
X174244000Y-94742000D01*
X174244000Y-94742000D02*
X174244000Y-94869000D01*
X170815000Y-86868000D02*
X171323000Y-87376000D01*
X173482000Y-89535000D02*
X173482000Y-93980000D01*
X170815000Y-85471000D02*
X170815000Y-86868000D01*
X171323000Y-87376000D02*
X173482000Y-89535000D01*
%TO.N,/GPIO47*%
X170688000Y-88646000D02*
X170180000Y-88138000D01*
X178435000Y-105791000D02*
X176530000Y-103886000D01*
X170180000Y-88138000D02*
X170180000Y-87757000D01*
X178435000Y-121539000D02*
X178435000Y-105791000D01*
%TO.N,/GPIO33*%
X178181000Y-98806000D02*
X178181000Y-84582000D01*
X177546000Y-83947000D02*
X177419000Y-83947000D01*
X178181000Y-84582000D02*
X177546000Y-83947000D01*
%TO.N,Net-(U4-FB)*%
X162433000Y-93599000D02*
X162433000Y-92583000D01*
X162433000Y-92964000D02*
X161417000Y-93980000D01*
X161417000Y-93980000D02*
X160147000Y-93980000D01*
X163322000Y-96393000D02*
X164592000Y-97663000D01*
X162433000Y-92202000D02*
X162433000Y-92964000D01*
X163322000Y-94488000D02*
X163322000Y-96393000D01*
X162433000Y-93599000D02*
X163322000Y-94488000D01*
%TO.N,/GPIO12*%
X170434000Y-106426000D02*
X169418000Y-105410000D01*
X172339000Y-85725000D02*
X172339000Y-83439000D01*
X157099000Y-88011000D02*
X156718000Y-88011000D01*
X173101000Y-86487000D02*
X172339000Y-85725000D01*
X157861000Y-122301000D02*
X157861000Y-117094000D01*
X161925000Y-108966000D02*
X161925000Y-107442000D01*
X161036000Y-100838000D02*
X165100000Y-100838000D01*
X170307000Y-84836000D02*
X170307000Y-85725000D01*
X158115000Y-91440000D02*
X158115000Y-88265000D01*
X159639000Y-100330000D02*
X159512000Y-100457000D01*
X159893000Y-110998000D02*
X161925000Y-108966000D01*
X169164000Y-102108000D02*
X169291000Y-102108000D01*
X159512000Y-100838000D02*
X160020000Y-101346000D01*
X167894000Y-100838000D02*
X169164000Y-102108000D01*
X162306000Y-96139000D02*
X161163000Y-96139000D01*
X171323000Y-85979000D02*
X171381000Y-85921000D01*
X160020000Y-101346000D02*
X164084000Y-101346000D01*
X172212000Y-104902000D02*
X172212000Y-107061000D01*
X164084000Y-128905000D02*
X164084000Y-106045000D01*
X157353000Y-88392000D02*
X157353000Y-90932000D01*
X161163000Y-83947000D02*
X157099000Y-88011000D01*
X170434000Y-107061000D02*
X170434000Y-106426000D01*
X156083000Y-88900000D02*
X155829000Y-88900000D01*
X157226000Y-91440000D02*
X157607000Y-91821000D01*
X160909000Y-91694000D02*
X162941000Y-91694000D01*
X157226000Y-91440000D02*
X158115000Y-91440000D01*
X155829000Y-92202000D02*
X155575000Y-92456000D01*
X164719000Y-93472000D02*
X165100000Y-93472000D01*
X155829000Y-88900000D02*
X155829000Y-92202000D01*
X164084000Y-106045000D02*
X164465000Y-105664000D01*
X171381000Y-85921000D02*
X171381000Y-84836000D01*
X162941000Y-100330000D02*
X159639000Y-100330000D01*
X172212000Y-107061000D02*
X170434000Y-107061000D01*
X164719000Y-89535000D02*
X164719000Y-93472000D01*
X171381000Y-84836000D02*
X170307000Y-84836000D01*
X157607000Y-109474000D02*
X157480000Y-109601000D01*
X164084000Y-128905000D02*
X165100000Y-128905000D01*
X173482000Y-101219000D02*
X173482000Y-95758000D01*
X159893000Y-120142000D02*
X159893000Y-110998000D01*
X164084000Y-129667000D02*
X164084000Y-128905000D01*
X165100000Y-93472000D02*
X165100000Y-96393000D01*
X156718000Y-88011000D02*
X156718000Y-88900000D01*
X157607000Y-91821000D02*
X157607000Y-109474000D01*
X164846000Y-88392000D02*
X164846000Y-87630000D01*
X178816000Y-98552000D02*
X178816000Y-99187000D01*
X157480000Y-109601000D02*
X158115000Y-109601000D01*
X178816000Y-99187000D02*
X176784000Y-101219000D01*
X164338000Y-89154000D02*
X164719000Y-89535000D01*
X176784000Y-101219000D02*
X173482000Y-101219000D01*
X158115000Y-109601000D02*
X158115000Y-110236000D01*
X156718000Y-88900000D02*
X156083000Y-88900000D01*
X157861000Y-117094000D02*
X157353000Y-116586000D01*
%TD*%
%TA.AperFunction,NonConductor*%
G36*
X174589479Y-81519185D02*
G01*
X174635234Y-81571989D01*
X174645178Y-81641147D01*
X174634823Y-81675900D01*
X174621097Y-81705337D01*
X174621096Y-81705340D01*
X174621094Y-81705344D01*
X174559938Y-81933586D01*
X174559936Y-81933595D01*
X174555992Y-81978677D01*
X174530538Y-82043745D01*
X174473947Y-82084722D01*
X174404185Y-82088599D01*
X174344783Y-82055548D01*
X174000416Y-81711181D01*
X173966931Y-81649858D01*
X173971915Y-81580166D01*
X174013787Y-81524233D01*
X174079251Y-81499816D01*
X174088097Y-81499500D01*
X174522440Y-81499500D01*
X174589479Y-81519185D01*
G37*
%TD.AperFunction*%
%TA.AperFunction,NonConductor*%
G36*
X178158539Y-81519185D02*
G01*
X178204294Y-81571989D01*
X178215500Y-81623500D01*
X178215500Y-83467902D01*
X178195815Y-83534941D01*
X178143011Y-83580696D01*
X178073853Y-83590640D01*
X178010297Y-83561615D01*
X178003819Y-83555583D01*
X177914717Y-83466481D01*
X177914716Y-83466480D01*
X177827904Y-83416360D01*
X177827904Y-83416359D01*
X177827900Y-83416358D01*
X177777785Y-83387423D01*
X177777784Y-83387422D01*
X177777783Y-83387422D01*
X177739592Y-83377188D01*
X177714062Y-83367210D01*
X177651365Y-83334303D01*
X177497986Y-83296500D01*
X177497985Y-83296500D01*
X177340015Y-83296500D01*
X177340014Y-83296500D01*
X177186634Y-83334303D01*
X177046762Y-83407715D01*
X176980428Y-83466481D01*
X176928517Y-83512470D01*
X176912990Y-83534965D01*
X176873068Y-83592802D01*
X176818785Y-83636792D01*
X176749336Y-83644451D01*
X176699895Y-83623936D01*
X176580842Y-83540575D01*
X176537217Y-83485998D01*
X176530023Y-83416500D01*
X176561546Y-83354145D01*
X176580842Y-83337425D01*
X176661829Y-83280717D01*
X176766401Y-83207495D01*
X176933495Y-83040401D01*
X177069035Y-82846830D01*
X177168903Y-82632663D01*
X177230063Y-82404408D01*
X177250659Y-82169000D01*
X177230063Y-81933592D01*
X177168903Y-81705337D01*
X177155177Y-81675902D01*
X177144686Y-81606829D01*
X177173205Y-81543044D01*
X177231681Y-81504804D01*
X177267560Y-81499500D01*
X178091500Y-81499500D01*
X178158539Y-81519185D01*
G37*
%TD.AperFunction*%
%TA.AperFunction,NonConductor*%
G36*
X177455433Y-84705668D02*
G01*
X177544181Y-84794416D01*
X177577666Y-84855739D01*
X177580500Y-84882097D01*
X177580500Y-85381500D01*
X177560815Y-85448539D01*
X177508011Y-85494294D01*
X177456500Y-85505500D01*
X177208339Y-85505500D01*
X177141300Y-85485815D01*
X177095545Y-85433011D01*
X177085601Y-85363853D01*
X177095957Y-85329095D01*
X177102911Y-85314182D01*
X177168903Y-85172663D01*
X177168905Y-85172653D01*
X177168907Y-85172650D01*
X177206621Y-85031894D01*
X177230063Y-84944408D01*
X177244224Y-84782539D01*
X177269676Y-84717473D01*
X177326267Y-84676494D01*
X177396029Y-84672616D01*
X177455433Y-84705668D01*
G37*
%TD.AperFunction*%
%TA.AperFunction,NonConductor*%
G36*
X173144703Y-83697384D02*
G01*
X173151181Y-83703416D01*
X173353181Y-83905416D01*
X173386666Y-83966739D01*
X173389500Y-83993097D01*
X173389500Y-85626902D01*
X173369815Y-85693941D01*
X173317011Y-85739696D01*
X173247853Y-85749640D01*
X173184297Y-85720615D01*
X173177819Y-85714583D01*
X172975819Y-85512583D01*
X172942334Y-85451260D01*
X172939500Y-85424902D01*
X172939500Y-83791097D01*
X172959185Y-83724058D01*
X173011989Y-83678303D01*
X173081147Y-83668359D01*
X173144703Y-83697384D01*
G37*
%TD.AperFunction*%
%TA.AperFunction,NonConductor*%
G36*
X155985915Y-84440185D02*
G01*
X156031670Y-84492989D01*
X156042096Y-84558385D01*
X156039435Y-84581999D01*
X156039435Y-84582003D01*
X156059630Y-84761249D01*
X156059631Y-84761254D01*
X156119211Y-84931523D01*
X156201523Y-85062521D01*
X156215184Y-85084262D01*
X156342738Y-85211816D01*
X156433080Y-85268582D01*
X156493426Y-85306500D01*
X156495478Y-85307789D01*
X156584148Y-85338816D01*
X156665745Y-85367368D01*
X156665750Y-85367369D01*
X156844996Y-85387565D01*
X156845000Y-85387565D01*
X156845004Y-85387565D01*
X157024249Y-85367369D01*
X157024252Y-85367368D01*
X157024255Y-85367368D01*
X157194522Y-85307789D01*
X157347262Y-85211816D01*
X157474816Y-85084262D01*
X157570789Y-84931522D01*
X157630368Y-84761255D01*
X157632896Y-84738817D01*
X157650565Y-84582003D01*
X157650565Y-84581999D01*
X157647904Y-84558385D01*
X157659958Y-84489563D01*
X157707306Y-84438183D01*
X157771124Y-84420500D01*
X158092185Y-84420500D01*
X158159224Y-84440185D01*
X158204979Y-84492989D01*
X158215405Y-84558384D01*
X158198435Y-84708997D01*
X158198435Y-84709003D01*
X158218630Y-84888249D01*
X158218631Y-84888254D01*
X158278211Y-85058523D01*
X158374184Y-85211262D01*
X158501738Y-85338816D01*
X158628141Y-85418240D01*
X158674431Y-85470574D01*
X158685080Y-85539627D01*
X158656704Y-85603475D01*
X158649849Y-85610914D01*
X157462670Y-86798093D01*
X157401347Y-86831578D01*
X157331655Y-86826594D01*
X157275722Y-86784722D01*
X157272939Y-86780851D01*
X157208485Y-86687472D01*
X157208483Y-86687470D01*
X157090240Y-86582717D01*
X157090238Y-86582716D01*
X157090237Y-86582715D01*
X156950365Y-86509303D01*
X156796986Y-86471500D01*
X156796985Y-86471500D01*
X156639015Y-86471500D01*
X156639014Y-86471500D01*
X156485634Y-86509303D01*
X156345762Y-86582715D01*
X156227516Y-86687471D01*
X156137781Y-86817475D01*
X156137780Y-86817476D01*
X156081762Y-86965181D01*
X156062722Y-87121999D01*
X156062722Y-87122000D01*
X156081762Y-87278818D01*
X156137780Y-87426523D01*
X156137781Y-87426524D01*
X156215358Y-87538915D01*
X156237241Y-87605270D01*
X156220695Y-87671356D01*
X156214773Y-87681613D01*
X156164205Y-87729828D01*
X156137061Y-87740009D01*
X155977632Y-87779304D01*
X155970623Y-87781963D01*
X155969930Y-87780137D01*
X155923834Y-87791500D01*
X155537500Y-87791500D01*
X155470461Y-87771815D01*
X155424706Y-87719011D01*
X155413500Y-87667500D01*
X155413500Y-84544500D01*
X155433185Y-84477461D01*
X155485989Y-84431706D01*
X155537500Y-84420500D01*
X155918876Y-84420500D01*
X155985915Y-84440185D01*
G37*
%TD.AperFunction*%
%TA.AperFunction,NonConductor*%
G36*
X160989834Y-85071914D02*
G01*
X161045767Y-85113786D01*
X161070184Y-85179250D01*
X161070500Y-85188096D01*
X161070500Y-87794500D01*
X161050815Y-87861539D01*
X160998011Y-87907294D01*
X160946500Y-87918500D01*
X159925166Y-87918500D01*
X159879069Y-87907137D01*
X159878377Y-87908963D01*
X159871365Y-87906303D01*
X159717986Y-87868500D01*
X159717985Y-87868500D01*
X159560015Y-87868500D01*
X159560014Y-87868500D01*
X159501012Y-87883042D01*
X159431210Y-87879972D01*
X159374148Y-87839652D01*
X159369298Y-87833099D01*
X159367483Y-87830470D01*
X159249240Y-87725717D01*
X159249238Y-87725716D01*
X159249237Y-87725715D01*
X159109365Y-87652303D01*
X158955986Y-87614500D01*
X158955985Y-87614500D01*
X158928683Y-87614500D01*
X158861644Y-87594815D01*
X158815889Y-87542011D01*
X158805945Y-87472853D01*
X158818886Y-87432876D01*
X158822218Y-87426526D01*
X158822219Y-87426524D01*
X158822220Y-87426523D01*
X158878237Y-87278818D01*
X158897278Y-87122000D01*
X158897278Y-87121999D01*
X158897278Y-87114498D01*
X158900367Y-87114498D01*
X158909507Y-87059483D01*
X158933466Y-87025767D01*
X160858820Y-85100413D01*
X160920142Y-85066930D01*
X160989834Y-85071914D01*
G37*
%TD.AperFunction*%
%TA.AperFunction,NonConductor*%
G36*
X173349746Y-87928130D02*
G01*
X173385563Y-87988121D01*
X173389500Y-88019117D01*
X173389500Y-88293903D01*
X173369815Y-88360942D01*
X173317011Y-88406697D01*
X173247853Y-88416641D01*
X173184297Y-88387616D01*
X173177819Y-88381584D01*
X173058533Y-88262298D01*
X173025048Y-88200975D01*
X173030032Y-88131283D01*
X173063988Y-88081801D01*
X173083482Y-88064531D01*
X173085559Y-88061523D01*
X173163450Y-87948676D01*
X173217733Y-87904687D01*
X173287181Y-87897027D01*
X173349746Y-87928130D01*
G37*
%TD.AperFunction*%
%TA.AperFunction,NonConductor*%
G36*
X176991834Y-88164576D02*
G01*
X177047767Y-88206448D01*
X177072184Y-88271912D01*
X177072500Y-88280758D01*
X177072500Y-88757241D01*
X177052815Y-88824280D01*
X177000011Y-88870035D01*
X176930853Y-88879979D01*
X176867297Y-88850954D01*
X176860819Y-88844923D01*
X176814303Y-88798407D01*
X176766401Y-88750505D01*
X176766397Y-88750502D01*
X176766396Y-88750501D01*
X176580842Y-88620575D01*
X176537217Y-88565998D01*
X176530023Y-88496500D01*
X176561546Y-88434145D01*
X176580842Y-88417425D01*
X176603026Y-88401891D01*
X176766401Y-88287495D01*
X176860819Y-88193077D01*
X176922142Y-88159592D01*
X176991834Y-88164576D01*
G37*
%TD.AperFunction*%
%TA.AperFunction,NonConductor*%
G36*
X174795703Y-88040071D02*
G01*
X174816075Y-88062661D01*
X174856501Y-88120396D01*
X174856506Y-88120402D01*
X175023597Y-88287493D01*
X175023603Y-88287498D01*
X175209158Y-88417425D01*
X175252783Y-88472002D01*
X175259977Y-88541500D01*
X175228454Y-88603855D01*
X175209158Y-88620575D01*
X175023597Y-88750505D01*
X174856508Y-88917594D01*
X174816075Y-88975339D01*
X174761498Y-89018964D01*
X174691999Y-89026156D01*
X174629645Y-88994634D01*
X174594231Y-88934404D01*
X174590500Y-88904215D01*
X174590500Y-88133784D01*
X174610185Y-88066745D01*
X174662989Y-88020990D01*
X174732147Y-88011046D01*
X174795703Y-88040071D01*
G37*
%TD.AperFunction*%
%TA.AperFunction,NonConductor*%
G36*
X176991834Y-90704576D02*
G01*
X177047767Y-90746448D01*
X177072184Y-90811912D01*
X177072500Y-90820758D01*
X177072500Y-91297241D01*
X177052815Y-91364280D01*
X177000011Y-91410035D01*
X176930853Y-91419979D01*
X176867297Y-91390954D01*
X176860819Y-91384923D01*
X176840176Y-91364280D01*
X176766401Y-91290505D01*
X176766397Y-91290502D01*
X176766396Y-91290501D01*
X176580842Y-91160575D01*
X176537217Y-91105998D01*
X176530023Y-91036500D01*
X176561546Y-90974145D01*
X176580842Y-90957425D01*
X176661832Y-90900715D01*
X176766401Y-90827495D01*
X176860819Y-90733077D01*
X176922142Y-90699592D01*
X176991834Y-90704576D01*
G37*
%TD.AperFunction*%
%TA.AperFunction,NonConductor*%
G36*
X174795703Y-90580071D02*
G01*
X174816075Y-90602661D01*
X174856501Y-90660396D01*
X174856506Y-90660402D01*
X175023597Y-90827493D01*
X175023603Y-90827498D01*
X175209158Y-90957425D01*
X175252783Y-91012002D01*
X175259977Y-91081500D01*
X175228454Y-91143855D01*
X175209158Y-91160575D01*
X175023597Y-91290505D01*
X174856508Y-91457594D01*
X174816075Y-91515339D01*
X174761498Y-91558964D01*
X174691999Y-91566156D01*
X174629645Y-91534634D01*
X174594231Y-91474404D01*
X174590500Y-91444215D01*
X174590500Y-90673784D01*
X174610185Y-90606745D01*
X174662989Y-90560990D01*
X174732147Y-90551046D01*
X174795703Y-90580071D01*
G37*
%TD.AperFunction*%
%TA.AperFunction,NonConductor*%
G36*
X151307918Y-70370185D02*
G01*
X151353673Y-70422989D01*
X151363617Y-70492147D01*
X151334592Y-70555703D01*
X151325763Y-70564892D01*
X151208608Y-70674907D01*
X151208606Y-70674909D01*
X151008054Y-70917334D01*
X151008051Y-70917338D01*
X150839464Y-71182990D01*
X150839461Y-71182996D01*
X150705499Y-71467678D01*
X150705497Y-71467683D01*
X150608270Y-71766916D01*
X150549311Y-72075988D01*
X150549310Y-72075995D01*
X150529556Y-72389994D01*
X150529556Y-72390005D01*
X150549310Y-72704004D01*
X150549311Y-72704011D01*
X150608270Y-73013083D01*
X150705497Y-73312316D01*
X150705499Y-73312321D01*
X150839461Y-73597003D01*
X150839464Y-73597009D01*
X151008051Y-73862661D01*
X151008054Y-73862665D01*
X151208606Y-74105090D01*
X151208608Y-74105092D01*
X151208610Y-74105094D01*
X151387300Y-74272895D01*
X151437968Y-74320476D01*
X151437978Y-74320484D01*
X151692504Y-74505408D01*
X151692509Y-74505410D01*
X151692516Y-74505416D01*
X151968234Y-74656994D01*
X151968239Y-74656996D01*
X151968241Y-74656997D01*
X151968242Y-74656998D01*
X152260771Y-74772818D01*
X152260774Y-74772819D01*
X152565523Y-74851065D01*
X152565527Y-74851066D01*
X152631010Y-74859338D01*
X152877670Y-74890499D01*
X152877679Y-74890499D01*
X152877682Y-74890500D01*
X152877684Y-74890500D01*
X153192316Y-74890500D01*
X153192318Y-74890500D01*
X153192321Y-74890499D01*
X153192329Y-74890499D01*
X153378593Y-74866968D01*
X153504473Y-74851066D01*
X153809225Y-74772819D01*
X153809228Y-74772818D01*
X154101757Y-74656998D01*
X154101758Y-74656997D01*
X154101756Y-74656997D01*
X154101766Y-74656994D01*
X154377484Y-74505416D01*
X154632030Y-74320478D01*
X154861390Y-74105094D01*
X155061947Y-73862663D01*
X155230537Y-73597007D01*
X155364503Y-73312315D01*
X155461731Y-73013079D01*
X155520688Y-72704015D01*
X155540444Y-72390000D01*
X155520688Y-72075985D01*
X155461731Y-71766921D01*
X155364503Y-71467685D01*
X155230537Y-71182993D01*
X155061947Y-70917337D01*
X155061945Y-70917334D01*
X154861393Y-70674909D01*
X154861391Y-70674907D01*
X154744237Y-70564892D01*
X154708842Y-70504651D01*
X154711635Y-70434837D01*
X154751729Y-70377616D01*
X154816394Y-70351155D01*
X154829121Y-70350500D01*
X174608879Y-70350500D01*
X174675918Y-70370185D01*
X174721673Y-70422989D01*
X174731617Y-70492147D01*
X174702592Y-70555703D01*
X174693763Y-70564892D01*
X174576608Y-70674907D01*
X174576606Y-70674909D01*
X174376054Y-70917334D01*
X174376051Y-70917338D01*
X174207464Y-71182990D01*
X174207461Y-71182996D01*
X174073499Y-71467678D01*
X174073497Y-71467683D01*
X173976270Y-71766916D01*
X173917311Y-72075988D01*
X173917310Y-72075995D01*
X173897556Y-72389994D01*
X173897556Y-72390005D01*
X173917310Y-72704004D01*
X173917311Y-72704011D01*
X173976270Y-73013083D01*
X174073497Y-73312316D01*
X174073499Y-73312321D01*
X174207461Y-73597003D01*
X174207464Y-73597009D01*
X174222484Y-73620677D01*
X174241785Y-73687828D01*
X174221717Y-73754754D01*
X174168652Y-73800206D01*
X174099438Y-73809754D01*
X174088113Y-73807516D01*
X173941986Y-73771500D01*
X173941985Y-73771500D01*
X173784015Y-73771500D01*
X173784014Y-73771500D01*
X173630634Y-73809303D01*
X173623623Y-73811963D01*
X173622930Y-73810137D01*
X173576834Y-73821500D01*
X173006166Y-73821500D01*
X172960069Y-73810137D01*
X172959377Y-73811963D01*
X172952365Y-73809303D01*
X172798986Y-73771500D01*
X172798985Y-73771500D01*
X172641015Y-73771500D01*
X172641014Y-73771500D01*
X172487634Y-73809303D01*
X172347762Y-73882715D01*
X172229516Y-73987471D01*
X172139781Y-74117475D01*
X172139780Y-74117476D01*
X172083762Y-74265181D01*
X172064722Y-74421999D01*
X172064722Y-74422000D01*
X172083762Y-74578818D01*
X172139780Y-74726523D01*
X172229517Y-74856530D01*
X172347760Y-74961283D01*
X172347762Y-74961284D01*
X172487634Y-75034696D01*
X172641014Y-75072500D01*
X172641015Y-75072500D01*
X172798985Y-75072500D01*
X172952365Y-75034696D01*
X172959377Y-75032037D01*
X172960069Y-75033862D01*
X173006166Y-75022500D01*
X173576834Y-75022500D01*
X173622930Y-75033862D01*
X173623623Y-75032037D01*
X173630634Y-75034696D01*
X173784014Y-75072500D01*
X173784015Y-75072500D01*
X173941985Y-75072500D01*
X174095365Y-75034696D01*
X174118602Y-75022500D01*
X174235240Y-74961283D01*
X174353483Y-74856530D01*
X174443220Y-74726523D01*
X174499237Y-74578818D01*
X174518278Y-74422000D01*
X174508542Y-74341817D01*
X174520002Y-74272895D01*
X174566906Y-74221109D01*
X174634362Y-74202902D01*
X174700953Y-74224054D01*
X174716518Y-74236477D01*
X174805968Y-74320476D01*
X174805978Y-74320484D01*
X175060504Y-74505408D01*
X175060509Y-74505410D01*
X175060516Y-74505416D01*
X175336234Y-74656994D01*
X175336239Y-74656996D01*
X175336241Y-74656997D01*
X175336242Y-74656998D01*
X175628771Y-74772818D01*
X175628774Y-74772819D01*
X175933523Y-74851065D01*
X175933527Y-74851066D01*
X175999010Y-74859338D01*
X176245670Y-74890499D01*
X176245679Y-74890499D01*
X176245682Y-74890500D01*
X176245684Y-74890500D01*
X176560316Y-74890500D01*
X176560318Y-74890500D01*
X176560321Y-74890499D01*
X176560329Y-74890499D01*
X176746593Y-74866968D01*
X176872473Y-74851066D01*
X177177225Y-74772819D01*
X177177228Y-74772818D01*
X177469757Y-74656998D01*
X177469758Y-74656997D01*
X177469756Y-74656997D01*
X177469766Y-74656994D01*
X177745484Y-74505416D01*
X178000030Y-74320478D01*
X178229390Y-74105094D01*
X178429947Y-73862663D01*
X178598537Y-73597007D01*
X178732503Y-73312315D01*
X178829731Y-73013079D01*
X178888688Y-72704015D01*
X178908444Y-72390000D01*
X178888688Y-72075985D01*
X178829731Y-71766921D01*
X178732503Y-71467685D01*
X178598537Y-71182993D01*
X178429947Y-70917337D01*
X178429945Y-70917334D01*
X178229393Y-70674909D01*
X178229391Y-70674907D01*
X178112237Y-70564892D01*
X178076842Y-70504651D01*
X178079635Y-70434837D01*
X178119729Y-70377616D01*
X178184394Y-70351155D01*
X178197121Y-70350500D01*
X179207500Y-70350500D01*
X179274539Y-70370185D01*
X179320294Y-70422989D01*
X179331500Y-70474500D01*
X179331500Y-80288451D01*
X179311815Y-80355490D01*
X179259011Y-80401245D01*
X179189853Y-80411189D01*
X179145501Y-80395839D01*
X179047784Y-80339423D01*
X178895057Y-80298500D01*
X178895056Y-80298500D01*
X177267560Y-80298500D01*
X177200521Y-80278815D01*
X177154766Y-80226011D01*
X177144822Y-80156853D01*
X177155176Y-80122099D01*
X177168903Y-80092663D01*
X177230063Y-79864408D01*
X177250659Y-79629000D01*
X177230063Y-79393592D01*
X177168903Y-79165337D01*
X177069035Y-78951171D01*
X177034255Y-78901500D01*
X176933496Y-78757600D01*
X176893401Y-78717505D01*
X176811567Y-78635671D01*
X176778084Y-78574351D01*
X176783068Y-78504659D01*
X176824939Y-78448725D01*
X176855915Y-78431810D01*
X176987331Y-78382796D01*
X177102546Y-78296546D01*
X177188796Y-78181331D01*
X177239091Y-78046483D01*
X177245500Y-77986873D01*
X177245499Y-76191128D01*
X177239091Y-76131517D01*
X177188796Y-75996669D01*
X177188795Y-75996668D01*
X177188793Y-75996664D01*
X177102547Y-75881455D01*
X177102544Y-75881452D01*
X176987335Y-75795206D01*
X176987328Y-75795202D01*
X176852482Y-75744908D01*
X176852483Y-75744908D01*
X176792883Y-75738501D01*
X176792881Y-75738500D01*
X176792873Y-75738500D01*
X176792864Y-75738500D01*
X174997129Y-75738500D01*
X174997123Y-75738501D01*
X174937516Y-75744908D01*
X174802671Y-75795202D01*
X174802664Y-75795206D01*
X174687455Y-75881452D01*
X174687452Y-75881455D01*
X174601206Y-75996664D01*
X174601202Y-75996671D01*
X174550908Y-76131517D01*
X174544501Y-76191116D01*
X174544501Y-76191123D01*
X174544500Y-76191135D01*
X174544500Y-77986870D01*
X174544501Y-77986876D01*
X174550908Y-78046483D01*
X174601202Y-78181328D01*
X174601206Y-78181335D01*
X174687452Y-78296544D01*
X174687455Y-78296547D01*
X174802664Y-78382793D01*
X174802671Y-78382797D01*
X174934081Y-78431810D01*
X174990015Y-78473681D01*
X175014432Y-78539145D01*
X174999580Y-78607418D01*
X174978430Y-78635673D01*
X174856503Y-78757600D01*
X174720965Y-78951169D01*
X174720964Y-78951171D01*
X174621098Y-79165335D01*
X174621094Y-79165344D01*
X174559938Y-79393586D01*
X174559936Y-79393596D01*
X174539341Y-79628999D01*
X174539341Y-79629000D01*
X174559936Y-79864403D01*
X174559938Y-79864413D01*
X174621094Y-80092655D01*
X174621095Y-80092658D01*
X174621097Y-80092663D01*
X174634822Y-80122097D01*
X174645314Y-80191171D01*
X174616795Y-80254956D01*
X174558319Y-80293196D01*
X174522440Y-80298500D01*
X173782097Y-80298500D01*
X173715058Y-80278815D01*
X173694416Y-80262181D01*
X173080590Y-79648355D01*
X173080588Y-79648352D01*
X172961717Y-79529481D01*
X172961716Y-79529480D01*
X172867112Y-79474861D01*
X172867111Y-79474860D01*
X172824783Y-79450422D01*
X172768881Y-79435443D01*
X172672057Y-79409499D01*
X172513943Y-79409499D01*
X172506347Y-79409499D01*
X172506331Y-79409500D01*
X171623097Y-79409500D01*
X171556058Y-79389815D01*
X171535416Y-79373181D01*
X171302590Y-79140355D01*
X171302588Y-79140352D01*
X171183717Y-79021481D01*
X171183716Y-79021480D01*
X171096904Y-78971360D01*
X171096904Y-78971359D01*
X171096900Y-78971358D01*
X171046785Y-78942423D01*
X170894057Y-78901499D01*
X170735943Y-78901499D01*
X170728347Y-78901499D01*
X170728331Y-78901500D01*
X169973943Y-78901500D01*
X169821216Y-78942423D01*
X169821209Y-78942426D01*
X169684290Y-79021475D01*
X169684282Y-79021481D01*
X169572481Y-79133282D01*
X169572475Y-79133290D01*
X169493426Y-79270209D01*
X169493423Y-79270216D01*
X169452500Y-79422943D01*
X169452500Y-81768227D01*
X169444442Y-81812198D01*
X169416763Y-81885181D01*
X169397722Y-82041999D01*
X169397722Y-82042000D01*
X169416762Y-82198818D01*
X169453619Y-82296000D01*
X169472780Y-82346523D01*
X169562517Y-82476530D01*
X169680760Y-82581283D01*
X169680762Y-82581284D01*
X169820634Y-82654696D01*
X169974014Y-82692500D01*
X169974015Y-82692500D01*
X170131985Y-82692500D01*
X170285365Y-82654696D01*
X170327360Y-82632655D01*
X170425240Y-82581283D01*
X170543483Y-82476530D01*
X170633220Y-82346523D01*
X170689237Y-82198818D01*
X170708278Y-82042000D01*
X170689237Y-81885182D01*
X170661558Y-81812198D01*
X170653500Y-81768227D01*
X170653500Y-81505097D01*
X170673185Y-81438058D01*
X170725989Y-81392303D01*
X170795147Y-81382359D01*
X170858703Y-81411384D01*
X170865181Y-81417416D01*
X172097277Y-82649512D01*
X172130762Y-82710835D01*
X172125778Y-82780527D01*
X172083906Y-82836460D01*
X172067222Y-82846989D01*
X171966762Y-82899714D01*
X171848516Y-83004471D01*
X171758781Y-83134475D01*
X171758780Y-83134476D01*
X171702762Y-83282181D01*
X171683722Y-83438999D01*
X171683722Y-83439000D01*
X171702762Y-83595817D01*
X171720184Y-83641755D01*
X171730274Y-83668359D01*
X171730442Y-83668800D01*
X171738500Y-83712772D01*
X171738500Y-84091682D01*
X171718815Y-84158721D01*
X171666011Y-84204476D01*
X171644176Y-84212078D01*
X171598639Y-84223302D01*
X171579320Y-84233441D01*
X171510811Y-84247163D01*
X171489607Y-84243417D01*
X171460061Y-84235500D01*
X171460057Y-84235500D01*
X170386057Y-84235500D01*
X170227943Y-84235500D01*
X170075216Y-84276423D01*
X170075209Y-84276426D01*
X169938290Y-84355475D01*
X169938282Y-84355481D01*
X169826481Y-84467282D01*
X169826475Y-84467290D01*
X169747426Y-84604209D01*
X169747423Y-84604214D01*
X169706566Y-84756696D01*
X169670201Y-84816356D01*
X169607353Y-84846885D01*
X169537978Y-84838590D01*
X169520819Y-84829595D01*
X169386526Y-84745212D01*
X169216254Y-84685631D01*
X169216249Y-84685630D01*
X169037004Y-84665435D01*
X169036996Y-84665435D01*
X168857750Y-84685630D01*
X168857745Y-84685631D01*
X168687476Y-84745211D01*
X168534737Y-84841184D01*
X168407184Y-84968737D01*
X168311211Y-85121476D01*
X168251631Y-85291745D01*
X168251630Y-85291750D01*
X168231435Y-85470996D01*
X168231435Y-85471003D01*
X168251630Y-85650249D01*
X168251631Y-85650254D01*
X168311211Y-85820523D01*
X168364624Y-85905528D01*
X168407184Y-85973262D01*
X168534738Y-86100816D01*
X168687478Y-86196789D01*
X168857745Y-86256368D01*
X168857750Y-86256369D01*
X169036996Y-86276565D01*
X169037000Y-86276565D01*
X169037004Y-86276565D01*
X169216249Y-86256369D01*
X169216252Y-86256368D01*
X169216255Y-86256368D01*
X169386522Y-86196789D01*
X169539262Y-86100816D01*
X169574108Y-86065969D01*
X169635428Y-86032485D01*
X169705120Y-86037469D01*
X169761054Y-86079339D01*
X169763838Y-86083212D01*
X169810334Y-86150574D01*
X169832217Y-86216928D01*
X169814751Y-86284580D01*
X169763483Y-86332049D01*
X169723236Y-86344108D01*
X169720019Y-86344498D01*
X169566635Y-86382303D01*
X169506389Y-86413923D01*
X169503838Y-86414434D01*
X169499040Y-86417780D01*
X169426761Y-86455716D01*
X169308516Y-86560471D01*
X169218781Y-86690475D01*
X169218780Y-86690476D01*
X169162762Y-86838181D01*
X169146109Y-86975338D01*
X169143722Y-86995000D01*
X169152641Y-87068458D01*
X169155810Y-87094553D01*
X169144350Y-87163477D01*
X169097446Y-87215263D01*
X169032714Y-87233500D01*
X168958014Y-87233500D01*
X168804634Y-87271303D01*
X168664762Y-87344715D01*
X168546516Y-87449471D01*
X168456781Y-87579475D01*
X168456780Y-87579476D01*
X168400762Y-87727181D01*
X168381722Y-87883999D01*
X168381722Y-87884000D01*
X168400762Y-88040818D01*
X168456780Y-88188523D01*
X168465375Y-88200975D01*
X168546517Y-88318531D01*
X168624694Y-88387788D01*
X168661821Y-88446977D01*
X168661055Y-88516843D01*
X168647462Y-88546576D01*
X168565211Y-88677476D01*
X168505631Y-88847745D01*
X168505630Y-88847750D01*
X168485435Y-89026996D01*
X168485435Y-89027003D01*
X168505630Y-89206249D01*
X168505632Y-89206257D01*
X168511974Y-89224381D01*
X168515535Y-89294160D01*
X168480806Y-89354787D01*
X168418812Y-89387014D01*
X168349237Y-89380608D01*
X168307251Y-89353016D01*
X168260735Y-89306500D01*
X168232473Y-89262786D01*
X168220222Y-89230482D01*
X168220220Y-89230477D01*
X168193654Y-89191989D01*
X168130483Y-89100470D01*
X168012240Y-88995717D01*
X168012238Y-88995716D01*
X168012237Y-88995715D01*
X167872365Y-88922303D01*
X167718985Y-88884499D01*
X167714555Y-88883962D01*
X167650377Y-88856341D01*
X167611319Y-88798407D01*
X167605500Y-88760866D01*
X167605500Y-84855772D01*
X167613558Y-84811800D01*
X167620151Y-84794416D01*
X167641237Y-84738818D01*
X167660278Y-84582000D01*
X167641237Y-84425182D01*
X167639461Y-84420500D01*
X167614803Y-84355481D01*
X167585220Y-84277477D01*
X167495483Y-84147470D01*
X167377240Y-84042717D01*
X167377238Y-84042716D01*
X167377237Y-84042715D01*
X167237365Y-83969303D01*
X167083986Y-83931500D01*
X167083985Y-83931500D01*
X166926015Y-83931500D01*
X166926014Y-83931500D01*
X166772634Y-83969303D01*
X166632762Y-84042715D01*
X166514515Y-84147472D01*
X166501922Y-84165716D01*
X166447639Y-84209706D01*
X166378190Y-84217365D01*
X166315626Y-84186261D01*
X166312192Y-84182956D01*
X166230717Y-84101481D01*
X166230709Y-84101475D01*
X166093790Y-84022426D01*
X166093786Y-84022424D01*
X166093784Y-84022423D01*
X165941057Y-83981500D01*
X165941056Y-83981500D01*
X164892097Y-83981500D01*
X164825058Y-83961815D01*
X164804416Y-83945181D01*
X162920590Y-82061355D01*
X162920588Y-82061352D01*
X162801717Y-81942481D01*
X162801716Y-81942480D01*
X162702472Y-81885182D01*
X162702471Y-81885181D01*
X162664783Y-81863422D01*
X162608881Y-81848443D01*
X162512057Y-81822499D01*
X162353943Y-81822499D01*
X162346347Y-81822499D01*
X162346331Y-81822500D01*
X159686943Y-81822500D01*
X159534216Y-81863423D01*
X159534209Y-81863426D01*
X159397290Y-81942475D01*
X159397282Y-81942481D01*
X159285481Y-82054282D01*
X159285475Y-82054290D01*
X159206426Y-82191209D01*
X159206423Y-82191216D01*
X159165500Y-82343943D01*
X159165500Y-82537500D01*
X159145815Y-82604539D01*
X159093011Y-82650294D01*
X159041500Y-82661500D01*
X158925014Y-82661500D01*
X158771634Y-82699303D01*
X158764623Y-82701963D01*
X158763930Y-82700137D01*
X158717834Y-82711500D01*
X154991407Y-82711500D01*
X154924368Y-82691815D01*
X154878613Y-82639011D01*
X154868669Y-82569853D01*
X154871633Y-82555405D01*
X154878063Y-82531408D01*
X154898659Y-82296000D01*
X154878063Y-82060592D01*
X154816903Y-81832337D01*
X154717035Y-81618171D01*
X154709094Y-81606829D01*
X154581494Y-81424597D01*
X154414402Y-81257506D01*
X154414396Y-81257501D01*
X154228842Y-81127575D01*
X154185217Y-81072998D01*
X154178023Y-81003500D01*
X154209546Y-80941145D01*
X154228842Y-80924425D01*
X154251026Y-80908891D01*
X154414401Y-80794495D01*
X154581495Y-80627401D01*
X154717035Y-80433830D01*
X154816903Y-80219663D01*
X154878063Y-79991408D01*
X154898659Y-79756000D01*
X154898224Y-79751037D01*
X154911987Y-79682540D01*
X154960599Y-79632354D01*
X154992077Y-79619829D01*
X155012044Y-79614908D01*
X155045363Y-79606697D01*
X155045365Y-79606696D01*
X155185240Y-79533283D01*
X155303483Y-79428530D01*
X155393220Y-79298523D01*
X155449237Y-79150818D01*
X155468278Y-78994000D01*
X155463078Y-78951169D01*
X155449237Y-78837181D01*
X155427992Y-78781164D01*
X155393220Y-78689477D01*
X155303483Y-78559470D01*
X155185240Y-78454717D01*
X155185238Y-78454716D01*
X155185237Y-78454715D01*
X155045366Y-78381304D01*
X154964579Y-78361392D01*
X154960469Y-78358999D01*
X161015722Y-78358999D01*
X161015722Y-78359000D01*
X161034762Y-78515818D01*
X161066947Y-78600681D01*
X161090780Y-78663523D01*
X161180517Y-78793530D01*
X161298760Y-78898283D01*
X161304889Y-78901500D01*
X161438634Y-78971696D01*
X161592014Y-79009500D01*
X161592015Y-79009500D01*
X161749985Y-79009500D01*
X161903365Y-78971696D01*
X161904009Y-78971358D01*
X162043240Y-78898283D01*
X162161483Y-78793530D01*
X162251220Y-78663523D01*
X162307237Y-78515818D01*
X162326278Y-78359000D01*
X162307237Y-78202182D01*
X162299329Y-78181331D01*
X162285992Y-78146164D01*
X162251220Y-78054477D01*
X162161483Y-77924470D01*
X162043240Y-77819717D01*
X162043238Y-77819716D01*
X162043237Y-77819715D01*
X161903365Y-77746303D01*
X161749986Y-77708500D01*
X161749985Y-77708500D01*
X161592015Y-77708500D01*
X161592014Y-77708500D01*
X161438634Y-77746303D01*
X161298762Y-77819715D01*
X161180516Y-77924471D01*
X161090781Y-78054475D01*
X161090780Y-78054476D01*
X161034762Y-78202181D01*
X161015722Y-78358999D01*
X154960469Y-78358999D01*
X154904198Y-78326236D01*
X154872410Y-78264016D01*
X154878072Y-78197662D01*
X154887091Y-78173483D01*
X154893500Y-78113873D01*
X154893499Y-76318128D01*
X154887091Y-76258517D01*
X154836796Y-76123669D01*
X154836795Y-76123668D01*
X154836793Y-76123664D01*
X154750547Y-76008455D01*
X154750544Y-76008452D01*
X154635335Y-75922206D01*
X154635328Y-75922202D01*
X154500482Y-75871908D01*
X154500483Y-75871908D01*
X154440883Y-75865501D01*
X154440881Y-75865500D01*
X154440873Y-75865500D01*
X154440864Y-75865500D01*
X152645129Y-75865500D01*
X152645123Y-75865501D01*
X152585516Y-75871908D01*
X152450671Y-75922202D01*
X152450664Y-75922206D01*
X152335455Y-76008452D01*
X152335452Y-76008455D01*
X152249206Y-76123664D01*
X152249202Y-76123671D01*
X152198908Y-76258517D01*
X152192501Y-76318116D01*
X152192501Y-76318123D01*
X152192500Y-76318135D01*
X152192500Y-78113870D01*
X152192501Y-78113876D01*
X152198908Y-78173483D01*
X152249202Y-78308328D01*
X152249206Y-78308335D01*
X152335452Y-78423544D01*
X152335455Y-78423547D01*
X152450664Y-78509793D01*
X152450671Y-78509797D01*
X152582081Y-78558810D01*
X152638015Y-78600681D01*
X152662432Y-78666145D01*
X152647580Y-78734418D01*
X152626430Y-78762673D01*
X152504503Y-78884600D01*
X152368965Y-79078169D01*
X152368964Y-79078171D01*
X152269098Y-79292335D01*
X152269094Y-79292344D01*
X152207938Y-79520586D01*
X152207936Y-79520596D01*
X152187341Y-79755999D01*
X152187341Y-79756000D01*
X152207936Y-79991403D01*
X152207938Y-79991413D01*
X152269094Y-80219655D01*
X152269096Y-80219659D01*
X152269097Y-80219663D01*
X152353770Y-80401245D01*
X152368965Y-80433830D01*
X152368967Y-80433834D01*
X152504501Y-80627395D01*
X152504506Y-80627402D01*
X152671597Y-80794493D01*
X152671603Y-80794498D01*
X152857158Y-80924425D01*
X152900783Y-80979002D01*
X152907977Y-81048500D01*
X152876454Y-81110855D01*
X152857158Y-81127575D01*
X152671597Y-81257505D01*
X152504505Y-81424597D01*
X152368965Y-81618169D01*
X152368964Y-81618171D01*
X152269098Y-81832335D01*
X152269094Y-81832344D01*
X152207938Y-82060586D01*
X152207936Y-82060596D01*
X152187341Y-82295999D01*
X152187341Y-82296000D01*
X152207936Y-82531403D01*
X152207938Y-82531413D01*
X152270498Y-82764893D01*
X152268338Y-82765471D01*
X152272173Y-82825634D01*
X152238214Y-82886695D01*
X152180890Y-82918734D01*
X152040633Y-82953304D01*
X151900762Y-83026715D01*
X151782516Y-83131471D01*
X151692781Y-83261475D01*
X151692780Y-83261476D01*
X151636762Y-83409181D01*
X151617722Y-83565999D01*
X151617722Y-83566000D01*
X151636762Y-83722818D01*
X151681118Y-83839772D01*
X151692780Y-83870523D01*
X151782517Y-84000530D01*
X151900760Y-84105283D01*
X151900762Y-84105284D01*
X152040634Y-84178696D01*
X152180889Y-84213265D01*
X152241270Y-84248421D01*
X152273059Y-84310640D01*
X152268510Y-84366574D01*
X152270498Y-84367107D01*
X152207938Y-84600586D01*
X152207936Y-84600596D01*
X152187341Y-84835999D01*
X152187341Y-84836000D01*
X152207936Y-85071403D01*
X152207938Y-85071413D01*
X152269094Y-85299655D01*
X152269096Y-85299659D01*
X152269097Y-85299663D01*
X152338519Y-85448539D01*
X152368965Y-85513830D01*
X152368967Y-85513834D01*
X152504501Y-85707395D01*
X152504506Y-85707402D01*
X152671597Y-85874493D01*
X152671603Y-85874498D01*
X152857158Y-86004425D01*
X152900783Y-86059002D01*
X152907977Y-86128500D01*
X152876454Y-86190855D01*
X152857158Y-86207575D01*
X152671597Y-86337505D01*
X152504505Y-86504597D01*
X152368965Y-86698169D01*
X152368964Y-86698171D01*
X152269098Y-86912335D01*
X152269094Y-86912344D01*
X152207938Y-87140586D01*
X152207936Y-87140596D01*
X152187341Y-87375999D01*
X152187341Y-87376000D01*
X152207936Y-87611403D01*
X152207938Y-87611413D01*
X152269094Y-87839655D01*
X152269096Y-87839659D01*
X152269097Y-87839663D01*
X152352778Y-88019117D01*
X152368965Y-88053830D01*
X152368967Y-88053834D01*
X152504501Y-88247395D01*
X152504506Y-88247402D01*
X152671597Y-88414493D01*
X152671603Y-88414498D01*
X152857158Y-88544425D01*
X152900783Y-88599002D01*
X152907977Y-88668500D01*
X152876454Y-88730855D01*
X152857158Y-88747575D01*
X152671597Y-88877505D01*
X152504505Y-89044597D01*
X152368965Y-89238169D01*
X152368964Y-89238171D01*
X152269098Y-89452335D01*
X152269094Y-89452344D01*
X152207938Y-89680586D01*
X152207936Y-89680596D01*
X152187341Y-89915999D01*
X152187341Y-89916000D01*
X152207936Y-90151403D01*
X152207938Y-90151413D01*
X152269094Y-90379655D01*
X152269096Y-90379659D01*
X152269097Y-90379663D01*
X152362549Y-90580071D01*
X152368965Y-90593830D01*
X152368967Y-90593834D01*
X152504501Y-90787395D01*
X152504506Y-90787402D01*
X152671597Y-90954493D01*
X152671603Y-90954498D01*
X152857158Y-91084425D01*
X152900783Y-91139002D01*
X152907977Y-91208500D01*
X152876454Y-91270855D01*
X152857158Y-91287575D01*
X152671597Y-91417505D01*
X152504505Y-91584597D01*
X152368965Y-91778169D01*
X152368964Y-91778171D01*
X152269098Y-91992335D01*
X152269094Y-91992344D01*
X152228275Y-92144688D01*
X152191910Y-92204349D01*
X152129063Y-92234878D01*
X152059688Y-92226583D01*
X152005810Y-92182098D01*
X151984535Y-92115546D01*
X151984500Y-92112595D01*
X151984500Y-91868943D01*
X151979643Y-91850819D01*
X151979642Y-91850815D01*
X151968362Y-91808717D01*
X151968362Y-91808716D01*
X151943577Y-91716216D01*
X151930750Y-91693999D01*
X151864524Y-91579290D01*
X151864521Y-91579286D01*
X151864520Y-91579284D01*
X151752716Y-91467480D01*
X151752715Y-91467479D01*
X151748385Y-91463149D01*
X151748374Y-91463139D01*
X151496735Y-91211500D01*
X151468473Y-91167786D01*
X151456222Y-91135482D01*
X151456220Y-91135477D01*
X151433632Y-91102753D01*
X151366483Y-91005470D01*
X151248240Y-90900717D01*
X151248238Y-90900716D01*
X151248237Y-90900715D01*
X151108365Y-90827303D01*
X150954986Y-90789500D01*
X150954985Y-90789500D01*
X150797015Y-90789500D01*
X150797014Y-90789500D01*
X150643634Y-90827303D01*
X150503762Y-90900715D01*
X150385516Y-91005471D01*
X150332550Y-91082206D01*
X150278267Y-91126196D01*
X150208819Y-91133856D01*
X150146254Y-91102753D01*
X150110436Y-91042762D01*
X150106500Y-91011766D01*
X150106500Y-70474500D01*
X150126185Y-70407461D01*
X150178989Y-70361706D01*
X150230500Y-70350500D01*
X151240879Y-70350500D01*
X151307918Y-70370185D01*
G37*
%TD.AperFunction*%
%TA.AperFunction,NonConductor*%
G36*
X161753818Y-92314185D02*
G01*
X161799573Y-92366989D01*
X161802721Y-92374528D01*
X161824442Y-92431800D01*
X161832500Y-92475772D01*
X161832500Y-92663902D01*
X161812815Y-92730941D01*
X161796181Y-92751583D01*
X161445643Y-93102120D01*
X161384320Y-93135605D01*
X161314628Y-93130621D01*
X161258695Y-93088749D01*
X161242022Y-93058412D01*
X161235220Y-93040477D01*
X161232064Y-93035905D01*
X161145483Y-92910470D01*
X161043273Y-92819921D01*
X161006146Y-92760731D01*
X161001500Y-92727105D01*
X161001500Y-92438316D01*
X161021185Y-92371277D01*
X161073989Y-92325522D01*
X161095814Y-92317922D01*
X161141365Y-92306696D01*
X161141369Y-92306693D01*
X161141372Y-92306693D01*
X161148380Y-92304036D01*
X161149072Y-92305861D01*
X161195166Y-92294500D01*
X161686779Y-92294500D01*
X161753818Y-92314185D01*
G37*
%TD.AperFunction*%
%TA.AperFunction,NonConductor*%
G36*
X150311703Y-91774520D02*
G01*
X150332550Y-91797794D01*
X150385514Y-91874527D01*
X150385516Y-91874529D01*
X150385517Y-91874530D01*
X150503760Y-91979283D01*
X150618145Y-92039317D01*
X150648194Y-92061429D01*
X150747181Y-92160416D01*
X150780666Y-92221739D01*
X150783500Y-92248097D01*
X150783500Y-92951866D01*
X150763815Y-93018905D01*
X150711011Y-93064660D01*
X150674445Y-93074962D01*
X150670014Y-93075499D01*
X150516634Y-93113303D01*
X150376762Y-93186715D01*
X150312727Y-93243445D01*
X150249493Y-93273166D01*
X150180230Y-93263982D01*
X150126927Y-93218810D01*
X150106507Y-93151990D01*
X150106500Y-93150629D01*
X150106500Y-91868233D01*
X150126185Y-91801194D01*
X150178989Y-91755439D01*
X150248147Y-91745495D01*
X150311703Y-91774520D01*
G37*
%TD.AperFunction*%
%TA.AperFunction,NonConductor*%
G36*
X162506654Y-83349118D02*
G01*
X162525020Y-83364255D01*
X164107139Y-84946374D01*
X164107149Y-84946385D01*
X164111479Y-84950715D01*
X164111480Y-84950716D01*
X164223284Y-85062520D01*
X164292158Y-85102284D01*
X164360215Y-85141577D01*
X164512943Y-85182500D01*
X164671057Y-85182500D01*
X165137500Y-85182500D01*
X165204539Y-85202185D01*
X165250294Y-85254989D01*
X165261500Y-85306500D01*
X165261500Y-86908299D01*
X165241815Y-86975338D01*
X165189011Y-87021093D01*
X165119853Y-87031037D01*
X165085405Y-87019886D01*
X165085377Y-87019963D01*
X165083840Y-87019380D01*
X165079879Y-87018098D01*
X165078365Y-87017303D01*
X164924986Y-86979500D01*
X164924985Y-86979500D01*
X164767015Y-86979500D01*
X164767014Y-86979500D01*
X164613634Y-87017303D01*
X164473761Y-87090715D01*
X164473759Y-87090717D01*
X164390316Y-87164640D01*
X164327083Y-87194361D01*
X164257819Y-87185177D01*
X164250473Y-87181624D01*
X164179365Y-87144304D01*
X164179364Y-87144303D01*
X164179363Y-87144303D01*
X164025986Y-87106500D01*
X164025985Y-87106500D01*
X163868015Y-87106500D01*
X163868014Y-87106500D01*
X163714634Y-87144303D01*
X163574762Y-87217715D01*
X163456516Y-87322471D01*
X163366781Y-87452475D01*
X163366780Y-87452476D01*
X163310762Y-87600181D01*
X163291722Y-87756999D01*
X163291722Y-87757000D01*
X163310762Y-87913818D01*
X163351408Y-88020990D01*
X163366780Y-88061523D01*
X163456517Y-88191530D01*
X163574760Y-88296283D01*
X163574762Y-88296284D01*
X163714634Y-88369696D01*
X163868014Y-88407500D01*
X163872698Y-88407500D01*
X163939737Y-88427185D01*
X163985492Y-88479989D01*
X163995436Y-88549147D01*
X163966411Y-88612703D01*
X163954925Y-88624316D01*
X163847516Y-88719470D01*
X163757781Y-88849475D01*
X163757780Y-88849476D01*
X163701762Y-88997181D01*
X163682722Y-89153999D01*
X163682722Y-89154000D01*
X163701762Y-89310818D01*
X163730660Y-89387014D01*
X163757780Y-89458523D01*
X163847517Y-89588530D01*
X163965760Y-89693283D01*
X164052127Y-89738612D01*
X164102338Y-89787194D01*
X164118500Y-89848407D01*
X164118500Y-92968866D01*
X164098815Y-93035905D01*
X164046011Y-93081660D01*
X163976853Y-93091604D01*
X163964826Y-93089263D01*
X163908986Y-93075500D01*
X163908985Y-93075500D01*
X163751015Y-93075500D01*
X163751014Y-93075500D01*
X163597634Y-93113303D01*
X163457762Y-93186715D01*
X163339515Y-93291471D01*
X163275058Y-93384853D01*
X163220775Y-93428843D01*
X163151327Y-93436502D01*
X163088762Y-93405398D01*
X163085328Y-93402093D01*
X163069819Y-93386584D01*
X163036334Y-93325261D01*
X163033500Y-93298903D01*
X163033500Y-93053059D01*
X163033501Y-93053046D01*
X163033501Y-92877348D01*
X163033500Y-92877330D01*
X163033500Y-92475771D01*
X163041558Y-92431801D01*
X163041923Y-92430836D01*
X163057228Y-92390482D01*
X163099404Y-92334781D01*
X163143492Y-92314058D01*
X163173365Y-92306696D01*
X163313240Y-92233283D01*
X163431483Y-92128530D01*
X163521220Y-91998523D01*
X163577237Y-91850818D01*
X163596278Y-91694000D01*
X163582995Y-91584599D01*
X163577237Y-91537181D01*
X163553428Y-91474404D01*
X163521220Y-91389477D01*
X163431483Y-91259470D01*
X163313240Y-91154717D01*
X163313238Y-91154716D01*
X163313237Y-91154715D01*
X163173365Y-91081303D01*
X163019986Y-91043500D01*
X163019985Y-91043500D01*
X162862015Y-91043500D01*
X162862014Y-91043500D01*
X162708634Y-91081303D01*
X162701623Y-91083963D01*
X162700930Y-91082137D01*
X162654834Y-91093500D01*
X161588218Y-91093500D01*
X161521179Y-91073815D01*
X161475424Y-91021011D01*
X161465480Y-90951853D01*
X161494505Y-90888297D01*
X161505991Y-90876685D01*
X161516864Y-90867051D01*
X161526483Y-90858530D01*
X161616220Y-90728523D01*
X161672237Y-90580818D01*
X161691278Y-90424000D01*
X161672237Y-90267182D01*
X161669156Y-90259059D01*
X161650992Y-90211164D01*
X161616220Y-90119477D01*
X161526483Y-89989470D01*
X161408240Y-89884717D01*
X161408238Y-89884716D01*
X161408237Y-89884715D01*
X161357178Y-89857917D01*
X161306966Y-89809333D01*
X161291708Y-89763062D01*
X161291237Y-89759182D01*
X161288812Y-89752789D01*
X161266245Y-89693283D01*
X161235220Y-89611477D01*
X161145483Y-89481470D01*
X161027240Y-89376717D01*
X161018991Y-89372388D01*
X160982616Y-89353296D01*
X160932404Y-89304711D01*
X160916430Y-89236692D01*
X160939766Y-89170834D01*
X160995002Y-89128048D01*
X161040243Y-89119500D01*
X161750055Y-89119500D01*
X161750057Y-89119500D01*
X161902784Y-89078577D01*
X162039716Y-88999520D01*
X162151520Y-88887716D01*
X162230577Y-88750784D01*
X162271500Y-88598057D01*
X162271500Y-88058943D01*
X162271500Y-86215316D01*
X162291185Y-86148277D01*
X162343989Y-86102522D01*
X162365814Y-86094922D01*
X162411365Y-86083696D01*
X162551240Y-86010283D01*
X162669483Y-85905530D01*
X162759220Y-85775523D01*
X162815237Y-85627818D01*
X162834278Y-85471000D01*
X162815237Y-85314182D01*
X162812812Y-85307789D01*
X162792788Y-85254989D01*
X162759220Y-85166477D01*
X162669483Y-85036470D01*
X162551240Y-84931717D01*
X162551238Y-84931716D01*
X162551237Y-84931715D01*
X162411367Y-84858304D01*
X162365824Y-84847079D01*
X162305444Y-84811922D01*
X162273656Y-84749703D01*
X162271500Y-84726682D01*
X162271500Y-83839772D01*
X162279558Y-83795800D01*
X162297817Y-83747655D01*
X162307237Y-83722818D01*
X162326278Y-83566000D01*
X162314243Y-83466882D01*
X162325703Y-83397959D01*
X162372607Y-83346173D01*
X162440063Y-83327966D01*
X162506654Y-83349118D01*
G37*
%TD.AperFunction*%
%TA.AperFunction,NonConductor*%
G36*
X160336796Y-89139185D02*
G01*
X160382551Y-89191989D01*
X160392495Y-89261147D01*
X160363470Y-89324703D01*
X160327384Y-89353296D01*
X160282761Y-89376716D01*
X160164516Y-89481471D01*
X160074779Y-89611477D01*
X160062523Y-89643793D01*
X160034285Y-89687478D01*
X160032308Y-89689456D01*
X160032286Y-89689478D01*
X159920481Y-89801282D01*
X159920479Y-89801284D01*
X159904962Y-89828161D01*
X159898403Y-89839523D01*
X159841423Y-89938215D01*
X159800499Y-90090943D01*
X159800499Y-90090945D01*
X159800499Y-90259046D01*
X159800500Y-90259059D01*
X159800500Y-93004330D01*
X159800499Y-93004348D01*
X159800499Y-93011943D01*
X159800499Y-93170057D01*
X159808630Y-93200401D01*
X159835238Y-93299704D01*
X159833575Y-93369553D01*
X159794412Y-93427416D01*
X159780894Y-93436404D01*
X159780931Y-93436458D01*
X159774755Y-93440720D01*
X159683726Y-93521364D01*
X159620493Y-93551085D01*
X159551229Y-93541901D01*
X159497927Y-93496728D01*
X159477507Y-93429909D01*
X159477500Y-93428548D01*
X159477500Y-89293500D01*
X159497185Y-89226461D01*
X159549989Y-89180706D01*
X159601500Y-89169500D01*
X159717985Y-89169500D01*
X159871365Y-89131696D01*
X159878377Y-89129037D01*
X159879069Y-89130862D01*
X159925166Y-89119500D01*
X160269757Y-89119500D01*
X160336796Y-89139185D01*
G37*
%TD.AperFunction*%
%TA.AperFunction,NonConductor*%
G36*
X176991834Y-93244576D02*
G01*
X177047767Y-93286448D01*
X177072184Y-93351912D01*
X177072500Y-93360758D01*
X177072500Y-93837241D01*
X177052815Y-93904280D01*
X177000011Y-93950035D01*
X176930853Y-93959979D01*
X176867297Y-93930954D01*
X176860819Y-93924923D01*
X176818714Y-93882818D01*
X176766401Y-93830505D01*
X176766397Y-93830502D01*
X176766396Y-93830501D01*
X176580842Y-93700575D01*
X176537217Y-93645998D01*
X176530023Y-93576500D01*
X176561546Y-93514145D01*
X176580842Y-93497425D01*
X176667849Y-93436502D01*
X176766401Y-93367495D01*
X176860819Y-93273077D01*
X176922142Y-93239592D01*
X176991834Y-93244576D01*
G37*
%TD.AperFunction*%
%TA.AperFunction,NonConductor*%
G36*
X174795703Y-93120071D02*
G01*
X174816075Y-93142661D01*
X174856501Y-93200396D01*
X174856506Y-93200402D01*
X175023597Y-93367493D01*
X175023603Y-93367498D01*
X175209158Y-93497425D01*
X175252783Y-93552002D01*
X175259977Y-93621500D01*
X175228454Y-93683855D01*
X175209158Y-93700575D01*
X175023597Y-93830505D01*
X174856508Y-93997594D01*
X174732189Y-94175140D01*
X174677612Y-94218765D01*
X174608113Y-94225957D01*
X174545759Y-94194435D01*
X174542933Y-94191697D01*
X174514468Y-94163232D01*
X174480983Y-94101909D01*
X174485967Y-94032217D01*
X174500099Y-94005111D01*
X174531251Y-93959979D01*
X174570220Y-93903523D01*
X174626237Y-93755818D01*
X174645278Y-93599000D01*
X174626237Y-93442182D01*
X174598558Y-93369198D01*
X174590500Y-93325227D01*
X174590500Y-93213784D01*
X174610185Y-93146745D01*
X174662989Y-93100990D01*
X174732147Y-93091046D01*
X174795703Y-93120071D01*
G37*
%TD.AperFunction*%
%TA.AperFunction,NonConductor*%
G36*
X169920126Y-89632288D02*
G01*
X169964602Y-89660837D01*
X170813181Y-90509416D01*
X170846666Y-90570739D01*
X170849500Y-90597097D01*
X170849500Y-94444548D01*
X170829815Y-94511587D01*
X170777011Y-94557342D01*
X170707853Y-94567286D01*
X170644297Y-94538261D01*
X170643274Y-94537364D01*
X170552240Y-94456717D01*
X170552238Y-94456715D01*
X170412365Y-94383303D01*
X170258986Y-94345500D01*
X170258985Y-94345500D01*
X170101015Y-94345500D01*
X170101014Y-94345500D01*
X169947634Y-94383303D01*
X169836211Y-94441784D01*
X169767703Y-94455510D01*
X169702650Y-94430018D01*
X169690904Y-94419669D01*
X168657819Y-93386584D01*
X168624334Y-93325261D01*
X168621500Y-93298903D01*
X168621500Y-89836943D01*
X168616643Y-89818819D01*
X168616642Y-89818815D01*
X168614915Y-89812368D01*
X168611379Y-89799172D01*
X168613042Y-89729323D01*
X168652205Y-89671461D01*
X168716433Y-89643957D01*
X168785335Y-89655544D01*
X168797118Y-89662081D01*
X168941478Y-89752789D01*
X169111745Y-89812368D01*
X169111750Y-89812369D01*
X169290996Y-89832565D01*
X169291000Y-89832565D01*
X169291004Y-89832565D01*
X169470249Y-89812369D01*
X169470252Y-89812368D01*
X169470255Y-89812368D01*
X169640522Y-89752789D01*
X169793262Y-89656816D01*
X169793265Y-89656813D01*
X169798710Y-89652472D01*
X169800499Y-89654716D01*
X169850429Y-89627381D01*
X169920126Y-89632288D01*
G37*
%TD.AperFunction*%
%TA.AperFunction,NonConductor*%
G36*
X152189703Y-92705691D02*
G01*
X152227477Y-92764469D01*
X152228275Y-92767311D01*
X152269094Y-92919655D01*
X152269096Y-92919659D01*
X152269097Y-92919663D01*
X152349275Y-93091604D01*
X152368965Y-93133830D01*
X152368967Y-93133834D01*
X152443020Y-93239592D01*
X152484550Y-93298903D01*
X152504501Y-93327395D01*
X152504506Y-93327402D01*
X152671597Y-93494493D01*
X152671603Y-93494498D01*
X152857158Y-93624425D01*
X152900783Y-93679002D01*
X152907977Y-93748500D01*
X152876454Y-93810855D01*
X152857158Y-93827575D01*
X152671597Y-93957505D01*
X152504505Y-94124597D01*
X152368965Y-94318169D01*
X152368964Y-94318171D01*
X152269098Y-94532335D01*
X152269094Y-94532344D01*
X152228275Y-94684688D01*
X152191910Y-94744349D01*
X152129063Y-94774878D01*
X152059688Y-94766583D01*
X152005810Y-94722098D01*
X151984535Y-94655546D01*
X151984500Y-94652595D01*
X151984500Y-92799404D01*
X152004185Y-92732365D01*
X152056989Y-92686610D01*
X152126147Y-92676666D01*
X152189703Y-92705691D01*
G37*
%TD.AperFunction*%
%TA.AperFunction,NonConductor*%
G36*
X162158833Y-94189914D02*
G01*
X162203180Y-94218415D01*
X162626584Y-94641819D01*
X162660069Y-94703142D01*
X162655085Y-94772834D01*
X162613213Y-94828767D01*
X162547749Y-94853184D01*
X162538903Y-94853500D01*
X162481014Y-94853500D01*
X162327634Y-94891303D01*
X162320623Y-94893963D01*
X162319930Y-94892137D01*
X162273834Y-94903500D01*
X159671166Y-94903500D01*
X159625069Y-94892137D01*
X159624377Y-94893963D01*
X159617369Y-94891305D01*
X159571824Y-94880079D01*
X159511444Y-94844922D01*
X159479656Y-94782703D01*
X159477500Y-94759682D01*
X159477500Y-94531451D01*
X159497185Y-94464412D01*
X159549989Y-94418657D01*
X159619147Y-94408713D01*
X159682703Y-94437738D01*
X159683657Y-94438574D01*
X159744908Y-94492837D01*
X159774762Y-94519285D01*
X159914634Y-94592696D01*
X160068014Y-94630500D01*
X160068015Y-94630500D01*
X160225985Y-94630500D01*
X160379365Y-94592696D01*
X160386377Y-94590037D01*
X160387069Y-94591862D01*
X160433166Y-94580500D01*
X161330331Y-94580500D01*
X161330347Y-94580501D01*
X161337943Y-94580501D01*
X161496054Y-94580501D01*
X161496057Y-94580501D01*
X161648785Y-94539577D01*
X161699639Y-94510216D01*
X161785716Y-94460520D01*
X161897520Y-94348716D01*
X161897520Y-94348714D01*
X161907724Y-94338511D01*
X161907727Y-94338506D01*
X162027821Y-94218413D01*
X162089141Y-94184930D01*
X162158833Y-94189914D01*
G37*
%TD.AperFunction*%
%TA.AperFunction,NonConductor*%
G36*
X167810703Y-94238384D02*
G01*
X167817181Y-94244416D01*
X168515929Y-94943164D01*
X168549414Y-95004487D01*
X168544430Y-95074179D01*
X168502558Y-95130112D01*
X168437094Y-95154529D01*
X168384280Y-95146788D01*
X168380367Y-95145304D01*
X168226986Y-95107500D01*
X168226985Y-95107500D01*
X168069015Y-95107500D01*
X168069014Y-95107500D01*
X167915634Y-95145303D01*
X167787126Y-95212751D01*
X167718618Y-95226477D01*
X167653565Y-95200985D01*
X167612620Y-95144369D01*
X167605500Y-95102955D01*
X167605500Y-94332097D01*
X167625185Y-94265058D01*
X167677989Y-94219303D01*
X167747147Y-94209359D01*
X167810703Y-94238384D01*
G37*
%TD.AperFunction*%
%TA.AperFunction,NonConductor*%
G36*
X164425770Y-94164098D02*
G01*
X164479073Y-94209270D01*
X164499493Y-94276089D01*
X164499500Y-94277451D01*
X164499500Y-96119227D01*
X164491442Y-96163198D01*
X164463763Y-96236180D01*
X164445807Y-96384061D01*
X164418185Y-96448239D01*
X164360251Y-96487295D01*
X164290398Y-96488830D01*
X164235030Y-96456795D01*
X163958819Y-96180584D01*
X163925334Y-96119261D01*
X163922500Y-96092903D01*
X163922500Y-94577059D01*
X163922501Y-94577046D01*
X163922501Y-94470316D01*
X163942186Y-94403277D01*
X163994990Y-94357522D01*
X164016824Y-94349920D01*
X164062365Y-94338696D01*
X164202240Y-94265283D01*
X164293274Y-94184634D01*
X164356506Y-94154914D01*
X164425770Y-94164098D01*
G37*
%TD.AperFunction*%
%TA.AperFunction,NonConductor*%
G36*
X176991834Y-95784576D02*
G01*
X177047767Y-95826448D01*
X177072184Y-95891912D01*
X177072500Y-95900758D01*
X177072500Y-96377241D01*
X177052815Y-96444280D01*
X177000011Y-96490035D01*
X176930853Y-96499979D01*
X176867297Y-96470954D01*
X176860819Y-96464923D01*
X176839419Y-96443523D01*
X176766401Y-96370505D01*
X176766397Y-96370502D01*
X176766396Y-96370501D01*
X176580842Y-96240575D01*
X176537217Y-96185998D01*
X176530023Y-96116500D01*
X176561546Y-96054145D01*
X176580842Y-96037425D01*
X176624673Y-96006734D01*
X176766401Y-95907495D01*
X176860819Y-95813077D01*
X176922142Y-95779592D01*
X176991834Y-95784576D01*
G37*
%TD.AperFunction*%
%TA.AperFunction,NonConductor*%
G36*
X154639834Y-95911576D02*
G01*
X154695767Y-95953448D01*
X154720184Y-96018912D01*
X154720500Y-96027758D01*
X154720500Y-96504241D01*
X154700815Y-96571280D01*
X154648011Y-96617035D01*
X154578853Y-96626979D01*
X154515297Y-96597954D01*
X154508819Y-96591923D01*
X154466714Y-96549818D01*
X154414401Y-96497505D01*
X154414397Y-96497502D01*
X154414396Y-96497501D01*
X154228842Y-96367575D01*
X154185217Y-96312998D01*
X154178023Y-96243500D01*
X154209546Y-96181145D01*
X154228842Y-96164425D01*
X154260938Y-96141951D01*
X154414401Y-96034495D01*
X154508819Y-95940077D01*
X154570142Y-95906592D01*
X154639834Y-95911576D01*
G37*
%TD.AperFunction*%
%TA.AperFunction,NonConductor*%
G36*
X152189703Y-95245691D02*
G01*
X152227477Y-95304469D01*
X152228275Y-95307311D01*
X152269094Y-95459655D01*
X152269096Y-95459659D01*
X152269097Y-95459663D01*
X152292176Y-95509156D01*
X152368965Y-95673830D01*
X152368967Y-95673834D01*
X152504501Y-95867395D01*
X152504506Y-95867402D01*
X152671597Y-96034493D01*
X152671603Y-96034498D01*
X152857158Y-96164425D01*
X152900783Y-96219002D01*
X152907977Y-96288500D01*
X152876454Y-96350855D01*
X152857158Y-96367575D01*
X152671597Y-96497505D01*
X152504505Y-96664597D01*
X152368965Y-96858169D01*
X152368964Y-96858171D01*
X152269098Y-97072335D01*
X152269094Y-97072344D01*
X152228275Y-97224688D01*
X152191910Y-97284349D01*
X152129063Y-97314878D01*
X152059688Y-97306583D01*
X152005810Y-97262098D01*
X151984535Y-97195546D01*
X151984500Y-97192595D01*
X151984500Y-95339404D01*
X152004185Y-95272365D01*
X152056989Y-95226610D01*
X152126147Y-95216666D01*
X152189703Y-95245691D01*
G37*
%TD.AperFunction*%
%TA.AperFunction,NonConductor*%
G36*
X179283435Y-84518185D02*
G01*
X179324380Y-84574800D01*
X179331500Y-84616215D01*
X179331500Y-97882784D01*
X179311815Y-97949823D01*
X179259011Y-97995578D01*
X179189853Y-98005522D01*
X179149874Y-97992580D01*
X179048365Y-97939303D01*
X178894985Y-97901499D01*
X178890555Y-97900962D01*
X178826377Y-97873341D01*
X178787319Y-97815407D01*
X178781500Y-97777866D01*
X178781500Y-84721133D01*
X178801185Y-84654094D01*
X178853989Y-84608339D01*
X178890565Y-84598036D01*
X178894980Y-84597500D01*
X178894985Y-84597500D01*
X179048365Y-84559696D01*
X179149875Y-84506418D01*
X179218381Y-84492693D01*
X179283435Y-84518185D01*
G37*
%TD.AperFunction*%
%TA.AperFunction,NonConductor*%
G36*
X152189703Y-97785691D02*
G01*
X152227477Y-97844469D01*
X152228275Y-97847311D01*
X152269094Y-97999655D01*
X152269099Y-97999669D01*
X152318727Y-98106096D01*
X152329219Y-98175173D01*
X152300699Y-98238957D01*
X152242222Y-98277196D01*
X152206345Y-98282500D01*
X152194014Y-98282500D01*
X152138174Y-98296263D01*
X152068372Y-98293194D01*
X152011310Y-98252873D01*
X151985105Y-98188104D01*
X151984500Y-98175866D01*
X151984500Y-97879404D01*
X152004185Y-97812365D01*
X152056989Y-97766610D01*
X152126147Y-97756666D01*
X152189703Y-97785691D01*
G37*
%TD.AperFunction*%
%TA.AperFunction,NonConductor*%
G36*
X176991834Y-98324576D02*
G01*
X177047767Y-98366448D01*
X177072184Y-98431912D01*
X177072500Y-98440758D01*
X177072500Y-98917241D01*
X177052815Y-98984280D01*
X177000011Y-99030035D01*
X176930853Y-99039979D01*
X176867297Y-99010954D01*
X176860819Y-99004923D01*
X176840176Y-98984280D01*
X176766401Y-98910505D01*
X176766397Y-98910502D01*
X176766396Y-98910501D01*
X176580842Y-98780575D01*
X176537217Y-98725998D01*
X176530023Y-98656500D01*
X176561546Y-98594145D01*
X176580842Y-98577425D01*
X176607281Y-98558912D01*
X176766401Y-98447495D01*
X176860819Y-98353077D01*
X176922142Y-98319592D01*
X176991834Y-98324576D01*
G37*
%TD.AperFunction*%
%TA.AperFunction,NonConductor*%
G36*
X154639834Y-98451576D02*
G01*
X154695767Y-98493448D01*
X154720184Y-98558912D01*
X154720500Y-98567758D01*
X154720500Y-99044241D01*
X154700815Y-99111280D01*
X154648011Y-99157035D01*
X154578853Y-99166979D01*
X154515297Y-99137954D01*
X154508819Y-99131923D01*
X154466714Y-99089818D01*
X154414401Y-99037505D01*
X154414397Y-99037502D01*
X154414396Y-99037501D01*
X154228842Y-98907575D01*
X154185217Y-98852998D01*
X154178023Y-98783500D01*
X154209546Y-98721145D01*
X154228842Y-98704425D01*
X154251026Y-98688891D01*
X154414401Y-98574495D01*
X154508819Y-98480077D01*
X154570142Y-98446592D01*
X154639834Y-98451576D01*
G37*
%TD.AperFunction*%
%TA.AperFunction,NonConductor*%
G36*
X160460717Y-96124185D02*
G01*
X160506472Y-96176989D01*
X160516774Y-96213553D01*
X160526763Y-96295819D01*
X160571221Y-96413044D01*
X160582780Y-96443523D01*
X160672517Y-96573530D01*
X160790760Y-96678283D01*
X160790762Y-96678284D01*
X160930634Y-96751696D01*
X161084014Y-96789500D01*
X161084015Y-96789500D01*
X161241985Y-96789500D01*
X161395365Y-96751696D01*
X161402377Y-96749037D01*
X161403069Y-96750862D01*
X161449166Y-96739500D01*
X162019834Y-96739500D01*
X162065930Y-96750862D01*
X162066623Y-96749037D01*
X162073634Y-96751696D01*
X162227014Y-96789500D01*
X162227015Y-96789500D01*
X162384985Y-96789500D01*
X162538365Y-96751696D01*
X162661089Y-96687285D01*
X162729597Y-96673559D01*
X162794650Y-96699051D01*
X162826102Y-96735081D01*
X162841477Y-96761712D01*
X162841481Y-96761717D01*
X162960349Y-96880585D01*
X162960355Y-96880590D01*
X163971263Y-97891498D01*
X163999523Y-97935206D01*
X164005067Y-97949823D01*
X164011780Y-97967523D01*
X164101517Y-98097530D01*
X164219760Y-98202283D01*
X164219762Y-98202284D01*
X164359634Y-98275696D01*
X164513014Y-98313500D01*
X164513015Y-98313500D01*
X164670985Y-98313500D01*
X164824365Y-98275696D01*
X164964237Y-98202285D01*
X164964238Y-98202283D01*
X164964240Y-98202283D01*
X165055274Y-98121634D01*
X165118506Y-98091914D01*
X165187770Y-98101098D01*
X165241073Y-98146270D01*
X165261493Y-98213089D01*
X165261500Y-98214451D01*
X165261500Y-100063500D01*
X165241815Y-100130539D01*
X165189011Y-100176294D01*
X165137500Y-100187500D01*
X165021014Y-100187500D01*
X164867634Y-100225303D01*
X164860623Y-100227963D01*
X164859930Y-100226137D01*
X164813834Y-100237500D01*
X163687221Y-100237500D01*
X163620182Y-100217815D01*
X163574427Y-100165011D01*
X163571279Y-100157471D01*
X163535640Y-100063500D01*
X163521220Y-100025477D01*
X163431483Y-99895470D01*
X163313240Y-99790717D01*
X163313238Y-99790716D01*
X163313237Y-99790715D01*
X163173365Y-99717303D01*
X163019986Y-99679500D01*
X163019985Y-99679500D01*
X162862015Y-99679500D01*
X162862014Y-99679500D01*
X162708634Y-99717303D01*
X162701623Y-99719963D01*
X162700930Y-99718137D01*
X162654834Y-99729500D01*
X159601500Y-99729500D01*
X159534461Y-99709815D01*
X159488706Y-99657011D01*
X159477500Y-99605500D01*
X159477500Y-96248316D01*
X159497185Y-96181277D01*
X159549989Y-96135522D01*
X159571814Y-96127922D01*
X159617365Y-96116696D01*
X159617369Y-96116693D01*
X159617372Y-96116693D01*
X159624380Y-96114036D01*
X159625072Y-96115861D01*
X159671166Y-96104500D01*
X160393678Y-96104500D01*
X160460717Y-96124185D01*
G37*
%TD.AperFunction*%
%TA.AperFunction,NonConductor*%
G36*
X174666948Y-95463531D02*
G01*
X174703397Y-95509156D01*
X174720966Y-95546832D01*
X174856501Y-95740395D01*
X174856506Y-95740402D01*
X175023597Y-95907493D01*
X175023603Y-95907498D01*
X175209158Y-96037425D01*
X175252783Y-96092002D01*
X175259977Y-96161500D01*
X175228454Y-96223855D01*
X175209158Y-96240575D01*
X175023597Y-96370505D01*
X174856505Y-96537597D01*
X174720965Y-96731169D01*
X174720964Y-96731171D01*
X174621098Y-96945335D01*
X174621094Y-96945344D01*
X174559938Y-97173586D01*
X174559936Y-97173596D01*
X174539341Y-97408999D01*
X174539341Y-97409000D01*
X174559936Y-97644403D01*
X174559938Y-97644413D01*
X174621094Y-97872655D01*
X174621096Y-97872659D01*
X174621097Y-97872663D01*
X174717500Y-98079399D01*
X174720965Y-98086830D01*
X174720967Y-98086834D01*
X174809891Y-98213830D01*
X174855060Y-98278338D01*
X174856501Y-98280395D01*
X174856506Y-98280402D01*
X175023597Y-98447493D01*
X175023603Y-98447498D01*
X175209158Y-98577425D01*
X175252783Y-98632002D01*
X175259977Y-98701500D01*
X175228454Y-98763855D01*
X175209158Y-98780575D01*
X175023597Y-98910505D01*
X174856505Y-99077597D01*
X174720965Y-99271169D01*
X174720964Y-99271171D01*
X174621098Y-99485335D01*
X174621094Y-99485344D01*
X174559938Y-99713586D01*
X174559936Y-99713596D01*
X174539341Y-99948999D01*
X174539341Y-99949000D01*
X174559936Y-100184403D01*
X174559938Y-100184413D01*
X174621094Y-100412655D01*
X174621095Y-100412658D01*
X174621097Y-100412663D01*
X174634822Y-100442097D01*
X174645314Y-100511171D01*
X174616795Y-100574956D01*
X174558319Y-100613196D01*
X174522440Y-100618500D01*
X174206500Y-100618500D01*
X174139461Y-100598815D01*
X174093706Y-100546011D01*
X174082500Y-100494500D01*
X174082500Y-96031772D01*
X174090558Y-95987800D01*
X174118237Y-95914818D01*
X174137278Y-95758000D01*
X174125190Y-95658446D01*
X174136650Y-95589523D01*
X174183554Y-95537737D01*
X174248286Y-95519500D01*
X174322985Y-95519500D01*
X174476365Y-95481696D01*
X174533390Y-95451766D01*
X174601895Y-95438040D01*
X174666948Y-95463531D01*
G37*
%TD.AperFunction*%
%TA.AperFunction,NonConductor*%
G36*
X168909615Y-95353100D02*
G01*
X168954602Y-95381837D01*
X169543180Y-95970415D01*
X169576665Y-96031738D01*
X169579499Y-96058096D01*
X169579499Y-96101046D01*
X169579500Y-96101059D01*
X169579500Y-98211299D01*
X169559815Y-98278338D01*
X169507011Y-98324093D01*
X169437853Y-98334037D01*
X169403405Y-98322886D01*
X169403377Y-98322963D01*
X169401840Y-98322380D01*
X169397879Y-98321098D01*
X169396365Y-98320303D01*
X169242986Y-98282500D01*
X169242985Y-98282500D01*
X169085015Y-98282500D01*
X169085014Y-98282500D01*
X168931634Y-98320303D01*
X168791762Y-98393715D01*
X168673516Y-98498471D01*
X168583781Y-98628475D01*
X168583780Y-98628476D01*
X168527762Y-98776181D01*
X168508722Y-98932999D01*
X168508722Y-98933000D01*
X168527762Y-99089818D01*
X168575256Y-99215047D01*
X168583780Y-99237523D01*
X168673517Y-99367530D01*
X168791760Y-99472283D01*
X168791762Y-99472284D01*
X168931634Y-99545696D01*
X169085014Y-99583500D01*
X169085015Y-99583500D01*
X169242985Y-99583500D01*
X169396365Y-99545696D01*
X169397869Y-99544907D01*
X169399093Y-99544661D01*
X169403377Y-99543037D01*
X169403647Y-99543749D01*
X169466376Y-99531178D01*
X169531431Y-99556667D01*
X169572378Y-99613280D01*
X169579500Y-99654700D01*
X169579500Y-101196184D01*
X169559815Y-101263223D01*
X169507011Y-101308978D01*
X169441617Y-101319404D01*
X169291004Y-101302435D01*
X169290997Y-101302435D01*
X169275447Y-101304187D01*
X169206625Y-101292132D01*
X169173883Y-101268648D01*
X168514735Y-100609500D01*
X168486473Y-100565786D01*
X168474222Y-100533482D01*
X168474220Y-100533477D01*
X168458381Y-100510530D01*
X168384483Y-100403470D01*
X168266240Y-100298717D01*
X168266238Y-100298716D01*
X168266237Y-100298715D01*
X168126365Y-100225303D01*
X167972986Y-100187500D01*
X167972985Y-100187500D01*
X167815015Y-100187500D01*
X167815014Y-100187500D01*
X167759174Y-100201263D01*
X167689372Y-100198194D01*
X167632310Y-100157873D01*
X167606105Y-100093104D01*
X167605500Y-100080866D01*
X167605500Y-96413044D01*
X167625185Y-96346005D01*
X167677989Y-96300250D01*
X167747147Y-96290306D01*
X167787122Y-96303246D01*
X167915635Y-96370696D01*
X167942190Y-96377241D01*
X168069014Y-96408500D01*
X168069015Y-96408500D01*
X168226985Y-96408500D01*
X168380365Y-96370696D01*
X168427409Y-96346005D01*
X168520240Y-96297283D01*
X168638483Y-96192530D01*
X168728220Y-96062523D01*
X168784237Y-95914818D01*
X168803278Y-95758000D01*
X168793058Y-95673834D01*
X168784237Y-95601182D01*
X168779815Y-95589523D01*
X168750978Y-95513487D01*
X168745612Y-95443827D01*
X168778759Y-95382320D01*
X168839897Y-95348499D01*
X168909615Y-95353100D01*
G37*
%TD.AperFunction*%
%TA.AperFunction,NonConductor*%
G36*
X152189703Y-100325691D02*
G01*
X152227477Y-100384469D01*
X152228275Y-100387311D01*
X152269093Y-100539650D01*
X152269095Y-100539655D01*
X152269097Y-100539663D01*
X152343708Y-100699667D01*
X152368965Y-100753830D01*
X152368967Y-100753834D01*
X152504501Y-100947395D01*
X152504506Y-100947402D01*
X152671597Y-101114493D01*
X152671603Y-101114498D01*
X152857158Y-101244425D01*
X152900783Y-101299002D01*
X152907977Y-101368500D01*
X152876454Y-101430855D01*
X152857158Y-101447575D01*
X152671597Y-101577505D01*
X152504505Y-101744597D01*
X152368965Y-101938169D01*
X152368964Y-101938171D01*
X152269098Y-102152335D01*
X152269094Y-102152344D01*
X152228275Y-102304688D01*
X152191910Y-102364349D01*
X152129063Y-102394878D01*
X152059688Y-102386583D01*
X152005810Y-102342098D01*
X151984535Y-102275546D01*
X151984500Y-102272595D01*
X151984500Y-100419404D01*
X152004185Y-100352365D01*
X152056989Y-100306610D01*
X152126147Y-100296666D01*
X152189703Y-100325691D01*
G37*
%TD.AperFunction*%
%TA.AperFunction,NonConductor*%
G36*
X164859943Y-101450554D02*
G01*
X164860351Y-101448901D01*
X165021014Y-101488500D01*
X165137500Y-101488500D01*
X165204539Y-101508185D01*
X165250294Y-101560989D01*
X165261500Y-101612500D01*
X165261500Y-104168903D01*
X165241815Y-104235942D01*
X165189011Y-104281697D01*
X165119853Y-104291641D01*
X165056297Y-104262616D01*
X165049819Y-104256584D01*
X164085819Y-103292584D01*
X164052334Y-103231261D01*
X164049500Y-103204903D01*
X164049500Y-102282943D01*
X164044643Y-102264819D01*
X164044642Y-102264815D01*
X164023807Y-102187056D01*
X164023807Y-102187055D01*
X164014573Y-102152592D01*
X164016236Y-102082743D01*
X164055399Y-102024880D01*
X164119628Y-101997377D01*
X164134348Y-101996500D01*
X164162985Y-101996500D01*
X164316365Y-101958696D01*
X164456240Y-101885283D01*
X164574483Y-101780530D01*
X164664220Y-101650523D01*
X164712082Y-101524318D01*
X164754260Y-101468617D01*
X164819857Y-101444560D01*
X164859943Y-101450554D01*
G37*
%TD.AperFunction*%
%TA.AperFunction,NonConductor*%
G36*
X152189703Y-102865691D02*
G01*
X152227477Y-102924469D01*
X152228275Y-102927311D01*
X152269094Y-103079655D01*
X152269096Y-103079659D01*
X152269097Y-103079663D01*
X152309744Y-103166830D01*
X152368965Y-103293830D01*
X152368967Y-103293834D01*
X152504501Y-103487395D01*
X152504506Y-103487402D01*
X152671597Y-103654493D01*
X152671603Y-103654498D01*
X152857158Y-103784425D01*
X152900783Y-103839002D01*
X152907977Y-103908500D01*
X152876454Y-103970855D01*
X152857158Y-103987575D01*
X152671597Y-104117505D01*
X152504505Y-104284597D01*
X152368965Y-104478169D01*
X152368964Y-104478171D01*
X152269098Y-104692335D01*
X152269094Y-104692344D01*
X152228275Y-104844688D01*
X152191910Y-104904349D01*
X152129063Y-104934878D01*
X152059688Y-104926583D01*
X152005810Y-104882098D01*
X151984535Y-104815546D01*
X151984500Y-104812595D01*
X151984500Y-102959404D01*
X152004185Y-102892365D01*
X152056989Y-102846610D01*
X152126147Y-102836666D01*
X152189703Y-102865691D01*
G37*
%TD.AperFunction*%
%TA.AperFunction,NonConductor*%
G36*
X163873703Y-104779384D02*
G01*
X163880181Y-104785416D01*
X164066808Y-104972043D01*
X164100293Y-105033366D01*
X164095309Y-105103058D01*
X164061354Y-105152540D01*
X163974516Y-105229471D01*
X163894550Y-105345322D01*
X163840267Y-105389312D01*
X163770818Y-105396972D01*
X163708254Y-105365869D01*
X163672436Y-105305878D01*
X163668500Y-105274882D01*
X163668500Y-104873097D01*
X163688185Y-104806058D01*
X163740989Y-104760303D01*
X163810147Y-104750359D01*
X163873703Y-104779384D01*
G37*
%TD.AperFunction*%
%TA.AperFunction,NonConductor*%
G36*
X170775770Y-104705098D02*
G01*
X170829073Y-104750270D01*
X170849493Y-104817089D01*
X170849500Y-104818451D01*
X170849500Y-105692903D01*
X170829815Y-105759942D01*
X170777011Y-105805697D01*
X170707853Y-105815641D01*
X170644297Y-105786616D01*
X170637819Y-105780584D01*
X170038735Y-105181500D01*
X170010473Y-105137786D01*
X169998223Y-105105483D01*
X169994889Y-105099131D01*
X169981161Y-105030623D01*
X170006650Y-104965569D01*
X170063264Y-104924622D01*
X170104683Y-104917500D01*
X170258985Y-104917500D01*
X170412365Y-104879696D01*
X170552237Y-104806285D01*
X170552238Y-104806283D01*
X170552240Y-104806283D01*
X170643274Y-104725634D01*
X170706506Y-104695914D01*
X170775770Y-104705098D01*
G37*
%TD.AperFunction*%
%TA.AperFunction,NonConductor*%
G36*
X159633583Y-102440202D02*
G01*
X159686942Y-102454500D01*
X159686943Y-102454500D01*
X162146834Y-102454500D01*
X162192930Y-102465862D01*
X162193623Y-102464037D01*
X162200634Y-102466696D01*
X162354014Y-102504500D01*
X162354015Y-102504500D01*
X162511985Y-102504500D01*
X162628828Y-102475701D01*
X162698628Y-102478770D01*
X162746182Y-102508417D01*
X162812181Y-102574416D01*
X162845666Y-102635739D01*
X162848500Y-102662097D01*
X162848500Y-103418330D01*
X162848499Y-103418348D01*
X162848499Y-103584054D01*
X162848498Y-103584054D01*
X162889424Y-103736789D01*
X162892535Y-103744299D01*
X162890805Y-103745015D01*
X162904836Y-103802849D01*
X162881984Y-103868876D01*
X162838602Y-103906746D01*
X162695762Y-103981714D01*
X162577516Y-104086471D01*
X162487781Y-104216475D01*
X162487780Y-104216476D01*
X162431762Y-104364181D01*
X162412722Y-104520999D01*
X162412722Y-104521000D01*
X162431762Y-104677817D01*
X162440756Y-104701530D01*
X162459274Y-104750359D01*
X162459442Y-104750800D01*
X162467500Y-104794772D01*
X162467500Y-106024955D01*
X162447815Y-106091994D01*
X162395011Y-106137749D01*
X162325853Y-106147693D01*
X162285874Y-106134751D01*
X162157365Y-106067303D01*
X162003986Y-106029500D01*
X162003985Y-106029500D01*
X161846015Y-106029500D01*
X161846014Y-106029500D01*
X161692635Y-106067303D01*
X161663330Y-106082684D01*
X161594821Y-106096408D01*
X161529768Y-106070916D01*
X161488825Y-106014299D01*
X161485930Y-106004980D01*
X161482523Y-105992264D01*
X161468577Y-105940216D01*
X161439064Y-105889097D01*
X161389524Y-105803290D01*
X161389521Y-105803286D01*
X161389520Y-105803284D01*
X161277716Y-105691480D01*
X161277715Y-105691479D01*
X161273385Y-105687149D01*
X161273374Y-105687139D01*
X160866533Y-105280298D01*
X160833048Y-105218975D01*
X160838032Y-105149283D01*
X160871988Y-105099801D01*
X160875950Y-105096290D01*
X160891483Y-105082530D01*
X160945461Y-105004328D01*
X160999743Y-104960338D01*
X161069192Y-104952678D01*
X161105137Y-104964972D01*
X161184634Y-105006696D01*
X161338014Y-105044500D01*
X161338015Y-105044500D01*
X161495985Y-105044500D01*
X161649365Y-105006696D01*
X161653875Y-105004329D01*
X161789240Y-104933283D01*
X161907483Y-104828530D01*
X161997220Y-104698523D01*
X162053237Y-104550818D01*
X162072278Y-104394000D01*
X162068658Y-104364182D01*
X162053237Y-104237181D01*
X162007850Y-104117506D01*
X161997220Y-104089477D01*
X161907483Y-103959470D01*
X161789240Y-103854717D01*
X161789238Y-103854716D01*
X161789237Y-103854715D01*
X161649365Y-103781303D01*
X161495986Y-103743500D01*
X161495985Y-103743500D01*
X161338015Y-103743500D01*
X161338014Y-103743500D01*
X161184634Y-103781303D01*
X161044762Y-103854715D01*
X160926517Y-103959469D01*
X160872538Y-104037672D01*
X160818254Y-104081662D01*
X160748806Y-104089321D01*
X160712862Y-104077027D01*
X160633365Y-104035303D01*
X160479986Y-103997500D01*
X160479985Y-103997500D01*
X160322015Y-103997500D01*
X160287172Y-104006088D01*
X160274720Y-104009157D01*
X160204917Y-104006088D01*
X160147855Y-103965768D01*
X160129103Y-103932731D01*
X160119913Y-103908500D01*
X160092220Y-103835477D01*
X160090144Y-103832470D01*
X160055713Y-103782587D01*
X160002483Y-103705470D01*
X159884240Y-103600717D01*
X159884238Y-103600716D01*
X159884237Y-103600715D01*
X159744365Y-103527303D01*
X159590985Y-103489499D01*
X159586555Y-103488962D01*
X159522377Y-103461341D01*
X159483319Y-103403407D01*
X159477500Y-103365866D01*
X159477500Y-102559979D01*
X159497185Y-102492940D01*
X159549989Y-102447185D01*
X159619147Y-102437241D01*
X159633583Y-102440202D01*
G37*
%TD.AperFunction*%
%TA.AperFunction,NonConductor*%
G36*
X152189703Y-105405691D02*
G01*
X152227477Y-105464469D01*
X152228275Y-105467311D01*
X152269094Y-105619655D01*
X152269096Y-105619659D01*
X152269097Y-105619663D01*
X152337503Y-105766359D01*
X152368965Y-105833830D01*
X152368967Y-105833834D01*
X152504501Y-106027395D01*
X152504506Y-106027402D01*
X152671597Y-106194493D01*
X152671603Y-106194498D01*
X152857158Y-106324425D01*
X152900783Y-106379002D01*
X152907977Y-106448500D01*
X152876454Y-106510855D01*
X152857158Y-106527575D01*
X152671597Y-106657505D01*
X152504505Y-106824597D01*
X152368963Y-107018172D01*
X152367977Y-107019881D01*
X152367346Y-107020482D01*
X152365860Y-107022605D01*
X152365433Y-107022306D01*
X152317404Y-107068091D01*
X152248795Y-107081305D01*
X152230923Y-107078265D01*
X152097985Y-107045499D01*
X152093555Y-107044962D01*
X152029377Y-107017341D01*
X151990319Y-106959407D01*
X151984500Y-106921866D01*
X151984500Y-105499404D01*
X152004185Y-105432365D01*
X152056989Y-105386610D01*
X152126147Y-105376666D01*
X152189703Y-105405691D01*
G37*
%TD.AperFunction*%
%TA.AperFunction,NonConductor*%
G36*
X159682703Y-105795384D02*
G01*
X159689181Y-105801416D01*
X160272181Y-106384416D01*
X160305666Y-106445739D01*
X160308500Y-106472097D01*
X160308500Y-106533227D01*
X160300442Y-106577198D01*
X160272763Y-106650181D01*
X160253722Y-106806999D01*
X160253722Y-106807000D01*
X160270582Y-106945859D01*
X160259121Y-107014782D01*
X160212217Y-107066568D01*
X160177164Y-107081201D01*
X160168635Y-107083303D01*
X160168634Y-107083303D01*
X160028762Y-107156715D01*
X159910516Y-107261471D01*
X159820781Y-107391475D01*
X159820780Y-107391476D01*
X159764762Y-107539181D01*
X159745722Y-107695999D01*
X159745722Y-107696000D01*
X159764762Y-107852818D01*
X159794566Y-107931403D01*
X159820780Y-108000523D01*
X159910517Y-108130530D01*
X160028760Y-108235283D01*
X160028762Y-108235284D01*
X160168634Y-108308696D01*
X160322014Y-108346500D01*
X160322015Y-108346500D01*
X160479985Y-108346500D01*
X160633365Y-108308696D01*
X160773240Y-108235283D01*
X160891483Y-108130530D01*
X160981220Y-108000523D01*
X161037237Y-107852818D01*
X161056278Y-107696000D01*
X161052529Y-107665129D01*
X161063988Y-107596211D01*
X161110891Y-107544423D01*
X161178346Y-107526215D01*
X161244938Y-107547366D01*
X161289523Y-107601161D01*
X161291566Y-107606212D01*
X161316441Y-107671799D01*
X161324500Y-107715772D01*
X161324500Y-108665902D01*
X161304815Y-108732941D01*
X161288181Y-108753583D01*
X160636095Y-109405668D01*
X160574772Y-109439153D01*
X160505080Y-109434169D01*
X160490788Y-109427783D01*
X160379365Y-109369303D01*
X160225986Y-109331500D01*
X160225985Y-109331500D01*
X160068015Y-109331500D01*
X160068014Y-109331500D01*
X159914634Y-109369303D01*
X159774761Y-109442715D01*
X159774759Y-109442717D01*
X159683726Y-109523364D01*
X159620493Y-109553085D01*
X159551229Y-109543901D01*
X159497927Y-109498728D01*
X159477507Y-109431909D01*
X159477500Y-109430548D01*
X159477500Y-105889097D01*
X159497185Y-105822058D01*
X159549989Y-105776303D01*
X159619147Y-105766359D01*
X159682703Y-105795384D01*
G37*
%TD.AperFunction*%
%TA.AperFunction,NonConductor*%
G36*
X152300724Y-108316803D02*
G01*
X152357786Y-108357123D01*
X152367985Y-108372132D01*
X152368962Y-108373823D01*
X152368965Y-108373830D01*
X152415574Y-108440395D01*
X152504501Y-108567395D01*
X152504506Y-108567402D01*
X152671597Y-108734493D01*
X152671603Y-108734498D01*
X152857158Y-108864425D01*
X152900783Y-108919002D01*
X152907977Y-108988500D01*
X152876454Y-109050855D01*
X152857158Y-109067575D01*
X152671597Y-109197505D01*
X152504505Y-109364597D01*
X152368965Y-109558169D01*
X152368964Y-109558171D01*
X152269098Y-109772335D01*
X152269094Y-109772344D01*
X152228275Y-109924688D01*
X152191910Y-109984349D01*
X152129063Y-110014878D01*
X152059688Y-110006583D01*
X152005810Y-109962098D01*
X151984535Y-109895546D01*
X151984500Y-109892595D01*
X151984500Y-108470133D01*
X152004185Y-108403094D01*
X152056989Y-108357339D01*
X152093565Y-108347036D01*
X152097978Y-108346500D01*
X152097985Y-108346500D01*
X152230924Y-108313734D01*
X152300724Y-108316803D01*
G37*
%TD.AperFunction*%
%TA.AperFunction,NonConductor*%
G36*
X152189703Y-110485691D02*
G01*
X152227477Y-110544469D01*
X152228275Y-110547311D01*
X152269093Y-110699650D01*
X152269095Y-110699655D01*
X152269097Y-110699663D01*
X152287096Y-110738262D01*
X152368965Y-110913830D01*
X152368967Y-110913834D01*
X152504501Y-111107395D01*
X152504506Y-111107402D01*
X152671597Y-111274493D01*
X152671603Y-111274498D01*
X152857158Y-111404425D01*
X152900783Y-111459002D01*
X152907977Y-111528500D01*
X152876454Y-111590855D01*
X152857158Y-111607575D01*
X152671597Y-111737505D01*
X152504505Y-111904597D01*
X152368965Y-112098169D01*
X152368964Y-112098171D01*
X152269098Y-112312335D01*
X152269094Y-112312344D01*
X152228275Y-112464688D01*
X152191910Y-112524349D01*
X152129063Y-112554878D01*
X152059688Y-112546583D01*
X152005810Y-112502098D01*
X151984535Y-112435546D01*
X151984500Y-112432595D01*
X151984500Y-110579404D01*
X152004185Y-110512365D01*
X152056989Y-110466610D01*
X152126147Y-110456666D01*
X152189703Y-110485691D01*
G37*
%TD.AperFunction*%
%TA.AperFunction,NonConductor*%
G36*
X154940551Y-100609664D02*
G01*
X154943127Y-100611395D01*
X154948761Y-100615284D01*
X155088634Y-100688696D01*
X155242014Y-100726500D01*
X155242015Y-100726500D01*
X155399985Y-100726500D01*
X155553365Y-100688696D01*
X155554869Y-100687907D01*
X155556093Y-100687661D01*
X155560377Y-100686037D01*
X155560647Y-100686749D01*
X155623376Y-100674178D01*
X155688431Y-100699667D01*
X155729378Y-100756280D01*
X155736500Y-100797700D01*
X155736500Y-114126901D01*
X155716815Y-114193940D01*
X155700181Y-114214582D01*
X155347194Y-114567568D01*
X155317141Y-114589682D01*
X155202763Y-114649715D01*
X155202760Y-114649717D01*
X155084517Y-114754469D01*
X155020521Y-114847184D01*
X154966237Y-114891174D01*
X154896789Y-114898833D01*
X154834224Y-114867729D01*
X154806090Y-114829150D01*
X154717035Y-114638171D01*
X154676944Y-114580914D01*
X154581494Y-114444597D01*
X154414402Y-114277506D01*
X154414396Y-114277501D01*
X154228842Y-114147575D01*
X154185217Y-114092998D01*
X154178023Y-114023500D01*
X154209546Y-113961145D01*
X154228842Y-113944425D01*
X154251026Y-113928891D01*
X154414401Y-113814495D01*
X154581495Y-113647401D01*
X154717035Y-113453830D01*
X154816903Y-113239663D01*
X154878063Y-113011408D01*
X154898659Y-112776000D01*
X154878063Y-112540592D01*
X154816903Y-112312337D01*
X154717035Y-112098171D01*
X154581495Y-111904599D01*
X154581494Y-111904597D01*
X154414402Y-111737506D01*
X154414396Y-111737501D01*
X154228842Y-111607575D01*
X154185217Y-111552998D01*
X154178023Y-111483500D01*
X154209546Y-111421145D01*
X154228842Y-111404425D01*
X154251026Y-111388891D01*
X154414401Y-111274495D01*
X154581495Y-111107401D01*
X154717035Y-110913830D01*
X154816903Y-110699663D01*
X154816905Y-110699653D01*
X154816907Y-110699650D01*
X154850934Y-110572655D01*
X154878063Y-110471408D01*
X154898659Y-110236000D01*
X154878063Y-110000592D01*
X154816903Y-109772337D01*
X154717035Y-109558171D01*
X154709543Y-109547470D01*
X154581494Y-109364597D01*
X154414402Y-109197506D01*
X154414396Y-109197501D01*
X154228842Y-109067575D01*
X154185217Y-109012998D01*
X154178023Y-108943500D01*
X154209546Y-108881145D01*
X154228842Y-108864425D01*
X154251026Y-108848891D01*
X154414401Y-108734495D01*
X154581495Y-108567401D01*
X154717035Y-108373830D01*
X154816903Y-108159663D01*
X154878063Y-107931408D01*
X154898659Y-107696000D01*
X154895640Y-107661499D01*
X154887548Y-107569000D01*
X154878063Y-107460592D01*
X154816903Y-107232337D01*
X154717035Y-107018171D01*
X154675889Y-106959407D01*
X154581494Y-106824597D01*
X154414402Y-106657506D01*
X154414396Y-106657501D01*
X154228842Y-106527575D01*
X154185217Y-106472998D01*
X154178023Y-106403500D01*
X154209546Y-106341145D01*
X154228842Y-106324425D01*
X154260938Y-106301951D01*
X154414401Y-106194495D01*
X154581495Y-106027401D01*
X154717035Y-105833830D01*
X154816903Y-105619663D01*
X154878063Y-105391408D01*
X154898659Y-105156000D01*
X154878063Y-104920592D01*
X154818561Y-104698523D01*
X154816905Y-104692344D01*
X154816904Y-104692343D01*
X154816903Y-104692337D01*
X154717035Y-104478171D01*
X154658098Y-104393999D01*
X154581494Y-104284597D01*
X154414402Y-104117506D01*
X154414396Y-104117501D01*
X154228842Y-103987575D01*
X154185217Y-103932998D01*
X154178023Y-103863500D01*
X154209546Y-103801145D01*
X154228842Y-103784425D01*
X154251026Y-103768891D01*
X154414401Y-103654495D01*
X154581495Y-103487401D01*
X154717035Y-103293830D01*
X154816903Y-103079663D01*
X154878063Y-102851408D01*
X154898659Y-102616000D01*
X154878063Y-102380592D01*
X154816903Y-102152337D01*
X154717035Y-101938171D01*
X154684699Y-101891989D01*
X154581494Y-101744597D01*
X154414402Y-101577506D01*
X154414396Y-101577501D01*
X154228842Y-101447575D01*
X154185217Y-101392998D01*
X154178023Y-101323500D01*
X154209546Y-101261145D01*
X154228842Y-101244425D01*
X154297737Y-101196184D01*
X154414401Y-101114495D01*
X154581495Y-100947401D01*
X154717035Y-100753830D01*
X154760304Y-100661038D01*
X154806476Y-100608600D01*
X154873670Y-100589448D01*
X154940551Y-100609664D01*
G37*
%TD.AperFunction*%
%TA.AperFunction,NonConductor*%
G36*
X152189703Y-113025691D02*
G01*
X152227477Y-113084469D01*
X152228275Y-113087311D01*
X152269094Y-113239655D01*
X152269096Y-113239659D01*
X152269097Y-113239663D01*
X152287096Y-113278262D01*
X152368965Y-113453830D01*
X152368967Y-113453834D01*
X152504501Y-113647395D01*
X152504506Y-113647402D01*
X152671597Y-113814493D01*
X152671603Y-113814498D01*
X152857158Y-113944425D01*
X152900783Y-113999002D01*
X152907977Y-114068500D01*
X152876454Y-114130855D01*
X152857158Y-114147575D01*
X152671597Y-114277505D01*
X152504505Y-114444597D01*
X152368965Y-114638169D01*
X152368964Y-114638171D01*
X152269098Y-114852335D01*
X152269094Y-114852344D01*
X152228275Y-115004688D01*
X152191910Y-115064349D01*
X152129063Y-115094878D01*
X152059688Y-115086583D01*
X152005810Y-115042098D01*
X151984535Y-114975546D01*
X151984500Y-114972595D01*
X151984500Y-113119404D01*
X152004185Y-113052365D01*
X152056989Y-113006610D01*
X152126147Y-112996666D01*
X152189703Y-113025691D01*
G37*
%TD.AperFunction*%
%TA.AperFunction,NonConductor*%
G36*
X152189703Y-115565691D02*
G01*
X152227477Y-115624469D01*
X152228275Y-115627311D01*
X152269094Y-115779655D01*
X152269096Y-115779659D01*
X152269097Y-115779663D01*
X152297000Y-115839500D01*
X152368965Y-115993830D01*
X152368967Y-115993834D01*
X152504501Y-116187395D01*
X152504506Y-116187402D01*
X152671597Y-116354493D01*
X152671603Y-116354498D01*
X152857158Y-116484425D01*
X152900783Y-116539002D01*
X152907977Y-116608500D01*
X152876454Y-116670855D01*
X152857158Y-116687575D01*
X152671597Y-116817505D01*
X152504505Y-116984597D01*
X152368965Y-117178169D01*
X152368964Y-117178171D01*
X152269098Y-117392335D01*
X152269094Y-117392344D01*
X152228275Y-117544688D01*
X152191910Y-117604349D01*
X152129063Y-117634878D01*
X152059688Y-117626583D01*
X152005810Y-117582098D01*
X151984535Y-117515546D01*
X151984500Y-117512595D01*
X151984500Y-115659404D01*
X152004185Y-115592365D01*
X152056989Y-115546610D01*
X152126147Y-115536666D01*
X152189703Y-115565691D01*
G37*
%TD.AperFunction*%
%TA.AperFunction,NonConductor*%
G36*
X152189703Y-118105691D02*
G01*
X152227477Y-118164469D01*
X152228275Y-118167311D01*
X152269094Y-118319655D01*
X152269096Y-118319659D01*
X152269097Y-118319663D01*
X152303676Y-118393818D01*
X152368965Y-118533830D01*
X152368967Y-118533834D01*
X152415579Y-118600402D01*
X152500248Y-118721322D01*
X152504501Y-118727395D01*
X152504506Y-118727402D01*
X152671597Y-118894493D01*
X152671603Y-118894498D01*
X152857158Y-119024425D01*
X152900783Y-119079002D01*
X152907977Y-119148500D01*
X152876454Y-119210855D01*
X152857158Y-119227575D01*
X152671597Y-119357505D01*
X152504505Y-119524597D01*
X152368965Y-119718169D01*
X152368964Y-119718171D01*
X152269098Y-119932335D01*
X152269094Y-119932344D01*
X152228275Y-120084688D01*
X152191910Y-120144349D01*
X152129063Y-120174878D01*
X152059688Y-120166583D01*
X152005810Y-120122098D01*
X151984535Y-120055546D01*
X151984500Y-120052595D01*
X151984500Y-118199404D01*
X152004185Y-118132365D01*
X152056989Y-118086610D01*
X152126147Y-118076666D01*
X152189703Y-118105691D01*
G37*
%TD.AperFunction*%
%TA.AperFunction,NonConductor*%
G36*
X152189703Y-120645691D02*
G01*
X152227477Y-120704469D01*
X152228275Y-120707311D01*
X152269094Y-120859655D01*
X152269096Y-120859659D01*
X152269097Y-120859663D01*
X152300106Y-120926161D01*
X152368965Y-121073830D01*
X152368967Y-121073834D01*
X152504501Y-121267395D01*
X152504506Y-121267402D01*
X152671597Y-121434493D01*
X152671603Y-121434498D01*
X152857158Y-121564425D01*
X152900783Y-121619002D01*
X152907977Y-121688500D01*
X152876454Y-121750855D01*
X152857158Y-121767575D01*
X152671597Y-121897505D01*
X152504505Y-122064597D01*
X152368965Y-122258169D01*
X152368964Y-122258171D01*
X152269098Y-122472335D01*
X152267243Y-122477431D01*
X152265557Y-122476817D01*
X152233338Y-122529632D01*
X152170479Y-122560137D01*
X152101107Y-122551815D01*
X152047246Y-122507309D01*
X152026868Y-122452793D01*
X152020237Y-122398182D01*
X152011244Y-122374470D01*
X151992558Y-122325198D01*
X151984500Y-122281227D01*
X151984500Y-120739404D01*
X152004185Y-120672365D01*
X152056989Y-120626610D01*
X152126147Y-120616666D01*
X152189703Y-120645691D01*
G37*
%TD.AperFunction*%
%TA.AperFunction,NonConductor*%
G36*
X165246022Y-119751998D02*
G01*
X165283436Y-119777671D01*
X165479181Y-119973416D01*
X165512666Y-120034739D01*
X165515500Y-120061097D01*
X165515500Y-125239682D01*
X165495815Y-125306721D01*
X165443011Y-125352476D01*
X165421176Y-125360079D01*
X165375632Y-125371304D01*
X165235762Y-125444715D01*
X165117516Y-125549471D01*
X165027781Y-125679475D01*
X165027780Y-125679476D01*
X164971762Y-125827181D01*
X164952722Y-125983999D01*
X164952722Y-125984000D01*
X164971762Y-126140818D01*
X165027780Y-126288523D01*
X165117517Y-126418530D01*
X165235760Y-126523283D01*
X165375635Y-126596696D01*
X165421175Y-126607920D01*
X165481554Y-126643073D01*
X165513344Y-126705292D01*
X165515500Y-126728316D01*
X165515500Y-128183299D01*
X165495815Y-128250338D01*
X165443011Y-128296093D01*
X165373853Y-128306037D01*
X165339405Y-128294886D01*
X165339377Y-128294963D01*
X165337840Y-128294380D01*
X165333879Y-128293098D01*
X165332365Y-128292303D01*
X165178986Y-128254500D01*
X165178985Y-128254500D01*
X165021015Y-128254500D01*
X165021014Y-128254500D01*
X164867634Y-128292303D01*
X164860623Y-128294963D01*
X164859930Y-128293137D01*
X164813834Y-128304500D01*
X164808500Y-128304500D01*
X164741461Y-128284815D01*
X164695706Y-128232011D01*
X164684500Y-128180500D01*
X164684500Y-120027133D01*
X164704185Y-119960094D01*
X164756989Y-119914339D01*
X164793565Y-119904036D01*
X164797980Y-119903500D01*
X164797985Y-119903500D01*
X164951365Y-119865696D01*
X164953983Y-119864322D01*
X165091237Y-119792285D01*
X165091238Y-119792283D01*
X165091240Y-119792283D01*
X165113529Y-119772536D01*
X165176758Y-119742816D01*
X165246022Y-119751998D01*
G37*
%TD.AperFunction*%
%TA.AperFunction,NonConductor*%
G36*
X150311703Y-94207657D02*
G01*
X150312689Y-94208521D01*
X150324859Y-94219303D01*
X150376759Y-94265282D01*
X150376761Y-94265284D01*
X150516634Y-94338696D01*
X150661706Y-94374452D01*
X150670015Y-94376500D01*
X150670019Y-94376500D01*
X150674435Y-94377036D01*
X150738616Y-94404651D01*
X150777677Y-94462582D01*
X150783500Y-94500133D01*
X150783500Y-122281227D01*
X150775442Y-122325198D01*
X150747763Y-122398181D01*
X150728722Y-122554999D01*
X150728722Y-122555000D01*
X150747762Y-122711818D01*
X150797597Y-122843219D01*
X150803780Y-122859523D01*
X150893517Y-122989530D01*
X151011760Y-123094283D01*
X151011762Y-123094284D01*
X151151634Y-123167696D01*
X151305014Y-123205500D01*
X151305015Y-123205500D01*
X151462985Y-123205500D01*
X151616365Y-123167696D01*
X151756240Y-123094283D01*
X151874483Y-122989530D01*
X151961291Y-122863765D01*
X152015574Y-122819776D01*
X152085022Y-122812116D01*
X152147587Y-122843219D01*
X152183404Y-122903210D01*
X152187341Y-122934206D01*
X152187341Y-122936000D01*
X152207936Y-123171403D01*
X152207938Y-123171413D01*
X152269094Y-123399655D01*
X152269096Y-123399659D01*
X152269097Y-123399663D01*
X152297000Y-123459500D01*
X152368965Y-123613830D01*
X152368967Y-123613834D01*
X152504501Y-123807395D01*
X152504506Y-123807402D01*
X152671597Y-123974493D01*
X152671603Y-123974498D01*
X152857158Y-124104425D01*
X152900783Y-124159002D01*
X152907977Y-124228500D01*
X152876454Y-124290855D01*
X152857158Y-124307575D01*
X152671597Y-124437505D01*
X152504505Y-124604597D01*
X152368965Y-124798169D01*
X152368964Y-124798171D01*
X152269098Y-125012335D01*
X152269094Y-125012344D01*
X152207938Y-125240586D01*
X152207936Y-125240596D01*
X152187341Y-125475999D01*
X152187341Y-125476000D01*
X152207936Y-125711403D01*
X152207938Y-125711413D01*
X152269094Y-125939655D01*
X152269096Y-125939659D01*
X152269097Y-125939663D01*
X152334961Y-126080908D01*
X152368965Y-126153830D01*
X152368967Y-126153834D01*
X152504501Y-126347395D01*
X152504506Y-126347402D01*
X152671597Y-126514493D01*
X152671603Y-126514498D01*
X152857158Y-126644425D01*
X152900783Y-126699002D01*
X152907977Y-126768500D01*
X152876454Y-126830855D01*
X152857158Y-126847575D01*
X152671597Y-126977505D01*
X152504505Y-127144597D01*
X152368965Y-127338169D01*
X152368964Y-127338171D01*
X152269098Y-127552335D01*
X152269094Y-127552344D01*
X152207938Y-127780586D01*
X152207936Y-127780596D01*
X152187341Y-128015999D01*
X152187341Y-128016000D01*
X152207936Y-128251403D01*
X152207938Y-128251413D01*
X152269094Y-128479655D01*
X152269096Y-128479659D01*
X152269097Y-128479663D01*
X152348993Y-128650999D01*
X152368965Y-128693830D01*
X152368967Y-128693834D01*
X152504501Y-128887395D01*
X152504506Y-128887402D01*
X152671597Y-129054493D01*
X152671603Y-129054498D01*
X152857158Y-129184425D01*
X152900783Y-129239002D01*
X152907977Y-129308500D01*
X152876454Y-129370855D01*
X152857158Y-129387575D01*
X152671597Y-129517505D01*
X152504505Y-129684597D01*
X152368965Y-129878169D01*
X152368964Y-129878171D01*
X152269098Y-130092335D01*
X152269094Y-130092344D01*
X152207938Y-130320586D01*
X152207936Y-130320596D01*
X152187341Y-130555999D01*
X152187341Y-130556000D01*
X152207936Y-130791403D01*
X152207938Y-130791413D01*
X152269094Y-131019655D01*
X152269096Y-131019659D01*
X152269097Y-131019663D01*
X152347944Y-131188751D01*
X152368965Y-131233830D01*
X152368967Y-131233834D01*
X152415579Y-131300402D01*
X152504505Y-131427401D01*
X152671599Y-131594495D01*
X152768384Y-131662265D01*
X152865165Y-131730032D01*
X152865167Y-131730033D01*
X152865170Y-131730035D01*
X153079337Y-131829903D01*
X153307592Y-131891063D01*
X153495918Y-131907539D01*
X153542999Y-131911659D01*
X153543000Y-131911659D01*
X153543001Y-131911659D01*
X153582234Y-131908226D01*
X153778408Y-131891063D01*
X154006663Y-131829903D01*
X154220830Y-131730035D01*
X154327216Y-131655543D01*
X159017499Y-131655543D01*
X159055947Y-131848829D01*
X159055950Y-131848839D01*
X159131364Y-132030907D01*
X159131371Y-132030920D01*
X159240860Y-132194781D01*
X159240863Y-132194785D01*
X159380214Y-132334136D01*
X159380218Y-132334139D01*
X159544079Y-132443628D01*
X159544092Y-132443635D01*
X159658880Y-132491181D01*
X159726165Y-132519051D01*
X159726169Y-132519051D01*
X159726170Y-132519052D01*
X159919456Y-132557500D01*
X159919459Y-132557500D01*
X160116543Y-132557500D01*
X160246582Y-132531632D01*
X160309835Y-132519051D01*
X160491914Y-132443632D01*
X160655782Y-132334139D01*
X160795139Y-132194782D01*
X160815241Y-132164696D01*
X160868852Y-132119891D01*
X160938177Y-132111182D01*
X161001205Y-132141336D01*
X161006025Y-132145905D01*
X161094635Y-132234515D01*
X161225865Y-132310281D01*
X161372234Y-132349500D01*
X161372236Y-132349500D01*
X161523764Y-132349500D01*
X161523766Y-132349500D01*
X161670135Y-132310281D01*
X161801365Y-132234515D01*
X161908515Y-132127365D01*
X161984281Y-131996135D01*
X162023500Y-131849766D01*
X162023500Y-131698234D01*
X161984281Y-131551865D01*
X161908515Y-131420635D01*
X161801365Y-131313485D01*
X161718087Y-131265404D01*
X161670136Y-131237719D01*
X161565584Y-131209705D01*
X161523766Y-131198500D01*
X161372234Y-131198500D01*
X161225862Y-131237719D01*
X161204499Y-131250054D01*
X161136598Y-131266525D01*
X161070572Y-131243673D01*
X161027382Y-131188751D01*
X161018500Y-131142666D01*
X161018500Y-130358456D01*
X160980052Y-130165170D01*
X160980051Y-130165169D01*
X160980051Y-130165165D01*
X160949884Y-130092335D01*
X160904635Y-129983092D01*
X160904628Y-129983079D01*
X160795139Y-129819218D01*
X160795136Y-129819214D01*
X160655785Y-129679863D01*
X160655781Y-129679860D01*
X160491920Y-129570371D01*
X160491907Y-129570364D01*
X160309839Y-129494950D01*
X160309829Y-129494947D01*
X160116543Y-129456500D01*
X160116541Y-129456500D01*
X159919459Y-129456500D01*
X159919457Y-129456500D01*
X159726170Y-129494947D01*
X159726160Y-129494950D01*
X159544092Y-129570364D01*
X159544079Y-129570371D01*
X159380218Y-129679860D01*
X159380214Y-129679863D01*
X159240863Y-129819214D01*
X159240860Y-129819218D01*
X159131371Y-129983079D01*
X159131364Y-129983092D01*
X159055950Y-130165160D01*
X159055947Y-130165170D01*
X159017500Y-130358456D01*
X159017500Y-130358459D01*
X159017500Y-131655541D01*
X159017500Y-131655543D01*
X159017499Y-131655543D01*
X154327216Y-131655543D01*
X154414401Y-131594495D01*
X154581495Y-131427401D01*
X154717035Y-131233830D01*
X154816903Y-131019663D01*
X154878063Y-130791408D01*
X154898659Y-130556000D01*
X154878063Y-130320592D01*
X154816903Y-130092337D01*
X154717035Y-129878171D01*
X154675564Y-129818943D01*
X154581494Y-129684597D01*
X154414402Y-129517506D01*
X154414396Y-129517501D01*
X154228842Y-129387575D01*
X154185217Y-129332998D01*
X154178023Y-129263500D01*
X154209546Y-129201145D01*
X154228842Y-129184425D01*
X154260938Y-129161951D01*
X154414401Y-129054495D01*
X154581495Y-128887401D01*
X154717035Y-128693830D01*
X154816903Y-128479663D01*
X154878063Y-128251408D01*
X154898659Y-128016000D01*
X154878063Y-127780592D01*
X154816903Y-127552337D01*
X154717035Y-127338171D01*
X154710614Y-127329000D01*
X154581494Y-127144597D01*
X154414402Y-126977506D01*
X154414396Y-126977501D01*
X154228842Y-126847575D01*
X154185217Y-126792998D01*
X154178023Y-126723500D01*
X154209546Y-126661145D01*
X154228842Y-126644425D01*
X154251026Y-126628891D01*
X154396349Y-126527135D01*
X155499500Y-126527135D01*
X155499500Y-128130870D01*
X155499501Y-128130876D01*
X155505908Y-128190483D01*
X155556202Y-128325328D01*
X155556206Y-128325335D01*
X155642452Y-128440544D01*
X155642455Y-128440547D01*
X155757664Y-128526793D01*
X155757671Y-128526797D01*
X155892517Y-128577091D01*
X155892516Y-128577091D01*
X155899444Y-128577835D01*
X155952127Y-128583500D01*
X157555872Y-128583499D01*
X157615483Y-128577091D01*
X157750331Y-128526796D01*
X157865546Y-128440546D01*
X157951796Y-128325331D01*
X158002091Y-128190483D01*
X158008500Y-128130873D01*
X158008499Y-127328997D01*
X159994708Y-127328997D01*
X159994708Y-127329002D01*
X160008388Y-127485374D01*
X160013839Y-127547674D01*
X160070653Y-127759703D01*
X160070654Y-127759706D01*
X160070655Y-127759708D01*
X160163419Y-127958642D01*
X160163423Y-127958650D01*
X160289322Y-128138452D01*
X160289326Y-128138457D01*
X160444543Y-128293674D01*
X160490566Y-128325899D01*
X160534191Y-128380474D01*
X160541385Y-128449973D01*
X160535386Y-128471443D01*
X160526762Y-128494181D01*
X160507722Y-128650999D01*
X160507722Y-128651000D01*
X160526762Y-128807818D01*
X160582780Y-128955523D01*
X160672517Y-129085530D01*
X160790760Y-129190283D01*
X160790762Y-129190284D01*
X160930634Y-129263696D01*
X161084014Y-129301500D01*
X161084015Y-129301500D01*
X161241985Y-129301500D01*
X161395365Y-129263696D01*
X161402925Y-129259728D01*
X161535240Y-129190283D01*
X161653483Y-129085530D01*
X161743220Y-128955523D01*
X161799237Y-128807818D01*
X161818278Y-128651000D01*
X161809304Y-128577091D01*
X161806031Y-128550135D01*
X161817492Y-128481212D01*
X161864395Y-128429426D01*
X161876714Y-128422810D01*
X161883646Y-128419579D01*
X162063457Y-128293674D01*
X162218674Y-128138457D01*
X162344579Y-127958646D01*
X162437347Y-127759703D01*
X162494161Y-127547674D01*
X162513292Y-127329000D01*
X162494161Y-127110326D01*
X162437347Y-126898297D01*
X162344579Y-126699354D01*
X162344577Y-126699351D01*
X162344576Y-126699349D01*
X162218677Y-126519547D01*
X162218672Y-126519541D01*
X162063458Y-126364327D01*
X162063452Y-126364322D01*
X161883650Y-126238423D01*
X161883642Y-126238419D01*
X161684708Y-126145655D01*
X161684706Y-126145654D01*
X161684703Y-126145653D01*
X161533885Y-126105240D01*
X161472675Y-126088839D01*
X161472668Y-126088838D01*
X161254002Y-126069708D01*
X161253998Y-126069708D01*
X161035331Y-126088838D01*
X161035324Y-126088839D01*
X160912902Y-126121642D01*
X160823297Y-126145653D01*
X160823295Y-126145653D01*
X160823291Y-126145655D01*
X160624357Y-126238419D01*
X160624349Y-126238423D01*
X160444547Y-126364322D01*
X160444541Y-126364327D01*
X160289327Y-126519541D01*
X160289322Y-126519547D01*
X160163423Y-126699349D01*
X160163419Y-126699357D01*
X160070655Y-126898291D01*
X160013839Y-127110324D01*
X160013838Y-127110331D01*
X159994708Y-127328997D01*
X158008499Y-127328997D01*
X158008499Y-126527128D01*
X158002091Y-126467517D01*
X157983819Y-126418528D01*
X157951797Y-126332671D01*
X157951793Y-126332664D01*
X157865547Y-126217455D01*
X157865544Y-126217452D01*
X157750335Y-126131206D01*
X157750328Y-126131202D01*
X157615482Y-126080908D01*
X157615484Y-126080908D01*
X157570715Y-126076095D01*
X157506164Y-126049356D01*
X157466317Y-125991963D01*
X157463824Y-125922138D01*
X157481918Y-125882372D01*
X157552220Y-125780523D01*
X157608237Y-125632818D01*
X157627278Y-125476000D01*
X157611858Y-125348999D01*
X157608237Y-125319181D01*
X157578432Y-125240592D01*
X157552220Y-125171477D01*
X157462483Y-125041470D01*
X157344240Y-124936717D01*
X157344238Y-124936716D01*
X157344237Y-124936715D01*
X157204365Y-124863303D01*
X157050986Y-124825500D01*
X157050985Y-124825500D01*
X156893015Y-124825500D01*
X156893014Y-124825500D01*
X156739634Y-124863303D01*
X156599762Y-124936715D01*
X156481516Y-125041471D01*
X156391781Y-125171475D01*
X156391780Y-125171476D01*
X156335762Y-125319181D01*
X156316722Y-125475999D01*
X156316722Y-125476000D01*
X156335762Y-125632818D01*
X156391780Y-125780523D01*
X156391781Y-125780524D01*
X156460485Y-125880060D01*
X156482368Y-125946415D01*
X156464902Y-126014066D01*
X156413635Y-126061536D01*
X156358435Y-126074500D01*
X155952129Y-126074500D01*
X155952123Y-126074501D01*
X155892516Y-126080908D01*
X155757671Y-126131202D01*
X155757664Y-126131206D01*
X155642455Y-126217452D01*
X155642452Y-126217455D01*
X155556206Y-126332664D01*
X155556202Y-126332671D01*
X155505908Y-126467517D01*
X155500315Y-126519543D01*
X155499501Y-126527123D01*
X155499500Y-126527135D01*
X154396349Y-126527135D01*
X154414401Y-126514495D01*
X154581495Y-126347401D01*
X154717035Y-126153830D01*
X154816903Y-125939663D01*
X154878063Y-125711408D01*
X154898659Y-125476000D01*
X154878063Y-125240592D01*
X154816903Y-125012337D01*
X154717035Y-124798171D01*
X154581495Y-124604599D01*
X154581494Y-124604597D01*
X154414402Y-124437506D01*
X154414396Y-124437501D01*
X154228842Y-124307575D01*
X154185217Y-124252998D01*
X154178023Y-124183500D01*
X154209546Y-124121145D01*
X154228842Y-124104425D01*
X154251026Y-124088891D01*
X154414401Y-123974495D01*
X154581495Y-123807401D01*
X154717035Y-123613830D01*
X154816903Y-123399663D01*
X154878063Y-123171408D01*
X154898659Y-122936000D01*
X154878063Y-122700592D01*
X154818268Y-122477431D01*
X154816905Y-122472344D01*
X154816904Y-122472343D01*
X154816903Y-122472337D01*
X154717035Y-122258171D01*
X154673716Y-122196304D01*
X154581494Y-122064597D01*
X154414402Y-121897506D01*
X154414396Y-121897501D01*
X154228842Y-121767575D01*
X154185217Y-121712998D01*
X154178023Y-121643500D01*
X154209546Y-121581145D01*
X154228842Y-121564425D01*
X154251026Y-121548891D01*
X154414401Y-121434495D01*
X154581495Y-121267401D01*
X154717035Y-121073830D01*
X154816903Y-120859663D01*
X154825120Y-120828997D01*
X155494708Y-120828997D01*
X155494708Y-120829002D01*
X155513838Y-121047668D01*
X155513839Y-121047675D01*
X155520849Y-121073834D01*
X155570653Y-121259703D01*
X155570654Y-121259706D01*
X155570655Y-121259708D01*
X155663419Y-121458642D01*
X155663423Y-121458650D01*
X155789322Y-121638452D01*
X155789327Y-121638458D01*
X155944541Y-121793672D01*
X155944547Y-121793677D01*
X156124349Y-121919576D01*
X156124351Y-121919577D01*
X156124354Y-121919579D01*
X156323297Y-122012347D01*
X156535326Y-122069161D01*
X156691521Y-122082826D01*
X156753998Y-122088292D01*
X156754000Y-122088292D01*
X156754002Y-122088292D01*
X156808668Y-122083509D01*
X156972674Y-122069161D01*
X157065339Y-122044331D01*
X157135188Y-122045993D01*
X157193051Y-122085154D01*
X157220556Y-122149383D01*
X157220529Y-122179051D01*
X157205722Y-122300999D01*
X157205722Y-122301000D01*
X157224762Y-122457818D01*
X157280780Y-122605523D01*
X157370517Y-122735530D01*
X157488760Y-122840283D01*
X157488762Y-122840284D01*
X157628634Y-122913696D01*
X157782014Y-122951500D01*
X157782015Y-122951500D01*
X157939985Y-122951500D01*
X158093365Y-122913696D01*
X158188497Y-122863766D01*
X158233240Y-122840283D01*
X158351483Y-122735530D01*
X158441220Y-122605523D01*
X158497237Y-122457818D01*
X158516278Y-122301000D01*
X158497237Y-122144182D01*
X158469558Y-122071198D01*
X158461500Y-122027227D01*
X158461500Y-117014945D01*
X158461500Y-117014943D01*
X158420577Y-116862216D01*
X158417910Y-116857597D01*
X158341524Y-116725290D01*
X158341521Y-116725286D01*
X158341520Y-116725284D01*
X158229716Y-116613480D01*
X158229715Y-116613479D01*
X158225385Y-116609149D01*
X158225374Y-116609139D01*
X157973735Y-116357500D01*
X157945473Y-116313786D01*
X157933222Y-116281482D01*
X157933220Y-116281477D01*
X157895959Y-116227495D01*
X157843483Y-116151470D01*
X157725240Y-116046717D01*
X157725238Y-116046716D01*
X157725237Y-116046715D01*
X157585365Y-115973303D01*
X157431986Y-115935500D01*
X157431985Y-115935500D01*
X157274015Y-115935500D01*
X157274014Y-115935500D01*
X157120634Y-115973303D01*
X156980762Y-116046715D01*
X156862516Y-116151471D01*
X156772781Y-116281475D01*
X156772780Y-116281476D01*
X156716762Y-116429181D01*
X156697722Y-116585999D01*
X156697722Y-116586000D01*
X156716762Y-116742818D01*
X156772780Y-116890523D01*
X156862517Y-117020530D01*
X156980760Y-117125283D01*
X157095145Y-117185317D01*
X157125194Y-117207429D01*
X157224181Y-117306416D01*
X157257666Y-117367739D01*
X157260500Y-117394097D01*
X157260500Y-119504362D01*
X157240815Y-119571401D01*
X157188011Y-119617156D01*
X157118853Y-119627100D01*
X157104406Y-119624137D01*
X156972675Y-119588839D01*
X156972668Y-119588838D01*
X156754002Y-119569708D01*
X156753998Y-119569708D01*
X156535331Y-119588838D01*
X156535324Y-119588839D01*
X156429647Y-119617156D01*
X156323297Y-119645653D01*
X156323295Y-119645653D01*
X156323291Y-119645655D01*
X156124357Y-119738419D01*
X156124349Y-119738423D01*
X155944547Y-119864322D01*
X155944541Y-119864327D01*
X155789327Y-120019541D01*
X155789322Y-120019547D01*
X155663423Y-120199349D01*
X155663419Y-120199357D01*
X155570655Y-120398291D01*
X155570653Y-120398295D01*
X155570653Y-120398297D01*
X155546642Y-120487902D01*
X155513839Y-120610324D01*
X155513838Y-120610331D01*
X155494708Y-120828997D01*
X154825120Y-120828997D01*
X154878063Y-120631408D01*
X154898659Y-120396000D01*
X154878063Y-120160592D01*
X154816903Y-119932337D01*
X154717035Y-119718171D01*
X154700905Y-119695134D01*
X154581494Y-119524597D01*
X154414402Y-119357506D01*
X154414396Y-119357501D01*
X154228842Y-119227575D01*
X154185217Y-119172998D01*
X154178023Y-119103500D01*
X154209546Y-119041145D01*
X154228842Y-119024425D01*
X154251026Y-119008891D01*
X154414401Y-118894495D01*
X154581495Y-118727401D01*
X154717035Y-118533830D01*
X154816903Y-118319663D01*
X154878063Y-118091408D01*
X154898659Y-117856000D01*
X154878063Y-117620592D01*
X154816903Y-117392337D01*
X154717035Y-117178171D01*
X154713455Y-117173057D01*
X154581494Y-116984597D01*
X154414402Y-116817506D01*
X154414396Y-116817501D01*
X154228842Y-116687575D01*
X154185217Y-116632998D01*
X154178023Y-116563500D01*
X154209546Y-116501145D01*
X154228842Y-116484425D01*
X154251026Y-116468891D01*
X154414401Y-116354495D01*
X154581495Y-116187401D01*
X154717035Y-115993830D01*
X154816903Y-115779663D01*
X154852442Y-115647026D01*
X154888806Y-115587367D01*
X154951653Y-115556837D01*
X155021029Y-115565131D01*
X155074267Y-115608680D01*
X155084515Y-115623528D01*
X155084517Y-115623530D01*
X155202760Y-115728283D01*
X155202762Y-115728284D01*
X155342634Y-115801696D01*
X155496014Y-115839500D01*
X155496015Y-115839500D01*
X155653985Y-115839500D01*
X155807365Y-115801696D01*
X155849360Y-115779655D01*
X155947240Y-115728283D01*
X156065483Y-115623530D01*
X156155220Y-115493523D01*
X156167474Y-115461209D01*
X156195734Y-115417499D01*
X156608329Y-115004905D01*
X156669651Y-114971421D01*
X156739343Y-114976405D01*
X156795276Y-115018277D01*
X156798059Y-115022147D01*
X156827189Y-115064349D01*
X156862517Y-115115530D01*
X156980760Y-115220283D01*
X156980762Y-115220284D01*
X157120634Y-115293696D01*
X157274014Y-115331500D01*
X157274015Y-115331500D01*
X157431985Y-115331500D01*
X157585365Y-115293696D01*
X157725240Y-115220283D01*
X157843483Y-115115530D01*
X157933220Y-114985523D01*
X157989237Y-114837818D01*
X158008278Y-114681000D01*
X158003078Y-114638169D01*
X157989237Y-114524181D01*
X157959054Y-114444597D01*
X157933220Y-114376477D01*
X157843483Y-114246470D01*
X157725240Y-114141717D01*
X157725238Y-114141716D01*
X157725237Y-114141715D01*
X157585365Y-114068303D01*
X157431986Y-114030500D01*
X157431985Y-114030500D01*
X157274015Y-114030500D01*
X157274014Y-114030500D01*
X157120634Y-114068303D01*
X157119121Y-114069098D01*
X157117890Y-114069344D01*
X157113623Y-114070963D01*
X157113353Y-114070253D01*
X157050612Y-114082820D01*
X156985560Y-114057325D01*
X156944618Y-114000707D01*
X156937500Y-113959299D01*
X156937500Y-110256044D01*
X156957185Y-110189005D01*
X157009989Y-110143250D01*
X157079147Y-110133306D01*
X157119122Y-110146246D01*
X157200591Y-110189005D01*
X157252417Y-110216206D01*
X157302629Y-110264791D01*
X157318010Y-110312118D01*
X157329630Y-110415250D01*
X157329631Y-110415254D01*
X157389211Y-110585523D01*
X157460931Y-110699664D01*
X157485184Y-110738262D01*
X157612738Y-110865816D01*
X157765478Y-110961789D01*
X157868963Y-110998000D01*
X157935745Y-111021368D01*
X157935750Y-111021369D01*
X158114996Y-111041565D01*
X158115000Y-111041565D01*
X158115001Y-111041565D01*
X158124039Y-111040546D01*
X158138615Y-111038904D01*
X158207437Y-111050958D01*
X158258817Y-111098306D01*
X158276500Y-111162124D01*
X158276500Y-112193587D01*
X158256815Y-112260626D01*
X158249450Y-112270896D01*
X158247186Y-112273734D01*
X158151211Y-112426476D01*
X158091631Y-112596745D01*
X158091630Y-112596750D01*
X158071435Y-112775996D01*
X158071435Y-112776003D01*
X158091630Y-112955249D01*
X158091631Y-112955254D01*
X158151211Y-113125523D01*
X158222931Y-113239664D01*
X158247184Y-113278262D01*
X158374738Y-113405816D01*
X158527478Y-113501789D01*
X158697739Y-113561366D01*
X158697745Y-113561368D01*
X158697750Y-113561369D01*
X158876996Y-113581565D01*
X158877000Y-113581565D01*
X158877004Y-113581565D01*
X159056249Y-113561369D01*
X159056251Y-113561368D01*
X159056255Y-113561368D01*
X159056258Y-113561366D01*
X159056262Y-113561366D01*
X159127545Y-113536423D01*
X159197323Y-113532860D01*
X159257951Y-113567589D01*
X159290179Y-113629582D01*
X159292500Y-113653464D01*
X159292500Y-119868227D01*
X159284442Y-119912198D01*
X159256763Y-119985181D01*
X159237722Y-120141999D01*
X159237722Y-120142000D01*
X159256762Y-120298818D01*
X159293619Y-120396000D01*
X159312780Y-120446523D01*
X159402517Y-120576530D01*
X159520760Y-120681283D01*
X159520762Y-120681284D01*
X159660634Y-120754696D01*
X159814014Y-120792500D01*
X159877890Y-120792500D01*
X159944929Y-120812185D01*
X159990684Y-120864989D01*
X160001417Y-120905690D01*
X160004882Y-120945292D01*
X160013838Y-121047668D01*
X160013839Y-121047675D01*
X160020849Y-121073834D01*
X160070653Y-121259703D01*
X160070654Y-121259706D01*
X160070655Y-121259708D01*
X160163419Y-121458642D01*
X160163423Y-121458650D01*
X160289322Y-121638452D01*
X160289327Y-121638458D01*
X160444541Y-121793672D01*
X160444547Y-121793677D01*
X160624349Y-121919576D01*
X160624351Y-121919577D01*
X160624354Y-121919579D01*
X160823297Y-122012347D01*
X161035326Y-122069161D01*
X161191521Y-122082826D01*
X161253998Y-122088292D01*
X161254000Y-122088292D01*
X161254002Y-122088292D01*
X161308668Y-122083509D01*
X161472674Y-122069161D01*
X161684703Y-122012347D01*
X161883646Y-121919579D01*
X162063457Y-121793674D01*
X162218674Y-121638457D01*
X162344579Y-121458646D01*
X162437347Y-121259703D01*
X162494161Y-121047674D01*
X162509762Y-120869344D01*
X162513292Y-120829002D01*
X162513292Y-120828997D01*
X162500369Y-120681283D01*
X162494161Y-120610326D01*
X162437347Y-120398297D01*
X162344579Y-120199354D01*
X162344577Y-120199351D01*
X162344576Y-120199349D01*
X162218677Y-120019547D01*
X162218672Y-120019541D01*
X162063458Y-119864327D01*
X162063452Y-119864322D01*
X161883650Y-119738423D01*
X161883642Y-119738419D01*
X161684708Y-119645655D01*
X161684706Y-119645654D01*
X161684703Y-119645653D01*
X161532233Y-119604798D01*
X161472675Y-119588839D01*
X161472668Y-119588838D01*
X161254002Y-119569708D01*
X161253998Y-119569708D01*
X161035331Y-119588838D01*
X161035324Y-119588839D01*
X160929647Y-119617156D01*
X160823297Y-119645653D01*
X160823295Y-119645653D01*
X160823291Y-119645655D01*
X160669904Y-119717180D01*
X160600827Y-119727672D01*
X160537043Y-119699152D01*
X160498804Y-119640675D01*
X160493500Y-119604798D01*
X160493500Y-111298096D01*
X160513185Y-111231057D01*
X160529814Y-111210420D01*
X162255819Y-109484414D01*
X162317142Y-109450930D01*
X162386834Y-109455914D01*
X162442767Y-109497786D01*
X162467184Y-109563250D01*
X162467500Y-109572096D01*
X162467500Y-117963227D01*
X162459442Y-118007198D01*
X162431763Y-118080181D01*
X162412722Y-118236999D01*
X162412722Y-118237000D01*
X162431762Y-118393818D01*
X162473039Y-118502655D01*
X162487780Y-118541523D01*
X162577517Y-118671530D01*
X162695760Y-118776283D01*
X162695762Y-118776284D01*
X162835634Y-118849696D01*
X162989014Y-118887500D01*
X162989015Y-118887500D01*
X163146985Y-118887500D01*
X163300365Y-118849696D01*
X163301869Y-118848907D01*
X163303093Y-118848661D01*
X163307377Y-118847037D01*
X163307647Y-118847749D01*
X163370376Y-118835178D01*
X163435431Y-118860667D01*
X163476378Y-118917280D01*
X163483500Y-118958700D01*
X163483500Y-128414682D01*
X163463815Y-128481721D01*
X163411011Y-128527476D01*
X163389176Y-128535079D01*
X163343632Y-128546304D01*
X163203762Y-128619715D01*
X163085516Y-128724471D01*
X162995781Y-128854475D01*
X162995780Y-128854476D01*
X162939762Y-129002181D01*
X162920722Y-129158999D01*
X162920722Y-129159000D01*
X162939762Y-129315818D01*
X162995780Y-129463523D01*
X163085517Y-129593530D01*
X163203760Y-129698283D01*
X163343635Y-129771696D01*
X163373505Y-129779058D01*
X163433883Y-129814211D01*
X163459771Y-129855482D01*
X163503780Y-129971523D01*
X163593517Y-130101530D01*
X163711760Y-130206283D01*
X163711762Y-130206284D01*
X163851634Y-130279696D01*
X164005014Y-130317500D01*
X164005015Y-130317500D01*
X164162985Y-130317500D01*
X164316365Y-130279696D01*
X164456240Y-130206283D01*
X164574483Y-130101530D01*
X164664220Y-129971523D01*
X164720237Y-129823818D01*
X164739278Y-129667000D01*
X164738284Y-129658815D01*
X164749741Y-129589893D01*
X164796643Y-129538105D01*
X164864098Y-129519895D01*
X164891052Y-129523467D01*
X165021015Y-129555500D01*
X165178985Y-129555500D01*
X165339649Y-129515901D01*
X165340268Y-129518413D01*
X165397618Y-129513971D01*
X165459138Y-129547094D01*
X165487917Y-129591319D01*
X165535780Y-129717523D01*
X165625517Y-129847530D01*
X165743760Y-129952283D01*
X165743762Y-129952284D01*
X165883634Y-130025696D01*
X166037014Y-130063500D01*
X166037015Y-130063500D01*
X166194985Y-130063500D01*
X166348365Y-130025696D01*
X166488240Y-129952283D01*
X166606483Y-129847530D01*
X166653440Y-129779501D01*
X166707722Y-129735510D01*
X166777171Y-129727850D01*
X166839736Y-129758953D01*
X166875553Y-129818943D01*
X166875886Y-129820263D01*
X166876761Y-129823814D01*
X166897376Y-129878171D01*
X166932780Y-129971523D01*
X167022517Y-130101530D01*
X167140760Y-130206283D01*
X167140762Y-130206284D01*
X167280634Y-130279696D01*
X167434014Y-130317500D01*
X167533500Y-130317500D01*
X167600539Y-130337185D01*
X167646294Y-130389989D01*
X167657500Y-130441500D01*
X167657500Y-131142666D01*
X167637815Y-131209705D01*
X167585011Y-131255460D01*
X167515853Y-131265404D01*
X167471501Y-131250054D01*
X167450137Y-131237719D01*
X167345584Y-131209705D01*
X167303766Y-131198500D01*
X167152234Y-131198500D01*
X167005863Y-131237719D01*
X166874635Y-131313485D01*
X166874632Y-131313487D01*
X166767487Y-131420632D01*
X166767485Y-131420635D01*
X166691719Y-131551863D01*
X166652500Y-131698234D01*
X166652500Y-131849765D01*
X166691719Y-131996136D01*
X166711802Y-132030920D01*
X166767485Y-132127365D01*
X166874635Y-132234515D01*
X167005865Y-132310281D01*
X167152234Y-132349500D01*
X167152236Y-132349500D01*
X167303764Y-132349500D01*
X167303766Y-132349500D01*
X167450135Y-132310281D01*
X167581365Y-132234515D01*
X167669977Y-132145902D01*
X167731296Y-132112420D01*
X167800988Y-132117404D01*
X167856922Y-132159275D01*
X167860757Y-132164695D01*
X167880860Y-132194781D01*
X167880863Y-132194785D01*
X168020214Y-132334136D01*
X168020218Y-132334139D01*
X168184079Y-132443628D01*
X168184092Y-132443635D01*
X168298880Y-132491181D01*
X168366165Y-132519051D01*
X168366169Y-132519051D01*
X168366170Y-132519052D01*
X168559456Y-132557500D01*
X168559459Y-132557500D01*
X168756543Y-132557500D01*
X168886582Y-132531632D01*
X168949835Y-132519051D01*
X169131914Y-132443632D01*
X169295782Y-132334139D01*
X169435139Y-132194782D01*
X169544632Y-132030914D01*
X169620051Y-131848835D01*
X169649079Y-131702903D01*
X169658500Y-131655543D01*
X169658500Y-130358456D01*
X169620052Y-130165170D01*
X169620051Y-130165169D01*
X169620051Y-130165165D01*
X169589884Y-130092335D01*
X169544635Y-129983092D01*
X169544628Y-129983079D01*
X169435139Y-129819218D01*
X169435136Y-129819214D01*
X169295785Y-129679863D01*
X169295781Y-129679860D01*
X169131920Y-129570371D01*
X169131907Y-129570364D01*
X168949839Y-129494950D01*
X168949829Y-129494947D01*
X168756543Y-129456500D01*
X168756541Y-129456500D01*
X168559459Y-129456500D01*
X168559457Y-129456500D01*
X168366170Y-129494947D01*
X168366160Y-129494950D01*
X168291769Y-129525764D01*
X168222300Y-129533233D01*
X168159821Y-129501957D01*
X168128375Y-129455174D01*
X168125689Y-129448091D01*
X168093220Y-129362477D01*
X168003483Y-129232470D01*
X167885240Y-129127717D01*
X167885238Y-129127716D01*
X167885237Y-129127715D01*
X167745365Y-129054303D01*
X167591986Y-129016500D01*
X167591985Y-129016500D01*
X167434015Y-129016500D01*
X167434014Y-129016500D01*
X167280634Y-129054303D01*
X167140762Y-129127715D01*
X167022515Y-129232471D01*
X166975558Y-129300500D01*
X166921275Y-129344490D01*
X166851826Y-129352149D01*
X166789262Y-129321045D01*
X166753445Y-129261054D01*
X166753111Y-129259728D01*
X166752237Y-129256188D01*
X166752237Y-129256182D01*
X166724558Y-129183198D01*
X166716500Y-129139227D01*
X166716500Y-127897117D01*
X166736185Y-127830078D01*
X166788989Y-127784323D01*
X166858147Y-127774379D01*
X166921703Y-127803404D01*
X166942548Y-127826675D01*
X167022517Y-127942530D01*
X167140760Y-128047283D01*
X167140762Y-128047284D01*
X167280634Y-128120696D01*
X167434014Y-128158500D01*
X167434015Y-128158500D01*
X167591985Y-128158500D01*
X167745365Y-128120696D01*
X167885240Y-128047283D01*
X168003483Y-127942530D01*
X168093220Y-127812523D01*
X168149237Y-127664818D01*
X168163233Y-127549552D01*
X168190855Y-127485374D01*
X168248789Y-127446318D01*
X168286329Y-127440499D01*
X168858871Y-127440499D01*
X168858872Y-127440499D01*
X168918483Y-127434091D01*
X169053331Y-127383796D01*
X169168546Y-127297546D01*
X169254796Y-127182331D01*
X169305091Y-127047483D01*
X169311500Y-126987873D01*
X169311499Y-126185997D01*
X171297708Y-126185997D01*
X171297708Y-126186002D01*
X171315335Y-126387493D01*
X171316839Y-126404674D01*
X171373653Y-126616703D01*
X171373654Y-126616706D01*
X171373655Y-126616708D01*
X171466419Y-126815642D01*
X171466423Y-126815650D01*
X171592322Y-126995452D01*
X171592327Y-126995458D01*
X171747541Y-127150672D01*
X171747547Y-127150677D01*
X171927349Y-127276576D01*
X171927351Y-127276577D01*
X171927354Y-127276579D01*
X172126297Y-127369347D01*
X172338326Y-127426161D01*
X172494521Y-127439826D01*
X172556998Y-127445292D01*
X172557000Y-127445292D01*
X172557002Y-127445292D01*
X172611797Y-127440498D01*
X172775674Y-127426161D01*
X172987703Y-127369347D01*
X173186646Y-127276579D01*
X173366457Y-127150674D01*
X173521674Y-126995457D01*
X173647579Y-126815646D01*
X173740347Y-126616703D01*
X173797161Y-126404674D01*
X173816292Y-126186000D01*
X173797161Y-125967326D01*
X173740347Y-125755297D01*
X173647579Y-125556354D01*
X173647577Y-125556351D01*
X173647576Y-125556349D01*
X173521677Y-125376547D01*
X173521672Y-125376541D01*
X173366458Y-125221327D01*
X173366452Y-125221322D01*
X173186650Y-125095423D01*
X173186642Y-125095419D01*
X172987708Y-125002655D01*
X172987706Y-125002654D01*
X172987703Y-125002653D01*
X172836885Y-124962240D01*
X172775675Y-124945839D01*
X172775668Y-124945838D01*
X172557002Y-124926708D01*
X172556998Y-124926708D01*
X172338331Y-124945838D01*
X172338324Y-124945839D01*
X172215902Y-124978642D01*
X172126297Y-125002653D01*
X172126295Y-125002653D01*
X172126291Y-125002655D01*
X171927357Y-125095419D01*
X171927349Y-125095423D01*
X171747547Y-125221322D01*
X171747541Y-125221327D01*
X171592327Y-125376541D01*
X171592322Y-125376547D01*
X171466423Y-125556349D01*
X171466419Y-125556357D01*
X171373655Y-125755291D01*
X171373653Y-125755295D01*
X171373653Y-125755297D01*
X171358284Y-125812655D01*
X171316839Y-125967324D01*
X171316838Y-125967331D01*
X171297708Y-126185997D01*
X169311499Y-126185997D01*
X169311499Y-125384128D01*
X169305091Y-125324517D01*
X169303101Y-125319182D01*
X169254797Y-125189671D01*
X169254793Y-125189664D01*
X169168547Y-125074455D01*
X169168544Y-125074452D01*
X169053335Y-124988206D01*
X169053328Y-124988202D01*
X168918482Y-124937908D01*
X168918483Y-124937908D01*
X168858883Y-124931501D01*
X168858881Y-124931500D01*
X168858873Y-124931500D01*
X168858864Y-124931500D01*
X167255129Y-124931500D01*
X167255123Y-124931501D01*
X167195516Y-124937908D01*
X167060671Y-124988202D01*
X167060664Y-124988206D01*
X166945456Y-125074452D01*
X166945455Y-125074453D01*
X166945454Y-125074454D01*
X166939765Y-125082054D01*
X166883830Y-125123923D01*
X166814138Y-125128905D01*
X166752816Y-125095419D01*
X166719333Y-125034094D01*
X166716500Y-125007740D01*
X166716500Y-122808999D01*
X167111722Y-122808999D01*
X167111722Y-122809000D01*
X167130762Y-122965818D01*
X167186780Y-123113523D01*
X167276517Y-123243530D01*
X167394760Y-123348283D01*
X167394762Y-123348284D01*
X167534634Y-123421696D01*
X167688014Y-123459500D01*
X167688015Y-123459500D01*
X167845985Y-123459500D01*
X167999365Y-123421696D01*
X168041360Y-123399655D01*
X168139240Y-123348283D01*
X168257483Y-123243530D01*
X168347220Y-123113523D01*
X168403237Y-122965818D01*
X168422278Y-122809000D01*
X168409116Y-122700596D01*
X168403237Y-122652181D01*
X168373432Y-122573592D01*
X168347220Y-122504477D01*
X168257483Y-122374470D01*
X168139240Y-122269717D01*
X168139238Y-122269716D01*
X168139237Y-122269715D01*
X167999365Y-122196303D01*
X167845986Y-122158500D01*
X167845985Y-122158500D01*
X167688015Y-122158500D01*
X167688014Y-122158500D01*
X167534634Y-122196303D01*
X167394762Y-122269715D01*
X167276516Y-122374471D01*
X167186781Y-122504475D01*
X167186780Y-122504476D01*
X167130762Y-122652181D01*
X167111722Y-122808999D01*
X166716500Y-122808999D01*
X166716500Y-120339015D01*
X166736185Y-120271976D01*
X166788989Y-120226221D01*
X166858147Y-120216277D01*
X166921703Y-120245302D01*
X166952879Y-120286607D01*
X166966421Y-120315646D01*
X166966423Y-120315648D01*
X166966424Y-120315651D01*
X167092322Y-120495452D01*
X167092327Y-120495458D01*
X167247541Y-120650672D01*
X167247547Y-120650677D01*
X167427349Y-120776576D01*
X167427351Y-120776577D01*
X167427354Y-120776579D01*
X167626297Y-120869347D01*
X167838326Y-120926161D01*
X167994521Y-120939826D01*
X168056998Y-120945292D01*
X168057000Y-120945292D01*
X168057002Y-120945292D01*
X168111668Y-120940509D01*
X168275674Y-120926161D01*
X168487703Y-120869347D01*
X168686646Y-120776579D01*
X168866457Y-120650674D01*
X169021674Y-120495457D01*
X169147579Y-120315646D01*
X169240347Y-120116703D01*
X169297161Y-119904674D01*
X169312646Y-119727672D01*
X169316292Y-119686002D01*
X169316292Y-119685997D01*
X171297708Y-119685997D01*
X171297708Y-119686002D01*
X171313308Y-119864322D01*
X171316839Y-119904674D01*
X171373653Y-120116703D01*
X171373654Y-120116706D01*
X171373655Y-120116708D01*
X171466419Y-120315642D01*
X171466423Y-120315650D01*
X171592322Y-120495452D01*
X171592327Y-120495458D01*
X171747541Y-120650672D01*
X171747547Y-120650677D01*
X171927349Y-120776576D01*
X171927351Y-120776577D01*
X171927354Y-120776579D01*
X172126297Y-120869347D01*
X172338326Y-120926161D01*
X172494521Y-120939826D01*
X172556998Y-120945292D01*
X172557000Y-120945292D01*
X172557002Y-120945292D01*
X172611668Y-120940509D01*
X172775674Y-120926161D01*
X172987703Y-120869347D01*
X173186646Y-120776579D01*
X173366457Y-120650674D01*
X173521674Y-120495457D01*
X173647579Y-120315646D01*
X173740347Y-120116703D01*
X173797161Y-119904674D01*
X173812646Y-119727672D01*
X173816292Y-119686002D01*
X173816292Y-119685997D01*
X173806118Y-119569708D01*
X173797161Y-119467326D01*
X173740347Y-119255297D01*
X173647579Y-119056354D01*
X173647577Y-119056351D01*
X173647576Y-119056349D01*
X173521677Y-118876547D01*
X173521672Y-118876541D01*
X173366458Y-118721327D01*
X173366452Y-118721322D01*
X173186650Y-118595423D01*
X173186642Y-118595419D01*
X172987708Y-118502655D01*
X172987706Y-118502654D01*
X172987703Y-118502653D01*
X172836885Y-118462240D01*
X172775675Y-118445839D01*
X172775668Y-118445838D01*
X172557002Y-118426708D01*
X172556998Y-118426708D01*
X172338331Y-118445838D01*
X172338324Y-118445839D01*
X172215902Y-118478642D01*
X172126297Y-118502653D01*
X172126295Y-118502653D01*
X172126291Y-118502655D01*
X171927357Y-118595419D01*
X171927349Y-118595423D01*
X171747547Y-118721322D01*
X171747541Y-118721327D01*
X171592327Y-118876541D01*
X171592322Y-118876547D01*
X171466423Y-119056349D01*
X171466419Y-119056357D01*
X171373655Y-119255291D01*
X171373654Y-119255294D01*
X171373653Y-119255297D01*
X171368066Y-119276149D01*
X171316839Y-119467324D01*
X171316838Y-119467331D01*
X171297708Y-119685997D01*
X169316292Y-119685997D01*
X169306118Y-119569708D01*
X169297161Y-119467326D01*
X169240347Y-119255297D01*
X169147579Y-119056354D01*
X169147577Y-119056351D01*
X169147576Y-119056349D01*
X169021677Y-118876547D01*
X169021672Y-118876541D01*
X168866458Y-118721327D01*
X168866452Y-118721322D01*
X168686650Y-118595423D01*
X168686642Y-118595419D01*
X168487708Y-118502655D01*
X168487706Y-118502654D01*
X168487703Y-118502653D01*
X168336885Y-118462240D01*
X168275675Y-118445839D01*
X168275668Y-118445838D01*
X168057002Y-118426708D01*
X168056998Y-118426708D01*
X167838331Y-118445838D01*
X167838324Y-118445839D01*
X167715902Y-118478642D01*
X167626297Y-118502653D01*
X167626295Y-118502653D01*
X167626291Y-118502655D01*
X167427357Y-118595419D01*
X167427349Y-118595423D01*
X167247547Y-118721322D01*
X167247541Y-118721327D01*
X167092327Y-118876541D01*
X167092322Y-118876547D01*
X166966423Y-119056349D01*
X166966419Y-119056357D01*
X166873653Y-119255294D01*
X166838214Y-119387551D01*
X166801849Y-119447211D01*
X166739001Y-119477739D01*
X166669626Y-119469444D01*
X166615749Y-119424958D01*
X166611052Y-119417455D01*
X166596520Y-119392284D01*
X166484716Y-119280480D01*
X166484715Y-119280479D01*
X166480385Y-119276149D01*
X166480374Y-119276139D01*
X165355819Y-118151584D01*
X165322334Y-118090261D01*
X165319500Y-118063903D01*
X165319500Y-111742316D01*
X165339185Y-111675277D01*
X165391989Y-111629522D01*
X165413814Y-111621922D01*
X165459365Y-111610696D01*
X165599240Y-111537283D01*
X165717483Y-111432530D01*
X165807220Y-111302523D01*
X165863237Y-111154818D01*
X165882278Y-110998000D01*
X165880141Y-110980395D01*
X165863237Y-110841181D01*
X165841992Y-110785164D01*
X165807220Y-110693477D01*
X165717483Y-110563470D01*
X165599240Y-110458717D01*
X165599238Y-110458716D01*
X165599237Y-110458715D01*
X165563457Y-110439936D01*
X165513245Y-110391352D01*
X165497270Y-110323333D01*
X165502879Y-110295050D01*
X165502820Y-110295037D01*
X165503290Y-110292975D01*
X165504042Y-110289186D01*
X165504368Y-110288255D01*
X165520706Y-110143250D01*
X165524565Y-110109003D01*
X165524565Y-110108996D01*
X165504369Y-109929750D01*
X165504368Y-109929745D01*
X165449291Y-109772344D01*
X165444789Y-109759478D01*
X165348816Y-109606738D01*
X165221262Y-109479184D01*
X165176296Y-109450930D01*
X165068523Y-109383211D01*
X164898254Y-109323631D01*
X164898250Y-109323630D01*
X164794616Y-109311954D01*
X164730202Y-109284887D01*
X164690647Y-109227292D01*
X164684500Y-109188734D01*
X164684500Y-106358408D01*
X164704185Y-106291369D01*
X164750874Y-106248612D01*
X164816544Y-106214145D01*
X164837240Y-106203283D01*
X164955483Y-106098530D01*
X164959339Y-106092943D01*
X164968077Y-106080285D01*
X165022359Y-106036294D01*
X165091808Y-106028634D01*
X165154373Y-106059737D01*
X165157808Y-106063043D01*
X165225181Y-106130416D01*
X165258666Y-106191739D01*
X165261500Y-106218097D01*
X165261500Y-106279227D01*
X165253442Y-106323198D01*
X165225763Y-106396181D01*
X165206722Y-106552999D01*
X165206722Y-106553000D01*
X165225762Y-106709818D01*
X165281780Y-106857523D01*
X165371517Y-106987530D01*
X165489760Y-107092283D01*
X165489762Y-107092284D01*
X165629634Y-107165696D01*
X165783014Y-107203500D01*
X165783015Y-107203500D01*
X165940985Y-107203500D01*
X166094365Y-107165696D01*
X166222875Y-107098247D01*
X166291381Y-107084522D01*
X166356435Y-107110014D01*
X166397380Y-107166629D01*
X166404500Y-107208044D01*
X166404500Y-116793901D01*
X166384815Y-116860940D01*
X166368181Y-116881583D01*
X166269193Y-116980570D01*
X166239140Y-117002684D01*
X166124758Y-117062718D01*
X166006516Y-117167471D01*
X165916781Y-117297475D01*
X165916780Y-117297476D01*
X165860762Y-117445181D01*
X165841722Y-117601999D01*
X165841722Y-117602000D01*
X165860762Y-117758818D01*
X165897619Y-117856000D01*
X165916780Y-117906523D01*
X166006517Y-118036530D01*
X166124760Y-118141283D01*
X166124762Y-118141284D01*
X166264634Y-118214696D01*
X166418014Y-118252500D01*
X166418015Y-118252500D01*
X166575985Y-118252500D01*
X166729365Y-118214696D01*
X166825063Y-118164469D01*
X166869240Y-118141283D01*
X166987483Y-118036530D01*
X167077220Y-117906523D01*
X167089474Y-117874209D01*
X167117734Y-117830499D01*
X167363506Y-117584728D01*
X167363511Y-117584724D01*
X167373714Y-117574520D01*
X167373716Y-117574520D01*
X167485520Y-117462716D01*
X167564577Y-117325784D01*
X167605500Y-117173057D01*
X167605500Y-101698097D01*
X167625185Y-101631058D01*
X167677989Y-101585303D01*
X167747147Y-101575359D01*
X167810703Y-101604384D01*
X167817181Y-101610416D01*
X168491869Y-102285104D01*
X168521229Y-102331829D01*
X168532608Y-102364349D01*
X168565210Y-102457521D01*
X168661184Y-102610262D01*
X168788738Y-102737816D01*
X168941478Y-102833789D01*
X169032649Y-102865691D01*
X169111745Y-102893368D01*
X169111750Y-102893369D01*
X169290996Y-102913565D01*
X169291000Y-102913565D01*
X169291004Y-102913565D01*
X169470249Y-102893369D01*
X169470252Y-102893368D01*
X169470255Y-102893368D01*
X169640522Y-102833789D01*
X169793262Y-102737816D01*
X169793263Y-102737815D01*
X169798706Y-102733475D01*
X169799507Y-102734479D01*
X169854417Y-102704489D01*
X169924109Y-102709466D01*
X169938407Y-102715852D01*
X169947635Y-102720696D01*
X169947637Y-102720697D01*
X170101014Y-102758500D01*
X170101015Y-102758500D01*
X170258985Y-102758500D01*
X170412365Y-102720696D01*
X170552237Y-102647285D01*
X170552238Y-102647283D01*
X170552240Y-102647283D01*
X170643274Y-102566634D01*
X170706506Y-102536914D01*
X170775770Y-102546098D01*
X170829073Y-102591270D01*
X170849493Y-102658089D01*
X170849500Y-102659451D01*
X170849500Y-103715548D01*
X170829815Y-103782587D01*
X170777011Y-103828342D01*
X170707853Y-103838286D01*
X170644297Y-103809261D01*
X170643274Y-103808364D01*
X170552240Y-103727717D01*
X170552238Y-103727715D01*
X170412365Y-103654303D01*
X170258986Y-103616500D01*
X170258985Y-103616500D01*
X170101015Y-103616500D01*
X170101014Y-103616500D01*
X169947634Y-103654303D01*
X169807762Y-103727715D01*
X169689516Y-103832471D01*
X169599781Y-103962475D01*
X169599780Y-103962476D01*
X169543762Y-104110181D01*
X169524722Y-104266999D01*
X169524722Y-104267000D01*
X169543762Y-104423818D01*
X169599781Y-104571526D01*
X169603114Y-104577876D01*
X169616838Y-104646385D01*
X169591345Y-104711437D01*
X169534729Y-104752381D01*
X169493317Y-104759500D01*
X169339014Y-104759500D01*
X169185634Y-104797303D01*
X169045762Y-104870715D01*
X168927516Y-104975471D01*
X168837781Y-105105475D01*
X168837780Y-105105476D01*
X168781762Y-105253181D01*
X168762722Y-105409999D01*
X168762722Y-105410000D01*
X168781762Y-105566818D01*
X168834862Y-105706830D01*
X168837780Y-105714523D01*
X168927517Y-105844530D01*
X169045760Y-105949283D01*
X169160145Y-106009317D01*
X169190194Y-106031429D01*
X169797181Y-106638416D01*
X169830666Y-106699739D01*
X169833500Y-106726097D01*
X169833500Y-106981943D01*
X169833500Y-107140057D01*
X169866033Y-107261470D01*
X169874423Y-107292783D01*
X169874426Y-107292790D01*
X169953475Y-107429709D01*
X169953479Y-107429714D01*
X169953480Y-107429716D01*
X170065284Y-107541520D01*
X170065286Y-107541521D01*
X170065290Y-107541524D01*
X170112879Y-107568999D01*
X170202216Y-107620577D01*
X170326884Y-107653981D01*
X170386544Y-107690346D01*
X170417073Y-107753193D01*
X170417886Y-107788701D01*
X170413722Y-107822998D01*
X170413722Y-107823000D01*
X170432762Y-107979818D01*
X170488780Y-108127523D01*
X170578517Y-108257530D01*
X170696760Y-108362283D01*
X170696762Y-108362284D01*
X170836634Y-108435696D01*
X170990014Y-108473500D01*
X170990015Y-108473500D01*
X171147985Y-108473500D01*
X171301365Y-108435696D01*
X171363482Y-108403094D01*
X171441240Y-108362283D01*
X171559483Y-108257530D01*
X171649220Y-108127523D01*
X171705237Y-107979818D01*
X171724278Y-107823000D01*
X171724278Y-107822996D01*
X171721540Y-107800444D01*
X171733001Y-107731521D01*
X171779906Y-107679736D01*
X171844636Y-107661500D01*
X172291055Y-107661500D01*
X172291057Y-107661500D01*
X172443784Y-107620577D01*
X172580716Y-107541520D01*
X172692520Y-107429716D01*
X172771577Y-107292784D01*
X172812500Y-107140057D01*
X172812500Y-106789316D01*
X172832185Y-106722277D01*
X172884989Y-106676522D01*
X172906814Y-106668922D01*
X172952365Y-106657696D01*
X173092240Y-106584283D01*
X173210483Y-106479530D01*
X173300220Y-106349523D01*
X173356237Y-106201818D01*
X173375278Y-106045000D01*
X173356237Y-105888182D01*
X173328558Y-105815198D01*
X173320500Y-105771227D01*
X173320500Y-101943500D01*
X173340185Y-101876461D01*
X173392989Y-101830706D01*
X173444500Y-101819500D01*
X174522440Y-101819500D01*
X174589479Y-101839185D01*
X174635234Y-101891989D01*
X174645178Y-101961147D01*
X174634823Y-101995900D01*
X174621098Y-102025335D01*
X174621096Y-102025340D01*
X174621094Y-102025344D01*
X174559938Y-102253586D01*
X174559936Y-102253596D01*
X174539341Y-102488999D01*
X174539341Y-102489000D01*
X174559936Y-102724403D01*
X174559938Y-102724413D01*
X174621094Y-102952655D01*
X174621096Y-102952659D01*
X174621097Y-102952663D01*
X174680315Y-103079655D01*
X174720965Y-103166830D01*
X174720967Y-103166834D01*
X174856501Y-103360395D01*
X174856506Y-103360402D01*
X175023597Y-103527493D01*
X175023603Y-103527498D01*
X175209158Y-103657425D01*
X175252783Y-103712002D01*
X175259977Y-103781500D01*
X175228454Y-103843855D01*
X175209158Y-103860575D01*
X175023597Y-103990505D01*
X174856505Y-104157597D01*
X174720965Y-104351169D01*
X174720964Y-104351171D01*
X174621098Y-104565335D01*
X174621094Y-104565344D01*
X174559938Y-104793586D01*
X174559936Y-104793596D01*
X174539341Y-105028999D01*
X174539341Y-105029000D01*
X174559936Y-105264403D01*
X174559938Y-105264413D01*
X174621094Y-105492655D01*
X174621096Y-105492659D01*
X174621097Y-105492663D01*
X174624862Y-105500737D01*
X174720965Y-105706830D01*
X174720967Y-105706834D01*
X174809891Y-105833830D01*
X174847948Y-105888181D01*
X174856501Y-105900395D01*
X174856506Y-105900402D01*
X175023597Y-106067493D01*
X175023603Y-106067498D01*
X175209158Y-106197425D01*
X175252783Y-106252002D01*
X175259977Y-106321500D01*
X175228454Y-106383855D01*
X175209158Y-106400575D01*
X175023597Y-106530505D01*
X174856505Y-106697597D01*
X174720965Y-106891169D01*
X174720964Y-106891171D01*
X174621098Y-107105335D01*
X174621094Y-107105344D01*
X174559938Y-107333586D01*
X174559936Y-107333596D01*
X174539341Y-107568999D01*
X174539341Y-107569000D01*
X174559936Y-107804403D01*
X174559938Y-107804413D01*
X174621094Y-108032655D01*
X174621096Y-108032659D01*
X174621097Y-108032663D01*
X174680315Y-108159655D01*
X174720965Y-108246830D01*
X174720967Y-108246834D01*
X174856501Y-108440395D01*
X174856506Y-108440402D01*
X175023597Y-108607493D01*
X175023603Y-108607498D01*
X175209158Y-108737425D01*
X175252783Y-108792002D01*
X175259977Y-108861500D01*
X175228454Y-108923855D01*
X175209158Y-108940575D01*
X175023597Y-109070505D01*
X174856505Y-109237597D01*
X174720965Y-109431169D01*
X174720964Y-109431171D01*
X174621098Y-109645335D01*
X174621094Y-109645344D01*
X174559938Y-109873586D01*
X174559936Y-109873596D01*
X174539341Y-110108999D01*
X174539341Y-110109000D01*
X174559936Y-110344403D01*
X174559938Y-110344413D01*
X174621094Y-110572655D01*
X174621096Y-110572659D01*
X174621097Y-110572663D01*
X174627094Y-110585523D01*
X174720965Y-110786830D01*
X174720967Y-110786834D01*
X174856501Y-110980395D01*
X174856506Y-110980402D01*
X175023597Y-111147493D01*
X175023603Y-111147498D01*
X175209158Y-111277425D01*
X175252783Y-111332002D01*
X175259977Y-111401500D01*
X175228454Y-111463855D01*
X175209158Y-111480575D01*
X175023597Y-111610505D01*
X174856505Y-111777597D01*
X174720965Y-111971169D01*
X174720964Y-111971171D01*
X174621098Y-112185335D01*
X174621094Y-112185344D01*
X174559938Y-112413586D01*
X174559936Y-112413596D01*
X174539341Y-112648999D01*
X174539341Y-112649000D01*
X174559936Y-112884403D01*
X174559938Y-112884413D01*
X174621094Y-113112655D01*
X174621096Y-113112659D01*
X174621097Y-113112663D01*
X174627094Y-113125523D01*
X174720965Y-113326830D01*
X174720967Y-113326834D01*
X174856501Y-113520395D01*
X174856506Y-113520402D01*
X175023597Y-113687493D01*
X175023603Y-113687498D01*
X175209158Y-113817425D01*
X175252783Y-113872002D01*
X175259977Y-113941500D01*
X175228454Y-114003855D01*
X175209158Y-114020575D01*
X175023597Y-114150505D01*
X174856505Y-114317597D01*
X174720965Y-114511169D01*
X174720964Y-114511171D01*
X174621098Y-114725335D01*
X174621094Y-114725344D01*
X174559938Y-114953586D01*
X174559936Y-114953596D01*
X174539341Y-115188999D01*
X174539341Y-115189000D01*
X174559936Y-115424403D01*
X174559938Y-115424413D01*
X174621094Y-115652655D01*
X174621096Y-115652659D01*
X174621097Y-115652663D01*
X174708221Y-115839500D01*
X174720965Y-115866830D01*
X174720967Y-115866834D01*
X174856501Y-116060395D01*
X174856506Y-116060402D01*
X175023597Y-116227493D01*
X175023603Y-116227498D01*
X175209158Y-116357425D01*
X175252783Y-116412002D01*
X175259977Y-116481500D01*
X175228454Y-116543855D01*
X175209158Y-116560575D01*
X175023597Y-116690505D01*
X174856505Y-116857597D01*
X174720965Y-117051169D01*
X174720964Y-117051171D01*
X174621098Y-117265335D01*
X174621094Y-117265344D01*
X174559938Y-117493586D01*
X174559936Y-117493596D01*
X174539341Y-117728999D01*
X174539341Y-117729000D01*
X174559936Y-117964403D01*
X174559938Y-117964413D01*
X174621094Y-118192655D01*
X174621096Y-118192659D01*
X174621097Y-118192663D01*
X174641772Y-118237000D01*
X174720965Y-118406830D01*
X174720967Y-118406834D01*
X174748279Y-118445839D01*
X174853019Y-118595423D01*
X174856501Y-118600395D01*
X174856506Y-118600402D01*
X175023597Y-118767493D01*
X175023603Y-118767498D01*
X175209158Y-118897425D01*
X175252783Y-118952002D01*
X175259977Y-119021500D01*
X175228454Y-119083855D01*
X175209158Y-119100575D01*
X175023597Y-119230505D01*
X174856505Y-119397597D01*
X174720965Y-119591169D01*
X174720964Y-119591171D01*
X174621098Y-119805335D01*
X174621094Y-119805344D01*
X174559938Y-120033586D01*
X174559936Y-120033596D01*
X174539341Y-120268999D01*
X174539341Y-120269000D01*
X174559936Y-120504403D01*
X174559938Y-120504413D01*
X174621094Y-120732655D01*
X174621096Y-120732659D01*
X174621097Y-120732663D01*
X174711326Y-120926160D01*
X174720965Y-120946830D01*
X174720967Y-120946834D01*
X174856501Y-121140395D01*
X174856506Y-121140402D01*
X175023597Y-121307493D01*
X175023603Y-121307498D01*
X175209158Y-121437425D01*
X175252783Y-121492002D01*
X175259977Y-121561500D01*
X175228454Y-121623855D01*
X175209158Y-121640575D01*
X175023597Y-121770505D01*
X174856505Y-121937597D01*
X174720965Y-122131169D01*
X174720964Y-122131171D01*
X174621098Y-122345335D01*
X174621094Y-122345344D01*
X174559938Y-122573586D01*
X174559936Y-122573596D01*
X174539341Y-122808999D01*
X174539341Y-122809000D01*
X174559936Y-123044403D01*
X174559938Y-123044413D01*
X174621094Y-123272655D01*
X174621096Y-123272659D01*
X174621097Y-123272663D01*
X174708221Y-123459500D01*
X174720965Y-123486830D01*
X174720967Y-123486834D01*
X174856501Y-123680395D01*
X174856506Y-123680402D01*
X175023597Y-123847493D01*
X175023603Y-123847498D01*
X175209158Y-123977425D01*
X175252783Y-124032002D01*
X175259977Y-124101500D01*
X175228454Y-124163855D01*
X175209158Y-124180575D01*
X175023597Y-124310505D01*
X174856505Y-124477597D01*
X174720965Y-124671169D01*
X174720964Y-124671171D01*
X174621098Y-124885335D01*
X174621094Y-124885344D01*
X174559938Y-125113586D01*
X174559936Y-125113596D01*
X174539341Y-125348999D01*
X174539341Y-125349000D01*
X174559936Y-125584403D01*
X174559938Y-125584413D01*
X174621094Y-125812655D01*
X174621096Y-125812659D01*
X174621097Y-125812663D01*
X174672146Y-125922138D01*
X174720965Y-126026830D01*
X174720967Y-126026834D01*
X174794050Y-126131206D01*
X174854441Y-126217454D01*
X174856501Y-126220395D01*
X174856506Y-126220402D01*
X175023597Y-126387493D01*
X175023603Y-126387498D01*
X175209158Y-126517425D01*
X175252783Y-126572002D01*
X175259977Y-126641500D01*
X175228454Y-126703855D01*
X175209158Y-126720575D01*
X175023597Y-126850505D01*
X174856505Y-127017597D01*
X174720965Y-127211169D01*
X174720964Y-127211171D01*
X174621098Y-127425335D01*
X174621094Y-127425344D01*
X174559938Y-127653586D01*
X174559936Y-127653596D01*
X174539341Y-127888999D01*
X174539341Y-127889000D01*
X174559936Y-128124403D01*
X174559938Y-128124413D01*
X174621094Y-128352655D01*
X174621096Y-128352659D01*
X174621097Y-128352663D01*
X174702295Y-128526793D01*
X174720965Y-128566830D01*
X174720967Y-128566834D01*
X174856501Y-128760395D01*
X174856506Y-128760402D01*
X175023597Y-128927493D01*
X175023603Y-128927498D01*
X175209158Y-129057425D01*
X175252783Y-129112002D01*
X175259977Y-129181500D01*
X175228454Y-129243855D01*
X175209158Y-129260575D01*
X175023597Y-129390505D01*
X174856505Y-129557597D01*
X174720965Y-129751169D01*
X174720964Y-129751171D01*
X174621098Y-129965335D01*
X174621094Y-129965344D01*
X174559938Y-130193586D01*
X174559936Y-130193596D01*
X174539341Y-130428999D01*
X174539341Y-130429000D01*
X174559936Y-130664403D01*
X174559938Y-130664413D01*
X174621094Y-130892655D01*
X174621096Y-130892659D01*
X174621097Y-130892663D01*
X174680315Y-131019655D01*
X174720965Y-131106830D01*
X174720967Y-131106834D01*
X174821252Y-131250054D01*
X174856505Y-131300401D01*
X175023599Y-131467495D01*
X175120384Y-131535265D01*
X175217165Y-131603032D01*
X175217167Y-131603033D01*
X175217170Y-131603035D01*
X175431337Y-131702903D01*
X175659592Y-131764063D01*
X175847918Y-131780539D01*
X175894999Y-131784659D01*
X175895000Y-131784659D01*
X175895001Y-131784659D01*
X175934234Y-131781226D01*
X176130408Y-131764063D01*
X176358663Y-131702903D01*
X176572830Y-131603035D01*
X176766401Y-131467495D01*
X176933495Y-131300401D01*
X177069035Y-131106830D01*
X177168903Y-130892663D01*
X177230063Y-130664408D01*
X177250659Y-130429000D01*
X177230063Y-130193592D01*
X177168903Y-129965337D01*
X177069035Y-129751171D01*
X177032004Y-129698284D01*
X176933494Y-129557597D01*
X176766402Y-129390506D01*
X176766396Y-129390501D01*
X176580842Y-129260575D01*
X176537217Y-129205998D01*
X176530023Y-129136500D01*
X176561546Y-129074145D01*
X176580842Y-129057425D01*
X176726371Y-128955524D01*
X176766401Y-128927495D01*
X176933495Y-128760401D01*
X177069035Y-128566830D01*
X177168903Y-128352663D01*
X177230063Y-128124408D01*
X177250659Y-127889000D01*
X177230063Y-127653592D01*
X177168903Y-127425337D01*
X177069035Y-127211171D01*
X177048842Y-127182331D01*
X176933494Y-127017597D01*
X176766402Y-126850506D01*
X176766396Y-126850501D01*
X176580842Y-126720575D01*
X176537217Y-126665998D01*
X176530023Y-126596500D01*
X176561546Y-126534145D01*
X176580842Y-126517425D01*
X176741865Y-126404675D01*
X176766401Y-126387495D01*
X176933495Y-126220401D01*
X177069035Y-126026830D01*
X177168903Y-125812663D01*
X177230063Y-125584408D01*
X177250659Y-125349000D01*
X177230063Y-125113592D01*
X177168903Y-124885337D01*
X177069035Y-124671171D01*
X176933495Y-124477599D01*
X176933494Y-124477597D01*
X176766402Y-124310506D01*
X176766396Y-124310501D01*
X176580842Y-124180575D01*
X176537217Y-124125998D01*
X176530023Y-124056500D01*
X176561546Y-123994145D01*
X176580842Y-123977425D01*
X176603026Y-123961891D01*
X176766401Y-123847495D01*
X176933495Y-123680401D01*
X177069035Y-123486830D01*
X177168903Y-123272663D01*
X177230063Y-123044408D01*
X177250659Y-122809000D01*
X177230063Y-122573592D01*
X177168903Y-122345337D01*
X177069035Y-122131171D01*
X177032004Y-122078284D01*
X176933494Y-121937597D01*
X176766402Y-121770506D01*
X176766396Y-121770501D01*
X176580842Y-121640575D01*
X176537217Y-121585998D01*
X176530023Y-121516500D01*
X176561546Y-121454145D01*
X176580842Y-121437425D01*
X176659738Y-121382181D01*
X176766401Y-121307495D01*
X176933495Y-121140401D01*
X177069035Y-120946830D01*
X177168903Y-120732663D01*
X177230063Y-120504408D01*
X177250659Y-120269000D01*
X177230063Y-120033592D01*
X177168903Y-119805337D01*
X177069035Y-119591171D01*
X177067403Y-119588839D01*
X176933494Y-119397597D01*
X176766402Y-119230506D01*
X176766396Y-119230501D01*
X176580842Y-119100575D01*
X176537217Y-119045998D01*
X176530023Y-118976500D01*
X176561546Y-118914145D01*
X176580842Y-118897425D01*
X176650484Y-118848661D01*
X176766401Y-118767495D01*
X176933495Y-118600401D01*
X177069035Y-118406830D01*
X177168903Y-118192663D01*
X177230063Y-117964408D01*
X177250659Y-117729000D01*
X177230063Y-117493592D01*
X177168903Y-117265337D01*
X177069035Y-117051171D01*
X177043670Y-117014945D01*
X176933494Y-116857597D01*
X176766402Y-116690506D01*
X176766396Y-116690501D01*
X176580842Y-116560575D01*
X176537217Y-116505998D01*
X176530023Y-116436500D01*
X176561546Y-116374145D01*
X176580842Y-116357425D01*
X176643165Y-116313786D01*
X176766401Y-116227495D01*
X176933495Y-116060401D01*
X177069035Y-115866830D01*
X177168903Y-115652663D01*
X177230063Y-115424408D01*
X177250659Y-115189000D01*
X177230063Y-114953592D01*
X177168903Y-114725337D01*
X177069035Y-114511171D01*
X176974721Y-114376475D01*
X176933494Y-114317597D01*
X176766402Y-114150506D01*
X176766396Y-114150501D01*
X176580842Y-114020575D01*
X176537217Y-113965998D01*
X176530023Y-113896500D01*
X176561546Y-113834145D01*
X176580842Y-113817425D01*
X176603026Y-113801891D01*
X176766401Y-113687495D01*
X176933495Y-113520401D01*
X177069035Y-113326830D01*
X177168903Y-113112663D01*
X177230063Y-112884408D01*
X177250659Y-112649000D01*
X177230063Y-112413592D01*
X177168903Y-112185337D01*
X177069035Y-111971171D01*
X176933495Y-111777599D01*
X176933494Y-111777597D01*
X176766402Y-111610506D01*
X176766396Y-111610501D01*
X176580842Y-111480575D01*
X176537217Y-111425998D01*
X176530023Y-111356500D01*
X176561546Y-111294145D01*
X176580842Y-111277425D01*
X176676542Y-111210415D01*
X176766401Y-111147495D01*
X176933495Y-110980401D01*
X177069035Y-110786830D01*
X177168903Y-110572663D01*
X177230063Y-110344408D01*
X177250659Y-110109000D01*
X177230063Y-109873592D01*
X177168903Y-109645337D01*
X177069035Y-109431171D01*
X177035454Y-109383211D01*
X176933494Y-109237597D01*
X176766402Y-109070506D01*
X176766396Y-109070501D01*
X176580842Y-108940575D01*
X176537217Y-108885998D01*
X176530023Y-108816500D01*
X176561546Y-108754145D01*
X176580842Y-108737425D01*
X176682987Y-108665902D01*
X176766401Y-108607495D01*
X176933495Y-108440401D01*
X177069035Y-108246830D01*
X177168903Y-108032663D01*
X177230063Y-107804408D01*
X177250659Y-107569000D01*
X177230063Y-107333592D01*
X177168903Y-107105337D01*
X177069035Y-106891171D01*
X177045476Y-106857524D01*
X176933494Y-106697597D01*
X176766402Y-106530506D01*
X176766396Y-106530501D01*
X176580842Y-106400575D01*
X176537217Y-106345998D01*
X176530023Y-106276500D01*
X176561546Y-106214145D01*
X176580842Y-106197425D01*
X176666068Y-106137749D01*
X176766401Y-106067495D01*
X176933495Y-105900401D01*
X177069035Y-105706830D01*
X177131755Y-105572326D01*
X177177926Y-105519889D01*
X177245120Y-105500737D01*
X177312001Y-105520953D01*
X177331817Y-105537052D01*
X177798181Y-106003416D01*
X177831666Y-106064739D01*
X177834500Y-106091097D01*
X177834500Y-121265227D01*
X177826442Y-121309198D01*
X177798763Y-121382181D01*
X177779722Y-121538999D01*
X177779722Y-121539000D01*
X177798762Y-121695818D01*
X177835876Y-121793677D01*
X177854780Y-121843523D01*
X177944517Y-121973530D01*
X178062760Y-122078283D01*
X178062762Y-122078284D01*
X178202634Y-122151696D01*
X178356014Y-122189500D01*
X178356015Y-122189500D01*
X178513985Y-122189500D01*
X178667365Y-122151696D01*
X178671772Y-122149383D01*
X178807240Y-122078283D01*
X178925483Y-121973530D01*
X179015220Y-121843523D01*
X179071237Y-121695818D01*
X179084404Y-121587376D01*
X179105843Y-121537562D01*
X179088523Y-121510611D01*
X179084404Y-121490622D01*
X179071237Y-121382181D01*
X179043558Y-121309198D01*
X179035500Y-121265227D01*
X179035500Y-105880059D01*
X179035501Y-105880046D01*
X179035501Y-105711945D01*
X179035501Y-105711943D01*
X178994577Y-105559215D01*
X178935707Y-105457250D01*
X178915520Y-105422284D01*
X178803716Y-105310480D01*
X178803715Y-105310479D01*
X178799385Y-105306149D01*
X178799374Y-105306139D01*
X177150735Y-103657500D01*
X177122473Y-103613786D01*
X177110222Y-103581482D01*
X177110220Y-103581477D01*
X177020481Y-103451467D01*
X177010227Y-103442383D01*
X176973101Y-103383194D01*
X176973869Y-103313328D01*
X176990881Y-103278445D01*
X177006412Y-103256265D01*
X177069035Y-103166830D01*
X177168903Y-102952663D01*
X177230063Y-102724408D01*
X177250659Y-102489000D01*
X177249495Y-102475701D01*
X177232631Y-102282943D01*
X177230063Y-102253592D01*
X177168903Y-102025337D01*
X177093785Y-101864247D01*
X177083293Y-101795169D01*
X177111813Y-101731385D01*
X177144168Y-101704455D01*
X177152716Y-101699520D01*
X177264520Y-101587716D01*
X177264520Y-101587714D01*
X177274724Y-101577511D01*
X177274729Y-101577505D01*
X179119819Y-99732415D01*
X179181142Y-99698930D01*
X179250834Y-99703914D01*
X179306767Y-99745786D01*
X179331184Y-99811250D01*
X179331500Y-99820096D01*
X179331500Y-121475676D01*
X179311815Y-121542715D01*
X179311123Y-121543314D01*
X179329821Y-121581984D01*
X179331500Y-121602323D01*
X179331500Y-137805500D01*
X179311815Y-137872539D01*
X179259011Y-137918294D01*
X179207500Y-137929500D01*
X150230500Y-137929500D01*
X150163461Y-137909815D01*
X150117706Y-137857011D01*
X150106500Y-137805500D01*
X150106500Y-134873994D01*
X151164556Y-134873994D01*
X151164556Y-134874005D01*
X151184310Y-135188004D01*
X151184311Y-135188011D01*
X151184312Y-135188015D01*
X151219042Y-135370079D01*
X151243270Y-135497083D01*
X151340497Y-135796316D01*
X151340499Y-135796321D01*
X151474461Y-136081003D01*
X151474464Y-136081009D01*
X151643051Y-136346661D01*
X151643054Y-136346665D01*
X151843606Y-136589090D01*
X151843608Y-136589092D01*
X152072968Y-136804476D01*
X152072978Y-136804484D01*
X152327504Y-136989408D01*
X152327509Y-136989410D01*
X152327516Y-136989416D01*
X152603234Y-137140994D01*
X152603239Y-137140996D01*
X152603241Y-137140997D01*
X152603242Y-137140998D01*
X152895771Y-137256818D01*
X152895774Y-137256819D01*
X153200523Y-137335065D01*
X153200527Y-137335066D01*
X153266010Y-137343338D01*
X153512670Y-137374499D01*
X153512679Y-137374499D01*
X153512682Y-137374500D01*
X153512684Y-137374500D01*
X153827316Y-137374500D01*
X153827318Y-137374500D01*
X153827321Y-137374499D01*
X153827329Y-137374499D01*
X154013593Y-137350968D01*
X154139473Y-137335066D01*
X154444225Y-137256819D01*
X154444228Y-137256818D01*
X154736757Y-137140998D01*
X154736758Y-137140997D01*
X154736756Y-137140997D01*
X154736766Y-137140994D01*
X155012484Y-136989416D01*
X155267030Y-136804478D01*
X155496390Y-136589094D01*
X155696947Y-136346663D01*
X155865537Y-136081007D01*
X155999503Y-135796315D01*
X156035495Y-135685543D01*
X159017499Y-135685543D01*
X159055947Y-135878829D01*
X159055950Y-135878839D01*
X159131364Y-136060907D01*
X159131371Y-136060920D01*
X159240860Y-136224781D01*
X159240863Y-136224785D01*
X159380214Y-136364136D01*
X159380218Y-136364139D01*
X159544079Y-136473628D01*
X159544092Y-136473635D01*
X159726160Y-136549049D01*
X159726165Y-136549051D01*
X159726169Y-136549051D01*
X159726170Y-136549052D01*
X159919456Y-136587500D01*
X159919459Y-136587500D01*
X160116543Y-136587500D01*
X160246582Y-136561632D01*
X160309835Y-136549051D01*
X160491914Y-136473632D01*
X160655782Y-136364139D01*
X160795139Y-136224782D01*
X160904632Y-136060914D01*
X160980051Y-135878835D01*
X161018500Y-135685543D01*
X167657499Y-135685543D01*
X167695947Y-135878829D01*
X167695950Y-135878839D01*
X167771364Y-136060907D01*
X167771371Y-136060920D01*
X167880860Y-136224781D01*
X167880863Y-136224785D01*
X168020214Y-136364136D01*
X168020218Y-136364139D01*
X168184079Y-136473628D01*
X168184092Y-136473635D01*
X168366160Y-136549049D01*
X168366165Y-136549051D01*
X168366169Y-136549051D01*
X168366170Y-136549052D01*
X168559456Y-136587500D01*
X168559459Y-136587500D01*
X168756543Y-136587500D01*
X168886582Y-136561632D01*
X168949835Y-136549051D01*
X169131914Y-136473632D01*
X169295782Y-136364139D01*
X169435139Y-136224782D01*
X169544632Y-136060914D01*
X169620051Y-135878835D01*
X169658500Y-135685541D01*
X169658500Y-134746994D01*
X173389556Y-134746994D01*
X173389556Y-134747005D01*
X173409310Y-135061004D01*
X173409311Y-135061011D01*
X173468270Y-135370083D01*
X173565497Y-135669316D01*
X173565499Y-135669321D01*
X173699461Y-135954003D01*
X173699464Y-135954009D01*
X173868051Y-136219661D01*
X173868054Y-136219665D01*
X174068606Y-136462090D01*
X174068608Y-136462092D01*
X174068610Y-136462094D01*
X174202154Y-136587500D01*
X174297968Y-136677476D01*
X174297978Y-136677484D01*
X174552504Y-136862408D01*
X174552509Y-136862410D01*
X174552516Y-136862416D01*
X174828234Y-137013994D01*
X174828239Y-137013996D01*
X174828241Y-137013997D01*
X174828242Y-137013998D01*
X175120771Y-137129818D01*
X175120774Y-137129819D01*
X175425523Y-137208065D01*
X175425527Y-137208066D01*
X175491010Y-137216338D01*
X175737670Y-137247499D01*
X175737679Y-137247499D01*
X175737682Y-137247500D01*
X175737684Y-137247500D01*
X176052316Y-137247500D01*
X176052318Y-137247500D01*
X176052321Y-137247499D01*
X176052329Y-137247499D01*
X176238593Y-137223968D01*
X176364473Y-137208066D01*
X176669225Y-137129819D01*
X176669228Y-137129818D01*
X176961757Y-137013998D01*
X176961758Y-137013997D01*
X176961756Y-137013997D01*
X176961766Y-137013994D01*
X177237484Y-136862416D01*
X177492030Y-136677478D01*
X177721390Y-136462094D01*
X177921947Y-136219663D01*
X178090537Y-135954007D01*
X178224503Y-135669315D01*
X178321731Y-135370079D01*
X178380688Y-135061015D01*
X178392454Y-134874000D01*
X178400444Y-134747005D01*
X178400444Y-134746994D01*
X178380689Y-134432995D01*
X178380688Y-134432988D01*
X178380688Y-134432985D01*
X178321731Y-134123921D01*
X178224503Y-133824685D01*
X178206534Y-133786500D01*
X178090538Y-133539996D01*
X178090537Y-133539993D01*
X178002544Y-133401338D01*
X177921948Y-133274338D01*
X177921945Y-133274334D01*
X177721393Y-133031909D01*
X177721391Y-133031907D01*
X177492031Y-132816523D01*
X177492021Y-132816515D01*
X177237495Y-132631591D01*
X177237488Y-132631586D01*
X177237484Y-132631584D01*
X176961766Y-132480006D01*
X176961763Y-132480004D01*
X176961758Y-132480002D01*
X176961757Y-132480001D01*
X176669228Y-132364181D01*
X176669225Y-132364180D01*
X176364476Y-132285934D01*
X176364463Y-132285932D01*
X176052329Y-132246500D01*
X176052318Y-132246500D01*
X175737682Y-132246500D01*
X175737670Y-132246500D01*
X175425536Y-132285932D01*
X175425523Y-132285934D01*
X175120774Y-132364180D01*
X175120771Y-132364181D01*
X174828242Y-132480001D01*
X174828241Y-132480002D01*
X174552516Y-132631584D01*
X174552504Y-132631591D01*
X174297978Y-132816515D01*
X174297968Y-132816523D01*
X174068608Y-133031907D01*
X174068606Y-133031909D01*
X173868054Y-133274334D01*
X173868051Y-133274338D01*
X173699464Y-133539990D01*
X173699461Y-133539996D01*
X173565499Y-133824678D01*
X173565497Y-133824683D01*
X173468270Y-134123916D01*
X173409311Y-134432988D01*
X173409310Y-134432995D01*
X173389556Y-134746994D01*
X169658500Y-134746994D01*
X169658500Y-134688459D01*
X169658500Y-134688456D01*
X169620052Y-134495170D01*
X169620051Y-134495169D01*
X169620051Y-134495165D01*
X169594297Y-134432988D01*
X169544635Y-134313092D01*
X169544628Y-134313079D01*
X169435139Y-134149218D01*
X169435136Y-134149214D01*
X169295785Y-134009863D01*
X169295781Y-134009860D01*
X169131920Y-133900371D01*
X169131907Y-133900364D01*
X168949839Y-133824950D01*
X168949829Y-133824947D01*
X168756543Y-133786500D01*
X168756541Y-133786500D01*
X168559459Y-133786500D01*
X168559457Y-133786500D01*
X168366170Y-133824947D01*
X168366160Y-133824950D01*
X168184092Y-133900364D01*
X168184079Y-133900371D01*
X168020218Y-134009860D01*
X168020214Y-134009863D01*
X167880863Y-134149214D01*
X167880860Y-134149218D01*
X167771371Y-134313079D01*
X167771364Y-134313092D01*
X167695950Y-134495160D01*
X167695947Y-134495170D01*
X167657500Y-134688456D01*
X167657500Y-134688459D01*
X167657500Y-135685541D01*
X167657500Y-135685543D01*
X167657499Y-135685543D01*
X161018500Y-135685543D01*
X161018500Y-135685541D01*
X161018500Y-134688459D01*
X161018500Y-134688456D01*
X160980052Y-134495170D01*
X160980051Y-134495169D01*
X160980051Y-134495165D01*
X160954297Y-134432988D01*
X160904635Y-134313092D01*
X160904628Y-134313079D01*
X160795139Y-134149218D01*
X160795136Y-134149214D01*
X160655785Y-134009863D01*
X160655781Y-134009860D01*
X160491920Y-133900371D01*
X160491907Y-133900364D01*
X160309839Y-133824950D01*
X160309829Y-133824947D01*
X160116543Y-133786500D01*
X160116541Y-133786500D01*
X159919459Y-133786500D01*
X159919457Y-133786500D01*
X159726170Y-133824947D01*
X159726160Y-133824950D01*
X159544092Y-133900364D01*
X159544079Y-133900371D01*
X159380218Y-134009860D01*
X159380214Y-134009863D01*
X159240863Y-134149214D01*
X159240860Y-134149218D01*
X159131371Y-134313079D01*
X159131364Y-134313092D01*
X159055950Y-134495160D01*
X159055947Y-134495170D01*
X159017500Y-134688456D01*
X159017500Y-134688459D01*
X159017500Y-135685541D01*
X159017500Y-135685543D01*
X159017499Y-135685543D01*
X156035495Y-135685543D01*
X156096731Y-135497079D01*
X156155688Y-135188015D01*
X156163678Y-135061015D01*
X156175444Y-134874005D01*
X156175444Y-134873994D01*
X156155689Y-134559995D01*
X156155688Y-134559988D01*
X156155688Y-134559985D01*
X156096731Y-134250921D01*
X155999503Y-133951685D01*
X155975356Y-133900371D01*
X155939866Y-133824950D01*
X155865537Y-133666993D01*
X155830414Y-133611648D01*
X155696948Y-133401338D01*
X155696945Y-133401334D01*
X155496393Y-133158909D01*
X155496391Y-133158907D01*
X155267031Y-132943523D01*
X155267021Y-132943515D01*
X155012495Y-132758591D01*
X155012488Y-132758586D01*
X155012484Y-132758584D01*
X154736766Y-132607006D01*
X154736763Y-132607004D01*
X154736758Y-132607002D01*
X154736757Y-132607001D01*
X154444228Y-132491181D01*
X154444225Y-132491180D01*
X154139476Y-132412934D01*
X154139463Y-132412932D01*
X153827329Y-132373500D01*
X153827318Y-132373500D01*
X153512682Y-132373500D01*
X153512670Y-132373500D01*
X153200536Y-132412932D01*
X153200523Y-132412934D01*
X152895774Y-132491180D01*
X152895771Y-132491181D01*
X152603242Y-132607001D01*
X152603241Y-132607002D01*
X152327516Y-132758584D01*
X152327504Y-132758591D01*
X152072978Y-132943515D01*
X152072968Y-132943523D01*
X151843608Y-133158907D01*
X151843606Y-133158909D01*
X151643054Y-133401334D01*
X151643051Y-133401338D01*
X151474464Y-133666990D01*
X151474461Y-133666996D01*
X151340499Y-133951678D01*
X151340497Y-133951683D01*
X151243270Y-134250916D01*
X151184311Y-134559988D01*
X151184310Y-134559995D01*
X151164556Y-134873994D01*
X150106500Y-134873994D01*
X150106500Y-94301370D01*
X150126185Y-94234331D01*
X150178989Y-94188576D01*
X150248147Y-94178632D01*
X150311703Y-94207657D01*
G37*
%TD.AperFunction*%
M02*
