%TF.GenerationSoftware,KiCad,Pcbnew,8.0.3*%
%TF.CreationDate,2024-07-05T15:20:34+05:30*%
%TF.ProjectId,multilayer1,6d756c74-696c-4617-9965-72312e6b6963,rev?*%
%TF.SameCoordinates,Original*%
%TF.FileFunction,Soldermask,Bot*%
%TF.FilePolarity,Negative*%
%FSLAX46Y46*%
G04 Gerber Fmt 4.6, Leading zero omitted, Abs format (unit mm)*
G04 Created by KiCad (PCBNEW 8.0.3) date 2024-07-05 15:20:34*
%MOMM*%
%LPD*%
G01*
G04 APERTURE LIST*
G04 Aperture macros list*
%AMRoundRect*
0 Rectangle with rounded corners*
0 $1 Rounding radius*
0 $2 $3 $4 $5 $6 $7 $8 $9 X,Y pos of 4 corners*
0 Add a 4 corners polygon primitive as box body*
4,1,4,$2,$3,$4,$5,$6,$7,$8,$9,$2,$3,0*
0 Add four circle primitives for the rounded corners*
1,1,$1+$1,$2,$3*
1,1,$1+$1,$4,$5*
1,1,$1+$1,$6,$7*
1,1,$1+$1,$8,$9*
0 Add four rect primitives between the rounded corners*
20,1,$1+$1,$2,$3,$4,$5,0*
20,1,$1+$1,$4,$5,$6,$7,0*
20,1,$1+$1,$6,$7,$8,$9,0*
20,1,$1+$1,$8,$9,$2,$3,0*%
G04 Aperture macros list end*
%ADD10RoundRect,0.102000X0.754000X-0.754000X0.754000X0.754000X-0.754000X0.754000X-0.754000X-0.754000X0*%
%ADD11C,1.712000*%
%ADD12C,0.650000*%
%ADD13O,1.000000X2.100000*%
%ADD14O,1.000000X1.800000*%
%ADD15R,1.700000X1.700000*%
%ADD16O,1.700000X1.700000*%
G04 APERTURE END LIST*
D10*
%TO.C,reset1*%
X156754000Y-127329000D03*
D11*
X156754000Y-120829000D03*
X161254000Y-127329000D03*
X161254000Y-120829000D03*
%TD*%
D12*
%TO.C,J2*%
X161448000Y-131774000D03*
X167228000Y-131774000D03*
D13*
X160018000Y-131007000D03*
D14*
X160018000Y-135187000D03*
D13*
X168658000Y-131007000D03*
D14*
X168658000Y-135187000D03*
%TD*%
D10*
%TO.C,boot1*%
X168057000Y-126186000D03*
D11*
X168057000Y-119686000D03*
X172557000Y-126186000D03*
X172557000Y-119686000D03*
%TD*%
D15*
%TO.C,J1*%
X153543000Y-77216000D03*
D16*
X153543000Y-79756000D03*
X153543000Y-82296000D03*
X153543000Y-84836000D03*
X153543000Y-87376000D03*
X153543000Y-89916000D03*
X153543000Y-92456000D03*
X153543000Y-94996000D03*
X153543000Y-97536000D03*
X153543000Y-100076000D03*
X153543000Y-102616000D03*
X153543000Y-105156000D03*
X153543000Y-107696000D03*
X153543000Y-110236000D03*
X153543000Y-112776000D03*
X153543000Y-115316000D03*
X153543000Y-117856000D03*
X153543000Y-120396000D03*
X153543000Y-122936000D03*
X153543000Y-125476000D03*
X153543000Y-128016000D03*
X153543000Y-130556000D03*
%TD*%
D15*
%TO.C,J3*%
X175895000Y-77089000D03*
D16*
X175895000Y-79629000D03*
X175895000Y-82169000D03*
X175895000Y-84709000D03*
X175895000Y-87249000D03*
X175895000Y-89789000D03*
X175895000Y-92329000D03*
X175895000Y-94869000D03*
X175895000Y-97409000D03*
X175895000Y-99949000D03*
X175895000Y-102489000D03*
X175895000Y-105029000D03*
X175895000Y-107569000D03*
X175895000Y-110109000D03*
X175895000Y-112649000D03*
X175895000Y-115189000D03*
X175895000Y-117729000D03*
X175895000Y-120269000D03*
X175895000Y-122809000D03*
X175895000Y-125349000D03*
X175895000Y-127889000D03*
X175895000Y-130429000D03*
%TD*%
M02*
