M48
; DRILL file {KiCad 8.0.3} date 2024-07-05T15:20:51+0530
; FORMAT={-:-/ absolute / inch / decimal}
; #@! TF.CreationDate,2024-07-05T15:20:51+05:30
; #@! TF.GenerationSoftware,Kicad,Pcbnew,8.0.3
; #@! TF.FileFunction,Plated,1,3,Blind
FMAT,2
INCH
; #@! TA.AperFunction,Plated,Buried,ViaDrill
T1C0.0039
%
G90
G05
T1
X6.185Y-4.1
X6.235Y-3.955
X6.28Y-4.1
X6.305Y-4.33
X6.34Y-3.56
X6.365Y-3.085
X6.375Y-4.2
X6.375Y-4.23
X6.44Y-5.085
X6.45Y-3.69
X6.4546Y-3.455
X6.475Y-4.16
X6.505Y-4.37
X6.51Y-3.52
X6.52Y-4.96
X6.605Y-4.835
X6.62Y-3.77
X6.66Y-3.895
X6.67Y-4.15
X6.7Y-3.74
X6.735Y-4.245
X6.77Y-3.745
M30
