%TF.GenerationSoftware,KiCad,Pcbnew,8.0.3*%
%TF.CreationDate,2024-07-05T15:20:34+05:30*%
%TF.ProjectId,multilayer1,6d756c74-696c-4617-9965-72312e6b6963,rev?*%
%TF.SameCoordinates,Original*%
%TF.FileFunction,Soldermask,Top*%
%TF.FilePolarity,Negative*%
%FSLAX46Y46*%
G04 Gerber Fmt 4.6, Leading zero omitted, Abs format (unit mm)*
G04 Created by KiCad (PCBNEW 8.0.3) date 2024-07-05 15:20:34*
%MOMM*%
%LPD*%
G01*
G04 APERTURE LIST*
G04 Aperture macros list*
%AMRoundRect*
0 Rectangle with rounded corners*
0 $1 Rounding radius*
0 $2 $3 $4 $5 $6 $7 $8 $9 X,Y pos of 4 corners*
0 Add a 4 corners polygon primitive as box body*
4,1,4,$2,$3,$4,$5,$6,$7,$8,$9,$2,$3,0*
0 Add four circle primitives for the rounded corners*
1,1,$1+$1,$2,$3*
1,1,$1+$1,$4,$5*
1,1,$1+$1,$6,$7*
1,1,$1+$1,$8,$9*
0 Add four rect primitives between the rounded corners*
20,1,$1+$1,$2,$3,$4,$5,0*
20,1,$1+$1,$4,$5,$6,$7,0*
20,1,$1+$1,$6,$7,$8,$9,0*
20,1,$1+$1,$8,$9,$2,$3,0*%
%AMOutline5P*
0 Free polygon, 5 corners , with rotation*
0 The origin of the aperture is its center*
0 number of corners: always 5*
0 $1 to $10 corner X, Y*
0 $11 Rotation angle, in degrees counterclockwise*
0 create outline with 5 corners*
4,1,5,$1,$2,$3,$4,$5,$6,$7,$8,$9,$10,$1,$2,$11*%
%AMOutline6P*
0 Free polygon, 6 corners , with rotation*
0 The origin of the aperture is its center*
0 number of corners: always 6*
0 $1 to $12 corner X, Y*
0 $13 Rotation angle, in degrees counterclockwise*
0 create outline with 6 corners*
4,1,6,$1,$2,$3,$4,$5,$6,$7,$8,$9,$10,$11,$12,$1,$2,$13*%
%AMOutline7P*
0 Free polygon, 7 corners , with rotation*
0 The origin of the aperture is its center*
0 number of corners: always 7*
0 $1 to $14 corner X, Y*
0 $15 Rotation angle, in degrees counterclockwise*
0 create outline with 7 corners*
4,1,7,$1,$2,$3,$4,$5,$6,$7,$8,$9,$10,$11,$12,$13,$14,$1,$2,$15*%
%AMOutline8P*
0 Free polygon, 8 corners , with rotation*
0 The origin of the aperture is its center*
0 number of corners: always 8*
0 $1 to $16 corner X, Y*
0 $17 Rotation angle, in degrees counterclockwise*
0 create outline with 8 corners*
4,1,8,$1,$2,$3,$4,$5,$6,$7,$8,$9,$10,$11,$12,$13,$14,$15,$16,$1,$2,$17*%
G04 Aperture macros list end*
%ADD10RoundRect,0.250000X0.412500X0.650000X-0.412500X0.650000X-0.412500X-0.650000X0.412500X-0.650000X0*%
%ADD11RoundRect,0.250000X-0.412500X-0.650000X0.412500X-0.650000X0.412500X0.650000X-0.412500X0.650000X0*%
%ADD12R,0.250000X0.625000*%
%ADD13R,0.450000X0.700000*%
%ADD14R,0.450000X0.575000*%
%ADD15RoundRect,0.250000X0.262500X0.450000X-0.262500X0.450000X-0.262500X-0.450000X0.262500X-0.450000X0*%
%ADD16R,0.800000X0.400000*%
%ADD17R,0.400000X0.800000*%
%ADD18Outline5P,-0.600000X0.204000X-0.204000X0.600000X0.600000X0.600000X0.600000X-0.600000X-0.600000X-0.600000X0.000000*%
%ADD19R,1.200000X1.200000*%
%ADD20R,0.800000X0.800000*%
%ADD21RoundRect,0.093750X-0.093750X-0.106250X0.093750X-0.106250X0.093750X0.106250X-0.093750X0.106250X0*%
%ADD22R,1.000000X1.600000*%
%ADD23RoundRect,0.250000X0.450000X-0.262500X0.450000X0.262500X-0.450000X0.262500X-0.450000X-0.262500X0*%
%ADD24RoundRect,0.250000X-0.450000X0.262500X-0.450000X-0.262500X0.450000X-0.262500X0.450000X0.262500X0*%
%ADD25RoundRect,0.102000X0.754000X-0.754000X0.754000X0.754000X-0.754000X0.754000X-0.754000X-0.754000X0*%
%ADD26C,1.712000*%
%ADD27RoundRect,0.250001X-0.462499X-1.074999X0.462499X-1.074999X0.462499X1.074999X-0.462499X1.074999X0*%
%ADD28C,0.650000*%
%ADD29RoundRect,0.150000X-0.150000X-0.425000X0.150000X-0.425000X0.150000X0.425000X-0.150000X0.425000X0*%
%ADD30RoundRect,0.075000X-0.075000X-0.500000X0.075000X-0.500000X0.075000X0.500000X-0.075000X0.500000X0*%
%ADD31O,1.000000X2.100000*%
%ADD32O,1.000000X1.800000*%
%ADD33R,0.600000X0.400000*%
%ADD34R,0.700000X1.600000*%
%ADD35RoundRect,0.250000X-0.650000X0.412500X-0.650000X-0.412500X0.650000X-0.412500X0.650000X0.412500X0*%
%ADD36RoundRect,0.250000X0.650000X-0.412500X0.650000X0.412500X-0.650000X0.412500X-0.650000X-0.412500X0*%
%ADD37R,0.900000X1.500000*%
%ADD38RoundRect,0.250000X-0.262500X-0.450000X0.262500X-0.450000X0.262500X0.450000X-0.262500X0.450000X0*%
%ADD39R,1.700000X1.700000*%
%ADD40O,1.700000X1.700000*%
G04 APERTURE END LIST*
D10*
%TO.C,C1*%
X161455500Y-102997000D03*
X158330500Y-102997000D03*
%TD*%
%TO.C,C7*%
X161561000Y-99314000D03*
X158436000Y-99314000D03*
%TD*%
D11*
%TO.C,C6*%
X169252500Y-90551000D03*
X172377500Y-90551000D03*
%TD*%
D12*
%TO.C,U1*%
X159861000Y-106299000D03*
X159361000Y-106299000D03*
D13*
X158861000Y-106336500D03*
D12*
X158361000Y-106299000D03*
X157861000Y-106299000D03*
X157861000Y-107074000D03*
X158361000Y-107074000D03*
D14*
X158861000Y-107099000D03*
D12*
X159361000Y-107074000D03*
X159861000Y-107074000D03*
%TD*%
D15*
%TO.C,R3*%
X171600500Y-103759000D03*
X169775500Y-103759000D03*
%TD*%
D16*
%TO.C,U3*%
X157797000Y-73523000D03*
X157797000Y-74373000D03*
X157797000Y-75223000D03*
X157797000Y-76073000D03*
X157797000Y-76923000D03*
X157797000Y-77773000D03*
X157797000Y-78623000D03*
X157797000Y-79473000D03*
X157797000Y-80323000D03*
X157797000Y-81173000D03*
X157797000Y-82023000D03*
X157797000Y-82873000D03*
X157797000Y-83723000D03*
X157797000Y-84573000D03*
X157797000Y-85423000D03*
D17*
X158847000Y-86473000D03*
X159697000Y-86473000D03*
X160547000Y-86473000D03*
X161397000Y-86473000D03*
X162247000Y-86473000D03*
X163097000Y-86473000D03*
X163947000Y-86473000D03*
X164797000Y-86473000D03*
X165647000Y-86473000D03*
X166497000Y-86473000D03*
X167347000Y-86473000D03*
X168197000Y-86473000D03*
X169047000Y-86473000D03*
X169897000Y-86473000D03*
X170747000Y-86473000D03*
D16*
X171797000Y-85423000D03*
X171797000Y-84573000D03*
X171797000Y-83723000D03*
X171797000Y-82873000D03*
X171797000Y-82023000D03*
X171797000Y-81173000D03*
X171797000Y-80323000D03*
X171797000Y-79473000D03*
X171797000Y-78623000D03*
X171797000Y-77773000D03*
X171797000Y-76923000D03*
X171797000Y-76073000D03*
X171797000Y-75223000D03*
X171797000Y-74373000D03*
X171797000Y-73523000D03*
D17*
X170747000Y-72473000D03*
X169897000Y-72473000D03*
X169047000Y-72473000D03*
X168197000Y-72473000D03*
X167347000Y-72473000D03*
X166497000Y-72473000D03*
X165647000Y-72473000D03*
X164797000Y-72473000D03*
X163947000Y-72473000D03*
X163097000Y-72473000D03*
X162247000Y-72473000D03*
X161397000Y-72473000D03*
X160547000Y-72473000D03*
X159697000Y-72473000D03*
X158847000Y-72473000D03*
D18*
X163147000Y-77823000D03*
D19*
X163147000Y-79473000D03*
X163147000Y-81123000D03*
X164797000Y-77823000D03*
X164797000Y-79473000D03*
X164797000Y-81123000D03*
X166447000Y-77823000D03*
X166447000Y-79473000D03*
X166447000Y-81123000D03*
D20*
X157797000Y-72473000D03*
X157797000Y-86473000D03*
X171797000Y-86473000D03*
X171797000Y-72473000D03*
%TD*%
D21*
%TO.C,U4*%
X163577500Y-90390000D03*
X163577500Y-91040000D03*
X163577500Y-91690000D03*
X165352500Y-91690000D03*
X165352500Y-91040000D03*
X165352500Y-90390000D03*
D22*
X164465000Y-91040000D03*
%TD*%
D23*
%TO.C,R8*%
X163830000Y-96416500D03*
X163830000Y-94591500D03*
%TD*%
%TO.C,R1*%
X164084000Y-104417500D03*
X164084000Y-102592500D03*
%TD*%
D15*
%TO.C,R5*%
X171624000Y-97536000D03*
X169799000Y-97536000D03*
%TD*%
D24*
%TO.C,R7*%
X159131000Y-94615000D03*
X159131000Y-96440000D03*
%TD*%
D15*
%TO.C,R4*%
X171624000Y-100330000D03*
X169799000Y-100330000D03*
%TD*%
D25*
%TO.C,reset1*%
X156754000Y-127329000D03*
D26*
X156754000Y-120829000D03*
X161254000Y-127329000D03*
X161254000Y-120829000D03*
%TD*%
D23*
%TO.C,R2*%
X164338000Y-108354500D03*
X164338000Y-106529500D03*
%TD*%
D27*
%TO.C,D2*%
X166279500Y-113665000D03*
X169254500Y-113665000D03*
%TD*%
D28*
%TO.C,J2*%
X161448000Y-131774000D03*
X167228000Y-131774000D03*
D29*
X161138000Y-130432000D03*
X161938000Y-130432000D03*
D30*
X163088000Y-130432000D03*
X164088000Y-130432000D03*
X164588000Y-130432000D03*
X165588000Y-130432000D03*
D29*
X166738000Y-130432000D03*
X167538000Y-130432000D03*
X167538000Y-130432000D03*
X166738000Y-130432000D03*
D30*
X166088000Y-130432000D03*
X165088000Y-130432000D03*
X163588000Y-130432000D03*
X162588000Y-130432000D03*
D29*
X161938000Y-130432000D03*
X161138000Y-130432000D03*
D31*
X160018000Y-131007000D03*
D32*
X160018000Y-135187000D03*
D31*
X168658000Y-131007000D03*
D32*
X168658000Y-135187000D03*
%TD*%
D11*
%TO.C,C5*%
X169231000Y-93980000D03*
X172356000Y-93980000D03*
%TD*%
D33*
%TO.C,U2*%
X157800000Y-91727000D03*
X157800000Y-92677000D03*
X159700000Y-92677000D03*
X159700000Y-91727000D03*
D34*
X158750000Y-92202000D03*
%TD*%
D35*
%TO.C,C4*%
X166497000Y-93920000D03*
X166497000Y-97045000D03*
%TD*%
D36*
%TO.C,C2*%
X167767000Y-109131500D03*
X167767000Y-106006500D03*
%TD*%
D37*
%TO.C,D1*%
X160654000Y-112739000D03*
X157354000Y-112739000D03*
X157354000Y-117639000D03*
X160654000Y-117639000D03*
%TD*%
D36*
%TO.C,C3*%
X167767000Y-103328000D03*
X167767000Y-100203000D03*
%TD*%
D38*
%TO.C,R6*%
X163529000Y-99314000D03*
X165354000Y-99314000D03*
%TD*%
D25*
%TO.C,boot1*%
X168057000Y-126186000D03*
D26*
X168057000Y-119686000D03*
X172557000Y-126186000D03*
X172557000Y-119686000D03*
%TD*%
D39*
%TO.C,J1*%
X153543000Y-77216000D03*
D40*
X153543000Y-79756000D03*
X153543000Y-82296000D03*
X153543000Y-84836000D03*
X153543000Y-87376000D03*
X153543000Y-89916000D03*
X153543000Y-92456000D03*
X153543000Y-94996000D03*
X153543000Y-97536000D03*
X153543000Y-100076000D03*
X153543000Y-102616000D03*
X153543000Y-105156000D03*
X153543000Y-107696000D03*
X153543000Y-110236000D03*
X153543000Y-112776000D03*
X153543000Y-115316000D03*
X153543000Y-117856000D03*
X153543000Y-120396000D03*
X153543000Y-122936000D03*
X153543000Y-125476000D03*
X153543000Y-128016000D03*
X153543000Y-130556000D03*
%TD*%
D39*
%TO.C,J3*%
X175895000Y-77089000D03*
D40*
X175895000Y-79629000D03*
X175895000Y-82169000D03*
X175895000Y-84709000D03*
X175895000Y-87249000D03*
X175895000Y-89789000D03*
X175895000Y-92329000D03*
X175895000Y-94869000D03*
X175895000Y-97409000D03*
X175895000Y-99949000D03*
X175895000Y-102489000D03*
X175895000Y-105029000D03*
X175895000Y-107569000D03*
X175895000Y-110109000D03*
X175895000Y-112649000D03*
X175895000Y-115189000D03*
X175895000Y-117729000D03*
X175895000Y-120269000D03*
X175895000Y-122809000D03*
X175895000Y-125349000D03*
X175895000Y-127889000D03*
X175895000Y-130429000D03*
%TD*%
M02*
