%TF.GenerationSoftware,KiCad,Pcbnew,8.0.3*%
%TF.CreationDate,2024-07-05T15:20:34+05:30*%
%TF.ProjectId,multilayer1,6d756c74-696c-4617-9965-72312e6b6963,rev?*%
%TF.SameCoordinates,Original*%
%TF.FileFunction,Legend,Top*%
%TF.FilePolarity,Positive*%
%FSLAX46Y46*%
G04 Gerber Fmt 4.6, Leading zero omitted, Abs format (unit mm)*
G04 Created by KiCad (PCBNEW 8.0.3) date 2024-07-05 15:20:34*
%MOMM*%
%LPD*%
G01*
G04 APERTURE LIST*
%ADD10C,0.150000*%
%ADD11C,0.120000*%
%ADD12C,0.127000*%
%ADD13C,0.200000*%
G04 APERTURE END LIST*
D10*
X159726333Y-105206580D02*
X159678714Y-105254200D01*
X159678714Y-105254200D02*
X159535857Y-105301819D01*
X159535857Y-105301819D02*
X159440619Y-105301819D01*
X159440619Y-105301819D02*
X159297762Y-105254200D01*
X159297762Y-105254200D02*
X159202524Y-105158961D01*
X159202524Y-105158961D02*
X159154905Y-105063723D01*
X159154905Y-105063723D02*
X159107286Y-104873247D01*
X159107286Y-104873247D02*
X159107286Y-104730390D01*
X159107286Y-104730390D02*
X159154905Y-104539914D01*
X159154905Y-104539914D02*
X159202524Y-104444676D01*
X159202524Y-104444676D02*
X159297762Y-104349438D01*
X159297762Y-104349438D02*
X159440619Y-104301819D01*
X159440619Y-104301819D02*
X159535857Y-104301819D01*
X159535857Y-104301819D02*
X159678714Y-104349438D01*
X159678714Y-104349438D02*
X159726333Y-104397057D01*
X160678714Y-105301819D02*
X160107286Y-105301819D01*
X160393000Y-105301819D02*
X160393000Y-104301819D01*
X160393000Y-104301819D02*
X160297762Y-104444676D01*
X160297762Y-104444676D02*
X160202524Y-104539914D01*
X160202524Y-104539914D02*
X160107286Y-104587533D01*
X159831833Y-101523580D02*
X159784214Y-101571200D01*
X159784214Y-101571200D02*
X159641357Y-101618819D01*
X159641357Y-101618819D02*
X159546119Y-101618819D01*
X159546119Y-101618819D02*
X159403262Y-101571200D01*
X159403262Y-101571200D02*
X159308024Y-101475961D01*
X159308024Y-101475961D02*
X159260405Y-101380723D01*
X159260405Y-101380723D02*
X159212786Y-101190247D01*
X159212786Y-101190247D02*
X159212786Y-101047390D01*
X159212786Y-101047390D02*
X159260405Y-100856914D01*
X159260405Y-100856914D02*
X159308024Y-100761676D01*
X159308024Y-100761676D02*
X159403262Y-100666438D01*
X159403262Y-100666438D02*
X159546119Y-100618819D01*
X159546119Y-100618819D02*
X159641357Y-100618819D01*
X159641357Y-100618819D02*
X159784214Y-100666438D01*
X159784214Y-100666438D02*
X159831833Y-100714057D01*
X160165167Y-100618819D02*
X160831833Y-100618819D01*
X160831833Y-100618819D02*
X160403262Y-101618819D01*
X170648333Y-89060580D02*
X170600714Y-89108200D01*
X170600714Y-89108200D02*
X170457857Y-89155819D01*
X170457857Y-89155819D02*
X170362619Y-89155819D01*
X170362619Y-89155819D02*
X170219762Y-89108200D01*
X170219762Y-89108200D02*
X170124524Y-89012961D01*
X170124524Y-89012961D02*
X170076905Y-88917723D01*
X170076905Y-88917723D02*
X170029286Y-88727247D01*
X170029286Y-88727247D02*
X170029286Y-88584390D01*
X170029286Y-88584390D02*
X170076905Y-88393914D01*
X170076905Y-88393914D02*
X170124524Y-88298676D01*
X170124524Y-88298676D02*
X170219762Y-88203438D01*
X170219762Y-88203438D02*
X170362619Y-88155819D01*
X170362619Y-88155819D02*
X170457857Y-88155819D01*
X170457857Y-88155819D02*
X170600714Y-88203438D01*
X170600714Y-88203438D02*
X170648333Y-88251057D01*
X171505476Y-88155819D02*
X171315000Y-88155819D01*
X171315000Y-88155819D02*
X171219762Y-88203438D01*
X171219762Y-88203438D02*
X171172143Y-88251057D01*
X171172143Y-88251057D02*
X171076905Y-88393914D01*
X171076905Y-88393914D02*
X171029286Y-88584390D01*
X171029286Y-88584390D02*
X171029286Y-88965342D01*
X171029286Y-88965342D02*
X171076905Y-89060580D01*
X171076905Y-89060580D02*
X171124524Y-89108200D01*
X171124524Y-89108200D02*
X171219762Y-89155819D01*
X171219762Y-89155819D02*
X171410238Y-89155819D01*
X171410238Y-89155819D02*
X171505476Y-89108200D01*
X171505476Y-89108200D02*
X171553095Y-89060580D01*
X171553095Y-89060580D02*
X171600714Y-88965342D01*
X171600714Y-88965342D02*
X171600714Y-88727247D01*
X171600714Y-88727247D02*
X171553095Y-88632009D01*
X171553095Y-88632009D02*
X171505476Y-88584390D01*
X171505476Y-88584390D02*
X171410238Y-88536771D01*
X171410238Y-88536771D02*
X171219762Y-88536771D01*
X171219762Y-88536771D02*
X171124524Y-88584390D01*
X171124524Y-88584390D02*
X171076905Y-88632009D01*
X171076905Y-88632009D02*
X171029286Y-88727247D01*
X160855819Y-107448404D02*
X161665342Y-107448404D01*
X161665342Y-107448404D02*
X161760580Y-107400785D01*
X161760580Y-107400785D02*
X161808200Y-107353166D01*
X161808200Y-107353166D02*
X161855819Y-107257928D01*
X161855819Y-107257928D02*
X161855819Y-107067452D01*
X161855819Y-107067452D02*
X161808200Y-106972214D01*
X161808200Y-106972214D02*
X161760580Y-106924595D01*
X161760580Y-106924595D02*
X161665342Y-106876976D01*
X161665342Y-106876976D02*
X160855819Y-106876976D01*
X161855819Y-105876976D02*
X161855819Y-106448404D01*
X161855819Y-106162690D02*
X160855819Y-106162690D01*
X160855819Y-106162690D02*
X160998676Y-106257928D01*
X160998676Y-106257928D02*
X161093914Y-106353166D01*
X161093914Y-106353166D02*
X161141533Y-106448404D01*
X170521333Y-105863819D02*
X170188000Y-105387628D01*
X169949905Y-105863819D02*
X169949905Y-104863819D01*
X169949905Y-104863819D02*
X170330857Y-104863819D01*
X170330857Y-104863819D02*
X170426095Y-104911438D01*
X170426095Y-104911438D02*
X170473714Y-104959057D01*
X170473714Y-104959057D02*
X170521333Y-105054295D01*
X170521333Y-105054295D02*
X170521333Y-105197152D01*
X170521333Y-105197152D02*
X170473714Y-105292390D01*
X170473714Y-105292390D02*
X170426095Y-105340009D01*
X170426095Y-105340009D02*
X170330857Y-105387628D01*
X170330857Y-105387628D02*
X169949905Y-105387628D01*
X170854667Y-104863819D02*
X171473714Y-104863819D01*
X171473714Y-104863819D02*
X171140381Y-105244771D01*
X171140381Y-105244771D02*
X171283238Y-105244771D01*
X171283238Y-105244771D02*
X171378476Y-105292390D01*
X171378476Y-105292390D02*
X171426095Y-105340009D01*
X171426095Y-105340009D02*
X171473714Y-105435247D01*
X171473714Y-105435247D02*
X171473714Y-105673342D01*
X171473714Y-105673342D02*
X171426095Y-105768580D01*
X171426095Y-105768580D02*
X171378476Y-105816200D01*
X171378476Y-105816200D02*
X171283238Y-105863819D01*
X171283238Y-105863819D02*
X170997524Y-105863819D01*
X170997524Y-105863819D02*
X170902286Y-105816200D01*
X170902286Y-105816200D02*
X170854667Y-105768580D01*
X158085095Y-88227819D02*
X158085095Y-89037342D01*
X158085095Y-89037342D02*
X158132714Y-89132580D01*
X158132714Y-89132580D02*
X158180333Y-89180200D01*
X158180333Y-89180200D02*
X158275571Y-89227819D01*
X158275571Y-89227819D02*
X158466047Y-89227819D01*
X158466047Y-89227819D02*
X158561285Y-89180200D01*
X158561285Y-89180200D02*
X158608904Y-89132580D01*
X158608904Y-89132580D02*
X158656523Y-89037342D01*
X158656523Y-89037342D02*
X158656523Y-88227819D01*
X159037476Y-88227819D02*
X159656523Y-88227819D01*
X159656523Y-88227819D02*
X159323190Y-88608771D01*
X159323190Y-88608771D02*
X159466047Y-88608771D01*
X159466047Y-88608771D02*
X159561285Y-88656390D01*
X159561285Y-88656390D02*
X159608904Y-88704009D01*
X159608904Y-88704009D02*
X159656523Y-88799247D01*
X159656523Y-88799247D02*
X159656523Y-89037342D01*
X159656523Y-89037342D02*
X159608904Y-89132580D01*
X159608904Y-89132580D02*
X159561285Y-89180200D01*
X159561285Y-89180200D02*
X159466047Y-89227819D01*
X159466047Y-89227819D02*
X159180333Y-89227819D01*
X159180333Y-89227819D02*
X159085095Y-89180200D01*
X159085095Y-89180200D02*
X159037476Y-89132580D01*
X163703095Y-88544819D02*
X163703095Y-89354342D01*
X163703095Y-89354342D02*
X163750714Y-89449580D01*
X163750714Y-89449580D02*
X163798333Y-89497200D01*
X163798333Y-89497200D02*
X163893571Y-89544819D01*
X163893571Y-89544819D02*
X164084047Y-89544819D01*
X164084047Y-89544819D02*
X164179285Y-89497200D01*
X164179285Y-89497200D02*
X164226904Y-89449580D01*
X164226904Y-89449580D02*
X164274523Y-89354342D01*
X164274523Y-89354342D02*
X164274523Y-88544819D01*
X165179285Y-88878152D02*
X165179285Y-89544819D01*
X164941190Y-88497200D02*
X164703095Y-89211485D01*
X164703095Y-89211485D02*
X165322142Y-89211485D01*
X162634819Y-95670666D02*
X162158628Y-96003999D01*
X162634819Y-96242094D02*
X161634819Y-96242094D01*
X161634819Y-96242094D02*
X161634819Y-95861142D01*
X161634819Y-95861142D02*
X161682438Y-95765904D01*
X161682438Y-95765904D02*
X161730057Y-95718285D01*
X161730057Y-95718285D02*
X161825295Y-95670666D01*
X161825295Y-95670666D02*
X161968152Y-95670666D01*
X161968152Y-95670666D02*
X162063390Y-95718285D01*
X162063390Y-95718285D02*
X162111009Y-95765904D01*
X162111009Y-95765904D02*
X162158628Y-95861142D01*
X162158628Y-95861142D02*
X162158628Y-96242094D01*
X162063390Y-95099237D02*
X162015771Y-95194475D01*
X162015771Y-95194475D02*
X161968152Y-95242094D01*
X161968152Y-95242094D02*
X161872914Y-95289713D01*
X161872914Y-95289713D02*
X161825295Y-95289713D01*
X161825295Y-95289713D02*
X161730057Y-95242094D01*
X161730057Y-95242094D02*
X161682438Y-95194475D01*
X161682438Y-95194475D02*
X161634819Y-95099237D01*
X161634819Y-95099237D02*
X161634819Y-94908761D01*
X161634819Y-94908761D02*
X161682438Y-94813523D01*
X161682438Y-94813523D02*
X161730057Y-94765904D01*
X161730057Y-94765904D02*
X161825295Y-94718285D01*
X161825295Y-94718285D02*
X161872914Y-94718285D01*
X161872914Y-94718285D02*
X161968152Y-94765904D01*
X161968152Y-94765904D02*
X162015771Y-94813523D01*
X162015771Y-94813523D02*
X162063390Y-94908761D01*
X162063390Y-94908761D02*
X162063390Y-95099237D01*
X162063390Y-95099237D02*
X162111009Y-95194475D01*
X162111009Y-95194475D02*
X162158628Y-95242094D01*
X162158628Y-95242094D02*
X162253866Y-95289713D01*
X162253866Y-95289713D02*
X162444342Y-95289713D01*
X162444342Y-95289713D02*
X162539580Y-95242094D01*
X162539580Y-95242094D02*
X162587200Y-95194475D01*
X162587200Y-95194475D02*
X162634819Y-95099237D01*
X162634819Y-95099237D02*
X162634819Y-94908761D01*
X162634819Y-94908761D02*
X162587200Y-94813523D01*
X162587200Y-94813523D02*
X162539580Y-94765904D01*
X162539580Y-94765904D02*
X162444342Y-94718285D01*
X162444342Y-94718285D02*
X162253866Y-94718285D01*
X162253866Y-94718285D02*
X162158628Y-94765904D01*
X162158628Y-94765904D02*
X162111009Y-94813523D01*
X162111009Y-94813523D02*
X162063390Y-94908761D01*
X166443819Y-103671666D02*
X165967628Y-104004999D01*
X166443819Y-104243094D02*
X165443819Y-104243094D01*
X165443819Y-104243094D02*
X165443819Y-103862142D01*
X165443819Y-103862142D02*
X165491438Y-103766904D01*
X165491438Y-103766904D02*
X165539057Y-103719285D01*
X165539057Y-103719285D02*
X165634295Y-103671666D01*
X165634295Y-103671666D02*
X165777152Y-103671666D01*
X165777152Y-103671666D02*
X165872390Y-103719285D01*
X165872390Y-103719285D02*
X165920009Y-103766904D01*
X165920009Y-103766904D02*
X165967628Y-103862142D01*
X165967628Y-103862142D02*
X165967628Y-104243094D01*
X166443819Y-102719285D02*
X166443819Y-103290713D01*
X166443819Y-103004999D02*
X165443819Y-103004999D01*
X165443819Y-103004999D02*
X165586676Y-103100237D01*
X165586676Y-103100237D02*
X165681914Y-103195475D01*
X165681914Y-103195475D02*
X165729533Y-103290713D01*
X170775333Y-96339819D02*
X170442000Y-95863628D01*
X170203905Y-96339819D02*
X170203905Y-95339819D01*
X170203905Y-95339819D02*
X170584857Y-95339819D01*
X170584857Y-95339819D02*
X170680095Y-95387438D01*
X170680095Y-95387438D02*
X170727714Y-95435057D01*
X170727714Y-95435057D02*
X170775333Y-95530295D01*
X170775333Y-95530295D02*
X170775333Y-95673152D01*
X170775333Y-95673152D02*
X170727714Y-95768390D01*
X170727714Y-95768390D02*
X170680095Y-95816009D01*
X170680095Y-95816009D02*
X170584857Y-95863628D01*
X170584857Y-95863628D02*
X170203905Y-95863628D01*
X171680095Y-95339819D02*
X171203905Y-95339819D01*
X171203905Y-95339819D02*
X171156286Y-95816009D01*
X171156286Y-95816009D02*
X171203905Y-95768390D01*
X171203905Y-95768390D02*
X171299143Y-95720771D01*
X171299143Y-95720771D02*
X171537238Y-95720771D01*
X171537238Y-95720771D02*
X171632476Y-95768390D01*
X171632476Y-95768390D02*
X171680095Y-95816009D01*
X171680095Y-95816009D02*
X171727714Y-95911247D01*
X171727714Y-95911247D02*
X171727714Y-96149342D01*
X171727714Y-96149342D02*
X171680095Y-96244580D01*
X171680095Y-96244580D02*
X171632476Y-96292200D01*
X171632476Y-96292200D02*
X171537238Y-96339819D01*
X171537238Y-96339819D02*
X171299143Y-96339819D01*
X171299143Y-96339819D02*
X171203905Y-96292200D01*
X171203905Y-96292200D02*
X171156286Y-96244580D01*
X161235819Y-95694166D02*
X160759628Y-96027499D01*
X161235819Y-96265594D02*
X160235819Y-96265594D01*
X160235819Y-96265594D02*
X160235819Y-95884642D01*
X160235819Y-95884642D02*
X160283438Y-95789404D01*
X160283438Y-95789404D02*
X160331057Y-95741785D01*
X160331057Y-95741785D02*
X160426295Y-95694166D01*
X160426295Y-95694166D02*
X160569152Y-95694166D01*
X160569152Y-95694166D02*
X160664390Y-95741785D01*
X160664390Y-95741785D02*
X160712009Y-95789404D01*
X160712009Y-95789404D02*
X160759628Y-95884642D01*
X160759628Y-95884642D02*
X160759628Y-96265594D01*
X160235819Y-95360832D02*
X160235819Y-94694166D01*
X160235819Y-94694166D02*
X161235819Y-95122737D01*
X170544833Y-102434819D02*
X170211500Y-101958628D01*
X169973405Y-102434819D02*
X169973405Y-101434819D01*
X169973405Y-101434819D02*
X170354357Y-101434819D01*
X170354357Y-101434819D02*
X170449595Y-101482438D01*
X170449595Y-101482438D02*
X170497214Y-101530057D01*
X170497214Y-101530057D02*
X170544833Y-101625295D01*
X170544833Y-101625295D02*
X170544833Y-101768152D01*
X170544833Y-101768152D02*
X170497214Y-101863390D01*
X170497214Y-101863390D02*
X170449595Y-101911009D01*
X170449595Y-101911009D02*
X170354357Y-101958628D01*
X170354357Y-101958628D02*
X169973405Y-101958628D01*
X171401976Y-101768152D02*
X171401976Y-102434819D01*
X171163881Y-101387200D02*
X170925786Y-102101485D01*
X170925786Y-102101485D02*
X171544833Y-102101485D01*
X163649819Y-126047238D02*
X162983152Y-126047238D01*
X163173628Y-126047238D02*
X163078390Y-125999619D01*
X163078390Y-125999619D02*
X163030771Y-125952000D01*
X163030771Y-125952000D02*
X162983152Y-125856762D01*
X162983152Y-125856762D02*
X162983152Y-125761524D01*
X163602200Y-125047238D02*
X163649819Y-125142476D01*
X163649819Y-125142476D02*
X163649819Y-125332952D01*
X163649819Y-125332952D02*
X163602200Y-125428190D01*
X163602200Y-125428190D02*
X163506961Y-125475809D01*
X163506961Y-125475809D02*
X163126009Y-125475809D01*
X163126009Y-125475809D02*
X163030771Y-125428190D01*
X163030771Y-125428190D02*
X162983152Y-125332952D01*
X162983152Y-125332952D02*
X162983152Y-125142476D01*
X162983152Y-125142476D02*
X163030771Y-125047238D01*
X163030771Y-125047238D02*
X163126009Y-124999619D01*
X163126009Y-124999619D02*
X163221247Y-124999619D01*
X163221247Y-124999619D02*
X163316485Y-125475809D01*
X163602200Y-124618666D02*
X163649819Y-124523428D01*
X163649819Y-124523428D02*
X163649819Y-124332952D01*
X163649819Y-124332952D02*
X163602200Y-124237714D01*
X163602200Y-124237714D02*
X163506961Y-124190095D01*
X163506961Y-124190095D02*
X163459342Y-124190095D01*
X163459342Y-124190095D02*
X163364104Y-124237714D01*
X163364104Y-124237714D02*
X163316485Y-124332952D01*
X163316485Y-124332952D02*
X163316485Y-124475809D01*
X163316485Y-124475809D02*
X163268866Y-124571047D01*
X163268866Y-124571047D02*
X163173628Y-124618666D01*
X163173628Y-124618666D02*
X163126009Y-124618666D01*
X163126009Y-124618666D02*
X163030771Y-124571047D01*
X163030771Y-124571047D02*
X162983152Y-124475809D01*
X162983152Y-124475809D02*
X162983152Y-124332952D01*
X162983152Y-124332952D02*
X163030771Y-124237714D01*
X163602200Y-123380571D02*
X163649819Y-123475809D01*
X163649819Y-123475809D02*
X163649819Y-123666285D01*
X163649819Y-123666285D02*
X163602200Y-123761523D01*
X163602200Y-123761523D02*
X163506961Y-123809142D01*
X163506961Y-123809142D02*
X163126009Y-123809142D01*
X163126009Y-123809142D02*
X163030771Y-123761523D01*
X163030771Y-123761523D02*
X162983152Y-123666285D01*
X162983152Y-123666285D02*
X162983152Y-123475809D01*
X162983152Y-123475809D02*
X163030771Y-123380571D01*
X163030771Y-123380571D02*
X163126009Y-123332952D01*
X163126009Y-123332952D02*
X163221247Y-123332952D01*
X163221247Y-123332952D02*
X163316485Y-123809142D01*
X162983152Y-123047237D02*
X162983152Y-122666285D01*
X162649819Y-122904380D02*
X163506961Y-122904380D01*
X163506961Y-122904380D02*
X163602200Y-122856761D01*
X163602200Y-122856761D02*
X163649819Y-122761523D01*
X163649819Y-122761523D02*
X163649819Y-122666285D01*
X163649819Y-121809142D02*
X163649819Y-122380570D01*
X163649819Y-122094856D02*
X162649819Y-122094856D01*
X162649819Y-122094856D02*
X162792676Y-122190094D01*
X162792676Y-122190094D02*
X162887914Y-122285332D01*
X162887914Y-122285332D02*
X162935533Y-122380570D01*
X163142819Y-107608666D02*
X162666628Y-107941999D01*
X163142819Y-108180094D02*
X162142819Y-108180094D01*
X162142819Y-108180094D02*
X162142819Y-107799142D01*
X162142819Y-107799142D02*
X162190438Y-107703904D01*
X162190438Y-107703904D02*
X162238057Y-107656285D01*
X162238057Y-107656285D02*
X162333295Y-107608666D01*
X162333295Y-107608666D02*
X162476152Y-107608666D01*
X162476152Y-107608666D02*
X162571390Y-107656285D01*
X162571390Y-107656285D02*
X162619009Y-107703904D01*
X162619009Y-107703904D02*
X162666628Y-107799142D01*
X162666628Y-107799142D02*
X162666628Y-108180094D01*
X162238057Y-107227713D02*
X162190438Y-107180094D01*
X162190438Y-107180094D02*
X162142819Y-107084856D01*
X162142819Y-107084856D02*
X162142819Y-106846761D01*
X162142819Y-106846761D02*
X162190438Y-106751523D01*
X162190438Y-106751523D02*
X162238057Y-106703904D01*
X162238057Y-106703904D02*
X162333295Y-106656285D01*
X162333295Y-106656285D02*
X162428533Y-106656285D01*
X162428533Y-106656285D02*
X162571390Y-106703904D01*
X162571390Y-106703904D02*
X163142819Y-107275332D01*
X163142819Y-107275332D02*
X163142819Y-106656285D01*
X167028905Y-111839819D02*
X167028905Y-110839819D01*
X167028905Y-110839819D02*
X167267000Y-110839819D01*
X167267000Y-110839819D02*
X167409857Y-110887438D01*
X167409857Y-110887438D02*
X167505095Y-110982676D01*
X167505095Y-110982676D02*
X167552714Y-111077914D01*
X167552714Y-111077914D02*
X167600333Y-111268390D01*
X167600333Y-111268390D02*
X167600333Y-111411247D01*
X167600333Y-111411247D02*
X167552714Y-111601723D01*
X167552714Y-111601723D02*
X167505095Y-111696961D01*
X167505095Y-111696961D02*
X167409857Y-111792200D01*
X167409857Y-111792200D02*
X167267000Y-111839819D01*
X167267000Y-111839819D02*
X167028905Y-111839819D01*
X167981286Y-110935057D02*
X168028905Y-110887438D01*
X168028905Y-110887438D02*
X168124143Y-110839819D01*
X168124143Y-110839819D02*
X168362238Y-110839819D01*
X168362238Y-110839819D02*
X168457476Y-110887438D01*
X168457476Y-110887438D02*
X168505095Y-110935057D01*
X168505095Y-110935057D02*
X168552714Y-111030295D01*
X168552714Y-111030295D02*
X168552714Y-111125533D01*
X168552714Y-111125533D02*
X168505095Y-111268390D01*
X168505095Y-111268390D02*
X167933667Y-111839819D01*
X167933667Y-111839819D02*
X168552714Y-111839819D01*
X164004666Y-128066819D02*
X164004666Y-128781104D01*
X164004666Y-128781104D02*
X163957047Y-128923961D01*
X163957047Y-128923961D02*
X163861809Y-129019200D01*
X163861809Y-129019200D02*
X163718952Y-129066819D01*
X163718952Y-129066819D02*
X163623714Y-129066819D01*
X164433238Y-128162057D02*
X164480857Y-128114438D01*
X164480857Y-128114438D02*
X164576095Y-128066819D01*
X164576095Y-128066819D02*
X164814190Y-128066819D01*
X164814190Y-128066819D02*
X164909428Y-128114438D01*
X164909428Y-128114438D02*
X164957047Y-128162057D01*
X164957047Y-128162057D02*
X165004666Y-128257295D01*
X165004666Y-128257295D02*
X165004666Y-128352533D01*
X165004666Y-128352533D02*
X164957047Y-128495390D01*
X164957047Y-128495390D02*
X164385619Y-129066819D01*
X164385619Y-129066819D02*
X165004666Y-129066819D01*
X170626833Y-92489580D02*
X170579214Y-92537200D01*
X170579214Y-92537200D02*
X170436357Y-92584819D01*
X170436357Y-92584819D02*
X170341119Y-92584819D01*
X170341119Y-92584819D02*
X170198262Y-92537200D01*
X170198262Y-92537200D02*
X170103024Y-92441961D01*
X170103024Y-92441961D02*
X170055405Y-92346723D01*
X170055405Y-92346723D02*
X170007786Y-92156247D01*
X170007786Y-92156247D02*
X170007786Y-92013390D01*
X170007786Y-92013390D02*
X170055405Y-91822914D01*
X170055405Y-91822914D02*
X170103024Y-91727676D01*
X170103024Y-91727676D02*
X170198262Y-91632438D01*
X170198262Y-91632438D02*
X170341119Y-91584819D01*
X170341119Y-91584819D02*
X170436357Y-91584819D01*
X170436357Y-91584819D02*
X170579214Y-91632438D01*
X170579214Y-91632438D02*
X170626833Y-91680057D01*
X171531595Y-91584819D02*
X171055405Y-91584819D01*
X171055405Y-91584819D02*
X171007786Y-92061009D01*
X171007786Y-92061009D02*
X171055405Y-92013390D01*
X171055405Y-92013390D02*
X171150643Y-91965771D01*
X171150643Y-91965771D02*
X171388738Y-91965771D01*
X171388738Y-91965771D02*
X171483976Y-92013390D01*
X171483976Y-92013390D02*
X171531595Y-92061009D01*
X171531595Y-92061009D02*
X171579214Y-92156247D01*
X171579214Y-92156247D02*
X171579214Y-92394342D01*
X171579214Y-92394342D02*
X171531595Y-92489580D01*
X171531595Y-92489580D02*
X171483976Y-92537200D01*
X171483976Y-92537200D02*
X171388738Y-92584819D01*
X171388738Y-92584819D02*
X171150643Y-92584819D01*
X171150643Y-92584819D02*
X171055405Y-92537200D01*
X171055405Y-92537200D02*
X171007786Y-92489580D01*
X157988095Y-89656819D02*
X157988095Y-90466342D01*
X157988095Y-90466342D02*
X158035714Y-90561580D01*
X158035714Y-90561580D02*
X158083333Y-90609200D01*
X158083333Y-90609200D02*
X158178571Y-90656819D01*
X158178571Y-90656819D02*
X158369047Y-90656819D01*
X158369047Y-90656819D02*
X158464285Y-90609200D01*
X158464285Y-90609200D02*
X158511904Y-90561580D01*
X158511904Y-90561580D02*
X158559523Y-90466342D01*
X158559523Y-90466342D02*
X158559523Y-89656819D01*
X158988095Y-89752057D02*
X159035714Y-89704438D01*
X159035714Y-89704438D02*
X159130952Y-89656819D01*
X159130952Y-89656819D02*
X159369047Y-89656819D01*
X159369047Y-89656819D02*
X159464285Y-89704438D01*
X159464285Y-89704438D02*
X159511904Y-89752057D01*
X159511904Y-89752057D02*
X159559523Y-89847295D01*
X159559523Y-89847295D02*
X159559523Y-89942533D01*
X159559523Y-89942533D02*
X159511904Y-90085390D01*
X159511904Y-90085390D02*
X158940476Y-90656819D01*
X158940476Y-90656819D02*
X159559523Y-90656819D01*
X168706580Y-95649166D02*
X168754200Y-95696785D01*
X168754200Y-95696785D02*
X168801819Y-95839642D01*
X168801819Y-95839642D02*
X168801819Y-95934880D01*
X168801819Y-95934880D02*
X168754200Y-96077737D01*
X168754200Y-96077737D02*
X168658961Y-96172975D01*
X168658961Y-96172975D02*
X168563723Y-96220594D01*
X168563723Y-96220594D02*
X168373247Y-96268213D01*
X168373247Y-96268213D02*
X168230390Y-96268213D01*
X168230390Y-96268213D02*
X168039914Y-96220594D01*
X168039914Y-96220594D02*
X167944676Y-96172975D01*
X167944676Y-96172975D02*
X167849438Y-96077737D01*
X167849438Y-96077737D02*
X167801819Y-95934880D01*
X167801819Y-95934880D02*
X167801819Y-95839642D01*
X167801819Y-95839642D02*
X167849438Y-95696785D01*
X167849438Y-95696785D02*
X167897057Y-95649166D01*
X168135152Y-94792023D02*
X168801819Y-94792023D01*
X167754200Y-95030118D02*
X168468485Y-95268213D01*
X168468485Y-95268213D02*
X168468485Y-94649166D01*
X166276580Y-107735666D02*
X166324200Y-107783285D01*
X166324200Y-107783285D02*
X166371819Y-107926142D01*
X166371819Y-107926142D02*
X166371819Y-108021380D01*
X166371819Y-108021380D02*
X166324200Y-108164237D01*
X166324200Y-108164237D02*
X166228961Y-108259475D01*
X166228961Y-108259475D02*
X166133723Y-108307094D01*
X166133723Y-108307094D02*
X165943247Y-108354713D01*
X165943247Y-108354713D02*
X165800390Y-108354713D01*
X165800390Y-108354713D02*
X165609914Y-108307094D01*
X165609914Y-108307094D02*
X165514676Y-108259475D01*
X165514676Y-108259475D02*
X165419438Y-108164237D01*
X165419438Y-108164237D02*
X165371819Y-108021380D01*
X165371819Y-108021380D02*
X165371819Y-107926142D01*
X165371819Y-107926142D02*
X165419438Y-107783285D01*
X165419438Y-107783285D02*
X165467057Y-107735666D01*
X165467057Y-107354713D02*
X165419438Y-107307094D01*
X165419438Y-107307094D02*
X165371819Y-107211856D01*
X165371819Y-107211856D02*
X165371819Y-106973761D01*
X165371819Y-106973761D02*
X165419438Y-106878523D01*
X165419438Y-106878523D02*
X165467057Y-106830904D01*
X165467057Y-106830904D02*
X165562295Y-106783285D01*
X165562295Y-106783285D02*
X165657533Y-106783285D01*
X165657533Y-106783285D02*
X165800390Y-106830904D01*
X165800390Y-106830904D02*
X166371819Y-107402332D01*
X166371819Y-107402332D02*
X166371819Y-106783285D01*
X162958819Y-115927094D02*
X161958819Y-115927094D01*
X161958819Y-115927094D02*
X161958819Y-115688999D01*
X161958819Y-115688999D02*
X162006438Y-115546142D01*
X162006438Y-115546142D02*
X162101676Y-115450904D01*
X162101676Y-115450904D02*
X162196914Y-115403285D01*
X162196914Y-115403285D02*
X162387390Y-115355666D01*
X162387390Y-115355666D02*
X162530247Y-115355666D01*
X162530247Y-115355666D02*
X162720723Y-115403285D01*
X162720723Y-115403285D02*
X162815961Y-115450904D01*
X162815961Y-115450904D02*
X162911200Y-115546142D01*
X162911200Y-115546142D02*
X162958819Y-115688999D01*
X162958819Y-115688999D02*
X162958819Y-115927094D01*
X162958819Y-114403285D02*
X162958819Y-114974713D01*
X162958819Y-114688999D02*
X161958819Y-114688999D01*
X161958819Y-114688999D02*
X162101676Y-114784237D01*
X162101676Y-114784237D02*
X162196914Y-114879475D01*
X162196914Y-114879475D02*
X162244533Y-114974713D01*
X161058819Y-110753285D02*
X161058819Y-111324713D01*
X161058819Y-111038999D02*
X160058819Y-111038999D01*
X160058819Y-111038999D02*
X160201676Y-111134237D01*
X160201676Y-111134237D02*
X160296914Y-111229475D01*
X160296914Y-111229475D02*
X160344533Y-111324713D01*
X166276580Y-101932166D02*
X166324200Y-101979785D01*
X166324200Y-101979785D02*
X166371819Y-102122642D01*
X166371819Y-102122642D02*
X166371819Y-102217880D01*
X166371819Y-102217880D02*
X166324200Y-102360737D01*
X166324200Y-102360737D02*
X166228961Y-102455975D01*
X166228961Y-102455975D02*
X166133723Y-102503594D01*
X166133723Y-102503594D02*
X165943247Y-102551213D01*
X165943247Y-102551213D02*
X165800390Y-102551213D01*
X165800390Y-102551213D02*
X165609914Y-102503594D01*
X165609914Y-102503594D02*
X165514676Y-102455975D01*
X165514676Y-102455975D02*
X165419438Y-102360737D01*
X165419438Y-102360737D02*
X165371819Y-102217880D01*
X165371819Y-102217880D02*
X165371819Y-102122642D01*
X165371819Y-102122642D02*
X165419438Y-101979785D01*
X165419438Y-101979785D02*
X165467057Y-101932166D01*
X165371819Y-101598832D02*
X165371819Y-100979785D01*
X165371819Y-100979785D02*
X165752771Y-101313118D01*
X165752771Y-101313118D02*
X165752771Y-101170261D01*
X165752771Y-101170261D02*
X165800390Y-101075023D01*
X165800390Y-101075023D02*
X165848009Y-101027404D01*
X165848009Y-101027404D02*
X165943247Y-100979785D01*
X165943247Y-100979785D02*
X166181342Y-100979785D01*
X166181342Y-100979785D02*
X166276580Y-101027404D01*
X166276580Y-101027404D02*
X166324200Y-101075023D01*
X166324200Y-101075023D02*
X166371819Y-101170261D01*
X166371819Y-101170261D02*
X166371819Y-101455975D01*
X166371819Y-101455975D02*
X166324200Y-101551213D01*
X166324200Y-101551213D02*
X166276580Y-101598832D01*
X164171333Y-101419819D02*
X163838000Y-100943628D01*
X163599905Y-101419819D02*
X163599905Y-100419819D01*
X163599905Y-100419819D02*
X163980857Y-100419819D01*
X163980857Y-100419819D02*
X164076095Y-100467438D01*
X164076095Y-100467438D02*
X164123714Y-100515057D01*
X164123714Y-100515057D02*
X164171333Y-100610295D01*
X164171333Y-100610295D02*
X164171333Y-100753152D01*
X164171333Y-100753152D02*
X164123714Y-100848390D01*
X164123714Y-100848390D02*
X164076095Y-100896009D01*
X164076095Y-100896009D02*
X163980857Y-100943628D01*
X163980857Y-100943628D02*
X163599905Y-100943628D01*
X165028476Y-100419819D02*
X164838000Y-100419819D01*
X164838000Y-100419819D02*
X164742762Y-100467438D01*
X164742762Y-100467438D02*
X164695143Y-100515057D01*
X164695143Y-100515057D02*
X164599905Y-100657914D01*
X164599905Y-100657914D02*
X164552286Y-100848390D01*
X164552286Y-100848390D02*
X164552286Y-101229342D01*
X164552286Y-101229342D02*
X164599905Y-101324580D01*
X164599905Y-101324580D02*
X164647524Y-101372200D01*
X164647524Y-101372200D02*
X164742762Y-101419819D01*
X164742762Y-101419819D02*
X164933238Y-101419819D01*
X164933238Y-101419819D02*
X165028476Y-101372200D01*
X165028476Y-101372200D02*
X165076095Y-101324580D01*
X165076095Y-101324580D02*
X165123714Y-101229342D01*
X165123714Y-101229342D02*
X165123714Y-100991247D01*
X165123714Y-100991247D02*
X165076095Y-100896009D01*
X165076095Y-100896009D02*
X165028476Y-100848390D01*
X165028476Y-100848390D02*
X164933238Y-100800771D01*
X164933238Y-100800771D02*
X164742762Y-100800771D01*
X164742762Y-100800771D02*
X164647524Y-100848390D01*
X164647524Y-100848390D02*
X164599905Y-100896009D01*
X164599905Y-100896009D02*
X164552286Y-100991247D01*
X165872819Y-125895952D02*
X164872819Y-125895952D01*
X165253771Y-125895952D02*
X165206152Y-125800714D01*
X165206152Y-125800714D02*
X165206152Y-125610238D01*
X165206152Y-125610238D02*
X165253771Y-125515000D01*
X165253771Y-125515000D02*
X165301390Y-125467381D01*
X165301390Y-125467381D02*
X165396628Y-125419762D01*
X165396628Y-125419762D02*
X165682342Y-125419762D01*
X165682342Y-125419762D02*
X165777580Y-125467381D01*
X165777580Y-125467381D02*
X165825200Y-125515000D01*
X165825200Y-125515000D02*
X165872819Y-125610238D01*
X165872819Y-125610238D02*
X165872819Y-125800714D01*
X165872819Y-125800714D02*
X165825200Y-125895952D01*
X165872819Y-124848333D02*
X165825200Y-124943571D01*
X165825200Y-124943571D02*
X165777580Y-124991190D01*
X165777580Y-124991190D02*
X165682342Y-125038809D01*
X165682342Y-125038809D02*
X165396628Y-125038809D01*
X165396628Y-125038809D02*
X165301390Y-124991190D01*
X165301390Y-124991190D02*
X165253771Y-124943571D01*
X165253771Y-124943571D02*
X165206152Y-124848333D01*
X165206152Y-124848333D02*
X165206152Y-124705476D01*
X165206152Y-124705476D02*
X165253771Y-124610238D01*
X165253771Y-124610238D02*
X165301390Y-124562619D01*
X165301390Y-124562619D02*
X165396628Y-124515000D01*
X165396628Y-124515000D02*
X165682342Y-124515000D01*
X165682342Y-124515000D02*
X165777580Y-124562619D01*
X165777580Y-124562619D02*
X165825200Y-124610238D01*
X165825200Y-124610238D02*
X165872819Y-124705476D01*
X165872819Y-124705476D02*
X165872819Y-124848333D01*
X165872819Y-123943571D02*
X165825200Y-124038809D01*
X165825200Y-124038809D02*
X165777580Y-124086428D01*
X165777580Y-124086428D02*
X165682342Y-124134047D01*
X165682342Y-124134047D02*
X165396628Y-124134047D01*
X165396628Y-124134047D02*
X165301390Y-124086428D01*
X165301390Y-124086428D02*
X165253771Y-124038809D01*
X165253771Y-124038809D02*
X165206152Y-123943571D01*
X165206152Y-123943571D02*
X165206152Y-123800714D01*
X165206152Y-123800714D02*
X165253771Y-123705476D01*
X165253771Y-123705476D02*
X165301390Y-123657857D01*
X165301390Y-123657857D02*
X165396628Y-123610238D01*
X165396628Y-123610238D02*
X165682342Y-123610238D01*
X165682342Y-123610238D02*
X165777580Y-123657857D01*
X165777580Y-123657857D02*
X165825200Y-123705476D01*
X165825200Y-123705476D02*
X165872819Y-123800714D01*
X165872819Y-123800714D02*
X165872819Y-123943571D01*
X165206152Y-123324523D02*
X165206152Y-122943571D01*
X164872819Y-123181666D02*
X165729961Y-123181666D01*
X165729961Y-123181666D02*
X165825200Y-123134047D01*
X165825200Y-123134047D02*
X165872819Y-123038809D01*
X165872819Y-123038809D02*
X165872819Y-122943571D01*
X165872819Y-122086428D02*
X165872819Y-122657856D01*
X165872819Y-122372142D02*
X164872819Y-122372142D01*
X164872819Y-122372142D02*
X165015676Y-122467380D01*
X165015676Y-122467380D02*
X165110914Y-122562618D01*
X165110914Y-122562618D02*
X165158533Y-122657856D01*
D11*
%TO.C,C1*%
X160604252Y-102087000D02*
X159181748Y-102087000D01*
X160604252Y-103907000D02*
X159181748Y-103907000D01*
%TO.C,C7*%
X160709752Y-98404000D02*
X159287248Y-98404000D01*
X160709752Y-100224000D02*
X159287248Y-100224000D01*
%TO.C,C6*%
X170103748Y-89641000D02*
X171526252Y-89641000D01*
X170103748Y-91461000D02*
X171526252Y-91461000D01*
%TO.C,U1*%
X157501000Y-107186500D02*
X157501000Y-106186500D01*
X160221000Y-107186500D02*
X160221000Y-106186500D01*
X160451000Y-105796500D02*
X160171000Y-105796500D01*
X160171000Y-105516500D01*
X160451000Y-105796500D01*
G36*
X160451000Y-105796500D02*
G01*
X160171000Y-105796500D01*
X160171000Y-105516500D01*
X160451000Y-105796500D01*
G37*
%TO.C,R3*%
X170915064Y-103024000D02*
X170460936Y-103024000D01*
X170915064Y-104494000D02*
X170460936Y-104494000D01*
%TO.C,U3*%
X156997000Y-71673000D02*
X172597000Y-71673000D01*
X156997000Y-87273000D02*
X156997000Y-71673000D01*
X172597000Y-71673000D02*
X172597000Y-87273000D01*
X172597000Y-87273000D02*
X156997000Y-87273000D01*
X156822000Y-73523000D02*
X156486000Y-73763000D01*
X156486000Y-73283000D01*
X156822000Y-73523000D01*
G36*
X156822000Y-73523000D02*
G01*
X156486000Y-73763000D01*
X156486000Y-73283000D01*
X156822000Y-73523000D01*
G37*
%TO.C,U4*%
X163465000Y-89930000D02*
X165465000Y-89930000D01*
X163465000Y-92150000D02*
X165465000Y-92150000D01*
X163225000Y-90030000D02*
X162945000Y-90030000D01*
X163225000Y-89750000D01*
X163225000Y-90030000D01*
G36*
X163225000Y-90030000D02*
G01*
X162945000Y-90030000D01*
X163225000Y-89750000D01*
X163225000Y-90030000D01*
G37*
%TO.C,R8*%
X163095000Y-95731064D02*
X163095000Y-95276936D01*
X164565000Y-95731064D02*
X164565000Y-95276936D01*
%TO.C,R1*%
X163349000Y-103732064D02*
X163349000Y-103277936D01*
X164819000Y-103732064D02*
X164819000Y-103277936D01*
%TO.C,R5*%
X170938564Y-96801000D02*
X170484436Y-96801000D01*
X170938564Y-98271000D02*
X170484436Y-98271000D01*
%TO.C,R7*%
X158396000Y-95300436D02*
X158396000Y-95754564D01*
X159866000Y-95300436D02*
X159866000Y-95754564D01*
%TO.C,R4*%
X170938564Y-99595000D02*
X170484436Y-99595000D01*
X170938564Y-101065000D02*
X170484436Y-101065000D01*
D12*
%TO.C,reset1*%
X156004000Y-126255000D02*
X156004000Y-121903000D01*
X157828000Y-121079000D02*
X160180000Y-121079000D01*
X157828000Y-127079000D02*
X160180000Y-127079000D01*
X162004000Y-126255000D02*
X162004000Y-121903000D01*
D13*
X155100000Y-127329000D02*
G75*
G02*
X154900000Y-127329000I-100000J0D01*
G01*
X154900000Y-127329000D02*
G75*
G02*
X155100000Y-127329000I100000J0D01*
G01*
D11*
%TO.C,R2*%
X163603000Y-107669064D02*
X163603000Y-107214936D01*
X165073000Y-107669064D02*
X165073000Y-107214936D01*
%TO.C,D2*%
X165307000Y-112080000D02*
X165307000Y-115250000D01*
X165307000Y-115250000D02*
X169367000Y-115250000D01*
X169367000Y-112080000D02*
X165307000Y-112080000D01*
%TO.C,J2*%
X159668000Y-134012000D02*
X159668000Y-132312000D01*
X169008000Y-134012000D02*
X169008000Y-132312000D01*
%TO.C,C5*%
X170082248Y-93070000D02*
X171504752Y-93070000D01*
X170082248Y-94890000D02*
X171504752Y-94890000D01*
%TO.C,U2*%
X157750000Y-93312000D02*
X159750000Y-93312000D01*
X159750000Y-91092000D02*
X157750000Y-91092000D01*
X157310000Y-91342000D02*
X157030000Y-91342000D01*
X157310000Y-91062000D01*
X157310000Y-91342000D01*
G36*
X157310000Y-91342000D02*
G01*
X157030000Y-91342000D01*
X157310000Y-91062000D01*
X157310000Y-91342000D01*
G37*
%TO.C,C4*%
X165587000Y-94771248D02*
X165587000Y-96193752D01*
X167407000Y-94771248D02*
X167407000Y-96193752D01*
%TO.C,C2*%
X166857000Y-108280252D02*
X166857000Y-106857748D01*
X168677000Y-108280252D02*
X168677000Y-106857748D01*
%TO.C,D1*%
X156254000Y-111539000D02*
X156254000Y-118839000D01*
X156254000Y-118839000D02*
X157404000Y-118839000D01*
X161754000Y-111539000D02*
X161754000Y-118839000D01*
%TO.C,C3*%
X166857000Y-102476752D02*
X166857000Y-101054248D01*
X168677000Y-102476752D02*
X168677000Y-101054248D01*
%TO.C,R6*%
X164214436Y-98579000D02*
X164668564Y-98579000D01*
X164214436Y-100049000D02*
X164668564Y-100049000D01*
D12*
%TO.C,boot1*%
X167307000Y-125112000D02*
X167307000Y-120760000D01*
X169131000Y-119936000D02*
X171483000Y-119936000D01*
X169131000Y-125936000D02*
X171483000Y-125936000D01*
X173307000Y-125112000D02*
X173307000Y-120760000D01*
D13*
X166403000Y-126186000D02*
G75*
G02*
X166203000Y-126186000I-100000J0D01*
G01*
X166203000Y-126186000D02*
G75*
G02*
X166403000Y-126186000I100000J0D01*
G01*
%TD*%
M02*
